# Vía Expresa Elevada — proyecto de EPT
# 1 unidad = 1 metro · el terreno mide 96 x 50 m

v -48.000 -1.200 -25.000
v 48.000 -1.200 -25.000
v 48.000 -1.200 25.000
v -48.000 -1.200 25.000
v -48.000 0.000 -25.000
v 48.000 0.000 -25.000
v 48.000 0.000 25.000
v -48.000 0.000 25.000
v -48.000 0.000 -25.000
v 48.000 0.000 -25.000
v 48.000 0.000 25.000
v -48.000 0.000 25.000
v -48.000 0.150 -25.000
v 48.000 0.150 -25.000
v 48.000 0.150 25.000
v -48.000 0.150 25.000
v -48.000 0.000 -25.000
v 48.000 0.000 -25.000
v 48.000 0.000 -22.000
v -48.000 0.000 -22.000
v -48.000 0.150 -25.000
v 48.000 0.150 -25.000
v 48.000 0.150 -22.000
v -48.000 0.150 -22.000
v -48.000 0.000 -22.000
v 48.000 0.000 -22.000
v 48.000 0.000 -19.500
v -48.000 0.000 -19.500
v -48.000 0.150 -22.000
v 48.000 0.150 -22.000
v 48.000 0.150 -19.500
v -48.000 0.150 -19.500
v -48.000 0.000 -17.500
v 48.000 0.000 -17.500
v 48.000 0.000 -7.500
v -48.000 0.000 -7.500
v -48.000 0.150 -17.500
v 48.000 0.150 -17.500
v 48.000 0.150 -7.500
v -48.000 0.150 -7.500
v -48.000 0.140 -7.500
v 48.000 0.140 -7.500
v 48.000 0.140 7.500
v -48.000 0.140 7.500
v -48.000 0.160 -7.500
v 48.000 0.160 -7.500
v 48.000 0.160 7.500
v -48.000 0.160 7.500
v -48.000 0.000 7.500
v 48.000 0.000 7.500
v 48.000 0.000 11.000
v -48.000 0.000 11.000
v -48.000 0.150 7.500
v 48.000 0.150 7.500
v 48.000 0.150 11.000
v -48.000 0.150 11.000
v -48.000 0.000 14.500
v 48.000 0.000 14.500
v 48.000 0.000 18.000
v -48.000 0.000 18.000
v -48.000 0.150 14.500
v 48.000 0.150 14.500
v 48.000 0.150 18.000
v -48.000 0.150 18.000
v -48.000 0.000 21.000
v 48.000 0.000 21.000
v 48.000 0.000 25.000
v -48.000 0.000 25.000
v -48.000 0.150 21.000
v 48.000 0.150 21.000
v 48.000 0.150 25.000
v -48.000 0.150 25.000
v -45.000 0.150 -14.300
v -41.000 0.150 -14.300
v -41.000 0.150 -14.100
v -45.000 0.150 -14.100
v -45.000 0.170 -14.300
v -41.000 0.170 -14.300
v -41.000 0.170 -14.100
v -45.000 0.170 -14.100
v -36.000 0.150 -14.300
v -32.000 0.150 -14.300
v -32.000 0.150 -14.100
v -36.000 0.150 -14.100
v -36.000 0.170 -14.300
v -32.000 0.170 -14.300
v -32.000 0.170 -14.100
v -36.000 0.170 -14.100
v -27.000 0.150 -14.300
v -23.000 0.150 -14.300
v -23.000 0.150 -14.100
v -27.000 0.150 -14.100
v -27.000 0.170 -14.300
v -23.000 0.170 -14.300
v -23.000 0.170 -14.100
v -27.000 0.170 -14.100
v -18.000 0.150 -14.300
v -14.000 0.150 -14.300
v -14.000 0.150 -14.100
v -18.000 0.150 -14.100
v -18.000 0.170 -14.300
v -14.000 0.170 -14.300
v -14.000 0.170 -14.100
v -18.000 0.170 -14.100
v -9.000 0.150 -14.300
v -5.000 0.150 -14.300
v -5.000 0.150 -14.100
v -9.000 0.150 -14.100
v -9.000 0.170 -14.300
v -5.000 0.170 -14.300
v -5.000 0.170 -14.100
v -9.000 0.170 -14.100
v 0.000 0.150 -14.300
v 4.000 0.150 -14.300
v 4.000 0.150 -14.100
v 0.000 0.150 -14.100
v 0.000 0.170 -14.300
v 4.000 0.170 -14.300
v 4.000 0.170 -14.100
v 0.000 0.170 -14.100
v 9.000 0.150 -14.300
v 13.000 0.150 -14.300
v 13.000 0.150 -14.100
v 9.000 0.150 -14.100
v 9.000 0.170 -14.300
v 13.000 0.170 -14.300
v 13.000 0.170 -14.100
v 9.000 0.170 -14.100
v 18.000 0.150 -14.300
v 22.000 0.150 -14.300
v 22.000 0.150 -14.100
v 18.000 0.150 -14.100
v 18.000 0.170 -14.300
v 22.000 0.170 -14.300
v 22.000 0.170 -14.100
v 18.000 0.170 -14.100
v 27.000 0.150 -14.300
v 31.000 0.150 -14.300
v 31.000 0.150 -14.100
v 27.000 0.150 -14.100
v 27.000 0.170 -14.300
v 31.000 0.170 -14.300
v 31.000 0.170 -14.100
v 27.000 0.170 -14.100
v 36.000 0.150 -14.300
v 40.000 0.150 -14.300
v 40.000 0.150 -14.100
v 36.000 0.150 -14.100
v 36.000 0.170 -14.300
v 40.000 0.170 -14.300
v 40.000 0.170 -14.100
v 36.000 0.170 -14.100
v -45.000 0.150 -10.900
v -41.000 0.150 -10.900
v -41.000 0.150 -10.700
v -45.000 0.150 -10.700
v -45.000 0.170 -10.900
v -41.000 0.170 -10.900
v -41.000 0.170 -10.700
v -45.000 0.170 -10.700
v -36.000 0.150 -10.900
v -32.000 0.150 -10.900
v -32.000 0.150 -10.700
v -36.000 0.150 -10.700
v -36.000 0.170 -10.900
v -32.000 0.170 -10.900
v -32.000 0.170 -10.700
v -36.000 0.170 -10.700
v -27.000 0.150 -10.900
v -23.000 0.150 -10.900
v -23.000 0.150 -10.700
v -27.000 0.150 -10.700
v -27.000 0.170 -10.900
v -23.000 0.170 -10.900
v -23.000 0.170 -10.700
v -27.000 0.170 -10.700
v -18.000 0.150 -10.900
v -14.000 0.150 -10.900
v -14.000 0.150 -10.700
v -18.000 0.150 -10.700
v -18.000 0.170 -10.900
v -14.000 0.170 -10.900
v -14.000 0.170 -10.700
v -18.000 0.170 -10.700
v -9.000 0.150 -10.900
v -5.000 0.150 -10.900
v -5.000 0.150 -10.700
v -9.000 0.150 -10.700
v -9.000 0.170 -10.900
v -5.000 0.170 -10.900
v -5.000 0.170 -10.700
v -9.000 0.170 -10.700
v 0.000 0.150 -10.900
v 4.000 0.150 -10.900
v 4.000 0.150 -10.700
v 0.000 0.150 -10.700
v 0.000 0.170 -10.900
v 4.000 0.170 -10.900
v 4.000 0.170 -10.700
v 0.000 0.170 -10.700
v 9.000 0.150 -10.900
v 13.000 0.150 -10.900
v 13.000 0.150 -10.700
v 9.000 0.150 -10.700
v 9.000 0.170 -10.900
v 13.000 0.170 -10.900
v 13.000 0.170 -10.700
v 9.000 0.170 -10.700
v 18.000 0.150 -10.900
v 22.000 0.150 -10.900
v 22.000 0.150 -10.700
v 18.000 0.150 -10.700
v 18.000 0.170 -10.900
v 22.000 0.170 -10.900
v 22.000 0.170 -10.700
v 18.000 0.170 -10.700
v 27.000 0.150 -10.900
v 31.000 0.150 -10.900
v 31.000 0.150 -10.700
v 27.000 0.150 -10.700
v 27.000 0.170 -10.900
v 31.000 0.170 -10.900
v 31.000 0.170 -10.700
v 27.000 0.170 -10.700
v 36.000 0.150 -10.900
v 40.000 0.150 -10.900
v 40.000 0.150 -10.700
v 36.000 0.150 -10.700
v 36.000 0.170 -10.900
v 40.000 0.170 -10.900
v 40.000 0.170 -10.700
v 36.000 0.170 -10.700
v -48.000 0.150 -17.500
v 48.000 0.150 -17.500
v 48.000 0.150 -17.300
v -48.000 0.150 -17.300
v -48.000 0.170 -17.500
v 48.000 0.170 -17.500
v 48.000 0.170 -17.300
v -48.000 0.170 -17.300
v -48.000 0.150 -7.700
v 48.000 0.150 -7.700
v 48.000 0.150 -7.500
v -48.000 0.150 -7.500
v -48.000 0.170 -7.700
v 48.000 0.170 -7.700
v 48.000 0.170 -7.500
v -48.000 0.170 -7.500
v -46.000 1.040 11.180
v 46.000 1.040 11.180
v 46.000 1.040 11.420
v -46.000 1.040 11.420
v -46.000 1.060 11.180
v 46.000 1.060 11.180
v 46.000 1.060 11.420
v -46.000 1.060 11.420
v -46.000 1.040 14.080
v 46.000 1.040 14.080
v 46.000 1.040 14.320
v -46.000 1.040 14.320
v -46.000 1.060 14.080
v 46.000 1.060 14.080
v 46.000 1.060 14.320
v -46.000 1.060 14.320
v -18.000 0.150 11.000
v 18.000 0.150 11.000
v 18.000 0.150 14.500
v -18.000 0.150 14.500
v -18.000 1.050 11.000
v 18.000 1.050 11.000
v 18.000 1.050 14.500
v -18.000 1.050 14.500
v -19.000 4.300 10.800
v 19.000 4.300 10.800
v 19.000 4.300 14.700
v -19.000 4.300 14.700
v -19.000 4.550 10.800
v 19.000 4.550 10.800
v 19.000 4.550 14.700
v -19.000 4.550 14.700
v -14.870 1.050 12.750
v -15.000 1.050 12.880
v -15.130 1.050 12.750
v -15.000 1.050 12.620
v -14.890 4.150 12.750
v -15.000 4.150 12.860
v -15.110 4.150 12.750
v -15.000 4.150 12.640
v -4.870 1.050 12.750
v -5.000 1.050 12.880
v -5.130 1.050 12.750
v -5.000 1.050 12.620
v -4.890 4.150 12.750
v -5.000 4.150 12.860
v -5.110 4.150 12.750
v -5.000 4.150 12.640
v 5.130 1.050 12.750
v 5.000 1.050 12.880
v 4.870 1.050 12.750
v 5.000 1.050 12.620
v 5.110 4.150 12.750
v 5.000 4.150 12.860
v 4.890 4.150 12.750
v 5.000 4.150 12.640
v 15.130 1.050 12.750
v 15.000 1.050 12.880
v 14.870 1.050 12.750
v 15.000 1.050 12.620
v 15.110 4.150 12.750
v 15.000 4.150 12.860
v 14.890 4.150 12.750
v 15.000 4.150 12.640
v -13.000 0.470 7.950
v -4.600 0.470 7.950
v -4.600 3.200 7.950
v -13.000 3.200 7.950
v -13.000 0.470 10.550
v -4.600 0.470 10.550
v -4.600 3.200 10.550
v -13.000 3.200 10.550
v -12.700 2.100 7.920
v -4.900 2.100 7.920
v -4.900 2.900 7.920
v -12.700 2.900 7.920
v -12.700 2.100 10.580
v -4.900 2.100 10.580
v -4.900 2.900 10.580
v -12.700 2.900 10.580
v -12.800 1.300 7.920
v -4.800 1.300 7.920
v -4.800 1.650 7.920
v -12.800 1.650 7.920
v -12.800 1.300 10.580
v -4.800 1.300 10.580
v -4.800 1.650 10.580
v -12.800 1.650 10.580
v -3.400 0.470 7.950
v 5.000 0.470 7.950
v 5.000 3.200 7.950
v -3.400 3.200 7.950
v -3.400 0.470 10.550
v 5.000 0.470 10.550
v 5.000 3.200 10.550
v -3.400 3.200 10.550
v -3.100 2.100 7.920
v 4.700 2.100 7.920
v 4.700 2.900 7.920
v -3.100 2.900 7.920
v -3.100 2.100 10.580
v 4.700 2.100 10.580
v 4.700 2.900 10.580
v -3.100 2.900 10.580
v -3.200 1.300 7.920
v 4.800 1.300 7.920
v 4.800 1.650 7.920
v -3.200 1.650 7.920
v -3.200 1.300 10.580
v 4.800 1.300 10.580
v 4.800 1.650 10.580
v -3.200 1.650 10.580
v -4.700 0.750 8.100
v -3.300 0.750 8.100
v -3.300 0.750 10.400
v -4.700 0.750 10.400
v -4.700 3.050 8.100
v -3.300 3.050 8.100
v -3.300 3.050 10.400
v -4.700 3.050 10.400
v -34.600 0.000 -2.200
v -29.400 0.000 -2.200
v -29.400 0.000 2.200
v -34.600 0.000 2.200
v -34.600 0.550 -2.200
v -29.400 0.550 -2.200
v -29.400 0.550 2.200
v -34.600 0.550 2.200
v -33.700 0.550 -1.300
v -30.300 0.550 -1.300
v -30.300 0.550 1.300
v -33.700 0.550 1.300
v -33.200 6.200 -1.000
v -30.800 6.200 -1.000
v -30.800 6.200 1.000
v -33.200 6.200 1.000
v -33.350 8.000 -6.600
v -33.350 8.000 6.600
v -33.350 7.150 6.600
v -33.350 6.200 1.500
v -33.350 6.200 -1.500
v -30.650 8.000 -6.600
v -30.650 8.000 6.600
v -30.650 7.150 6.600
v -30.650 6.200 1.500
v -30.650 6.200 -1.500
v -2.600 0.000 -2.200
v 2.600 0.000 -2.200
v 2.600 0.000 2.200
v -2.600 0.000 2.200
v -2.600 0.550 -2.200
v 2.600 0.550 -2.200
v 2.600 0.550 2.200
v -2.600 0.550 2.200
v -1.700 0.550 -1.300
v 1.700 0.550 -1.300
v 1.700 0.550 1.300
v -1.700 0.550 1.300
v -1.200 6.200 -1.000
v 1.200 6.200 -1.000
v 1.200 6.200 1.000
v -1.200 6.200 1.000
v -1.350 8.000 -6.600
v -1.350 8.000 6.600
v -1.350 7.150 6.600
v -1.350 6.200 1.500
v -1.350 6.200 -1.500
v 1.350 8.000 -6.600
v 1.350 8.000 6.600
v 1.350 7.150 6.600
v 1.350 6.200 1.500
v 1.350 6.200 -1.500
v 29.400 0.000 -2.200
v 34.600 0.000 -2.200
v 34.600 0.000 2.200
v 29.400 0.000 2.200
v 29.400 0.550 -2.200
v 34.600 0.550 -2.200
v 34.600 0.550 2.200
v 29.400 0.550 2.200
v 30.300 0.550 -1.300
v 33.700 0.550 -1.300
v 33.700 0.550 1.300
v 30.300 0.550 1.300
v 30.800 6.200 -1.000
v 33.200 6.200 -1.000
v 33.200 6.200 1.000
v 30.800 6.200 1.000
v 30.650 8.000 -6.600
v 30.650 8.000 6.600
v 30.650 7.150 6.600
v 30.650 6.200 1.500
v 30.650 6.200 -1.500
v 33.350 8.000 -6.600
v 33.350 8.000 6.600
v 33.350 7.150 6.600
v 33.350 6.200 1.500
v 33.350 6.200 -1.500
v -46.000 10.000 -7.500
v -46.000 10.000 7.500
v -46.000 9.450 7.500
v -46.000 8.000 4.100
v -46.000 8.000 -4.100
v -46.000 9.450 -7.500
v 46.000 10.000 -7.500
v 46.000 10.000 7.500
v 46.000 9.450 7.500
v 46.000 8.000 4.100
v 46.000 8.000 -4.100
v 46.000 9.450 -7.500
v -46.000 10.000 -7.480
v -46.000 10.000 -6.920
v -46.000 10.080 -6.920
v -46.000 10.330 -7.030
v -46.000 11.050 -7.100
v -46.000 11.050 -7.300
v -46.000 10.330 -7.370
v -46.000 10.080 -7.480
v 46.000 10.000 -7.480
v 46.000 10.000 -6.920
v 46.000 10.080 -6.920
v 46.000 10.330 -7.030
v 46.000 11.050 -7.100
v 46.000 11.050 -7.300
v 46.000 10.330 -7.370
v 46.000 10.080 -7.480
v -46.000 10.000 6.920
v -46.000 10.000 7.480
v -46.000 10.080 7.480
v -46.000 10.330 7.370
v -46.000 11.050 7.300
v -46.000 11.050 7.100
v -46.000 10.330 7.030
v -46.000 10.080 6.920
v 46.000 10.000 6.920
v 46.000 10.000 7.480
v 46.000 10.080 7.480
v 46.000 10.330 7.370
v 46.000 11.050 7.300
v 46.000 11.050 7.100
v 46.000 10.330 7.030
v 46.000 10.080 6.920
v -46.000 10.000 -0.280
v -46.000 10.000 0.280
v -46.000 10.080 0.280
v -46.000 10.330 0.170
v -46.000 10.900 0.100
v -46.000 10.900 -0.100
v -46.000 10.330 -0.170
v -46.000 10.080 -0.280
v 46.000 10.000 -0.280
v 46.000 10.000 0.280
v 46.000 10.080 0.280
v 46.000 10.330 0.170
v 46.000 10.900 0.100
v 46.000 10.900 -0.100
v 46.000 10.330 -0.170
v 46.000 10.080 -0.280
v -45.000 10.020 -3.500
v 45.000 10.020 -3.500
v 45.000 10.020 -3.300
v -45.000 10.020 -3.300
v -45.000 10.040 -3.500
v 45.000 10.040 -3.500
v 45.000 10.040 -3.300
v -45.000 10.040 -3.300
v -45.000 10.020 3.300
v 45.000 10.020 3.300
v 45.000 10.020 3.500
v -45.000 10.020 3.500
v -45.000 10.040 3.300
v 45.000 10.040 3.300
v 45.000 10.040 3.500
v -45.000 10.040 3.500
v -44.000 10.020 -1.700
v -40.000 10.020 -1.700
v -40.000 10.020 -1.500
v -44.000 10.020 -1.500
v -44.000 10.040 -1.700
v -40.000 10.040 -1.700
v -40.000 10.040 -1.500
v -44.000 10.040 -1.500
v -35.000 10.020 -1.700
v -31.000 10.020 -1.700
v -31.000 10.020 -1.500
v -35.000 10.020 -1.500
v -35.000 10.040 -1.700
v -31.000 10.040 -1.700
v -31.000 10.040 -1.500
v -35.000 10.040 -1.500
v -26.000 10.020 -1.700
v -22.000 10.020 -1.700
v -22.000 10.020 -1.500
v -26.000 10.020 -1.500
v -26.000 10.040 -1.700
v -22.000 10.040 -1.700
v -22.000 10.040 -1.500
v -26.000 10.040 -1.500
v -17.000 10.020 -1.700
v -13.000 10.020 -1.700
v -13.000 10.020 -1.500
v -17.000 10.020 -1.500
v -17.000 10.040 -1.700
v -13.000 10.040 -1.700
v -13.000 10.040 -1.500
v -17.000 10.040 -1.500
v -8.000 10.020 -1.700
v -4.000 10.020 -1.700
v -4.000 10.020 -1.500
v -8.000 10.020 -1.500
v -8.000 10.040 -1.700
v -4.000 10.040 -1.700
v -4.000 10.040 -1.500
v -8.000 10.040 -1.500
v 1.000 10.020 -1.700
v 5.000 10.020 -1.700
v 5.000 10.020 -1.500
v 1.000 10.020 -1.500
v 1.000 10.040 -1.700
v 5.000 10.040 -1.700
v 5.000 10.040 -1.500
v 1.000 10.040 -1.500
v 10.000 10.020 -1.700
v 14.000 10.020 -1.700
v 14.000 10.020 -1.500
v 10.000 10.020 -1.500
v 10.000 10.040 -1.700
v 14.000 10.040 -1.700
v 14.000 10.040 -1.500
v 10.000 10.040 -1.500
v 19.000 10.020 -1.700
v 23.000 10.020 -1.700
v 23.000 10.020 -1.500
v 19.000 10.020 -1.500
v 19.000 10.040 -1.700
v 23.000 10.040 -1.700
v 23.000 10.040 -1.500
v 19.000 10.040 -1.500
v 28.000 10.020 -1.700
v 32.000 10.020 -1.700
v 32.000 10.020 -1.500
v 28.000 10.020 -1.500
v 28.000 10.040 -1.700
v 32.000 10.040 -1.700
v 32.000 10.040 -1.500
v 28.000 10.040 -1.500
v 37.000 10.020 -1.700
v 41.000 10.020 -1.700
v 41.000 10.020 -1.500
v 37.000 10.020 -1.500
v 37.000 10.040 -1.700
v 41.000 10.040 -1.700
v 41.000 10.040 -1.500
v 37.000 10.040 -1.500
v -44.000 10.020 1.500
v -40.000 10.020 1.500
v -40.000 10.020 1.700
v -44.000 10.020 1.700
v -44.000 10.040 1.500
v -40.000 10.040 1.500
v -40.000 10.040 1.700
v -44.000 10.040 1.700
v -35.000 10.020 1.500
v -31.000 10.020 1.500
v -31.000 10.020 1.700
v -35.000 10.020 1.700
v -35.000 10.040 1.500
v -31.000 10.040 1.500
v -31.000 10.040 1.700
v -35.000 10.040 1.700
v -26.000 10.020 1.500
v -22.000 10.020 1.500
v -22.000 10.020 1.700
v -26.000 10.020 1.700
v -26.000 10.040 1.500
v -22.000 10.040 1.500
v -22.000 10.040 1.700
v -26.000 10.040 1.700
v -17.000 10.020 1.500
v -13.000 10.020 1.500
v -13.000 10.020 1.700
v -17.000 10.020 1.700
v -17.000 10.040 1.500
v -13.000 10.040 1.500
v -13.000 10.040 1.700
v -17.000 10.040 1.700
v -8.000 10.020 1.500
v -4.000 10.020 1.500
v -4.000 10.020 1.700
v -8.000 10.020 1.700
v -8.000 10.040 1.500
v -4.000 10.040 1.500
v -4.000 10.040 1.700
v -8.000 10.040 1.700
v 1.000 10.020 1.500
v 5.000 10.020 1.500
v 5.000 10.020 1.700
v 1.000 10.020 1.700
v 1.000 10.040 1.500
v 5.000 10.040 1.500
v 5.000 10.040 1.700
v 1.000 10.040 1.700
v 10.000 10.020 1.500
v 14.000 10.020 1.500
v 14.000 10.020 1.700
v 10.000 10.020 1.700
v 10.000 10.040 1.500
v 14.000 10.040 1.500
v 14.000 10.040 1.700
v 10.000 10.040 1.700
v 19.000 10.020 1.500
v 23.000 10.020 1.500
v 23.000 10.020 1.700
v 19.000 10.020 1.700
v 19.000 10.040 1.500
v 23.000 10.040 1.500
v 23.000 10.040 1.700
v 19.000 10.040 1.700
v 28.000 10.020 1.500
v 32.000 10.020 1.500
v 32.000 10.020 1.700
v 28.000 10.020 1.700
v 28.000 10.040 1.500
v 32.000 10.040 1.500
v 32.000 10.040 1.700
v 28.000 10.040 1.700
v 37.000 10.020 1.500
v 41.000 10.020 1.500
v 41.000 10.020 1.700
v 37.000 10.020 1.700
v 37.000 10.040 1.500
v 41.000 10.040 1.500
v 41.000 10.040 1.700
v 37.000 10.040 1.700
v -45.000 10.020 -6.750
v 45.000 10.020 -6.750
v 45.000 10.020 -6.550
v -45.000 10.020 -6.550
v -45.000 10.040 -6.750
v 45.000 10.040 -6.750
v 45.000 10.040 -6.550
v -45.000 10.040 -6.550
v -45.000 10.020 6.550
v 45.000 10.020 6.550
v 45.000 10.020 6.750
v -45.000 10.020 6.750
v -45.000 10.040 6.550
v 45.000 10.040 6.550
v 45.000 10.040 6.750
v -45.000 10.040 6.750
v -23.840 0.000 0.000
v -24.000 0.000 0.160
v -24.160 0.000 0.000
v -24.000 0.000 -0.160
v -23.890 17.500 0.000
v -24.000 17.500 0.110
v -24.110 17.500 0.000
v -24.000 17.500 -0.110
v -24.090 17.380 -2.600
v -23.910 17.380 -2.600
v -23.910 17.380 0.000
v -24.090 17.380 0.000
v -24.090 17.500 -2.600
v -23.910 17.500 -2.600
v -23.910 17.500 0.000
v -24.090 17.500 0.000
v -24.280 17.160 -2.820
v -23.720 17.160 -2.820
v -23.720 17.160 -2.380
v -24.280 17.160 -2.380
v -24.280 17.440 -2.820
v -23.720 17.440 -2.820
v -23.720 17.440 -2.380
v -24.280 17.440 -2.380
v -24.090 17.380 0.000
v -23.910 17.380 0.000
v -23.910 17.380 2.600
v -24.090 17.380 2.600
v -24.090 17.500 0.000
v -23.910 17.500 0.000
v -23.910 17.500 2.600
v -24.090 17.500 2.600
v -24.280 17.160 2.380
v -23.720 17.160 2.380
v -23.720 17.160 2.820
v -24.280 17.160 2.820
v -24.280 17.440 2.380
v -23.720 17.440 2.380
v -23.720 17.440 2.820
v -24.280 17.440 2.820
v 8.160 0.000 0.000
v 8.000 0.000 0.160
v 7.840 0.000 0.000
v 8.000 0.000 -0.160
v 8.110 17.500 0.000
v 8.000 17.500 0.110
v 7.890 17.500 0.000
v 8.000 17.500 -0.110
v 7.910 17.380 -2.600
v 8.090 17.380 -2.600
v 8.090 17.380 0.000
v 7.910 17.380 0.000
v 7.910 17.500 -2.600
v 8.090 17.500 -2.600
v 8.090 17.500 0.000
v 7.910 17.500 0.000
v 7.720 17.160 -2.820
v 8.280 17.160 -2.820
v 8.280 17.160 -2.380
v 7.720 17.160 -2.380
v 7.720 17.440 -2.820
v 8.280 17.440 -2.820
v 8.280 17.440 -2.380
v 7.720 17.440 -2.380
v 7.910 17.380 0.000
v 8.090 17.380 0.000
v 8.090 17.380 2.600
v 7.910 17.380 2.600
v 7.910 17.500 0.000
v 8.090 17.500 0.000
v 8.090 17.500 2.600
v 7.910 17.500 2.600
v 7.720 17.160 2.380
v 8.280 17.160 2.380
v 8.280 17.160 2.820
v 7.720 17.160 2.820
v 7.720 17.440 2.380
v 8.280 17.440 2.380
v 8.280 17.440 2.820
v 7.720 17.440 2.820
v 40.160 0.000 0.000
v 40.000 0.000 0.160
v 39.840 0.000 0.000
v 40.000 0.000 -0.160
v 40.110 17.500 0.000
v 40.000 17.500 0.110
v 39.890 17.500 0.000
v 40.000 17.500 -0.110
v 39.910 17.380 -2.600
v 40.090 17.380 -2.600
v 40.090 17.380 0.000
v 39.910 17.380 0.000
v 39.910 17.500 -2.600
v 40.090 17.500 -2.600
v 40.090 17.500 0.000
v 39.910 17.500 0.000
v 39.720 17.160 -2.820
v 40.280 17.160 -2.820
v 40.280 17.160 -2.380
v 39.720 17.160 -2.380
v 39.720 17.440 -2.820
v 40.280 17.440 -2.820
v 40.280 17.440 -2.380
v 39.720 17.440 -2.380
v 39.910 17.380 0.000
v 40.090 17.380 0.000
v 40.090 17.380 2.600
v 39.910 17.380 2.600
v 39.910 17.500 0.000
v 40.090 17.500 0.000
v 40.090 17.500 2.600
v 39.910 17.500 2.600
v 39.720 17.160 2.380
v 40.280 17.160 2.380
v 40.280 17.160 2.820
v 39.720 17.160 2.820
v 39.720 17.440 2.380
v 40.280 17.440 2.380
v 40.280 17.440 2.820
v 39.720 17.440 2.820
v -30.150 10.360 -6.120
v -25.850 10.360 -6.120
v -25.850 10.760 -6.120
v -26.550 10.800 -6.120
v -27.100 11.420 -6.120
v -28.800 11.460 -6.120
v -29.400 10.820 -6.120
v -30.150 10.760 -6.120
v -30.150 10.360 -4.280
v -25.850 10.360 -4.280
v -25.850 10.760 -4.280
v -26.550 10.800 -4.280
v -27.100 11.420 -4.280
v -28.800 11.460 -4.280
v -29.400 10.820 -4.280
v -30.150 10.760 -4.280
v -26.700 10.820 -6.000
v -27.080 11.420 -6.000
v -28.780 11.460 -6.000
v -29.280 10.860 -6.000
v -26.700 10.820 -4.400
v -27.080 11.420 -4.400
v -28.780 11.460 -4.400
v -29.280 10.860 -4.400
v -0.150 10.360 -3.320
v 4.150 10.360 -3.320
v 4.150 10.760 -3.320
v 3.450 10.800 -3.320
v 2.900 11.420 -3.320
v 1.200 11.460 -3.320
v 0.600 10.820 -3.320
v -0.150 10.760 -3.320
v -0.150 10.360 -1.480
v 4.150 10.360 -1.480
v 4.150 10.760 -1.480
v 3.450 10.800 -1.480
v 2.900 11.420 -1.480
v 1.200 11.460 -1.480
v 0.600 10.820 -1.480
v -0.150 10.760 -1.480
v 3.300 10.820 -3.200
v 2.920 11.420 -3.200
v 1.220 11.460 -3.200
v 0.720 10.860 -3.200
v 3.300 10.820 -1.600
v 2.920 11.420 -1.600
v 1.220 11.460 -1.600
v 0.720 10.860 -1.600
v 31.850 10.360 -6.120
v 36.150 10.360 -6.120
v 36.150 10.760 -6.120
v 35.450 10.800 -6.120
v 34.900 11.420 -6.120
v 33.200 11.460 -6.120
v 32.600 10.820 -6.120
v 31.850 10.760 -6.120
v 31.850 10.360 -4.280
v 36.150 10.360 -4.280
v 36.150 10.760 -4.280
v 35.450 10.800 -4.280
v 34.900 11.420 -4.280
v 33.200 11.460 -4.280
v 32.600 10.820 -4.280
v 31.850 10.760 -4.280
v 35.300 10.820 -6.000
v 34.920 11.420 -6.000
v 33.220 11.460 -6.000
v 32.720 10.860 -6.000
v 35.300 10.820 -4.400
v 34.920 11.420 -4.400
v 33.220 11.460 -4.400
v 32.720 10.860 -4.400
v -16.150 10.360 1.480
v -11.850 10.360 1.480
v -11.850 10.760 1.480
v -12.550 10.800 1.480
v -13.100 11.420 1.480
v -14.800 11.460 1.480
v -15.400 10.820 1.480
v -16.150 10.760 1.480
v -16.150 10.360 3.320
v -11.850 10.360 3.320
v -11.850 10.760 3.320
v -12.550 10.800 3.320
v -13.100 11.420 3.320
v -14.800 11.460 3.320
v -15.400 10.820 3.320
v -16.150 10.760 3.320
v -12.700 10.820 1.600
v -13.080 11.420 1.600
v -14.780 11.460 1.600
v -15.280 10.860 1.600
v -12.700 10.820 3.200
v -13.080 11.420 3.200
v -14.780 11.460 3.200
v -15.280 10.860 3.200
v 15.850 10.360 4.280
v 20.150 10.360 4.280
v 20.150 10.760 4.280
v 19.450 10.800 4.280
v 18.900 11.420 4.280
v 17.200 11.460 4.280
v 16.600 10.820 4.280
v 15.850 10.760 4.280
v 15.850 10.360 6.120
v 20.150 10.360 6.120
v 20.150 10.760 6.120
v 19.450 10.800 6.120
v 18.900 11.420 6.120
v 17.200 11.460 6.120
v 16.600 10.820 6.120
v 15.850 10.760 6.120
v 19.300 10.820 4.400
v 18.920 11.420 4.400
v 17.220 11.460 4.400
v 16.720 10.860 4.400
v 19.300 10.820 6.000
v 18.920 11.420 6.000
v 17.220 11.460 6.000
v 16.720 10.860 6.000
v 41.850 10.360 1.480
v 46.150 10.360 1.480
v 46.150 10.760 1.480
v 45.450 10.800 1.480
v 44.900 11.420 1.480
v 43.200 11.460 1.480
v 42.600 10.820 1.480
v 41.850 10.760 1.480
v 41.850 10.360 3.320
v 46.150 10.360 3.320
v 46.150 10.760 3.320
v 45.450 10.800 3.320
v 44.900 11.420 3.320
v 43.200 11.460 3.320
v 42.600 10.820 3.320
v 41.850 10.760 3.320
v 45.300 10.820 1.600
v 44.920 11.420 1.600
v 43.220 11.460 1.600
v 42.720 10.860 1.600
v 45.300 10.820 3.200
v 44.920 11.420 3.200
v 43.220 11.460 3.200
v 42.720 10.860 3.200
v -36.150 0.450 -16.820
v -31.850 0.450 -16.820
v -31.850 0.850 -16.820
v -32.550 0.890 -16.820
v -33.100 1.510 -16.820
v -34.800 1.550 -16.820
v -35.400 0.910 -16.820
v -36.150 0.850 -16.820
v -36.150 0.450 -14.980
v -31.850 0.450 -14.980
v -31.850 0.850 -14.980
v -32.550 0.890 -14.980
v -33.100 1.510 -14.980
v -34.800 1.550 -14.980
v -35.400 0.910 -14.980
v -36.150 0.850 -14.980
v -32.700 0.910 -16.700
v -33.080 1.510 -16.700
v -34.780 1.550 -16.700
v -35.280 0.950 -16.700
v -32.700 0.910 -15.100
v -33.080 1.510 -15.100
v -34.780 1.550 -15.100
v -35.280 0.950 -15.100
v -8.150 0.450 -13.420
v -3.850 0.450 -13.420
v -3.850 0.850 -13.420
v -4.550 0.890 -13.420
v -5.100 1.510 -13.420
v -6.800 1.550 -13.420
v -7.400 0.910 -13.420
v -8.150 0.850 -13.420
v -8.150 0.450 -11.580
v -3.850 0.450 -11.580
v -3.850 0.850 -11.580
v -4.550 0.890 -11.580
v -5.100 1.510 -11.580
v -6.800 1.550 -11.580
v -7.400 0.910 -11.580
v -8.150 0.850 -11.580
v -4.700 0.910 -13.300
v -5.080 1.510 -13.300
v -6.780 1.550 -13.300
v -7.280 0.950 -13.300
v -4.700 0.910 -11.700
v -5.080 1.510 -11.700
v -6.780 1.550 -11.700
v -7.280 0.950 -11.700
v 21.850 0.450 -16.820
v 26.150 0.450 -16.820
v 26.150 0.850 -16.820
v 25.450 0.890 -16.820
v 24.900 1.510 -16.820
v 23.200 1.550 -16.820
v 22.600 0.910 -16.820
v 21.850 0.850 -16.820
v 21.850 0.450 -14.980
v 26.150 0.450 -14.980
v 26.150 0.850 -14.980
v 25.450 0.890 -14.980
v 24.900 1.510 -14.980
v 23.200 1.550 -14.980
v 22.600 0.910 -14.980
v 21.850 0.850 -14.980
v 25.300 0.910 -16.700
v 24.920 1.510 -16.700
v 23.220 1.550 -16.700
v 22.720 0.950 -16.700
v 25.300 0.910 -15.100
v 24.920 1.510 -15.100
v 23.220 1.550 -15.100
v 22.720 0.950 -15.100
v 37.850 0.450 -10.020
v 42.150 0.450 -10.020
v 42.150 0.850 -10.020
v 41.450 0.890 -10.020
v 40.900 1.510 -10.020
v 39.200 1.550 -10.020
v 38.600 0.910 -10.020
v 37.850 0.850 -10.020
v 37.850 0.450 -8.180
v 42.150 0.450 -8.180
v 42.150 0.850 -8.180
v 41.450 0.890 -8.180
v 40.900 1.510 -8.180
v 39.200 1.550 -8.180
v 38.600 0.910 -8.180
v 37.850 0.850 -8.180
v 41.300 0.910 -9.900
v 40.920 1.510 -9.900
v 39.220 1.550 -9.900
v 38.720 0.950 -9.900
v 41.300 0.910 -8.300
v 40.920 1.510 -8.300
v 39.220 1.550 -8.300
v 38.720 0.950 -8.300
v -39.780 0.150 -18.500
v -39.890 0.150 -18.309
v -40.110 0.150 -18.309
v -40.220 0.150 -18.500
v -40.110 0.150 -18.691
v -39.890 0.150 -18.691
v -39.840 2.730 -18.500
v -39.920 2.730 -18.361
v -40.080 2.730 -18.361
v -40.160 2.730 -18.500
v -40.080 2.730 -18.639
v -39.920 2.730 -18.639
v -38.440 2.600 -18.500
v -39.518 2.600 -17.016
v -41.262 2.600 -17.583
v -41.262 2.600 -19.417
v -39.518 2.600 -19.984
v -38.440 4.875 -18.500
v -39.518 4.875 -17.016
v -41.262 4.875 -17.583
v -41.262 4.875 -19.417
v -39.518 4.875 -19.984
v -38.440 4.875 -18.500
v -39.518 4.875 -17.016
v -41.262 4.875 -17.583
v -41.262 4.875 -19.417
v -39.518 4.875 -19.984
v -39.480 6.500 -18.500
v -39.839 6.500 -18.005
v -40.421 6.500 -18.194
v -40.421 6.500 -18.806
v -39.839 6.500 -18.995
v -25.780 0.150 -18.500
v -25.890 0.150 -18.309
v -26.110 0.150 -18.309
v -26.220 0.150 -18.500
v -26.110 0.150 -18.691
v -25.890 0.150 -18.691
v -25.840 2.982 -18.500
v -25.920 2.982 -18.361
v -26.080 2.982 -18.361
v -26.160 2.982 -18.500
v -26.080 2.982 -18.639
v -25.920 2.982 -18.639
v -24.296 2.840 -18.500
v -25.473 2.840 -16.879
v -27.379 2.840 -17.498
v -27.379 2.840 -19.502
v -25.473 2.840 -20.121
v -24.296 5.325 -18.500
v -25.473 5.325 -16.879
v -27.379 5.325 -17.498
v -27.379 5.325 -19.502
v -25.473 5.325 -20.121
v -24.296 5.325 -18.500
v -25.473 5.325 -16.879
v -27.379 5.325 -17.498
v -27.379 5.325 -19.502
v -25.473 5.325 -20.121
v -25.432 7.100 -18.500
v -25.824 7.100 -17.960
v -26.460 7.100 -18.166
v -26.460 7.100 -18.834
v -25.824 7.100 -19.040
v -11.780 0.150 -18.500
v -11.890 0.150 -18.309
v -12.110 0.150 -18.309
v -12.220 0.150 -18.500
v -12.110 0.150 -18.691
v -11.890 0.150 -18.691
v -11.840 3.234 -18.500
v -11.920 3.234 -18.361
v -12.080 3.234 -18.361
v -12.160 3.234 -18.500
v -12.080 3.234 -18.639
v -11.920 3.234 -18.639
v -10.152 3.080 -18.500
v -11.429 3.080 -16.742
v -13.495 3.080 -17.414
v -13.495 3.080 -19.586
v -11.429 3.080 -20.258
v -10.152 5.775 -18.500
v -11.429 5.775 -16.742
v -13.495 5.775 -17.414
v -13.495 5.775 -19.586
v -11.429 5.775 -20.258
v -10.152 5.775 -18.500
v -11.429 5.775 -16.742
v -13.495 5.775 -17.414
v -13.495 5.775 -19.586
v -11.429 5.775 -20.258
v -11.384 7.700 -18.500
v -11.810 7.700 -17.914
v -12.498 7.700 -18.138
v -12.498 7.700 -18.862
v -11.810 7.700 -19.086
v 2.220 0.150 -18.500
v 2.110 0.150 -18.309
v 1.890 0.150 -18.309
v 1.780 0.150 -18.500
v 1.890 0.150 -18.691
v 2.110 0.150 -18.691
v 2.160 2.730 -18.500
v 2.080 2.730 -18.361
v 1.920 2.730 -18.361
v 1.840 2.730 -18.500
v 1.920 2.730 -18.639
v 2.080 2.730 -18.639
v 3.560 2.600 -18.500
v 2.482 2.600 -17.016
v 0.738 2.600 -17.583
v 0.738 2.600 -19.417
v 2.482 2.600 -19.984
v 3.560 4.875 -18.500
v 2.482 4.875 -17.016
v 0.738 4.875 -17.583
v 0.738 4.875 -19.417
v 2.482 4.875 -19.984
v 3.560 4.875 -18.500
v 2.482 4.875 -17.016
v 0.738 4.875 -17.583
v 0.738 4.875 -19.417
v 2.482 4.875 -19.984
v 2.520 6.500 -18.500
v 2.161 6.500 -18.005
v 1.579 6.500 -18.194
v 1.579 6.500 -18.806
v 2.161 6.500 -18.995
v 16.220 0.150 -18.500
v 16.110 0.150 -18.309
v 15.890 0.150 -18.309
v 15.780 0.150 -18.500
v 15.890 0.150 -18.691
v 16.110 0.150 -18.691
v 16.160 2.982 -18.500
v 16.080 2.982 -18.361
v 15.920 2.982 -18.361
v 15.840 2.982 -18.500
v 15.920 2.982 -18.639
v 16.080 2.982 -18.639
v 17.704 2.840 -18.500
v 16.527 2.840 -16.879
v 14.621 2.840 -17.498
v 14.621 2.840 -19.502
v 16.527 2.840 -20.121
v 17.704 5.325 -18.500
v 16.527 5.325 -16.879
v 14.621 5.325 -17.498
v 14.621 5.325 -19.502
v 16.527 5.325 -20.121
v 17.704 5.325 -18.500
v 16.527 5.325 -16.879
v 14.621 5.325 -17.498
v 14.621 5.325 -19.502
v 16.527 5.325 -20.121
v 16.568 7.100 -18.500
v 16.176 7.100 -17.960
v 15.540 7.100 -18.166
v 15.540 7.100 -18.834
v 16.176 7.100 -19.040
v 30.220 0.150 -18.500
v 30.110 0.150 -18.309
v 29.890 0.150 -18.309
v 29.780 0.150 -18.500
v 29.890 0.150 -18.691
v 30.110 0.150 -18.691
v 30.160 3.234 -18.500
v 30.080 3.234 -18.361
v 29.920 3.234 -18.361
v 29.840 3.234 -18.500
v 29.920 3.234 -18.639
v 30.080 3.234 -18.639
v 31.848 3.080 -18.500
v 30.571 3.080 -16.742
v 28.505 3.080 -17.414
v 28.505 3.080 -19.586
v 30.571 3.080 -20.258
v 31.848 5.775 -18.500
v 30.571 5.775 -16.742
v 28.505 5.775 -17.414
v 28.505 5.775 -19.586
v 30.571 5.775 -20.258
v 31.848 5.775 -18.500
v 30.571 5.775 -16.742
v 28.505 5.775 -17.414
v 28.505 5.775 -19.586
v 30.571 5.775 -20.258
v 30.616 7.700 -18.500
v 30.190 7.700 -17.914
v 29.502 7.700 -18.138
v 29.502 7.700 -18.862
v 30.190 7.700 -19.086
v 44.220 0.150 -18.500
v 44.110 0.150 -18.309
v 43.890 0.150 -18.309
v 43.780 0.150 -18.500
v 43.890 0.150 -18.691
v 44.110 0.150 -18.691
v 44.160 2.730 -18.500
v 44.080 2.730 -18.361
v 43.920 2.730 -18.361
v 43.840 2.730 -18.500
v 43.920 2.730 -18.639
v 44.080 2.730 -18.639
v 45.560 2.600 -18.500
v 44.482 2.600 -17.016
v 42.738 2.600 -17.583
v 42.738 2.600 -19.417
v 44.482 2.600 -19.984
v 45.560 4.875 -18.500
v 44.482 4.875 -17.016
v 42.738 4.875 -17.583
v 42.738 4.875 -19.417
v 44.482 4.875 -19.984
v 45.560 4.875 -18.500
v 44.482 4.875 -17.016
v 42.738 4.875 -17.583
v 42.738 4.875 -19.417
v 44.482 4.875 -19.984
v 44.520 6.500 -18.500
v 44.161 6.500 -18.005
v 43.579 6.500 -18.194
v 43.579 6.500 -18.806
v 44.161 6.500 -18.995
v -33.780 0.150 19.500
v -33.890 0.150 19.691
v -34.110 0.150 19.691
v -34.220 0.150 19.500
v -34.110 0.150 19.309
v -33.890 0.150 19.309
v -33.840 2.520 19.500
v -33.920 2.520 19.639
v -34.080 2.520 19.639
v -34.160 2.520 19.500
v -34.080 2.520 19.361
v -33.920 2.520 19.361
v -32.560 2.400 19.500
v -33.555 2.400 20.870
v -35.165 2.400 20.346
v -35.165 2.400 18.654
v -33.555 2.400 18.130
v -32.560 4.500 19.500
v -33.555 4.500 20.870
v -35.165 4.500 20.346
v -35.165 4.500 18.654
v -33.555 4.500 18.130
v -32.560 4.500 19.500
v -33.555 4.500 20.870
v -35.165 4.500 20.346
v -35.165 4.500 18.654
v -33.555 4.500 18.130
v -33.520 6.000 19.500
v -33.852 6.000 19.957
v -34.388 6.000 19.782
v -34.388 6.000 19.218
v -33.852 6.000 19.043
v -15.780 0.150 19.500
v -15.890 0.150 19.691
v -16.110 0.150 19.691
v -16.220 0.150 19.500
v -16.110 0.150 19.309
v -15.890 0.150 19.309
v -15.840 2.856 19.500
v -15.920 2.856 19.639
v -16.080 2.856 19.639
v -16.160 2.856 19.500
v -16.080 2.856 19.361
v -15.920 2.856 19.361
v -14.368 2.720 19.500
v -15.496 2.720 21.052
v -17.320 2.720 20.459
v -17.320 2.720 18.541
v -15.496 2.720 17.948
v -14.368 5.100 19.500
v -15.496 5.100 21.052
v -17.320 5.100 20.459
v -17.320 5.100 18.541
v -15.496 5.100 17.948
v -14.368 5.100 19.500
v -15.496 5.100 21.052
v -17.320 5.100 20.459
v -17.320 5.100 18.541
v -15.496 5.100 17.948
v -15.456 6.800 19.500
v -15.832 6.800 20.017
v -16.440 6.800 19.820
v -16.440 6.800 19.180
v -15.832 6.800 18.983
v 6.220 0.150 19.500
v 6.110 0.150 19.691
v 5.890 0.150 19.691
v 5.780 0.150 19.500
v 5.890 0.150 19.309
v 6.110 0.150 19.309
v 6.160 2.520 19.500
v 6.080 2.520 19.639
v 5.920 2.520 19.639
v 5.840 2.520 19.500
v 5.920 2.520 19.361
v 6.080 2.520 19.361
v 7.440 2.400 19.500
v 6.445 2.400 20.870
v 4.835 2.400 20.346
v 4.835 2.400 18.654
v 6.445 2.400 18.130
v 7.440 4.500 19.500
v 6.445 4.500 20.870
v 4.835 4.500 20.346
v 4.835 4.500 18.654
v 6.445 4.500 18.130
v 7.440 4.500 19.500
v 6.445 4.500 20.870
v 4.835 4.500 20.346
v 4.835 4.500 18.654
v 6.445 4.500 18.130
v 6.480 6.000 19.500
v 6.148 6.000 19.957
v 5.612 6.000 19.782
v 5.612 6.000 19.218
v 6.148 6.000 19.043
v 28.220 0.150 19.500
v 28.110 0.150 19.691
v 27.890 0.150 19.691
v 27.780 0.150 19.500
v 27.890 0.150 19.309
v 28.110 0.150 19.309
v 28.160 2.856 19.500
v 28.080 2.856 19.639
v 27.920 2.856 19.639
v 27.840 2.856 19.500
v 27.920 2.856 19.361
v 28.080 2.856 19.361
v 29.632 2.720 19.500
v 28.504 2.720 21.052
v 26.680 2.720 20.459
v 26.680 2.720 18.541
v 28.504 2.720 17.948
v 29.632 5.100 19.500
v 28.504 5.100 21.052
v 26.680 5.100 20.459
v 26.680 5.100 18.541
v 28.504 5.100 17.948
v 29.632 5.100 19.500
v 28.504 5.100 21.052
v 26.680 5.100 20.459
v 26.680 5.100 18.541
v 28.504 5.100 17.948
v 28.544 6.800 19.500
v 28.168 6.800 20.017
v 27.560 6.800 19.820
v 27.560 6.800 19.180
v 28.168 6.800 18.983
v 46.220 0.150 19.500
v 46.110 0.150 19.691
v 45.890 0.150 19.691
v 45.780 0.150 19.500
v 45.890 0.150 19.309
v 46.110 0.150 19.309
v 46.160 2.520 19.500
v 46.080 2.520 19.639
v 45.920 2.520 19.639
v 45.840 2.520 19.500
v 45.920 2.520 19.361
v 46.080 2.520 19.361
v 47.440 2.400 19.500
v 46.445 2.400 20.870
v 44.835 2.400 20.346
v 44.835 2.400 18.654
v 46.445 2.400 18.130
v 47.440 4.500 19.500
v 46.445 4.500 20.870
v 44.835 4.500 20.346
v 44.835 4.500 18.654
v 46.445 4.500 18.130
v 47.440 4.500 19.500
v 46.445 4.500 20.870
v 44.835 4.500 20.346
v 44.835 4.500 18.654
v 46.445 4.500 18.130
v 46.480 6.000 19.500
v 46.148 6.000 19.957
v 45.612 6.000 19.782
v 45.612 6.000 19.218
v 46.148 6.000 19.043
o Terreno
f 8 7 6 5
f 1 2 3 4
f 1 5 6 2
f 4 3 7 8
f 2 6 7 3
f 1 4 8 5
f 16 15 14 13
f 9 10 11 12
f 9 13 14 10
f 12 11 15 16
f 10 14 15 11
f 9 12 16 13
o CorredorVial
f 24 23 22 21
f 17 18 19 20
f 17 21 22 18
f 20 19 23 24
f 18 22 23 19
f 17 20 24 21
f 32 31 30 29
f 25 26 27 28
f 25 29 30 26
f 28 27 31 32
f 26 30 31 27
f 25 28 32 29
f 40 39 38 37
f 33 34 35 36
f 33 37 38 34
f 36 35 39 40
f 34 38 39 35
f 33 36 40 37
f 48 47 46 45
f 41 42 43 44
f 41 45 46 42
f 44 43 47 48
f 42 46 47 43
f 41 44 48 45
f 56 55 54 53
f 49 50 51 52
f 49 53 54 50
f 52 51 55 56
f 50 54 55 51
f 49 52 56 53
f 64 63 62 61
f 57 58 59 60
f 57 61 62 58
f 60 59 63 64
f 58 62 63 59
f 57 60 64 61
f 72 71 70 69
f 65 66 67 68
f 65 69 70 66
f 68 67 71 72
f 66 70 71 67
f 65 68 72 69
f 80 79 78 77
f 73 74 75 76
f 73 77 78 74
f 76 75 79 80
f 74 78 79 75
f 73 76 80 77
f 88 87 86 85
f 81 82 83 84
f 81 85 86 82
f 84 83 87 88
f 82 86 87 83
f 81 84 88 85
f 96 95 94 93
f 89 90 91 92
f 89 93 94 90
f 92 91 95 96
f 90 94 95 91
f 89 92 96 93
f 104 103 102 101
f 97 98 99 100
f 97 101 102 98
f 100 99 103 104
f 98 102 103 99
f 97 100 104 101
f 112 111 110 109
f 105 106 107 108
f 105 109 110 106
f 108 107 111 112
f 106 110 111 107
f 105 108 112 109
f 120 119 118 117
f 113 114 115 116
f 113 117 118 114
f 116 115 119 120
f 114 118 119 115
f 113 116 120 117
f 128 127 126 125
f 121 122 123 124
f 121 125 126 122
f 124 123 127 128
f 122 126 127 123
f 121 124 128 125
f 136 135 134 133
f 129 130 131 132
f 129 133 134 130
f 132 131 135 136
f 130 134 135 131
f 129 132 136 133
f 144 143 142 141
f 137 138 139 140
f 137 141 142 138
f 140 139 143 144
f 138 142 143 139
f 137 140 144 141
f 152 151 150 149
f 145 146 147 148
f 145 149 150 146
f 148 147 151 152
f 146 150 151 147
f 145 148 152 149
f 160 159 158 157
f 153 154 155 156
f 153 157 158 154
f 156 155 159 160
f 154 158 159 155
f 153 156 160 157
f 168 167 166 165
f 161 162 163 164
f 161 165 166 162
f 164 163 167 168
f 162 166 167 163
f 161 164 168 165
f 176 175 174 173
f 169 170 171 172
f 169 173 174 170
f 172 171 175 176
f 170 174 175 171
f 169 172 176 173
f 184 183 182 181
f 177 178 179 180
f 177 181 182 178
f 180 179 183 184
f 178 182 183 179
f 177 180 184 181
f 192 191 190 189
f 185 186 187 188
f 185 189 190 186
f 188 187 191 192
f 186 190 191 187
f 185 188 192 189
f 200 199 198 197
f 193 194 195 196
f 193 197 198 194
f 196 195 199 200
f 194 198 199 195
f 193 196 200 197
f 208 207 206 205
f 201 202 203 204
f 201 205 206 202
f 204 203 207 208
f 202 206 207 203
f 201 204 208 205
f 216 215 214 213
f 209 210 211 212
f 209 213 214 210
f 212 211 215 216
f 210 214 215 211
f 209 212 216 213
f 224 223 222 221
f 217 218 219 220
f 217 221 222 218
f 220 219 223 224
f 218 222 223 219
f 217 220 224 221
f 232 231 230 229
f 225 226 227 228
f 225 229 230 226
f 228 227 231 232
f 226 230 231 227
f 225 228 232 229
f 240 239 238 237
f 233 234 235 236
f 233 237 238 234
f 236 235 239 240
f 234 238 239 235
f 233 236 240 237
f 248 247 246 245
f 241 242 243 244
f 241 245 246 242
f 244 243 247 248
f 242 246 247 243
f 241 244 248 245
f 256 255 254 253
f 249 250 251 252
f 249 253 254 250
f 252 251 255 256
f 250 254 255 251
f 249 252 256 253
f 264 263 262 261
f 257 258 259 260
f 257 261 262 258
f 260 259 263 264
f 258 262 263 259
f 257 260 264 261
o Estacion
f 272 271 270 269
f 265 266 267 268
f 265 269 270 266
f 268 267 271 272
f 266 270 271 267
f 265 268 272 269
f 280 279 278 277
f 273 274 275 276
f 273 277 278 274
f 276 275 279 280
f 274 278 279 275
f 273 276 280 277
f 285 286 282 281
f 286 287 283 282
f 287 288 284 283
f 288 285 281 284
f 287 286 285
f 288 287 285
f 282 283 281
f 283 284 281
f 293 294 290 289
f 294 295 291 290
f 295 296 292 291
f 296 293 289 292
f 295 294 293
f 296 295 293
f 290 291 289
f 291 292 289
f 301 302 298 297
f 302 303 299 298
f 303 304 300 299
f 304 301 297 300
f 303 302 301
f 304 303 301
f 298 299 297
f 299 300 297
f 309 310 306 305
f 310 311 307 306
f 311 312 308 307
f 312 309 305 308
f 311 310 309
f 312 311 309
f 306 307 305
f 307 308 305
f 314 318 317 313
f 315 319 318 314
f 316 320 319 315
f 313 317 320 316
f 315 314 313
f 316 315 313
f 318 319 317
f 319 320 317
f 322 326 325 321
f 323 327 326 322
f 324 328 327 323
f 321 325 328 324
f 323 322 321
f 324 323 321
f 326 327 325
f 327 328 325
f 330 334 333 329
f 331 335 334 330
f 332 336 335 331
f 329 333 336 332
f 331 330 329
f 332 331 329
f 334 335 333
f 335 336 333
f 338 342 341 337
f 339 343 342 338
f 340 344 343 339
f 337 341 344 340
f 339 338 337
f 340 339 337
f 342 343 341
f 343 344 341
f 346 350 349 345
f 347 351 350 346
f 348 352 351 347
f 345 349 352 348
f 347 346 345
f 348 347 345
f 350 351 349
f 351 352 349
f 354 358 357 353
f 355 359 358 354
f 356 360 359 355
f 353 357 360 356
f 355 354 353
f 356 355 353
f 358 359 357
f 359 360 357
f 368 367 366 365
f 361 362 363 364
f 361 365 366 362
f 364 363 367 368
f 362 366 367 363
f 361 364 368 365
o Columnas
f 376 375 374 373
f 369 370 371 372
f 369 373 374 370
f 372 371 375 376
f 370 374 375 371
f 369 372 376 373
f 381 382 378 377
f 382 383 379 378
f 383 384 380 379
f 384 381 377 380
f 384 383 382 381
f 377 378 379 380
f 385 386 391 390
f 386 387 392 391
f 387 388 393 392
f 388 389 394 393
f 389 385 390 394
f 385 387 386
f 385 388 387
f 385 389 388
f 390 391 392
f 390 392 393
f 390 393 394
f 402 401 400 399
f 395 396 397 398
f 395 399 400 396
f 398 397 401 402
f 396 400 401 397
f 395 398 402 399
f 407 408 404 403
f 408 409 405 404
f 409 410 406 405
f 410 407 403 406
f 410 409 408 407
f 403 404 405 406
f 411 412 417 416
f 412 413 418 417
f 413 414 419 418
f 414 415 420 419
f 415 411 416 420
f 411 413 412
f 411 414 413
f 411 415 414
f 416 417 418
f 416 418 419
f 416 419 420
f 428 427 426 425
f 421 422 423 424
f 421 425 426 422
f 424 423 427 428
f 422 426 427 423
f 421 424 428 425
f 433 434 430 429
f 434 435 431 430
f 435 436 432 431
f 436 433 429 432
f 436 435 434 433
f 429 430 431 432
f 437 438 443 442
f 438 439 444 443
f 439 440 445 444
f 440 441 446 445
f 441 437 442 446
f 437 439 438
f 437 440 439
f 437 441 440
f 442 443 444
f 442 444 445
f 442 445 446
o ViaElevada
f 447 448 454 453
f 448 449 455 454
f 449 450 456 455
f 450 451 457 456
f 451 452 458 457
f 452 447 453 458
f 447 449 448
f 447 450 449
f 447 451 450
f 447 452 451
f 453 454 455
f 453 455 456
f 453 456 457
f 453 457 458
o ViaElevadaEncima
f 467 468 460 459
f 468 469 461 460
f 469 470 462 461
f 470 471 463 462
f 471 472 464 463
f 472 473 465 464
f 473 474 466 465
f 474 467 459 466
f 460 461 459
f 461 462 459
f 462 463 459
f 463 464 459
f 464 465 459
f 465 466 459
f 469 468 467
f 470 469 467
f 471 470 467
f 472 471 467
f 473 472 467
f 474 473 467
f 483 484 476 475
f 484 485 477 476
f 485 486 478 477
f 486 487 479 478
f 487 488 480 479
f 488 489 481 480
f 489 490 482 481
f 490 483 475 482
f 476 477 475
f 477 478 475
f 478 479 475
f 479 480 475
f 480 481 475
f 481 482 475
f 485 484 483
f 486 485 483
f 487 486 483
f 488 487 483
f 489 488 483
f 490 489 483
f 499 500 492 491
f 500 501 493 492
f 501 502 494 493
f 502 503 495 494
f 503 504 496 495
f 504 505 497 496
f 505 506 498 497
f 506 499 491 498
f 492 493 491
f 493 494 491
f 494 495 491
f 495 496 491
f 496 497 491
f 497 498 491
f 501 500 499
f 502 501 499
f 503 502 499
f 504 503 499
f 505 504 499
f 506 505 499
f 514 513 512 511
f 507 508 509 510
f 507 511 512 508
f 510 509 513 514
f 508 512 513 509
f 507 510 514 511
f 522 521 520 519
f 515 516 517 518
f 515 519 520 516
f 518 517 521 522
f 516 520 521 517
f 515 518 522 519
f 530 529 528 527
f 523 524 525 526
f 523 527 528 524
f 526 525 529 530
f 524 528 529 525
f 523 526 530 527
f 538 537 536 535
f 531 532 533 534
f 531 535 536 532
f 534 533 537 538
f 532 536 537 533
f 531 534 538 535
f 546 545 544 543
f 539 540 541 542
f 539 543 544 540
f 542 541 545 546
f 540 544 545 541
f 539 542 546 543
f 554 553 552 551
f 547 548 549 550
f 547 551 552 548
f 550 549 553 554
f 548 552 553 549
f 547 550 554 551
f 562 561 560 559
f 555 556 557 558
f 555 559 560 556
f 558 557 561 562
f 556 560 561 557
f 555 558 562 559
f 570 569 568 567
f 563 564 565 566
f 563 567 568 564
f 566 565 569 570
f 564 568 569 565
f 563 566 570 567
f 578 577 576 575
f 571 572 573 574
f 571 575 576 572
f 574 573 577 578
f 572 576 577 573
f 571 574 578 575
f 586 585 584 583
f 579 580 581 582
f 579 583 584 580
f 582 581 585 586
f 580 584 585 581
f 579 582 586 583
f 594 593 592 591
f 587 588 589 590
f 587 591 592 588
f 590 589 593 594
f 588 592 593 589
f 587 590 594 591
f 602 601 600 599
f 595 596 597 598
f 595 599 600 596
f 598 597 601 602
f 596 600 601 597
f 595 598 602 599
f 610 609 608 607
f 603 604 605 606
f 603 607 608 604
f 606 605 609 610
f 604 608 609 605
f 603 606 610 607
f 618 617 616 615
f 611 612 613 614
f 611 615 616 612
f 614 613 617 618
f 612 616 617 613
f 611 614 618 615
f 626 625 624 623
f 619 620 621 622
f 619 623 624 620
f 622 621 625 626
f 620 624 625 621
f 619 622 626 623
f 634 633 632 631
f 627 628 629 630
f 627 631 632 628
f 630 629 633 634
f 628 632 633 629
f 627 630 634 631
f 642 641 640 639
f 635 636 637 638
f 635 639 640 636
f 638 637 641 642
f 636 640 641 637
f 635 638 642 639
f 650 649 648 647
f 643 644 645 646
f 643 647 648 644
f 646 645 649 650
f 644 648 649 645
f 643 646 650 647
f 658 657 656 655
f 651 652 653 654
f 651 655 656 652
f 654 653 657 658
f 652 656 657 653
f 651 654 658 655
f 666 665 664 663
f 659 660 661 662
f 659 663 664 660
f 662 661 665 666
f 660 664 665 661
f 659 662 666 663
f 674 673 672 671
f 667 668 669 670
f 667 671 672 668
f 670 669 673 674
f 668 672 673 669
f 667 670 674 671
f 682 681 680 679
f 675 676 677 678
f 675 679 680 676
f 678 677 681 682
f 676 680 681 677
f 675 678 682 679
f 690 689 688 687
f 683 684 685 686
f 683 687 688 684
f 686 685 689 690
f 684 688 689 685
f 683 686 690 687
f 698 697 696 695
f 691 692 693 694
f 691 695 696 692
f 694 693 697 698
f 692 696 697 693
f 691 694 698 695
f 703 704 700 699
f 704 705 701 700
f 705 706 702 701
f 706 703 699 702
f 705 704 703
f 706 705 703
f 700 701 699
f 701 702 699
f 714 713 712 711
f 707 708 709 710
f 707 711 712 708
f 710 709 713 714
f 708 712 713 709
f 707 710 714 711
f 722 721 720 719
f 715 716 717 718
f 715 719 720 716
f 718 717 721 722
f 716 720 721 717
f 715 718 722 719
f 730 729 728 727
f 723 724 725 726
f 723 727 728 724
f 726 725 729 730
f 724 728 729 725
f 723 726 730 727
f 738 737 736 735
f 731 732 733 734
f 731 735 736 732
f 734 733 737 738
f 732 736 737 733
f 731 734 738 735
f 743 744 740 739
f 744 745 741 740
f 745 746 742 741
f 746 743 739 742
f 745 744 743
f 746 745 743
f 740 741 739
f 741 742 739
f 754 753 752 751
f 747 748 749 750
f 747 751 752 748
f 750 749 753 754
f 748 752 753 749
f 747 750 754 751
f 762 761 760 759
f 755 756 757 758
f 755 759 760 756
f 758 757 761 762
f 756 760 761 757
f 755 758 762 759
f 770 769 768 767
f 763 764 765 766
f 763 767 768 764
f 766 765 769 770
f 764 768 769 765
f 763 766 770 767
f 778 777 776 775
f 771 772 773 774
f 771 775 776 772
f 774 773 777 778
f 772 776 777 773
f 771 774 778 775
f 783 784 780 779
f 784 785 781 780
f 785 786 782 781
f 786 783 779 782
f 785 784 783
f 786 785 783
f 780 781 779
f 781 782 779
f 794 793 792 791
f 787 788 789 790
f 787 791 792 788
f 790 789 793 794
f 788 792 793 789
f 787 790 794 791
f 802 801 800 799
f 795 796 797 798
f 795 799 800 796
f 798 797 801 802
f 796 800 801 797
f 795 798 802 799
f 810 809 808 807
f 803 804 805 806
f 803 807 808 804
f 806 805 809 810
f 804 808 809 805
f 803 806 810 807
f 818 817 816 815
f 811 812 813 814
f 811 815 816 812
f 814 813 817 818
f 812 816 817 813
f 811 814 818 815
o Vehiculos
f 820 828 827 819
f 821 829 828 820
f 822 830 829 821
f 823 831 830 822
f 824 832 831 823
f 825 833 832 824
f 826 834 833 825
f 819 827 834 826
f 821 820 819
f 822 821 819
f 823 822 819
f 824 823 819
f 825 824 819
f 826 825 819
f 828 829 827
f 829 830 827
f 830 831 827
f 831 832 827
f 832 833 827
f 833 834 827
f 836 840 839 835
f 837 841 840 836
f 838 842 841 837
f 835 839 842 838
f 837 836 835
f 838 837 835
f 840 841 839
f 841 842 839
f 844 852 851 843
f 845 853 852 844
f 846 854 853 845
f 847 855 854 846
f 848 856 855 847
f 849 857 856 848
f 850 858 857 849
f 843 851 858 850
f 845 844 843
f 846 845 843
f 847 846 843
f 848 847 843
f 849 848 843
f 850 849 843
f 852 853 851
f 853 854 851
f 854 855 851
f 855 856 851
f 856 857 851
f 857 858 851
f 860 864 863 859
f 861 865 864 860
f 862 866 865 861
f 859 863 866 862
f 861 860 859
f 862 861 859
f 864 865 863
f 865 866 863
f 868 876 875 867
f 869 877 876 868
f 870 878 877 869
f 871 879 878 870
f 872 880 879 871
f 873 881 880 872
f 874 882 881 873
f 867 875 882 874
f 869 868 867
f 870 869 867
f 871 870 867
f 872 871 867
f 873 872 867
f 874 873 867
f 876 877 875
f 877 878 875
f 878 879 875
f 879 880 875
f 880 881 875
f 881 882 875
f 884 888 887 883
f 885 889 888 884
f 886 890 889 885
f 883 887 890 886
f 885 884 883
f 886 885 883
f 888 889 887
f 889 890 887
f 892 900 899 891
f 893 901 900 892
f 894 902 901 893
f 895 903 902 894
f 896 904 903 895
f 897 905 904 896
f 898 906 905 897
f 891 899 906 898
f 893 892 891
f 894 893 891
f 895 894 891
f 896 895 891
f 897 896 891
f 898 897 891
f 900 901 899
f 901 902 899
f 902 903 899
f 903 904 899
f 904 905 899
f 905 906 899
f 908 912 911 907
f 909 913 912 908
f 910 914 913 909
f 907 911 914 910
f 909 908 907
f 910 909 907
f 912 913 911
f 913 914 911
f 916 924 923 915
f 917 925 924 916
f 918 926 925 917
f 919 927 926 918
f 920 928 927 919
f 921 929 928 920
f 922 930 929 921
f 915 923 930 922
f 917 916 915
f 918 917 915
f 919 918 915
f 920 919 915
f 921 920 915
f 922 921 915
f 924 925 923
f 925 926 923
f 926 927 923
f 927 928 923
f 928 929 923
f 929 930 923
f 932 936 935 931
f 933 937 936 932
f 934 938 937 933
f 931 935 938 934
f 933 932 931
f 934 933 931
f 936 937 935
f 937 938 935
f 940 948 947 939
f 941 949 948 940
f 942 950 949 941
f 943 951 950 942
f 944 952 951 943
f 945 953 952 944
f 946 954 953 945
f 939 947 954 946
f 941 940 939
f 942 941 939
f 943 942 939
f 944 943 939
f 945 944 939
f 946 945 939
f 948 949 947
f 949 950 947
f 950 951 947
f 951 952 947
f 952 953 947
f 953 954 947
f 956 960 959 955
f 957 961 960 956
f 958 962 961 957
f 955 959 962 958
f 957 956 955
f 958 957 955
f 960 961 959
f 961 962 959
f 964 972 971 963
f 965 973 972 964
f 966 974 973 965
f 967 975 974 966
f 968 976 975 967
f 969 977 976 968
f 970 978 977 969
f 963 971 978 970
f 965 964 963
f 966 965 963
f 967 966 963
f 968 967 963
f 969 968 963
f 970 969 963
f 972 973 971
f 973 974 971
f 974 975 971
f 975 976 971
f 976 977 971
f 977 978 971
f 980 984 983 979
f 981 985 984 980
f 982 986 985 981
f 979 983 986 982
f 981 980 979
f 982 981 979
f 984 985 983
f 985 986 983
f 988 996 995 987
f 989 997 996 988
f 990 998 997 989
f 991 999 998 990
f 992 1000 999 991
f 993 1001 1000 992
f 994 1002 1001 993
f 987 995 1002 994
f 989 988 987
f 990 989 987
f 991 990 987
f 992 991 987
f 993 992 987
f 994 993 987
f 996 997 995
f 997 998 995
f 998 999 995
f 999 1000 995
f 1000 1001 995
f 1001 1002 995
f 1004 1008 1007 1003
f 1005 1009 1008 1004
f 1006 1010 1009 1005
f 1003 1007 1010 1006
f 1005 1004 1003
f 1006 1005 1003
f 1008 1009 1007
f 1009 1010 1007
f 1012 1020 1019 1011
f 1013 1021 1020 1012
f 1014 1022 1021 1013
f 1015 1023 1022 1014
f 1016 1024 1023 1015
f 1017 1025 1024 1016
f 1018 1026 1025 1017
f 1011 1019 1026 1018
f 1013 1012 1011
f 1014 1013 1011
f 1015 1014 1011
f 1016 1015 1011
f 1017 1016 1011
f 1018 1017 1011
f 1020 1021 1019
f 1021 1022 1019
f 1022 1023 1019
f 1023 1024 1019
f 1024 1025 1019
f 1025 1026 1019
f 1028 1032 1031 1027
f 1029 1033 1032 1028
f 1030 1034 1033 1029
f 1027 1031 1034 1030
f 1029 1028 1027
f 1030 1029 1027
f 1032 1033 1031
f 1033 1034 1031
f 1036 1044 1043 1035
f 1037 1045 1044 1036
f 1038 1046 1045 1037
f 1039 1047 1046 1038
f 1040 1048 1047 1039
f 1041 1049 1048 1040
f 1042 1050 1049 1041
f 1035 1043 1050 1042
f 1037 1036 1035
f 1038 1037 1035
f 1039 1038 1035
f 1040 1039 1035
f 1041 1040 1035
f 1042 1041 1035
f 1044 1045 1043
f 1045 1046 1043
f 1046 1047 1043
f 1047 1048 1043
f 1048 1049 1043
f 1049 1050 1043
f 1052 1056 1055 1051
f 1053 1057 1056 1052
f 1054 1058 1057 1053
f 1051 1055 1058 1054
f 1053 1052 1051
f 1054 1053 1051
f 1056 1057 1055
f 1057 1058 1055
o Arboles
f 1065 1066 1060 1059
f 1066 1067 1061 1060
f 1067 1068 1062 1061
f 1068 1069 1063 1062
f 1069 1070 1064 1063
f 1070 1065 1059 1064
f 1067 1066 1065
f 1068 1067 1065
f 1069 1068 1065
f 1070 1069 1065
f 1060 1061 1059
f 1061 1062 1059
f 1062 1063 1059
f 1063 1064 1059
f 1076 1077 1072 1071
f 1077 1078 1073 1072
f 1078 1079 1074 1073
f 1079 1080 1075 1074
f 1080 1076 1071 1075
f 1078 1077 1076
f 1079 1078 1076
f 1080 1079 1076
f 1072 1073 1071
f 1073 1074 1071
f 1074 1075 1071
f 1086 1087 1082 1081
f 1087 1088 1083 1082
f 1088 1089 1084 1083
f 1089 1090 1085 1084
f 1090 1086 1081 1085
f 1088 1087 1086
f 1089 1088 1086
f 1090 1089 1086
f 1082 1083 1081
f 1083 1084 1081
f 1084 1085 1081
f 1097 1098 1092 1091
f 1098 1099 1093 1092
f 1099 1100 1094 1093
f 1100 1101 1095 1094
f 1101 1102 1096 1095
f 1102 1097 1091 1096
f 1099 1098 1097
f 1100 1099 1097
f 1101 1100 1097
f 1102 1101 1097
f 1092 1093 1091
f 1093 1094 1091
f 1094 1095 1091
f 1095 1096 1091
f 1108 1109 1104 1103
f 1109 1110 1105 1104
f 1110 1111 1106 1105
f 1111 1112 1107 1106
f 1112 1108 1103 1107
f 1110 1109 1108
f 1111 1110 1108
f 1112 1111 1108
f 1104 1105 1103
f 1105 1106 1103
f 1106 1107 1103
f 1118 1119 1114 1113
f 1119 1120 1115 1114
f 1120 1121 1116 1115
f 1121 1122 1117 1116
f 1122 1118 1113 1117
f 1120 1119 1118
f 1121 1120 1118
f 1122 1121 1118
f 1114 1115 1113
f 1115 1116 1113
f 1116 1117 1113
f 1129 1130 1124 1123
f 1130 1131 1125 1124
f 1131 1132 1126 1125
f 1132 1133 1127 1126
f 1133 1134 1128 1127
f 1134 1129 1123 1128
f 1131 1130 1129
f 1132 1131 1129
f 1133 1132 1129
f 1134 1133 1129
f 1124 1125 1123
f 1125 1126 1123
f 1126 1127 1123
f 1127 1128 1123
f 1140 1141 1136 1135
f 1141 1142 1137 1136
f 1142 1143 1138 1137
f 1143 1144 1139 1138
f 1144 1140 1135 1139
f 1142 1141 1140
f 1143 1142 1140
f 1144 1143 1140
f 1136 1137 1135
f 1137 1138 1135
f 1138 1139 1135
f 1150 1151 1146 1145
f 1151 1152 1147 1146
f 1152 1153 1148 1147
f 1153 1154 1149 1148
f 1154 1150 1145 1149
f 1152 1151 1150
f 1153 1152 1150
f 1154 1153 1150
f 1146 1147 1145
f 1147 1148 1145
f 1148 1149 1145
f 1161 1162 1156 1155
f 1162 1163 1157 1156
f 1163 1164 1158 1157
f 1164 1165 1159 1158
f 1165 1166 1160 1159
f 1166 1161 1155 1160
f 1163 1162 1161
f 1164 1163 1161
f 1165 1164 1161
f 1166 1165 1161
f 1156 1157 1155
f 1157 1158 1155
f 1158 1159 1155
f 1159 1160 1155
f 1172 1173 1168 1167
f 1173 1174 1169 1168
f 1174 1175 1170 1169
f 1175 1176 1171 1170
f 1176 1172 1167 1171
f 1174 1173 1172
f 1175 1174 1172
f 1176 1175 1172
f 1168 1169 1167
f 1169 1170 1167
f 1170 1171 1167
f 1182 1183 1178 1177
f 1183 1184 1179 1178
f 1184 1185 1180 1179
f 1185 1186 1181 1180
f 1186 1182 1177 1181
f 1184 1183 1182
f 1185 1184 1182
f 1186 1185 1182
f 1178 1179 1177
f 1179 1180 1177
f 1180 1181 1177
f 1193 1194 1188 1187
f 1194 1195 1189 1188
f 1195 1196 1190 1189
f 1196 1197 1191 1190
f 1197 1198 1192 1191
f 1198 1193 1187 1192
f 1195 1194 1193
f 1196 1195 1193
f 1197 1196 1193
f 1198 1197 1193
f 1188 1189 1187
f 1189 1190 1187
f 1190 1191 1187
f 1191 1192 1187
f 1204 1205 1200 1199
f 1205 1206 1201 1200
f 1206 1207 1202 1201
f 1207 1208 1203 1202
f 1208 1204 1199 1203
f 1206 1205 1204
f 1207 1206 1204
f 1208 1207 1204
f 1200 1201 1199
f 1201 1202 1199
f 1202 1203 1199
f 1214 1215 1210 1209
f 1215 1216 1211 1210
f 1216 1217 1212 1211
f 1217 1218 1213 1212
f 1218 1214 1209 1213
f 1216 1215 1214
f 1217 1216 1214
f 1218 1217 1214
f 1210 1211 1209
f 1211 1212 1209
f 1212 1213 1209
f 1225 1226 1220 1219
f 1226 1227 1221 1220
f 1227 1228 1222 1221
f 1228 1229 1223 1222
f 1229 1230 1224 1223
f 1230 1225 1219 1224
f 1227 1226 1225
f 1228 1227 1225
f 1229 1228 1225
f 1230 1229 1225
f 1220 1221 1219
f 1221 1222 1219
f 1222 1223 1219
f 1223 1224 1219
f 1236 1237 1232 1231
f 1237 1238 1233 1232
f 1238 1239 1234 1233
f 1239 1240 1235 1234
f 1240 1236 1231 1235
f 1238 1237 1236
f 1239 1238 1236
f 1240 1239 1236
f 1232 1233 1231
f 1233 1234 1231
f 1234 1235 1231
f 1246 1247 1242 1241
f 1247 1248 1243 1242
f 1248 1249 1244 1243
f 1249 1250 1245 1244
f 1250 1246 1241 1245
f 1248 1247 1246
f 1249 1248 1246
f 1250 1249 1246
f 1242 1243 1241
f 1243 1244 1241
f 1244 1245 1241
f 1257 1258 1252 1251
f 1258 1259 1253 1252
f 1259 1260 1254 1253
f 1260 1261 1255 1254
f 1261 1262 1256 1255
f 1262 1257 1251 1256
f 1259 1258 1257
f 1260 1259 1257
f 1261 1260 1257
f 1262 1261 1257
f 1252 1253 1251
f 1253 1254 1251
f 1254 1255 1251
f 1255 1256 1251
f 1268 1269 1264 1263
f 1269 1270 1265 1264
f 1270 1271 1266 1265
f 1271 1272 1267 1266
f 1272 1268 1263 1267
f 1270 1269 1268
f 1271 1270 1268
f 1272 1271 1268
f 1264 1265 1263
f 1265 1266 1263
f 1266 1267 1263
f 1278 1279 1274 1273
f 1279 1280 1275 1274
f 1280 1281 1276 1275
f 1281 1282 1277 1276
f 1282 1278 1273 1277
f 1280 1279 1278
f 1281 1280 1278
f 1282 1281 1278
f 1274 1275 1273
f 1275 1276 1273
f 1276 1277 1273
f 1289 1290 1284 1283
f 1290 1291 1285 1284
f 1291 1292 1286 1285
f 1292 1293 1287 1286
f 1293 1294 1288 1287
f 1294 1289 1283 1288
f 1291 1290 1289
f 1292 1291 1289
f 1293 1292 1289
f 1294 1293 1289
f 1284 1285 1283
f 1285 1286 1283
f 1286 1287 1283
f 1287 1288 1283
f 1300 1301 1296 1295
f 1301 1302 1297 1296
f 1302 1303 1298 1297
f 1303 1304 1299 1298
f 1304 1300 1295 1299
f 1302 1301 1300
f 1303 1302 1300
f 1304 1303 1300
f 1296 1297 1295
f 1297 1298 1295
f 1298 1299 1295
f 1310 1311 1306 1305
f 1311 1312 1307 1306
f 1312 1313 1308 1307
f 1313 1314 1309 1308
f 1314 1310 1305 1309
f 1312 1311 1310
f 1313 1312 1310
f 1314 1313 1310
f 1306 1307 1305
f 1307 1308 1305
f 1308 1309 1305
f 1321 1322 1316 1315
f 1322 1323 1317 1316
f 1323 1324 1318 1317
f 1324 1325 1319 1318
f 1325 1326 1320 1319
f 1326 1321 1315 1320
f 1323 1322 1321
f 1324 1323 1321
f 1325 1324 1321
f 1326 1325 1321
f 1316 1317 1315
f 1317 1318 1315
f 1318 1319 1315
f 1319 1320 1315
f 1332 1333 1328 1327
f 1333 1334 1329 1328
f 1334 1335 1330 1329
f 1335 1336 1331 1330
f 1336 1332 1327 1331
f 1334 1333 1332
f 1335 1334 1332
f 1336 1335 1332
f 1328 1329 1327
f 1329 1330 1327
f 1330 1331 1327
f 1342 1343 1338 1337
f 1343 1344 1339 1338
f 1344 1345 1340 1339
f 1345 1346 1341 1340
f 1346 1342 1337 1341
f 1344 1343 1342
f 1345 1344 1342
f 1346 1345 1342
f 1338 1339 1337
f 1339 1340 1337
f 1340 1341 1337
f 1353 1354 1348 1347
f 1354 1355 1349 1348
f 1355 1356 1350 1349
f 1356 1357 1351 1350
f 1357 1358 1352 1351
f 1358 1353 1347 1352
f 1355 1354 1353
f 1356 1355 1353
f 1357 1356 1353
f 1358 1357 1353
f 1348 1349 1347
f 1349 1350 1347
f 1350 1351 1347
f 1351 1352 1347
f 1364 1365 1360 1359
f 1365 1366 1361 1360
f 1366 1367 1362 1361
f 1367 1368 1363 1362
f 1368 1364 1359 1363
f 1366 1365 1364
f 1367 1366 1364
f 1368 1367 1364
f 1360 1361 1359
f 1361 1362 1359
f 1362 1363 1359
f 1374 1375 1370 1369
f 1375 1376 1371 1370
f 1376 1377 1372 1371
f 1377 1378 1373 1372
f 1378 1374 1369 1373
f 1376 1375 1374
f 1377 1376 1374
f 1378 1377 1374
f 1370 1371 1369
f 1371 1372 1369
f 1372 1373 1369
f 1385 1386 1380 1379
f 1386 1387 1381 1380
f 1387 1388 1382 1381
f 1388 1389 1383 1382
f 1389 1390 1384 1383
f 1390 1385 1379 1384
f 1387 1386 1385
f 1388 1387 1385
f 1389 1388 1385
f 1390 1389 1385
f 1380 1381 1379
f 1381 1382 1379
f 1382 1383 1379
f 1383 1384 1379
f 1396 1397 1392 1391
f 1397 1398 1393 1392
f 1398 1399 1394 1393
f 1399 1400 1395 1394
f 1400 1396 1391 1395
f 1398 1397 1396
f 1399 1398 1396
f 1400 1399 1396
f 1392 1393 1391
f 1393 1394 1391
f 1394 1395 1391
f 1406 1407 1402 1401
f 1407 1408 1403 1402
f 1408 1409 1404 1403
f 1409 1410 1405 1404
f 1410 1406 1401 1405
f 1408 1407 1406
f 1409 1408 1406
f 1410 1409 1406
f 1402 1403 1401
f 1403 1404 1401
f 1404 1405 1401
f 1417 1418 1412 1411
f 1418 1419 1413 1412
f 1419 1420 1414 1413
f 1420 1421 1415 1414
f 1421 1422 1416 1415
f 1422 1417 1411 1416
f 1419 1418 1417
f 1420 1419 1417
f 1421 1420 1417
f 1422 1421 1417
f 1412 1413 1411
f 1413 1414 1411
f 1414 1415 1411
f 1415 1416 1411
f 1428 1429 1424 1423
f 1429 1430 1425 1424
f 1430 1431 1426 1425
f 1431 1432 1427 1426
f 1432 1428 1423 1427
f 1430 1429 1428
f 1431 1430 1428
f 1432 1431 1428
f 1424 1425 1423
f 1425 1426 1423
f 1426 1427 1423
f 1438 1439 1434 1433
f 1439 1440 1435 1434
f 1440 1441 1436 1435
f 1441 1442 1437 1436
f 1442 1438 1433 1437
f 1440 1439 1438
f 1441 1440 1438
f 1442 1441 1438
f 1434 1435 1433
f 1435 1436 1433
f 1436 1437 1433
