# Vía Expresa Elevada — versión multicolor
# Proyecto de EPT · 1 unidad = 1 metro · mide 90 x 50 unidades
# Los colores van en el .mtl de al lado y también en cada vértice.
# Deja los dos archivos en la misma carpeta.
mtllib via-expresa-tinkercad-color.mtl

v -45.00 -1.00 -25.00 0.36 0.28 0.19
v 45.00 -1.00 -25.00 0.36 0.28 0.19
v 45.00 -1.00 25.00 0.36 0.28 0.19
v -45.00 -1.00 25.00 0.36 0.28 0.19
v -45.00 0.00 -25.00 0.36 0.28 0.19
v 45.00 0.00 -25.00 0.36 0.28 0.19
v 45.00 0.00 25.00 0.36 0.28 0.19
v -45.00 0.00 25.00 0.36 0.28 0.19
v -45.00 0.00 -25.00 0.45 0.65 0.3
v 45.00 0.00 -25.00 0.45 0.65 0.3
v 45.00 0.00 25.00 0.45 0.65 0.3
v -45.00 0.00 25.00 0.45 0.65 0.3
v -45.00 0.40 -25.00 0.45 0.65 0.3
v 45.00 0.40 -25.00 0.45 0.65 0.3
v 45.00 0.40 25.00 0.45 0.65 0.3
v -45.00 0.40 25.00 0.45 0.65 0.3
v -45.00 0.40 -25.00 0.78 0.8 0.82
v 45.00 0.40 -25.00 0.78 0.8 0.82
v 45.00 0.40 -22.00 0.78 0.8 0.82
v -45.00 0.40 -22.00 0.78 0.8 0.82
v -45.00 0.70 -25.00 0.78 0.8 0.82
v 45.00 0.70 -25.00 0.78 0.8 0.82
v 45.00 0.70 -22.00 0.78 0.8 0.82
v -45.00 0.70 -22.00 0.78 0.8 0.82
v -45.00 0.40 22.00 0.78 0.8 0.82
v 45.00 0.40 22.00 0.78 0.8 0.82
v 45.00 0.40 25.00 0.78 0.8 0.82
v -45.00 0.40 25.00 0.78 0.8 0.82
v -45.00 0.70 22.00 0.78 0.8 0.82
v 45.00 0.70 22.00 0.78 0.8 0.82
v 45.00 0.70 25.00 0.78 0.8 0.82
v -45.00 0.70 25.00 0.78 0.8 0.82
v -45.00 0.40 -22.00 0.2 0.52 0.4
v 45.00 0.40 -22.00 0.2 0.52 0.4
v 45.00 0.40 -19.00 0.2 0.52 0.4
v -45.00 0.40 -19.00 0.2 0.52 0.4
v -45.00 0.70 -22.00 0.2 0.52 0.4
v 45.00 0.70 -22.00 0.2 0.52 0.4
v 45.00 0.70 -19.00 0.2 0.52 0.4
v -45.00 0.70 -19.00 0.2 0.52 0.4
v -45.00 0.40 -16.00 0.28 0.3 0.34
v 45.00 0.40 -16.00 0.28 0.3 0.34
v 45.00 0.40 -7.00 0.28 0.3 0.34
v -45.00 0.40 -7.00 0.28 0.3 0.34
v -45.00 0.70 -16.00 0.28 0.3 0.34
v 45.00 0.70 -16.00 0.28 0.3 0.34
v 45.00 0.70 -7.00 0.28 0.3 0.34
v -45.00 0.70 -7.00 0.28 0.3 0.34
v -45.00 0.40 7.00 0.28 0.3 0.34
v 45.00 0.40 7.00 0.28 0.3 0.34
v 45.00 0.40 11.00 0.28 0.3 0.34
v -45.00 0.40 11.00 0.28 0.3 0.34
v -45.00 0.70 7.00 0.28 0.3 0.34
v 45.00 0.70 7.00 0.28 0.3 0.34
v 45.00 0.70 11.00 0.28 0.3 0.34
v -45.00 0.70 11.00 0.28 0.3 0.34
v -45.00 0.40 15.00 0.28 0.3 0.34
v 45.00 0.40 15.00 0.28 0.3 0.34
v 45.00 0.40 19.00 0.28 0.3 0.34
v -45.00 0.40 19.00 0.28 0.3 0.34
v -45.00 0.70 15.00 0.28 0.3 0.34
v 45.00 0.70 15.00 0.28 0.3 0.34
v 45.00 0.70 19.00 0.28 0.3 0.34
v -45.00 0.70 19.00 0.28 0.3 0.34
v -15.00 0.40 11.00 0.85 0.86 0.87
v 15.00 0.40 11.00 0.85 0.86 0.87
v 15.00 0.40 15.00 0.85 0.86 0.87
v -15.00 0.40 15.00 0.85 0.86 0.87
v -15.00 1.40 11.00 0.85 0.86 0.87
v 15.00 1.40 11.00 0.85 0.86 0.87
v 15.00 1.40 15.00 0.85 0.86 0.87
v -15.00 1.40 15.00 0.85 0.86 0.87
v -12.40 1.40 12.60 0.78 0.8 0.82
v -11.60 1.40 12.60 0.78 0.8 0.82
v -11.60 1.40 13.40 0.78 0.8 0.82
v -12.40 1.40 13.40 0.78 0.8 0.82
v -12.40 4.90 12.60 0.78 0.8 0.82
v -11.60 4.90 12.60 0.78 0.8 0.82
v -11.60 4.90 13.40 0.78 0.8 0.82
v -12.40 4.90 13.40 0.78 0.8 0.82
v 11.60 1.40 12.60 0.78 0.8 0.82
v 12.40 1.40 12.60 0.78 0.8 0.82
v 12.40 1.40 13.40 0.78 0.8 0.82
v 11.60 1.40 13.40 0.78 0.8 0.82
v 11.60 4.90 12.60 0.78 0.8 0.82
v 12.40 4.90 12.60 0.78 0.8 0.82
v 12.40 4.90 13.40 0.78 0.8 0.82
v 11.60 4.90 13.40 0.78 0.8 0.82
v -16.00 4.90 10.50 0.78 0.8 0.82
v 16.00 4.90 10.50 0.78 0.8 0.82
v 16.00 4.90 15.50 0.78 0.8 0.82
v -16.00 4.90 15.50 0.78 0.8 0.82
v -16.00 5.50 10.50 0.78 0.8 0.82
v 16.00 5.50 10.50 0.78 0.8 0.82
v 16.00 5.50 15.50 0.78 0.8 0.82
v -16.00 5.50 15.50 0.78 0.8 0.82
v -8.00 0.40 7.70 0.8 0.81 0.83
v 4.00 0.40 7.70 0.8 0.81 0.83
v 4.00 0.40 10.30 0.8 0.81 0.83
v -8.00 0.40 10.30 0.8 0.81 0.83
v -8.00 3.40 7.70 0.8 0.81 0.83
v 4.00 3.40 7.70 0.8 0.81 0.83
v 4.00 3.40 10.30 0.8 0.81 0.83
v -8.00 3.40 10.30 0.8 0.81 0.83
v -27.50 0.40 -2.50 0.78 0.8 0.82
v -22.50 0.40 -2.50 0.78 0.8 0.82
v -22.50 0.40 2.50 0.78 0.8 0.82
v -27.50 0.40 2.50 0.78 0.8 0.82
v -27.50 1.20 -2.50 0.78 0.8 0.82
v -22.50 1.20 -2.50 0.78 0.8 0.82
v -22.50 1.20 2.50 0.78 0.8 0.82
v -27.50 1.20 2.50 0.78 0.8 0.82
v -26.25 1.20 -1.25 0.78 0.8 0.82
v -23.75 1.20 -1.25 0.78 0.8 0.82
v -23.75 1.20 1.25 0.78 0.8 0.82
v -26.25 1.20 1.25 0.78 0.8 0.82
v -26.25 7.40 -1.25 0.78 0.8 0.82
v -23.75 7.40 -1.25 0.78 0.8 0.82
v -23.75 7.40 1.25 0.78 0.8 0.82
v -26.25 7.40 1.25 0.78 0.8 0.82
v -26.50 7.40 -7.00 0.78 0.8 0.82
v -23.50 7.40 -7.00 0.78 0.8 0.82
v -23.50 7.40 7.00 0.78 0.8 0.82
v -26.50 7.40 7.00 0.78 0.8 0.82
v -26.50 8.40 -7.00 0.78 0.8 0.82
v -23.50 8.40 -7.00 0.78 0.8 0.82
v -23.50 8.40 7.00 0.78 0.8 0.82
v -26.50 8.40 7.00 0.78 0.8 0.82
v -2.50 0.40 -2.50 0.78 0.8 0.82
v 2.50 0.40 -2.50 0.78 0.8 0.82
v 2.50 0.40 2.50 0.78 0.8 0.82
v -2.50 0.40 2.50 0.78 0.8 0.82
v -2.50 1.20 -2.50 0.78 0.8 0.82
v 2.50 1.20 -2.50 0.78 0.8 0.82
v 2.50 1.20 2.50 0.78 0.8 0.82
v -2.50 1.20 2.50 0.78 0.8 0.82
v -1.25 1.20 -1.25 0.78 0.8 0.82
v 1.25 1.20 -1.25 0.78 0.8 0.82
v 1.25 1.20 1.25 0.78 0.8 0.82
v -1.25 1.20 1.25 0.78 0.8 0.82
v -1.25 7.40 -1.25 0.78 0.8 0.82
v 1.25 7.40 -1.25 0.78 0.8 0.82
v 1.25 7.40 1.25 0.78 0.8 0.82
v -1.25 7.40 1.25 0.78 0.8 0.82
v -1.50 7.40 -7.00 0.78 0.8 0.82
v 1.50 7.40 -7.00 0.78 0.8 0.82
v 1.50 7.40 7.00 0.78 0.8 0.82
v -1.50 7.40 7.00 0.78 0.8 0.82
v -1.50 8.40 -7.00 0.78 0.8 0.82
v 1.50 8.40 -7.00 0.78 0.8 0.82
v 1.50 8.40 7.00 0.78 0.8 0.82
v -1.50 8.40 7.00 0.78 0.8 0.82
v 22.50 0.40 -2.50 0.78 0.8 0.82
v 27.50 0.40 -2.50 0.78 0.8 0.82
v 27.50 0.40 2.50 0.78 0.8 0.82
v 22.50 0.40 2.50 0.78 0.8 0.82
v 22.50 1.20 -2.50 0.78 0.8 0.82
v 27.50 1.20 -2.50 0.78 0.8 0.82
v 27.50 1.20 2.50 0.78 0.8 0.82
v 22.50 1.20 2.50 0.78 0.8 0.82
v 23.75 1.20 -1.25 0.78 0.8 0.82
v 26.25 1.20 -1.25 0.78 0.8 0.82
v 26.25 1.20 1.25 0.78 0.8 0.82
v 23.75 1.20 1.25 0.78 0.8 0.82
v 23.75 7.40 -1.25 0.78 0.8 0.82
v 26.25 7.40 -1.25 0.78 0.8 0.82
v 26.25 7.40 1.25 0.78 0.8 0.82
v 23.75 7.40 1.25 0.78 0.8 0.82
v 23.50 7.40 -7.00 0.78 0.8 0.82
v 26.50 7.40 -7.00 0.78 0.8 0.82
v 26.50 7.40 7.00 0.78 0.8 0.82
v 23.50 7.40 7.00 0.78 0.8 0.82
v 23.50 8.40 -7.00 0.78 0.8 0.82
v 26.50 8.40 -7.00 0.78 0.8 0.82
v 26.50 8.40 7.00 0.78 0.8 0.82
v 23.50 8.40 7.00 0.78 0.8 0.82
v -40.00 8.40 -7.00 0.78 0.8 0.82
v 40.00 8.40 -7.00 0.78 0.8 0.82
v 40.00 8.40 7.00 0.78 0.8 0.82
v -40.00 8.40 7.00 0.78 0.8 0.82
v -40.00 9.90 -7.00 0.78 0.8 0.82
v 40.00 9.90 -7.00 0.78 0.8 0.82
v 40.00 9.90 7.00 0.78 0.8 0.82
v -40.00 9.90 7.00 0.78 0.8 0.82
v -40.00 9.90 -7.00 0.78 0.8 0.82
v 40.00 9.90 -7.00 0.78 0.8 0.82
v 40.00 9.90 -6.00 0.78 0.8 0.82
v -40.00 9.90 -6.00 0.78 0.8 0.82
v -40.00 10.90 -7.00 0.78 0.8 0.82
v 40.00 10.90 -7.00 0.78 0.8 0.82
v 40.00 10.90 -6.00 0.78 0.8 0.82
v -40.00 10.90 -6.00 0.78 0.8 0.82
v -40.00 9.90 6.00 0.78 0.8 0.82
v 40.00 9.90 6.00 0.78 0.8 0.82
v 40.00 9.90 7.00 0.78 0.8 0.82
v -40.00 9.90 7.00 0.78 0.8 0.82
v -40.00 10.90 6.00 0.78 0.8 0.82
v 40.00 10.90 6.00 0.78 0.8 0.82
v 40.00 10.90 7.00 0.78 0.8 0.82
v -40.00 10.90 7.00 0.78 0.8 0.82
v -40.00 9.90 -0.50 0.78 0.8 0.82
v 40.00 9.90 -0.50 0.78 0.8 0.82
v 40.00 9.90 0.50 0.78 0.8 0.82
v -40.00 9.90 0.50 0.78 0.8 0.82
v -40.00 10.70 -0.50 0.78 0.8 0.82
v 40.00 10.70 -0.50 0.78 0.8 0.82
v 40.00 10.70 0.50 0.78 0.8 0.82
v -40.00 10.70 0.50 0.78 0.8 0.82
v -27.00 9.90 -4.50 0.75 0.22 0.19
v -23.00 9.90 -4.50 0.75 0.22 0.19
v -23.00 9.90 -2.50 0.75 0.22 0.19
v -27.00 9.90 -2.50 0.75 0.22 0.19
v -27.00 10.90 -4.50 0.75 0.22 0.19
v -23.00 10.90 -4.50 0.75 0.22 0.19
v -23.00 10.90 -2.50 0.75 0.22 0.19
v -27.00 10.90 -2.50 0.75 0.22 0.19
v -26.00 10.90 -4.40 0.75 0.22 0.19
v -24.00 10.90 -4.40 0.75 0.22 0.19
v -24.00 10.90 -2.60 0.75 0.22 0.19
v -26.00 10.90 -2.60 0.75 0.22 0.19
v -26.00 11.70 -4.40 0.75 0.22 0.19
v -24.00 11.70 -4.40 0.75 0.22 0.19
v -24.00 11.70 -2.60 0.75 0.22 0.19
v -26.00 11.70 -2.60 0.75 0.22 0.19
v 8.00 9.90 -4.50 0.24 0.42 0.66
v 12.00 9.90 -4.50 0.24 0.42 0.66
v 12.00 9.90 -2.50 0.24 0.42 0.66
v 8.00 9.90 -2.50 0.24 0.42 0.66
v 8.00 10.90 -4.50 0.24 0.42 0.66
v 12.00 10.90 -4.50 0.24 0.42 0.66
v 12.00 10.90 -2.50 0.24 0.42 0.66
v 8.00 10.90 -2.50 0.24 0.42 0.66
v 9.00 10.90 -4.40 0.24 0.42 0.66
v 11.00 10.90 -4.40 0.24 0.42 0.66
v 11.00 10.90 -2.60 0.24 0.42 0.66
v 9.00 10.90 -2.60 0.24 0.42 0.66
v 9.00 11.70 -4.40 0.24 0.42 0.66
v 11.00 11.70 -4.40 0.24 0.42 0.66
v 11.00 11.70 -2.60 0.24 0.42 0.66
v 9.00 11.70 -2.60 0.24 0.42 0.66
v -7.00 9.90 2.50 0.93 0.76 0.14
v -3.00 9.90 2.50 0.93 0.76 0.14
v -3.00 9.90 4.50 0.93 0.76 0.14
v -7.00 9.90 4.50 0.93 0.76 0.14
v -7.00 10.90 2.50 0.93 0.76 0.14
v -3.00 10.90 2.50 0.93 0.76 0.14
v -3.00 10.90 4.50 0.93 0.76 0.14
v -7.00 10.90 4.50 0.93 0.76 0.14
v -6.00 10.90 2.60 0.93 0.76 0.14
v -4.00 10.90 2.60 0.93 0.76 0.14
v -4.00 10.90 4.40 0.93 0.76 0.14
v -6.00 10.90 4.40 0.93 0.76 0.14
v -6.00 11.70 2.60 0.93 0.76 0.14
v -4.00 11.70 2.60 0.93 0.76 0.14
v -4.00 11.70 4.40 0.93 0.76 0.14
v -6.00 11.70 4.40 0.93 0.76 0.14
v 26.00 9.90 2.50 0.75 0.22 0.19
v 30.00 9.90 2.50 0.75 0.22 0.19
v 30.00 9.90 4.50 0.75 0.22 0.19
v 26.00 9.90 4.50 0.75 0.22 0.19
v 26.00 10.90 2.50 0.75 0.22 0.19
v 30.00 10.90 2.50 0.75 0.22 0.19
v 30.00 10.90 4.50 0.75 0.22 0.19
v 26.00 10.90 4.50 0.75 0.22 0.19
v 27.00 10.90 2.60 0.75 0.22 0.19
v 29.00 10.90 2.60 0.75 0.22 0.19
v 29.00 10.90 4.40 0.75 0.22 0.19
v 27.00 10.90 4.40 0.75 0.22 0.19
v 27.00 11.70 2.60 0.75 0.22 0.19
v 29.00 11.70 2.60 0.75 0.22 0.19
v 29.00 11.70 4.40 0.75 0.22 0.19
v 27.00 11.70 4.40 0.75 0.22 0.19
v -22.00 0.40 -14.00 0.24 0.42 0.66
v -18.00 0.40 -14.00 0.24 0.42 0.66
v -18.00 0.40 -12.00 0.24 0.42 0.66
v -22.00 0.40 -12.00 0.24 0.42 0.66
v -22.00 1.40 -14.00 0.24 0.42 0.66
v -18.00 1.40 -14.00 0.24 0.42 0.66
v -18.00 1.40 -12.00 0.24 0.42 0.66
v -22.00 1.40 -12.00 0.24 0.42 0.66
v -21.00 1.40 -13.90 0.24 0.42 0.66
v -19.00 1.40 -13.90 0.24 0.42 0.66
v -19.00 1.40 -12.10 0.24 0.42 0.66
v -21.00 1.40 -12.10 0.24 0.42 0.66
v -21.00 2.20 -13.90 0.24 0.42 0.66
v -19.00 2.20 -13.90 0.24 0.42 0.66
v -19.00 2.20 -12.10 0.24 0.42 0.66
v -21.00 2.20 -12.10 0.24 0.42 0.66
v 13.00 0.40 -10.50 0.93 0.76 0.14
v 17.00 0.40 -10.50 0.93 0.76 0.14
v 17.00 0.40 -8.50 0.93 0.76 0.14
v 13.00 0.40 -8.50 0.93 0.76 0.14
v 13.00 1.40 -10.50 0.93 0.76 0.14
v 17.00 1.40 -10.50 0.93 0.76 0.14
v 17.00 1.40 -8.50 0.93 0.76 0.14
v 13.00 1.40 -8.50 0.93 0.76 0.14
v 14.00 1.40 -10.40 0.93 0.76 0.14
v 16.00 1.40 -10.40 0.93 0.76 0.14
v 16.00 1.40 -8.60 0.93 0.76 0.14
v 14.00 1.40 -8.60 0.93 0.76 0.14
v 14.00 2.20 -10.40 0.93 0.76 0.14
v 16.00 2.20 -10.40 0.93 0.76 0.14
v 16.00 2.20 -8.60 0.93 0.76 0.14
v 14.00 2.20 -8.60 0.93 0.76 0.14
v -35.30 0.40 -17.80 0.42 0.31 0.2
v -34.70 0.40 -17.80 0.42 0.31 0.2
v -34.70 0.40 -17.20 0.42 0.31 0.2
v -35.30 0.40 -17.20 0.42 0.31 0.2
v -35.30 3.40 -17.80 0.42 0.31 0.2
v -34.70 3.40 -17.80 0.42 0.31 0.2
v -34.70 3.40 -17.20 0.42 0.31 0.2
v -35.30 3.40 -17.20 0.42 0.31 0.2
v -36.50 3.40 -19.00 0.28 0.5 0.24
v -33.50 3.40 -19.00 0.28 0.5 0.24
v -33.50 3.40 -16.00 0.28 0.5 0.24
v -36.50 3.40 -16.00 0.28 0.5 0.24
v -36.50 6.40 -19.00 0.28 0.5 0.24
v -33.50 6.40 -19.00 0.28 0.5 0.24
v -33.50 6.40 -16.00 0.28 0.5 0.24
v -36.50 6.40 -16.00 0.28 0.5 0.24
v -12.30 0.40 -17.80 0.42 0.31 0.2
v -11.70 0.40 -17.80 0.42 0.31 0.2
v -11.70 0.40 -17.20 0.42 0.31 0.2
v -12.30 0.40 -17.20 0.42 0.31 0.2
v -12.30 3.40 -17.80 0.42 0.31 0.2
v -11.70 3.40 -17.80 0.42 0.31 0.2
v -11.70 3.40 -17.20 0.42 0.31 0.2
v -12.30 3.40 -17.20 0.42 0.31 0.2
v -13.50 3.40 -19.00 0.28 0.5 0.24
v -10.50 3.40 -19.00 0.28 0.5 0.24
v -10.50 3.40 -16.00 0.28 0.5 0.24
v -13.50 3.40 -16.00 0.28 0.5 0.24
v -13.50 6.40 -19.00 0.28 0.5 0.24
v -10.50 6.40 -19.00 0.28 0.5 0.24
v -10.50 6.40 -16.00 0.28 0.5 0.24
v -13.50 6.40 -16.00 0.28 0.5 0.24
v 11.70 0.40 -17.80 0.42 0.31 0.2
v 12.30 0.40 -17.80 0.42 0.31 0.2
v 12.30 0.40 -17.20 0.42 0.31 0.2
v 11.70 0.40 -17.20 0.42 0.31 0.2
v 11.70 3.40 -17.80 0.42 0.31 0.2
v 12.30 3.40 -17.80 0.42 0.31 0.2
v 12.30 3.40 -17.20 0.42 0.31 0.2
v 11.70 3.40 -17.20 0.42 0.31 0.2
v 10.50 3.40 -19.00 0.28 0.5 0.24
v 13.50 3.40 -19.00 0.28 0.5 0.24
v 13.50 3.40 -16.00 0.28 0.5 0.24
v 10.50 3.40 -16.00 0.28 0.5 0.24
v 10.50 6.40 -19.00 0.28 0.5 0.24
v 13.50 6.40 -19.00 0.28 0.5 0.24
v 13.50 6.40 -16.00 0.28 0.5 0.24
v 10.50 6.40 -16.00 0.28 0.5 0.24
v 34.70 0.40 -17.80 0.42 0.31 0.2
v 35.30 0.40 -17.80 0.42 0.31 0.2
v 35.30 0.40 -17.20 0.42 0.31 0.2
v 34.70 0.40 -17.20 0.42 0.31 0.2
v 34.70 3.40 -17.80 0.42 0.31 0.2
v 35.30 3.40 -17.80 0.42 0.31 0.2
v 35.30 3.40 -17.20 0.42 0.31 0.2
v 34.70 3.40 -17.20 0.42 0.31 0.2
v 33.50 3.40 -19.00 0.28 0.5 0.24
v 36.50 3.40 -19.00 0.28 0.5 0.24
v 36.50 3.40 -16.00 0.28 0.5 0.24
v 33.50 3.40 -16.00 0.28 0.5 0.24
v 33.50 6.40 -19.00 0.28 0.5 0.24
v 36.50 6.40 -19.00 0.28 0.5 0.24
v 36.50 6.40 -16.00 0.28 0.5 0.24
v 33.50 6.40 -16.00 0.28 0.5 0.24
v -28.30 0.40 20.20 0.42 0.31 0.2
v -27.70 0.40 20.20 0.42 0.31 0.2
v -27.70 0.40 20.80 0.42 0.31 0.2
v -28.30 0.40 20.80 0.42 0.31 0.2
v -28.30 3.40 20.20 0.42 0.31 0.2
v -27.70 3.40 20.20 0.42 0.31 0.2
v -27.70 3.40 20.80 0.42 0.31 0.2
v -28.30 3.40 20.80 0.42 0.31 0.2
v -29.50 3.40 19.00 0.28 0.5 0.24
v -26.50 3.40 19.00 0.28 0.5 0.24
v -26.50 3.40 22.00 0.28 0.5 0.24
v -29.50 3.40 22.00 0.28 0.5 0.24
v -29.50 6.40 19.00 0.28 0.5 0.24
v -26.50 6.40 19.00 0.28 0.5 0.24
v -26.50 6.40 22.00 0.28 0.5 0.24
v -29.50 6.40 22.00 0.28 0.5 0.24
v -0.30 0.40 20.20 0.42 0.31 0.2
v 0.30 0.40 20.20 0.42 0.31 0.2
v 0.30 0.40 20.80 0.42 0.31 0.2
v -0.30 0.40 20.80 0.42 0.31 0.2
v -0.30 3.40 20.20 0.42 0.31 0.2
v 0.30 3.40 20.20 0.42 0.31 0.2
v 0.30 3.40 20.80 0.42 0.31 0.2
v -0.30 3.40 20.80 0.42 0.31 0.2
v -1.50 3.40 19.00 0.28 0.5 0.24
v 1.50 3.40 19.00 0.28 0.5 0.24
v 1.50 3.40 22.00 0.28 0.5 0.24
v -1.50 3.40 22.00 0.28 0.5 0.24
v -1.50 6.40 19.00 0.28 0.5 0.24
v 1.50 6.40 19.00 0.28 0.5 0.24
v 1.50 6.40 22.00 0.28 0.5 0.24
v -1.50 6.40 22.00 0.28 0.5 0.24
v 27.70 0.40 20.20 0.42 0.31 0.2
v 28.30 0.40 20.20 0.42 0.31 0.2
v 28.30 0.40 20.80 0.42 0.31 0.2
v 27.70 0.40 20.80 0.42 0.31 0.2
v 27.70 3.40 20.20 0.42 0.31 0.2
v 28.30 3.40 20.20 0.42 0.31 0.2
v 28.30 3.40 20.80 0.42 0.31 0.2
v 27.70 3.40 20.80 0.42 0.31 0.2
v 26.50 3.40 19.00 0.28 0.5 0.24
v 29.50 3.40 19.00 0.28 0.5 0.24
v 29.50 3.40 22.00 0.28 0.5 0.24
v 26.50 3.40 22.00 0.28 0.5 0.24
v 26.50 6.40 19.00 0.28 0.5 0.24
v 29.50 6.40 19.00 0.28 0.5 0.24
v 29.50 6.40 22.00 0.28 0.5 0.24
v 26.50 6.40 22.00 0.28 0.5 0.24
o 1_Terreno
usemtl tierra
f 8 7 6 5
f 1 2 3 4
f 1 5 6 2
f 4 3 7 8
f 2 6 7 3
f 1 4 8 5
usemtl pasto
f 16 15 14 13
f 9 10 11 12
f 9 13 14 10
f 12 11 15 16
f 10 14 15 11
f 9 12 16 13
o 2_A_nivel_del_piso
usemtl concreto
f 24 23 22 21
f 17 18 19 20
f 17 21 22 18
f 20 19 23 24
f 18 22 23 19
f 17 20 24 21
f 32 31 30 29
f 25 26 27 28
f 25 29 30 26
f 28 27 31 32
f 26 30 31 27
f 25 28 32 29
usemtl ciclovia
f 40 39 38 37
f 33 34 35 36
f 33 37 38 34
f 36 35 39 40
f 34 38 39 35
f 33 36 40 37
usemtl pista
f 48 47 46 45
f 41 42 43 44
f 41 45 46 42
f 44 43 47 48
f 42 46 47 43
f 41 44 48 45
f 56 55 54 53
f 49 50 51 52
f 49 53 54 50
f 52 51 55 56
f 50 54 55 51
f 49 52 56 53
f 64 63 62 61
f 57 58 59 60
f 57 61 62 58
f 60 59 63 64
f 58 62 63 59
f 57 60 64 61
o 3_Estaci_n_del_Metropolitano
usemtl anden
f 72 71 70 69
f 65 66 67 68
f 65 69 70 66
f 68 67 71 72
f 66 70 71 67
f 65 68 72 69
usemtl concreto
f 80 79 78 77
f 73 74 75 76
f 73 77 78 74
f 76 75 79 80
f 74 78 79 75
f 73 76 80 77
f 88 87 86 85
f 81 82 83 84
f 81 85 86 82
f 84 83 87 88
f 82 86 87 83
f 81 84 88 85
f 96 95 94 93
f 89 90 91 92
f 89 93 94 90
f 92 91 95 96
f 90 94 95 91
f 89 92 96 93
usemtl bus
f 104 103 102 101
f 97 98 99 100
f 97 101 102 98
f 100 99 103 104
f 98 102 103 99
f 97 100 104 101
o 4_Columnas
usemtl concreto
f 112 111 110 109
f 105 106 107 108
f 105 109 110 106
f 108 107 111 112
f 106 110 111 107
f 105 108 112 109
f 120 119 118 117
f 113 114 115 116
f 113 117 118 114
f 116 115 119 120
f 114 118 119 115
f 113 116 120 117
f 128 127 126 125
f 121 122 123 124
f 121 125 126 122
f 124 123 127 128
f 122 126 127 123
f 121 124 128 125
f 136 135 134 133
f 129 130 131 132
f 129 133 134 130
f 132 131 135 136
f 130 134 135 131
f 129 132 136 133
f 144 143 142 141
f 137 138 139 140
f 137 141 142 138
f 140 139 143 144
f 138 142 143 139
f 137 140 144 141
f 152 151 150 149
f 145 146 147 148
f 145 149 150 146
f 148 147 151 152
f 146 150 151 147
f 145 148 152 149
f 160 159 158 157
f 153 154 155 156
f 153 157 158 154
f 156 155 159 160
f 154 158 159 155
f 153 156 160 157
f 168 167 166 165
f 161 162 163 164
f 161 165 166 162
f 164 163 167 168
f 162 166 167 163
f 161 164 168 165
f 176 175 174 173
f 169 170 171 172
f 169 173 174 170
f 172 171 175 176
f 170 174 175 171
f 169 172 176 173
o 5_Pista_elevada
usemtl concreto
f 184 183 182 181
f 177 178 179 180
f 177 181 182 178
f 180 179 183 184
f 178 182 183 179
f 177 180 184 181
f 192 191 190 189
f 185 186 187 188
f 185 189 190 186
f 188 187 191 192
f 186 190 191 187
f 185 188 192 189
f 200 199 198 197
f 193 194 195 196
f 193 197 198 194
f 196 195 199 200
f 194 198 199 195
f 193 196 200 197
f 208 207 206 205
f 201 202 203 204
f 201 205 206 202
f 204 203 207 208
f 202 206 207 203
f 201 204 208 205
o 6_Carros
usemtl rojo
f 216 215 214 213
f 209 210 211 212
f 209 213 214 210
f 212 211 215 216
f 210 214 215 211
f 209 212 216 213
f 224 223 222 221
f 217 218 219 220
f 217 221 222 218
f 220 219 223 224
f 218 222 223 219
f 217 220 224 221
usemtl azul
f 232 231 230 229
f 225 226 227 228
f 225 229 230 226
f 228 227 231 232
f 226 230 231 227
f 225 228 232 229
f 240 239 238 237
f 233 234 235 236
f 233 237 238 234
f 236 235 239 240
f 234 238 239 235
f 233 236 240 237
usemtl amarillo
f 248 247 246 245
f 241 242 243 244
f 241 245 246 242
f 244 243 247 248
f 242 246 247 243
f 241 244 248 245
f 256 255 254 253
f 249 250 251 252
f 249 253 254 250
f 252 251 255 256
f 250 254 255 251
f 249 252 256 253
usemtl rojo
f 264 263 262 261
f 257 258 259 260
f 257 261 262 258
f 260 259 263 264
f 258 262 263 259
f 257 260 264 261
f 272 271 270 269
f 265 266 267 268
f 265 269 270 266
f 268 267 271 272
f 266 270 271 267
f 265 268 272 269
usemtl azul
f 280 279 278 277
f 273 274 275 276
f 273 277 278 274
f 276 275 279 280
f 274 278 279 275
f 273 276 280 277
f 288 287 286 285
f 281 282 283 284
f 281 285 286 282
f 284 283 287 288
f 282 286 287 283
f 281 284 288 285
usemtl amarillo
f 296 295 294 293
f 289 290 291 292
f 289 293 294 290
f 292 291 295 296
f 290 294 295 291
f 289 292 296 293
f 304 303 302 301
f 297 298 299 300
f 297 301 302 298
f 300 299 303 304
f 298 302 303 299
f 297 300 304 301
o 7_rboles
usemtl tronco
f 312 311 310 309
f 305 306 307 308
f 305 309 310 306
f 308 307 311 312
f 306 310 311 307
f 305 308 312 309
usemtl copa
f 320 319 318 317
f 313 314 315 316
f 313 317 318 314
f 316 315 319 320
f 314 318 319 315
f 313 316 320 317
usemtl tronco
f 328 327 326 325
f 321 322 323 324
f 321 325 326 322
f 324 323 327 328
f 322 326 327 323
f 321 324 328 325
usemtl copa
f 336 335 334 333
f 329 330 331 332
f 329 333 334 330
f 332 331 335 336
f 330 334 335 331
f 329 332 336 333
usemtl tronco
f 344 343 342 341
f 337 338 339 340
f 337 341 342 338
f 340 339 343 344
f 338 342 343 339
f 337 340 344 341
usemtl copa
f 352 351 350 349
f 345 346 347 348
f 345 349 350 346
f 348 347 351 352
f 346 350 351 347
f 345 348 352 349
usemtl tronco
f 360 359 358 357
f 353 354 355 356
f 353 357 358 354
f 356 355 359 360
f 354 358 359 355
f 353 356 360 357
usemtl copa
f 368 367 366 365
f 361 362 363 364
f 361 365 366 362
f 364 363 367 368
f 362 366 367 363
f 361 364 368 365
usemtl tronco
f 376 375 374 373
f 369 370 371 372
f 369 373 374 370
f 372 371 375 376
f 370 374 375 371
f 369 372 376 373
usemtl copa
f 384 383 382 381
f 377 378 379 380
f 377 381 382 378
f 380 379 383 384
f 378 382 383 379
f 377 380 384 381
usemtl tronco
f 392 391 390 389
f 385 386 387 388
f 385 389 390 386
f 388 387 391 392
f 386 390 391 387
f 385 388 392 389
usemtl copa
f 400 399 398 397
f 393 394 395 396
f 393 397 398 394
f 396 395 399 400
f 394 398 399 395
f 393 396 400 397
usemtl tronco
f 408 407 406 405
f 401 402 403 404
f 401 405 406 402
f 404 403 407 408
f 402 406 407 403
f 401 404 408 405
usemtl copa
f 416 415 414 413
f 409 410 411 412
f 409 413 414 410
f 412 411 415 416
f 410 414 415 411
f 409 412 416 413
