# Vía Expresa Elevada — versión simple
# Proyecto de EPT 2026 · 1 unidad = 1 metro
mtllib via-expresa-simple.mtl

v -48.00 -1.20 -23.00
v 48.00 -1.20 -23.00
v 48.00 -1.20 23.00
v -48.00 -1.20 23.00
v -48.00 0.00 -23.00
v 48.00 0.00 -23.00
v 48.00 0.00 23.00
v -48.00 0.00 23.00
v -48.00 -0.10 -23.00
v 48.00 -0.10 -23.00
v 48.00 -0.10 23.00
v -48.00 -0.10 23.00
v -48.00 0.02 -23.00
v 48.00 0.02 -23.00
v 48.00 0.02 23.00
v -48.00 0.02 23.00
v -48.00 0.00 -4.00
v 48.00 0.00 -4.00
v 48.00 0.00 4.00
v -48.00 0.00 4.00
v -48.00 0.12 -4.00
v 48.00 0.12 -4.00
v 48.00 0.12 4.00
v -48.00 0.12 4.00
v -48.00 0.00 4.00
v 48.00 0.00 4.00
v 48.00 0.00 7.00
v -48.00 0.00 7.00
v -48.00 0.12 4.00
v 48.00 0.12 4.00
v 48.00 0.12 7.00
v -48.00 0.12 7.00
v -48.00 0.00 7.00
v 48.00 0.00 7.00
v 48.00 0.00 9.50
v -48.00 0.00 9.50
v -48.00 0.12 7.00
v 48.00 0.12 7.00
v 48.00 0.12 9.50
v -48.00 0.12 9.50
v -48.00 0.00 9.50
v 48.00 0.00 9.50
v 48.00 0.00 12.50
v -48.00 0.00 12.50
v -48.00 0.12 9.50
v 48.00 0.12 9.50
v 48.00 0.12 12.50
v -48.00 0.12 12.50
v -48.00 0.00 13.50
v 48.00 0.00 13.50
v 48.00 0.00 22.50
v -48.00 0.00 22.50
v -48.00 0.12 13.50
v 48.00 0.12 13.50
v 48.00 0.12 22.50
v -48.00 0.12 22.50
v -48.00 0.00 -13.00
v 48.00 0.00 -13.00
v 48.00 0.00 -4.00
v -48.00 0.00 -4.00
v -48.00 0.12 -13.00
v 48.00 0.12 -13.00
v 48.00 0.12 -4.00
v -48.00 0.12 -4.00
v -48.00 0.00 -16.00
v 48.00 0.00 -16.00
v 48.00 0.00 -13.00
v -48.00 0.00 -13.00
v -48.00 0.12 -16.00
v 48.00 0.12 -16.00
v 48.00 0.12 -13.00
v -48.00 0.12 -13.00
v -48.00 0.00 -19.00
v 48.00 0.00 -19.00
v 48.00 0.00 -16.00
v -48.00 0.00 -16.00
v -48.00 0.12 -19.00
v 48.00 0.12 -19.00
v 48.00 0.12 -16.00
v -48.00 0.12 -16.00
v -48.00 0.00 -22.00
v 48.00 0.00 -22.00
v 48.00 0.00 -19.00
v -48.00 0.00 -19.00
v -48.00 0.12 -22.00
v 48.00 0.12 -22.00
v 48.00 0.12 -19.00
v -48.00 0.12 -19.00
v -45.00 0.02 -10.15
v -41.00 0.02 -10.15
v -41.00 0.02 -9.85
v -45.00 0.02 -9.85
v -45.00 0.14 -10.15
v -41.00 0.14 -10.15
v -41.00 0.14 -9.85
v -45.00 0.14 -9.85
v -36.00 0.02 -10.15
v -32.00 0.02 -10.15
v -32.00 0.02 -9.85
v -36.00 0.02 -9.85
v -36.00 0.14 -10.15
v -32.00 0.14 -10.15
v -32.00 0.14 -9.85
v -36.00 0.14 -9.85
v -27.00 0.02 -10.15
v -23.00 0.02 -10.15
v -23.00 0.02 -9.85
v -27.00 0.02 -9.85
v -27.00 0.14 -10.15
v -23.00 0.14 -10.15
v -23.00 0.14 -9.85
v -27.00 0.14 -9.85
v -18.00 0.02 -10.15
v -14.00 0.02 -10.15
v -14.00 0.02 -9.85
v -18.00 0.02 -9.85
v -18.00 0.14 -10.15
v -14.00 0.14 -10.15
v -14.00 0.14 -9.85
v -18.00 0.14 -9.85
v -9.00 0.02 -10.15
v -5.00 0.02 -10.15
v -5.00 0.02 -9.85
v -9.00 0.02 -9.85
v -9.00 0.14 -10.15
v -5.00 0.14 -10.15
v -5.00 0.14 -9.85
v -9.00 0.14 -9.85
v 0.00 0.02 -10.15
v 4.00 0.02 -10.15
v 4.00 0.02 -9.85
v 0.00 0.02 -9.85
v 0.00 0.14 -10.15
v 4.00 0.14 -10.15
v 4.00 0.14 -9.85
v 0.00 0.14 -9.85
v 9.00 0.02 -10.15
v 13.00 0.02 -10.15
v 13.00 0.02 -9.85
v 9.00 0.02 -9.85
v 9.00 0.14 -10.15
v 13.00 0.14 -10.15
v 13.00 0.14 -9.85
v 9.00 0.14 -9.85
v 18.00 0.02 -10.15
v 22.00 0.02 -10.15
v 22.00 0.02 -9.85
v 18.00 0.02 -9.85
v 18.00 0.14 -10.15
v 22.00 0.14 -10.15
v 22.00 0.14 -9.85
v 18.00 0.14 -9.85
v 27.00 0.02 -10.15
v 31.00 0.02 -10.15
v 31.00 0.02 -9.85
v 27.00 0.02 -9.85
v 27.00 0.14 -10.15
v 31.00 0.14 -10.15
v 31.00 0.14 -9.85
v 27.00 0.14 -9.85
v 36.00 0.02 -10.15
v 40.00 0.02 -10.15
v 40.00 0.02 -9.85
v 36.00 0.02 -9.85
v 36.00 0.14 -10.15
v 40.00 0.14 -10.15
v 40.00 0.14 -9.85
v 36.00 0.14 -9.85
v -45.00 0.02 -7.15
v -41.00 0.02 -7.15
v -41.00 0.02 -6.85
v -45.00 0.02 -6.85
v -45.00 0.14 -7.15
v -41.00 0.14 -7.15
v -41.00 0.14 -6.85
v -45.00 0.14 -6.85
v -36.00 0.02 -7.15
v -32.00 0.02 -7.15
v -32.00 0.02 -6.85
v -36.00 0.02 -6.85
v -36.00 0.14 -7.15
v -32.00 0.14 -7.15
v -32.00 0.14 -6.85
v -36.00 0.14 -6.85
v -27.00 0.02 -7.15
v -23.00 0.02 -7.15
v -23.00 0.02 -6.85
v -27.00 0.02 -6.85
v -27.00 0.14 -7.15
v -23.00 0.14 -7.15
v -23.00 0.14 -6.85
v -27.00 0.14 -6.85
v -18.00 0.02 -7.15
v -14.00 0.02 -7.15
v -14.00 0.02 -6.85
v -18.00 0.02 -6.85
v -18.00 0.14 -7.15
v -14.00 0.14 -7.15
v -14.00 0.14 -6.85
v -18.00 0.14 -6.85
v -9.00 0.02 -7.15
v -5.00 0.02 -7.15
v -5.00 0.02 -6.85
v -9.00 0.02 -6.85
v -9.00 0.14 -7.15
v -5.00 0.14 -7.15
v -5.00 0.14 -6.85
v -9.00 0.14 -6.85
v 0.00 0.02 -7.15
v 4.00 0.02 -7.15
v 4.00 0.02 -6.85
v 0.00 0.02 -6.85
v 0.00 0.14 -7.15
v 4.00 0.14 -7.15
v 4.00 0.14 -6.85
v 0.00 0.14 -6.85
v 9.00 0.02 -7.15
v 13.00 0.02 -7.15
v 13.00 0.02 -6.85
v 9.00 0.02 -6.85
v 9.00 0.14 -7.15
v 13.00 0.14 -7.15
v 13.00 0.14 -6.85
v 9.00 0.14 -6.85
v 18.00 0.02 -7.15
v 22.00 0.02 -7.15
v 22.00 0.02 -6.85
v 18.00 0.02 -6.85
v 18.00 0.14 -7.15
v 22.00 0.14 -7.15
v 22.00 0.14 -6.85
v 18.00 0.14 -6.85
v 27.00 0.02 -7.15
v 31.00 0.02 -7.15
v 31.00 0.02 -6.85
v 27.00 0.02 -6.85
v 27.00 0.14 -7.15
v 31.00 0.14 -7.15
v 31.00 0.14 -6.85
v 27.00 0.14 -6.85
v 36.00 0.02 -7.15
v 40.00 0.02 -7.15
v 40.00 0.02 -6.85
v 36.00 0.02 -6.85
v 36.00 0.14 -7.15
v 40.00 0.14 -7.15
v 40.00 0.14 -6.85
v 36.00 0.14 -6.85
v -45.00 0.02 16.35
v -41.00 0.02 16.35
v -41.00 0.02 16.65
v -45.00 0.02 16.65
v -45.00 0.14 16.35
v -41.00 0.14 16.35
v -41.00 0.14 16.65
v -45.00 0.14 16.65
v -36.00 0.02 16.35
v -32.00 0.02 16.35
v -32.00 0.02 16.65
v -36.00 0.02 16.65
v -36.00 0.14 16.35
v -32.00 0.14 16.35
v -32.00 0.14 16.65
v -36.00 0.14 16.65
v -27.00 0.02 16.35
v -23.00 0.02 16.35
v -23.00 0.02 16.65
v -27.00 0.02 16.65
v -27.00 0.14 16.35
v -23.00 0.14 16.35
v -23.00 0.14 16.65
v -27.00 0.14 16.65
v -18.00 0.02 16.35
v -14.00 0.02 16.35
v -14.00 0.02 16.65
v -18.00 0.02 16.65
v -18.00 0.14 16.35
v -14.00 0.14 16.35
v -14.00 0.14 16.65
v -18.00 0.14 16.65
v -9.00 0.02 16.35
v -5.00 0.02 16.35
v -5.00 0.02 16.65
v -9.00 0.02 16.65
v -9.00 0.14 16.35
v -5.00 0.14 16.35
v -5.00 0.14 16.65
v -9.00 0.14 16.65
v 0.00 0.02 16.35
v 4.00 0.02 16.35
v 4.00 0.02 16.65
v 0.00 0.02 16.65
v 0.00 0.14 16.35
v 4.00 0.14 16.35
v 4.00 0.14 16.65
v 0.00 0.14 16.65
v 9.00 0.02 16.35
v 13.00 0.02 16.35
v 13.00 0.02 16.65
v 9.00 0.02 16.65
v 9.00 0.14 16.35
v 13.00 0.14 16.35
v 13.00 0.14 16.65
v 9.00 0.14 16.65
v 18.00 0.02 16.35
v 22.00 0.02 16.35
v 22.00 0.02 16.65
v 18.00 0.02 16.65
v 18.00 0.14 16.35
v 22.00 0.14 16.35
v 22.00 0.14 16.65
v 18.00 0.14 16.65
v 27.00 0.02 16.35
v 31.00 0.02 16.35
v 31.00 0.02 16.65
v 27.00 0.02 16.65
v 27.00 0.14 16.35
v 31.00 0.14 16.35
v 31.00 0.14 16.65
v 27.00 0.14 16.65
v 36.00 0.02 16.35
v 40.00 0.02 16.35
v 40.00 0.02 16.65
v 36.00 0.02 16.65
v 36.00 0.14 16.35
v 40.00 0.14 16.35
v 40.00 0.14 16.65
v 36.00 0.14 16.65
v -45.00 0.02 19.35
v -41.00 0.02 19.35
v -41.00 0.02 19.65
v -45.00 0.02 19.65
v -45.00 0.14 19.35
v -41.00 0.14 19.35
v -41.00 0.14 19.65
v -45.00 0.14 19.65
v -36.00 0.02 19.35
v -32.00 0.02 19.35
v -32.00 0.02 19.65
v -36.00 0.02 19.65
v -36.00 0.14 19.35
v -32.00 0.14 19.35
v -32.00 0.14 19.65
v -36.00 0.14 19.65
v -27.00 0.02 19.35
v -23.00 0.02 19.35
v -23.00 0.02 19.65
v -27.00 0.02 19.65
v -27.00 0.14 19.35
v -23.00 0.14 19.35
v -23.00 0.14 19.65
v -27.00 0.14 19.65
v -18.00 0.02 19.35
v -14.00 0.02 19.35
v -14.00 0.02 19.65
v -18.00 0.02 19.65
v -18.00 0.14 19.35
v -14.00 0.14 19.35
v -14.00 0.14 19.65
v -18.00 0.14 19.65
v -9.00 0.02 19.35
v -5.00 0.02 19.35
v -5.00 0.02 19.65
v -9.00 0.02 19.65
v -9.00 0.14 19.35
v -5.00 0.14 19.35
v -5.00 0.14 19.65
v -9.00 0.14 19.65
v 0.00 0.02 19.35
v 4.00 0.02 19.35
v 4.00 0.02 19.65
v 0.00 0.02 19.65
v 0.00 0.14 19.35
v 4.00 0.14 19.35
v 4.00 0.14 19.65
v 0.00 0.14 19.65
v 9.00 0.02 19.35
v 13.00 0.02 19.35
v 13.00 0.02 19.65
v 9.00 0.02 19.65
v 9.00 0.14 19.35
v 13.00 0.14 19.35
v 13.00 0.14 19.65
v 9.00 0.14 19.65
v 18.00 0.02 19.35
v 22.00 0.02 19.35
v 22.00 0.02 19.65
v 18.00 0.02 19.65
v 18.00 0.14 19.35
v 22.00 0.14 19.35
v 22.00 0.14 19.65
v 18.00 0.14 19.65
v 27.00 0.02 19.35
v 31.00 0.02 19.35
v 31.00 0.02 19.65
v 27.00 0.02 19.65
v 27.00 0.14 19.35
v 31.00 0.14 19.35
v 31.00 0.14 19.65
v 27.00 0.14 19.65
v 36.00 0.02 19.35
v 40.00 0.02 19.35
v 40.00 0.02 19.65
v 36.00 0.02 19.65
v 36.00 0.14 19.35
v 40.00 0.14 19.35
v 40.00 0.14 19.65
v 36.00 0.14 19.65
v -48.00 0.02 -13.15
v 48.00 0.02 -13.15
v 48.00 0.02 -12.85
v -48.00 0.02 -12.85
v -48.00 0.14 -13.15
v 48.00 0.14 -13.15
v 48.00 0.14 -12.85
v -48.00 0.14 -12.85
v -48.00 0.02 -4.15
v 48.00 0.02 -4.15
v 48.00 0.02 -3.85
v -48.00 0.02 -3.85
v -48.00 0.14 -4.15
v 48.00 0.14 -4.15
v 48.00 0.14 -3.85
v -48.00 0.14 -3.85
v -48.00 0.02 13.35
v 48.00 0.02 13.35
v 48.00 0.02 13.65
v -48.00 0.02 13.65
v -48.00 0.14 13.35
v 48.00 0.14 13.35
v 48.00 0.14 13.65
v -48.00 0.14 13.65
v -48.00 0.02 22.35
v 48.00 0.02 22.35
v 48.00 0.02 22.65
v -48.00 0.02 22.65
v -48.00 0.14 22.35
v 48.00 0.14 22.35
v 48.00 0.14 22.65
v -48.00 0.14 22.65
v -46.00 1.08 7.15
v 46.00 1.08 7.15
v 46.00 1.08 7.45
v -46.00 1.08 7.45
v -46.00 1.20 7.15
v 46.00 1.20 7.15
v 46.00 1.20 7.45
v -46.00 1.20 7.45
v -46.00 1.08 9.05
v 46.00 1.08 9.05
v 46.00 1.08 9.35
v -46.00 1.08 9.35
v -46.00 1.20 9.05
v 46.00 1.20 9.05
v 46.00 1.20 9.35
v -46.00 1.20 9.35
v -48.00 0.90 13.20
v -36.00 0.90 13.20
v -36.00 0.90 12.50
v -48.00 0.90 12.50
v -48.00 0.00 12.50
v -36.00 0.00 12.50
v -36.00 0.00 13.20
v -48.00 0.00 13.20
v -48.00 0.00 12.50
v -48.00 0.90 12.50
v -36.00 0.90 12.50
v -36.00 0.00 12.50
v -48.00 0.00 13.20
v -36.00 0.00 13.20
v -36.00 0.90 13.20
v -48.00 0.90 13.20
v -36.00 0.90 13.20
v -24.00 0.90 13.20
v -24.00 0.90 12.50
v -36.00 0.90 12.50
v -36.00 0.00 12.50
v -24.00 0.00 12.50
v -24.00 0.00 13.20
v -36.00 0.00 13.20
v -36.00 0.00 12.50
v -36.00 0.90 12.50
v -24.00 0.90 12.50
v -24.00 0.00 12.50
v -36.00 0.00 13.20
v -24.00 0.00 13.20
v -24.00 0.90 13.20
v -36.00 0.90 13.20
v -24.00 0.90 13.20
v -12.00 0.90 13.20
v -12.00 0.90 12.50
v -24.00 0.90 12.50
v -24.00 0.00 12.50
v -12.00 0.00 12.50
v -12.00 0.00 13.20
v -24.00 0.00 13.20
v -24.00 0.00 12.50
v -24.00 0.90 12.50
v -12.00 0.90 12.50
v -12.00 0.00 12.50
v -24.00 0.00 13.20
v -12.00 0.00 13.20
v -12.00 0.90 13.20
v -24.00 0.90 13.20
v -12.00 0.90 13.20
v 0.00 0.90 13.20
v 0.00 0.90 12.50
v -12.00 0.90 12.50
v -12.00 0.00 12.50
v 0.00 0.00 12.50
v 0.00 0.00 13.20
v -12.00 0.00 13.20
v -12.00 0.00 12.50
v -12.00 0.90 12.50
v 0.00 0.90 12.50
v 0.00 0.00 12.50
v -12.00 0.00 13.20
v 0.00 0.00 13.20
v 0.00 0.90 13.20
v -12.00 0.90 13.20
v 0.00 0.90 13.20
v 12.00 0.90 13.20
v 12.00 0.90 12.50
v 0.00 0.90 12.50
v 0.00 0.00 12.50
v 12.00 0.00 12.50
v 12.00 0.00 13.20
v 0.00 0.00 13.20
v 0.00 0.00 12.50
v 0.00 0.90 12.50
v 12.00 0.90 12.50
v 12.00 0.00 12.50
v 0.00 0.00 13.20
v 12.00 0.00 13.20
v 12.00 0.90 13.20
v 0.00 0.90 13.20
v 12.00 0.90 13.20
v 24.00 0.90 13.20
v 24.00 0.90 12.50
v 12.00 0.90 12.50
v 12.00 0.00 12.50
v 24.00 0.00 12.50
v 24.00 0.00 13.20
v 12.00 0.00 13.20
v 12.00 0.00 12.50
v 12.00 0.90 12.50
v 24.00 0.90 12.50
v 24.00 0.00 12.50
v 12.00 0.00 13.20
v 24.00 0.00 13.20
v 24.00 0.90 13.20
v 12.00 0.90 13.20
v 24.00 0.90 13.20
v 36.00 0.90 13.20
v 36.00 0.90 12.50
v 24.00 0.90 12.50
v 24.00 0.00 12.50
v 36.00 0.00 12.50
v 36.00 0.00 13.20
v 24.00 0.00 13.20
v 24.00 0.00 12.50
v 24.00 0.90 12.50
v 36.00 0.90 12.50
v 36.00 0.00 12.50
v 24.00 0.00 13.20
v 36.00 0.00 13.20
v 36.00 0.90 13.20
v 24.00 0.90 13.20
v 36.00 0.90 13.20
v 48.00 0.90 13.20
v 48.00 0.90 12.50
v 36.00 0.90 12.50
v 36.00 0.00 12.50
v 48.00 0.00 12.50
v 48.00 0.00 13.20
v 36.00 0.00 13.20
v 36.00 0.00 12.50
v 36.00 0.90 12.50
v 48.00 0.90 12.50
v 48.00 0.00 12.50
v 36.00 0.00 13.20
v 48.00 0.00 13.20
v 48.00 0.90 13.20
v 36.00 0.90 13.20
v 48.00 0.00 12.50
v 48.00 0.90 12.50
v 48.00 0.90 13.20
v 48.00 0.00 13.20
v -48.00 0.00 12.50
v -48.00 0.00 13.20
v -48.00 0.90 13.20
v -48.00 0.90 12.50
v -16.00 1.10 9.50
v -8.00 1.10 9.50
v -8.00 1.10 7.00
v -16.00 1.10 7.00
v -16.00 0.00 7.00
v -8.00 0.00 7.00
v -8.00 0.00 9.50
v -16.00 0.00 9.50
v -16.00 0.00 7.00
v -16.00 1.10 7.00
v -8.00 1.10 7.00
v -8.00 0.00 7.00
v -16.00 0.00 9.50
v -8.00 0.00 9.50
v -8.00 1.10 9.50
v -16.00 1.10 9.50
v -8.00 1.10 9.50
v 0.00 1.10 9.50
v 0.00 1.10 7.00
v -8.00 1.10 7.00
v -8.00 0.00 7.00
v 0.00 0.00 7.00
v 0.00 0.00 9.50
v -8.00 0.00 9.50
v -8.00 0.00 7.00
v -8.00 1.10 7.00
v 0.00 1.10 7.00
v 0.00 0.00 7.00
v -8.00 0.00 9.50
v 0.00 0.00 9.50
v 0.00 1.10 9.50
v -8.00 1.10 9.50
v 0.00 1.10 9.50
v 8.00 1.10 9.50
v 8.00 1.10 7.00
v 0.00 1.10 7.00
v 0.00 0.00 7.00
v 8.00 0.00 7.00
v 8.00 0.00 9.50
v 0.00 0.00 9.50
v 0.00 0.00 7.00
v 0.00 1.10 7.00
v 8.00 1.10 7.00
v 8.00 0.00 7.00
v 0.00 0.00 9.50
v 8.00 0.00 9.50
v 8.00 1.10 9.50
v 0.00 1.10 9.50
v 8.00 1.10 9.50
v 16.00 1.10 9.50
v 16.00 1.10 7.00
v 8.00 1.10 7.00
v 8.00 0.00 7.00
v 16.00 0.00 7.00
v 16.00 0.00 9.50
v 8.00 0.00 9.50
v 8.00 0.00 7.00
v 8.00 1.10 7.00
v 16.00 1.10 7.00
v 16.00 0.00 7.00
v 8.00 0.00 9.50
v 16.00 0.00 9.50
v 16.00 1.10 9.50
v 8.00 1.10 9.50
v 16.00 0.00 7.00
v 16.00 1.10 7.00
v 16.00 1.10 9.50
v 16.00 0.00 9.50
v -16.00 0.00 7.00
v -16.00 0.00 9.50
v -16.00 1.10 9.50
v -16.00 1.10 7.00
v -13.25 1.10 8.15
v -12.75 1.10 8.15
v -12.75 1.10 8.65
v -13.25 1.10 8.65
v -13.25 4.00 8.15
v -12.75 4.00 8.15
v -12.75 4.00 8.65
v -13.25 4.00 8.65
v -4.75 1.10 8.15
v -4.25 1.10 8.15
v -4.25 1.10 8.65
v -4.75 1.10 8.65
v -4.75 4.00 8.15
v -4.25 4.00 8.15
v -4.25 4.00 8.65
v -4.75 4.00 8.65
v 4.25 1.10 8.15
v 4.75 1.10 8.15
v 4.75 1.10 8.65
v 4.25 1.10 8.65
v 4.25 4.00 8.15
v 4.75 4.00 8.15
v 4.75 4.00 8.65
v 4.25 4.00 8.65
v 12.75 1.10 8.15
v 13.25 1.10 8.15
v 13.25 1.10 8.65
v 12.75 1.10 8.65
v 12.75 4.00 8.15
v 13.25 4.00 8.15
v 13.25 4.00 8.65
v 12.75 4.00 8.65
v -17.00 4.50 9.90
v -9.00 4.50 9.90
v -9.00 4.50 6.60
v -17.00 4.50 6.60
v -17.00 4.00 6.60
v -9.00 4.00 6.60
v -9.00 4.00 9.90
v -17.00 4.00 9.90
v -17.00 4.00 6.60
v -17.00 4.50 6.60
v -9.00 4.50 6.60
v -9.00 4.00 6.60
v -17.00 4.00 9.90
v -9.00 4.00 9.90
v -9.00 4.50 9.90
v -17.00 4.50 9.90
v -9.00 4.50 9.90
v -1.00 4.50 9.90
v -1.00 4.50 6.60
v -9.00 4.50 6.60
v -9.00 4.00 6.60
v -1.00 4.00 6.60
v -1.00 4.00 9.90
v -9.00 4.00 9.90
v -9.00 4.00 6.60
v -9.00 4.50 6.60
v -1.00 4.50 6.60
v -1.00 4.00 6.60
v -9.00 4.00 9.90
v -1.00 4.00 9.90
v -1.00 4.50 9.90
v -9.00 4.50 9.90
v -1.00 4.50 9.90
v 7.00 4.50 9.90
v 7.00 4.50 6.60
v -1.00 4.50 6.60
v -1.00 4.00 6.60
v 7.00 4.00 6.60
v 7.00 4.00 9.90
v -1.00 4.00 9.90
v -1.00 4.00 6.60
v -1.00 4.50 6.60
v 7.00 4.50 6.60
v 7.00 4.00 6.60
v -1.00 4.00 9.90
v 7.00 4.00 9.90
v 7.00 4.50 9.90
v -1.00 4.50 9.90
v 7.00 4.50 9.90
v 15.00 4.50 9.90
v 15.00 4.50 6.60
v 7.00 4.50 6.60
v 7.00 4.00 6.60
v 15.00 4.00 6.60
v 15.00 4.00 9.90
v 7.00 4.00 9.90
v 7.00 4.00 6.60
v 7.00 4.50 6.60
v 15.00 4.50 6.60
v 15.00 4.00 6.60
v 7.00 4.00 9.90
v 15.00 4.00 9.90
v 15.00 4.50 9.90
v 7.00 4.50 9.90
v 15.00 4.50 9.90
v 17.00 4.50 9.90
v 17.00 4.50 6.60
v 15.00 4.50 6.60
v 15.00 4.00 6.60
v 17.00 4.00 6.60
v 17.00 4.00 9.90
v 15.00 4.00 9.90
v 15.00 4.00 6.60
v 15.00 4.50 6.60
v 17.00 4.50 6.60
v 17.00 4.00 6.60
v 15.00 4.00 9.90
v 17.00 4.00 9.90
v 17.00 4.50 9.90
v 15.00 4.50 9.90
v 17.00 4.00 6.60
v 17.00 4.50 6.60
v 17.00 4.50 9.90
v 17.00 4.00 9.90
v -17.00 4.00 6.60
v -17.00 4.00 9.90
v -17.00 4.50 9.90
v -17.00 4.50 6.60
v -32.80 0.00 -2.80
v -27.20 0.00 -2.80
v -27.20 0.00 2.80
v -32.80 0.00 2.80
v -32.80 0.70 -2.80
v -27.20 0.70 -2.80
v -27.20 0.70 2.80
v -32.80 0.70 2.80
v -31.50 0.70 -1.50
v -28.50 0.70 -1.50
v -28.50 0.70 1.50
v -31.50 0.70 1.50
v -31.50 6.20 -1.50
v -28.50 6.20 -1.50
v -28.50 6.20 1.50
v -31.50 6.20 1.50
v -31.40 6.20 -9.00
v -28.60 6.20 -9.00
v -28.60 6.20 9.00
v -31.40 6.20 9.00
v -31.40 7.60 -9.00
v -28.60 7.60 -9.00
v -28.60 7.60 9.00
v -31.40 7.60 9.00
v -2.80 0.00 -2.80
v 2.80 0.00 -2.80
v 2.80 0.00 2.80
v -2.80 0.00 2.80
v -2.80 0.70 -2.80
v 2.80 0.70 -2.80
v 2.80 0.70 2.80
v -2.80 0.70 2.80
v -1.50 0.70 -1.50
v 1.50 0.70 -1.50
v 1.50 0.70 1.50
v -1.50 0.70 1.50
v -1.50 6.20 -1.50
v 1.50 6.20 -1.50
v 1.50 6.20 1.50
v -1.50 6.20 1.50
v -1.40 6.20 -9.00
v 1.40 6.20 -9.00
v 1.40 6.20 9.00
v -1.40 6.20 9.00
v -1.40 7.60 -9.00
v 1.40 7.60 -9.00
v 1.40 7.60 9.00
v -1.40 7.60 9.00
v 27.20 0.00 -2.80
v 32.80 0.00 -2.80
v 32.80 0.00 2.80
v 27.20 0.00 2.80
v 27.20 0.70 -2.80
v 32.80 0.70 -2.80
v 32.80 0.70 2.80
v 27.20 0.70 2.80
v 28.50 0.70 -1.50
v 31.50 0.70 -1.50
v 31.50 0.70 1.50
v 28.50 0.70 1.50
v 28.50 6.20 -1.50
v 31.50 6.20 -1.50
v 31.50 6.20 1.50
v 28.50 6.20 1.50
v 28.60 6.20 -9.00
v 31.40 6.20 -9.00
v 31.40 6.20 9.00
v 28.60 6.20 9.00
v 28.60 7.60 -9.00
v 31.40 7.60 -9.00
v 31.40 7.60 9.00
v 28.60 7.60 9.00
v -45.00 9.70 -5.00
v -37.00 9.70 -5.00
v -37.00 9.70 -10.00
v -45.00 9.70 -10.00
v -45.00 7.60 -10.00
v -37.00 7.60 -10.00
v -37.00 7.60 -5.00
v -45.00 7.60 -5.00
v -45.00 9.70 0.00
v -37.00 9.70 0.00
v -37.00 9.70 -5.00
v -45.00 9.70 -5.00
v -45.00 7.60 -5.00
v -37.00 7.60 -5.00
v -37.00 7.60 0.00
v -45.00 7.60 0.00
v -45.00 9.70 5.00
v -37.00 9.70 5.00
v -37.00 9.70 0.00
v -45.00 9.70 0.00
v -45.00 7.60 0.00
v -37.00 7.60 0.00
v -37.00 7.60 5.00
v -45.00 7.60 5.00
v -45.00 9.70 10.00
v -37.00 9.70 10.00
v -37.00 9.70 5.00
v -45.00 9.70 5.00
v -45.00 7.60 5.00
v -37.00 7.60 5.00
v -37.00 7.60 10.00
v -45.00 7.60 10.00
v -45.00 7.60 -10.00
v -45.00 9.70 -10.00
v -37.00 9.70 -10.00
v -37.00 7.60 -10.00
v -45.00 7.60 10.00
v -37.00 7.60 10.00
v -37.00 9.70 10.00
v -45.00 9.70 10.00
v -37.00 9.70 -5.00
v -29.00 9.70 -5.00
v -29.00 9.70 -10.00
v -37.00 9.70 -10.00
v -37.00 7.60 -10.00
v -29.00 7.60 -10.00
v -29.00 7.60 -5.00
v -37.00 7.60 -5.00
v -37.00 9.70 0.00
v -29.00 9.70 0.00
v -29.00 9.70 -5.00
v -37.00 9.70 -5.00
v -37.00 7.60 -5.00
v -29.00 7.60 -5.00
v -29.00 7.60 0.00
v -37.00 7.60 0.00
v -37.00 9.70 5.00
v -29.00 9.70 5.00
v -29.00 9.70 0.00
v -37.00 9.70 0.00
v -37.00 7.60 0.00
v -29.00 7.60 0.00
v -29.00 7.60 5.00
v -37.00 7.60 5.00
v -37.00 9.70 10.00
v -29.00 9.70 10.00
v -29.00 9.70 5.00
v -37.00 9.70 5.00
v -37.00 7.60 5.00
v -29.00 7.60 5.00
v -29.00 7.60 10.00
v -37.00 7.60 10.00
v -37.00 7.60 -10.00
v -37.00 9.70 -10.00
v -29.00 9.70 -10.00
v -29.00 7.60 -10.00
v -37.00 7.60 10.00
v -29.00 7.60 10.00
v -29.00 9.70 10.00
v -37.00 9.70 10.00
v -29.00 9.70 -5.00
v -21.00 9.70 -5.00
v -21.00 9.70 -10.00
v -29.00 9.70 -10.00
v -29.00 7.60 -10.00
v -21.00 7.60 -10.00
v -21.00 7.60 -5.00
v -29.00 7.60 -5.00
v -29.00 9.70 0.00
v -21.00 9.70 0.00
v -21.00 9.70 -5.00
v -29.00 9.70 -5.00
v -29.00 7.60 -5.00
v -21.00 7.60 -5.00
v -21.00 7.60 0.00
v -29.00 7.60 0.00
v -29.00 9.70 5.00
v -21.00 9.70 5.00
v -21.00 9.70 0.00
v -29.00 9.70 0.00
v -29.00 7.60 0.00
v -21.00 7.60 0.00
v -21.00 7.60 5.00
v -29.00 7.60 5.00
v -29.00 9.70 10.00
v -21.00 9.70 10.00
v -21.00 9.70 5.00
v -29.00 9.70 5.00
v -29.00 7.60 5.00
v -21.00 7.60 5.00
v -21.00 7.60 10.00
v -29.00 7.60 10.00
v -29.00 7.60 -10.00
v -29.00 9.70 -10.00
v -21.00 9.70 -10.00
v -21.00 7.60 -10.00
v -29.00 7.60 10.00
v -21.00 7.60 10.00
v -21.00 9.70 10.00
v -29.00 9.70 10.00
v -21.00 9.70 -5.00
v -13.00 9.70 -5.00
v -13.00 9.70 -10.00
v -21.00 9.70 -10.00
v -21.00 7.60 -10.00
v -13.00 7.60 -10.00
v -13.00 7.60 -5.00
v -21.00 7.60 -5.00
v -21.00 9.70 0.00
v -13.00 9.70 0.00
v -13.00 9.70 -5.00
v -21.00 9.70 -5.00
v -21.00 7.60 -5.00
v -13.00 7.60 -5.00
v -13.00 7.60 0.00
v -21.00 7.60 0.00
v -21.00 9.70 5.00
v -13.00 9.70 5.00
v -13.00 9.70 0.00
v -21.00 9.70 0.00
v -21.00 7.60 0.00
v -13.00 7.60 0.00
v -13.00 7.60 5.00
v -21.00 7.60 5.00
v -21.00 9.70 10.00
v -13.00 9.70 10.00
v -13.00 9.70 5.00
v -21.00 9.70 5.00
v -21.00 7.60 5.00
v -13.00 7.60 5.00
v -13.00 7.60 10.00
v -21.00 7.60 10.00
v -21.00 7.60 -10.00
v -21.00 9.70 -10.00
v -13.00 9.70 -10.00
v -13.00 7.60 -10.00
v -21.00 7.60 10.00
v -13.00 7.60 10.00
v -13.00 9.70 10.00
v -21.00 9.70 10.00
v -13.00 9.70 -5.00
v -5.00 9.70 -5.00
v -5.00 9.70 -10.00
v -13.00 9.70 -10.00
v -13.00 7.60 -10.00
v -5.00 7.60 -10.00
v -5.00 7.60 -5.00
v -13.00 7.60 -5.00
v -13.00 9.70 0.00
v -5.00 9.70 0.00
v -5.00 9.70 -5.00
v -13.00 9.70 -5.00
v -13.00 7.60 -5.00
v -5.00 7.60 -5.00
v -5.00 7.60 0.00
v -13.00 7.60 0.00
v -13.00 9.70 5.00
v -5.00 9.70 5.00
v -5.00 9.70 0.00
v -13.00 9.70 0.00
v -13.00 7.60 0.00
v -5.00 7.60 0.00
v -5.00 7.60 5.00
v -13.00 7.60 5.00
v -13.00 9.70 10.00
v -5.00 9.70 10.00
v -5.00 9.70 5.00
v -13.00 9.70 5.00
v -13.00 7.60 5.00
v -5.00 7.60 5.00
v -5.00 7.60 10.00
v -13.00 7.60 10.00
v -13.00 7.60 -10.00
v -13.00 9.70 -10.00
v -5.00 9.70 -10.00
v -5.00 7.60 -10.00
v -13.00 7.60 10.00
v -5.00 7.60 10.00
v -5.00 9.70 10.00
v -13.00 9.70 10.00
v -5.00 9.70 -5.00
v 3.00 9.70 -5.00
v 3.00 9.70 -10.00
v -5.00 9.70 -10.00
v -5.00 7.60 -10.00
v 3.00 7.60 -10.00
v 3.00 7.60 -5.00
v -5.00 7.60 -5.00
v -5.00 9.70 0.00
v 3.00 9.70 0.00
v 3.00 9.70 -5.00
v -5.00 9.70 -5.00
v -5.00 7.60 -5.00
v 3.00 7.60 -5.00
v 3.00 7.60 0.00
v -5.00 7.60 0.00
v -5.00 9.70 5.00
v 3.00 9.70 5.00
v 3.00 9.70 0.00
v -5.00 9.70 0.00
v -5.00 7.60 0.00
v 3.00 7.60 0.00
v 3.00 7.60 5.00
v -5.00 7.60 5.00
v -5.00 9.70 10.00
v 3.00 9.70 10.00
v 3.00 9.70 5.00
v -5.00 9.70 5.00
v -5.00 7.60 5.00
v 3.00 7.60 5.00
v 3.00 7.60 10.00
v -5.00 7.60 10.00
v -5.00 7.60 -10.00
v -5.00 9.70 -10.00
v 3.00 9.70 -10.00
v 3.00 7.60 -10.00
v -5.00 7.60 10.00
v 3.00 7.60 10.00
v 3.00 9.70 10.00
v -5.00 9.70 10.00
v 3.00 9.70 -5.00
v 11.00 9.70 -5.00
v 11.00 9.70 -10.00
v 3.00 9.70 -10.00
v 3.00 7.60 -10.00
v 11.00 7.60 -10.00
v 11.00 7.60 -5.00
v 3.00 7.60 -5.00
v 3.00 9.70 0.00
v 11.00 9.70 0.00
v 11.00 9.70 -5.00
v 3.00 9.70 -5.00
v 3.00 7.60 -5.00
v 11.00 7.60 -5.00
v 11.00 7.60 0.00
v 3.00 7.60 0.00
v 3.00 9.70 5.00
v 11.00 9.70 5.00
v 11.00 9.70 0.00
v 3.00 9.70 0.00
v 3.00 7.60 0.00
v 11.00 7.60 0.00
v 11.00 7.60 5.00
v 3.00 7.60 5.00
v 3.00 9.70 10.00
v 11.00 9.70 10.00
v 11.00 9.70 5.00
v 3.00 9.70 5.00
v 3.00 7.60 5.00
v 11.00 7.60 5.00
v 11.00 7.60 10.00
v 3.00 7.60 10.00
v 3.00 7.60 -10.00
v 3.00 9.70 -10.00
v 11.00 9.70 -10.00
v 11.00 7.60 -10.00
v 3.00 7.60 10.00
v 11.00 7.60 10.00
v 11.00 9.70 10.00
v 3.00 9.70 10.00
v 11.00 9.70 -5.00
v 19.00 9.70 -5.00
v 19.00 9.70 -10.00
v 11.00 9.70 -10.00
v 11.00 7.60 -10.00
v 19.00 7.60 -10.00
v 19.00 7.60 -5.00
v 11.00 7.60 -5.00
v 11.00 9.70 0.00
v 19.00 9.70 0.00
v 19.00 9.70 -5.00
v 11.00 9.70 -5.00
v 11.00 7.60 -5.00
v 19.00 7.60 -5.00
v 19.00 7.60 0.00
v 11.00 7.60 0.00
v 11.00 9.70 5.00
v 19.00 9.70 5.00
v 19.00 9.70 0.00
v 11.00 9.70 0.00
v 11.00 7.60 0.00
v 19.00 7.60 0.00
v 19.00 7.60 5.00
v 11.00 7.60 5.00
v 11.00 9.70 10.00
v 19.00 9.70 10.00
v 19.00 9.70 5.00
v 11.00 9.70 5.00
v 11.00 7.60 5.00
v 19.00 7.60 5.00
v 19.00 7.60 10.00
v 11.00 7.60 10.00
v 11.00 7.60 -10.00
v 11.00 9.70 -10.00
v 19.00 9.70 -10.00
v 19.00 7.60 -10.00
v 11.00 7.60 10.00
v 19.00 7.60 10.00
v 19.00 9.70 10.00
v 11.00 9.70 10.00
v 19.00 9.70 -5.00
v 27.00 9.70 -5.00
v 27.00 9.70 -10.00
v 19.00 9.70 -10.00
v 19.00 7.60 -10.00
v 27.00 7.60 -10.00
v 27.00 7.60 -5.00
v 19.00 7.60 -5.00
v 19.00 9.70 0.00
v 27.00 9.70 0.00
v 27.00 9.70 -5.00
v 19.00 9.70 -5.00
v 19.00 7.60 -5.00
v 27.00 7.60 -5.00
v 27.00 7.60 0.00
v 19.00 7.60 0.00
v 19.00 9.70 5.00
v 27.00 9.70 5.00
v 27.00 9.70 0.00
v 19.00 9.70 0.00
v 19.00 7.60 0.00
v 27.00 7.60 0.00
v 27.00 7.60 5.00
v 19.00 7.60 5.00
v 19.00 9.70 10.00
v 27.00 9.70 10.00
v 27.00 9.70 5.00
v 19.00 9.70 5.00
v 19.00 7.60 5.00
v 27.00 7.60 5.00
v 27.00 7.60 10.00
v 19.00 7.60 10.00
v 19.00 7.60 -10.00
v 19.00 9.70 -10.00
v 27.00 9.70 -10.00
v 27.00 7.60 -10.00
v 19.00 7.60 10.00
v 27.00 7.60 10.00
v 27.00 9.70 10.00
v 19.00 9.70 10.00
v 27.00 9.70 -5.00
v 35.00 9.70 -5.00
v 35.00 9.70 -10.00
v 27.00 9.70 -10.00
v 27.00 7.60 -10.00
v 35.00 7.60 -10.00
v 35.00 7.60 -5.00
v 27.00 7.60 -5.00
v 27.00 9.70 0.00
v 35.00 9.70 0.00
v 35.00 9.70 -5.00
v 27.00 9.70 -5.00
v 27.00 7.60 -5.00
v 35.00 7.60 -5.00
v 35.00 7.60 0.00
v 27.00 7.60 0.00
v 27.00 9.70 5.00
v 35.00 9.70 5.00
v 35.00 9.70 0.00
v 27.00 9.70 0.00
v 27.00 7.60 0.00
v 35.00 7.60 0.00
v 35.00 7.60 5.00
v 27.00 7.60 5.00
v 27.00 9.70 10.00
v 35.00 9.70 10.00
v 35.00 9.70 5.00
v 27.00 9.70 5.00
v 27.00 7.60 5.00
v 35.00 7.60 5.00
v 35.00 7.60 10.00
v 27.00 7.60 10.00
v 27.00 7.60 -10.00
v 27.00 9.70 -10.00
v 35.00 9.70 -10.00
v 35.00 7.60 -10.00
v 27.00 7.60 10.00
v 35.00 7.60 10.00
v 35.00 9.70 10.00
v 27.00 9.70 10.00
v 35.00 9.70 -5.00
v 43.00 9.70 -5.00
v 43.00 9.70 -10.00
v 35.00 9.70 -10.00
v 35.00 7.60 -10.00
v 43.00 7.60 -10.00
v 43.00 7.60 -5.00
v 35.00 7.60 -5.00
v 35.00 9.70 0.00
v 43.00 9.70 0.00
v 43.00 9.70 -5.00
v 35.00 9.70 -5.00
v 35.00 7.60 -5.00
v 43.00 7.60 -5.00
v 43.00 7.60 0.00
v 35.00 7.60 0.00
v 35.00 9.70 5.00
v 43.00 9.70 5.00
v 43.00 9.70 0.00
v 35.00 9.70 0.00
v 35.00 7.60 0.00
v 43.00 7.60 0.00
v 43.00 7.60 5.00
v 35.00 7.60 5.00
v 35.00 9.70 10.00
v 43.00 9.70 10.00
v 43.00 9.70 5.00
v 35.00 9.70 5.00
v 35.00 7.60 5.00
v 43.00 7.60 5.00
v 43.00 7.60 10.00
v 35.00 7.60 10.00
v 35.00 7.60 -10.00
v 35.00 9.70 -10.00
v 43.00 9.70 -10.00
v 43.00 7.60 -10.00
v 35.00 7.60 10.00
v 43.00 7.60 10.00
v 43.00 9.70 10.00
v 35.00 9.70 10.00
v 43.00 9.70 -5.00
v 45.00 9.70 -5.00
v 45.00 9.70 -10.00
v 43.00 9.70 -10.00
v 43.00 7.60 -10.00
v 45.00 7.60 -10.00
v 45.00 7.60 -5.00
v 43.00 7.60 -5.00
v 43.00 9.70 0.00
v 45.00 9.70 0.00
v 45.00 9.70 -5.00
v 43.00 9.70 -5.00
v 43.00 7.60 -5.00
v 45.00 7.60 -5.00
v 45.00 7.60 0.00
v 43.00 7.60 0.00
v 43.00 9.70 5.00
v 45.00 9.70 5.00
v 45.00 9.70 0.00
v 43.00 9.70 0.00
v 43.00 7.60 0.00
v 45.00 7.60 0.00
v 45.00 7.60 5.00
v 43.00 7.60 5.00
v 43.00 9.70 10.00
v 45.00 9.70 10.00
v 45.00 9.70 5.00
v 43.00 9.70 5.00
v 43.00 7.60 5.00
v 45.00 7.60 5.00
v 45.00 7.60 10.00
v 43.00 7.60 10.00
v 43.00 7.60 -10.00
v 43.00 9.70 -10.00
v 45.00 9.70 -10.00
v 45.00 7.60 -10.00
v 43.00 7.60 10.00
v 45.00 7.60 10.00
v 45.00 9.70 10.00
v 43.00 9.70 10.00
v 45.00 7.60 -10.00
v 45.00 9.70 -10.00
v 45.00 9.70 10.00
v 45.00 7.60 10.00
v -45.00 7.60 -10.00
v -45.00 7.60 10.00
v -45.00 9.70 10.00
v -45.00 9.70 -10.00
v -45.00 10.80 -9.10
v -33.00 10.80 -9.10
v -33.00 10.80 -10.00
v -45.00 10.80 -10.00
v -45.00 9.60 -10.00
v -33.00 9.60 -10.00
v -33.00 9.60 -9.10
v -45.00 9.60 -9.10
v -45.00 9.60 -10.00
v -45.00 10.80 -10.00
v -33.00 10.80 -10.00
v -33.00 9.60 -10.00
v -45.00 9.60 -9.10
v -33.00 9.60 -9.10
v -33.00 10.80 -9.10
v -45.00 10.80 -9.10
v -33.00 10.80 -9.10
v -21.00 10.80 -9.10
v -21.00 10.80 -10.00
v -33.00 10.80 -10.00
v -33.00 9.60 -10.00
v -21.00 9.60 -10.00
v -21.00 9.60 -9.10
v -33.00 9.60 -9.10
v -33.00 9.60 -10.00
v -33.00 10.80 -10.00
v -21.00 10.80 -10.00
v -21.00 9.60 -10.00
v -33.00 9.60 -9.10
v -21.00 9.60 -9.10
v -21.00 10.80 -9.10
v -33.00 10.80 -9.10
v -21.00 10.80 -9.10
v -9.00 10.80 -9.10
v -9.00 10.80 -10.00
v -21.00 10.80 -10.00
v -21.00 9.60 -10.00
v -9.00 9.60 -10.00
v -9.00 9.60 -9.10
v -21.00 9.60 -9.10
v -21.00 9.60 -10.00
v -21.00 10.80 -10.00
v -9.00 10.80 -10.00
v -9.00 9.60 -10.00
v -21.00 9.60 -9.10
v -9.00 9.60 -9.10
v -9.00 10.80 -9.10
v -21.00 10.80 -9.10
v -9.00 10.80 -9.10
v 3.00 10.80 -9.10
v 3.00 10.80 -10.00
v -9.00 10.80 -10.00
v -9.00 9.60 -10.00
v 3.00 9.60 -10.00
v 3.00 9.60 -9.10
v -9.00 9.60 -9.10
v -9.00 9.60 -10.00
v -9.00 10.80 -10.00
v 3.00 10.80 -10.00
v 3.00 9.60 -10.00
v -9.00 9.60 -9.10
v 3.00 9.60 -9.10
v 3.00 10.80 -9.10
v -9.00 10.80 -9.10
v 3.00 10.80 -9.10
v 15.00 10.80 -9.10
v 15.00 10.80 -10.00
v 3.00 10.80 -10.00
v 3.00 9.60 -10.00
v 15.00 9.60 -10.00
v 15.00 9.60 -9.10
v 3.00 9.60 -9.10
v 3.00 9.60 -10.00
v 3.00 10.80 -10.00
v 15.00 10.80 -10.00
v 15.00 9.60 -10.00
v 3.00 9.60 -9.10
v 15.00 9.60 -9.10
v 15.00 10.80 -9.10
v 3.00 10.80 -9.10
v 15.00 10.80 -9.10
v 27.00 10.80 -9.10
v 27.00 10.80 -10.00
v 15.00 10.80 -10.00
v 15.00 9.60 -10.00
v 27.00 9.60 -10.00
v 27.00 9.60 -9.10
v 15.00 9.60 -9.10
v 15.00 9.60 -10.00
v 15.00 10.80 -10.00
v 27.00 10.80 -10.00
v 27.00 9.60 -10.00
v 15.00 9.60 -9.10
v 27.00 9.60 -9.10
v 27.00 10.80 -9.10
v 15.00 10.80 -9.10
v 27.00 10.80 -9.10
v 39.00 10.80 -9.10
v 39.00 10.80 -10.00
v 27.00 10.80 -10.00
v 27.00 9.60 -10.00
v 39.00 9.60 -10.00
v 39.00 9.60 -9.10
v 27.00 9.60 -9.10
v 27.00 9.60 -10.00
v 27.00 10.80 -10.00
v 39.00 10.80 -10.00
v 39.00 9.60 -10.00
v 27.00 9.60 -9.10
v 39.00 9.60 -9.10
v 39.00 10.80 -9.10
v 27.00 10.80 -9.10
v 39.00 10.80 -9.10
v 45.00 10.80 -9.10
v 45.00 10.80 -10.00
v 39.00 10.80 -10.00
v 39.00 9.60 -10.00
v 45.00 9.60 -10.00
v 45.00 9.60 -9.10
v 39.00 9.60 -9.10
v 39.00 9.60 -10.00
v 39.00 10.80 -10.00
v 45.00 10.80 -10.00
v 45.00 9.60 -10.00
v 39.00 9.60 -9.10
v 45.00 9.60 -9.10
v 45.00 10.80 -9.10
v 39.00 10.80 -9.10
v 45.00 9.60 -10.00
v 45.00 10.80 -10.00
v 45.00 10.80 -9.10
v 45.00 9.60 -9.10
v -45.00 9.60 -10.00
v -45.00 9.60 -9.10
v -45.00 10.80 -9.10
v -45.00 10.80 -10.00
v -45.00 10.80 10.00
v -33.00 10.80 10.00
v -33.00 10.80 9.10
v -45.00 10.80 9.10
v -45.00 9.60 9.10
v -33.00 9.60 9.10
v -33.00 9.60 10.00
v -45.00 9.60 10.00
v -45.00 9.60 9.10
v -45.00 10.80 9.10
v -33.00 10.80 9.10
v -33.00 9.60 9.10
v -45.00 9.60 10.00
v -33.00 9.60 10.00
v -33.00 10.80 10.00
v -45.00 10.80 10.00
v -33.00 10.80 10.00
v -21.00 10.80 10.00
v -21.00 10.80 9.10
v -33.00 10.80 9.10
v -33.00 9.60 9.10
v -21.00 9.60 9.10
v -21.00 9.60 10.00
v -33.00 9.60 10.00
v -33.00 9.60 9.10
v -33.00 10.80 9.10
v -21.00 10.80 9.10
v -21.00 9.60 9.10
v -33.00 9.60 10.00
v -21.00 9.60 10.00
v -21.00 10.80 10.00
v -33.00 10.80 10.00
v -21.00 10.80 10.00
v -9.00 10.80 10.00
v -9.00 10.80 9.10
v -21.00 10.80 9.10
v -21.00 9.60 9.10
v -9.00 9.60 9.10
v -9.00 9.60 10.00
v -21.00 9.60 10.00
v -21.00 9.60 9.10
v -21.00 10.80 9.10
v -9.00 10.80 9.10
v -9.00 9.60 9.10
v -21.00 9.60 10.00
v -9.00 9.60 10.00
v -9.00 10.80 10.00
v -21.00 10.80 10.00
v -9.00 10.80 10.00
v 3.00 10.80 10.00
v 3.00 10.80 9.10
v -9.00 10.80 9.10
v -9.00 9.60 9.10
v 3.00 9.60 9.10
v 3.00 9.60 10.00
v -9.00 9.60 10.00
v -9.00 9.60 9.10
v -9.00 10.80 9.10
v 3.00 10.80 9.10
v 3.00 9.60 9.10
v -9.00 9.60 10.00
v 3.00 9.60 10.00
v 3.00 10.80 10.00
v -9.00 10.80 10.00
v 3.00 10.80 10.00
v 15.00 10.80 10.00
v 15.00 10.80 9.10
v 3.00 10.80 9.10
v 3.00 9.60 9.10
v 15.00 9.60 9.10
v 15.00 9.60 10.00
v 3.00 9.60 10.00
v 3.00 9.60 9.10
v 3.00 10.80 9.10
v 15.00 10.80 9.10
v 15.00 9.60 9.10
v 3.00 9.60 10.00
v 15.00 9.60 10.00
v 15.00 10.80 10.00
v 3.00 10.80 10.00
v 15.00 10.80 10.00
v 27.00 10.80 10.00
v 27.00 10.80 9.10
v 15.00 10.80 9.10
v 15.00 9.60 9.10
v 27.00 9.60 9.10
v 27.00 9.60 10.00
v 15.00 9.60 10.00
v 15.00 9.60 9.10
v 15.00 10.80 9.10
v 27.00 10.80 9.10
v 27.00 9.60 9.10
v 15.00 9.60 10.00
v 27.00 9.60 10.00
v 27.00 10.80 10.00
v 15.00 10.80 10.00
v 27.00 10.80 10.00
v 39.00 10.80 10.00
v 39.00 10.80 9.10
v 27.00 10.80 9.10
v 27.00 9.60 9.10
v 39.00 9.60 9.10
v 39.00 9.60 10.00
v 27.00 9.60 10.00
v 27.00 9.60 9.10
v 27.00 10.80 9.10
v 39.00 10.80 9.10
v 39.00 9.60 9.10
v 27.00 9.60 10.00
v 39.00 9.60 10.00
v 39.00 10.80 10.00
v 27.00 10.80 10.00
v 39.00 10.80 10.00
v 45.00 10.80 10.00
v 45.00 10.80 9.10
v 39.00 10.80 9.10
v 39.00 9.60 9.10
v 45.00 9.60 9.10
v 45.00 9.60 10.00
v 39.00 9.60 10.00
v 39.00 9.60 9.10
v 39.00 10.80 9.10
v 45.00 10.80 9.10
v 45.00 9.60 9.10
v 39.00 9.60 10.00
v 45.00 9.60 10.00
v 45.00 10.80 10.00
v 39.00 10.80 10.00
v 45.00 9.60 9.10
v 45.00 10.80 9.10
v 45.00 10.80 10.00
v 45.00 9.60 10.00
v -45.00 9.60 9.10
v -45.00 9.60 10.00
v -45.00 10.80 10.00
v -45.00 10.80 9.10
v -45.00 10.60 0.50
v -33.00 10.60 0.50
v -33.00 10.60 -0.50
v -45.00 10.60 -0.50
v -45.00 9.60 -0.50
v -33.00 9.60 -0.50
v -33.00 9.60 0.50
v -45.00 9.60 0.50
v -45.00 9.60 -0.50
v -45.00 10.60 -0.50
v -33.00 10.60 -0.50
v -33.00 9.60 -0.50
v -45.00 9.60 0.50
v -33.00 9.60 0.50
v -33.00 10.60 0.50
v -45.00 10.60 0.50
v -33.00 10.60 0.50
v -21.00 10.60 0.50
v -21.00 10.60 -0.50
v -33.00 10.60 -0.50
v -33.00 9.60 -0.50
v -21.00 9.60 -0.50
v -21.00 9.60 0.50
v -33.00 9.60 0.50
v -33.00 9.60 -0.50
v -33.00 10.60 -0.50
v -21.00 10.60 -0.50
v -21.00 9.60 -0.50
v -33.00 9.60 0.50
v -21.00 9.60 0.50
v -21.00 10.60 0.50
v -33.00 10.60 0.50
v -21.00 10.60 0.50
v -9.00 10.60 0.50
v -9.00 10.60 -0.50
v -21.00 10.60 -0.50
v -21.00 9.60 -0.50
v -9.00 9.60 -0.50
v -9.00 9.60 0.50
v -21.00 9.60 0.50
v -21.00 9.60 -0.50
v -21.00 10.60 -0.50
v -9.00 10.60 -0.50
v -9.00 9.60 -0.50
v -21.00 9.60 0.50
v -9.00 9.60 0.50
v -9.00 10.60 0.50
v -21.00 10.60 0.50
v -9.00 10.60 0.50
v 3.00 10.60 0.50
v 3.00 10.60 -0.50
v -9.00 10.60 -0.50
v -9.00 9.60 -0.50
v 3.00 9.60 -0.50
v 3.00 9.60 0.50
v -9.00 9.60 0.50
v -9.00 9.60 -0.50
v -9.00 10.60 -0.50
v 3.00 10.60 -0.50
v 3.00 9.60 -0.50
v -9.00 9.60 0.50
v 3.00 9.60 0.50
v 3.00 10.60 0.50
v -9.00 10.60 0.50
v 3.00 10.60 0.50
v 15.00 10.60 0.50
v 15.00 10.60 -0.50
v 3.00 10.60 -0.50
v 3.00 9.60 -0.50
v 15.00 9.60 -0.50
v 15.00 9.60 0.50
v 3.00 9.60 0.50
v 3.00 9.60 -0.50
v 3.00 10.60 -0.50
v 15.00 10.60 -0.50
v 15.00 9.60 -0.50
v 3.00 9.60 0.50
v 15.00 9.60 0.50
v 15.00 10.60 0.50
v 3.00 10.60 0.50
v 15.00 10.60 0.50
v 27.00 10.60 0.50
v 27.00 10.60 -0.50
v 15.00 10.60 -0.50
v 15.00 9.60 -0.50
v 27.00 9.60 -0.50
v 27.00 9.60 0.50
v 15.00 9.60 0.50
v 15.00 9.60 -0.50
v 15.00 10.60 -0.50
v 27.00 10.60 -0.50
v 27.00 9.60 -0.50
v 15.00 9.60 0.50
v 27.00 9.60 0.50
v 27.00 10.60 0.50
v 15.00 10.60 0.50
v 27.00 10.60 0.50
v 39.00 10.60 0.50
v 39.00 10.60 -0.50
v 27.00 10.60 -0.50
v 27.00 9.60 -0.50
v 39.00 9.60 -0.50
v 39.00 9.60 0.50
v 27.00 9.60 0.50
v 27.00 9.60 -0.50
v 27.00 10.60 -0.50
v 39.00 10.60 -0.50
v 39.00 9.60 -0.50
v 27.00 9.60 0.50
v 39.00 9.60 0.50
v 39.00 10.60 0.50
v 27.00 10.60 0.50
v 39.00 10.60 0.50
v 45.00 10.60 0.50
v 45.00 10.60 -0.50
v 39.00 10.60 -0.50
v 39.00 9.60 -0.50
v 45.00 9.60 -0.50
v 45.00 9.60 0.50
v 39.00 9.60 0.50
v 39.00 9.60 -0.50
v 39.00 10.60 -0.50
v 45.00 10.60 -0.50
v 45.00 9.60 -0.50
v 39.00 9.60 0.50
v 45.00 9.60 0.50
v 45.00 10.60 0.50
v 39.00 10.60 0.50
v 45.00 9.60 -0.50
v 45.00 10.60 -0.50
v 45.00 10.60 0.50
v 45.00 9.60 0.50
v -45.00 9.60 -0.50
v -45.00 9.60 0.50
v -45.00 10.60 0.50
v -45.00 10.60 -0.50
v -44.00 9.76 -8.45
v -36.00 9.76 -8.45
v -36.00 9.76 -8.75
v -44.00 9.76 -8.75
v -44.00 9.68 -8.75
v -36.00 9.68 -8.75
v -36.00 9.68 -8.45
v -44.00 9.68 -8.45
v -44.00 9.68 -8.75
v -44.00 9.76 -8.75
v -36.00 9.76 -8.75
v -36.00 9.68 -8.75
v -44.00 9.68 -8.45
v -36.00 9.68 -8.45
v -36.00 9.76 -8.45
v -44.00 9.76 -8.45
v -36.00 9.76 -8.45
v -28.00 9.76 -8.45
v -28.00 9.76 -8.75
v -36.00 9.76 -8.75
v -36.00 9.68 -8.75
v -28.00 9.68 -8.75
v -28.00 9.68 -8.45
v -36.00 9.68 -8.45
v -36.00 9.68 -8.75
v -36.00 9.76 -8.75
v -28.00 9.76 -8.75
v -28.00 9.68 -8.75
v -36.00 9.68 -8.45
v -28.00 9.68 -8.45
v -28.00 9.76 -8.45
v -36.00 9.76 -8.45
v -28.00 9.76 -8.45
v -20.00 9.76 -8.45
v -20.00 9.76 -8.75
v -28.00 9.76 -8.75
v -28.00 9.68 -8.75
v -20.00 9.68 -8.75
v -20.00 9.68 -8.45
v -28.00 9.68 -8.45
v -28.00 9.68 -8.75
v -28.00 9.76 -8.75
v -20.00 9.76 -8.75
v -20.00 9.68 -8.75
v -28.00 9.68 -8.45
v -20.00 9.68 -8.45
v -20.00 9.76 -8.45
v -28.00 9.76 -8.45
v -20.00 9.76 -8.45
v -12.00 9.76 -8.45
v -12.00 9.76 -8.75
v -20.00 9.76 -8.75
v -20.00 9.68 -8.75
v -12.00 9.68 -8.75
v -12.00 9.68 -8.45
v -20.00 9.68 -8.45
v -20.00 9.68 -8.75
v -20.00 9.76 -8.75
v -12.00 9.76 -8.75
v -12.00 9.68 -8.75
v -20.00 9.68 -8.45
v -12.00 9.68 -8.45
v -12.00 9.76 -8.45
v -20.00 9.76 -8.45
v -12.00 9.76 -8.45
v -4.00 9.76 -8.45
v -4.00 9.76 -8.75
v -12.00 9.76 -8.75
v -12.00 9.68 -8.75
v -4.00 9.68 -8.75
v -4.00 9.68 -8.45
v -12.00 9.68 -8.45
v -12.00 9.68 -8.75
v -12.00 9.76 -8.75
v -4.00 9.76 -8.75
v -4.00 9.68 -8.75
v -12.00 9.68 -8.45
v -4.00 9.68 -8.45
v -4.00 9.76 -8.45
v -12.00 9.76 -8.45
v -4.00 9.76 -8.45
v 4.00 9.76 -8.45
v 4.00 9.76 -8.75
v -4.00 9.76 -8.75
v -4.00 9.68 -8.75
v 4.00 9.68 -8.75
v 4.00 9.68 -8.45
v -4.00 9.68 -8.45
v -4.00 9.68 -8.75
v -4.00 9.76 -8.75
v 4.00 9.76 -8.75
v 4.00 9.68 -8.75
v -4.00 9.68 -8.45
v 4.00 9.68 -8.45
v 4.00 9.76 -8.45
v -4.00 9.76 -8.45
v 4.00 9.76 -8.45
v 12.00 9.76 -8.45
v 12.00 9.76 -8.75
v 4.00 9.76 -8.75
v 4.00 9.68 -8.75
v 12.00 9.68 -8.75
v 12.00 9.68 -8.45
v 4.00 9.68 -8.45
v 4.00 9.68 -8.75
v 4.00 9.76 -8.75
v 12.00 9.76 -8.75
v 12.00 9.68 -8.75
v 4.00 9.68 -8.45
v 12.00 9.68 -8.45
v 12.00 9.76 -8.45
v 4.00 9.76 -8.45
v 12.00 9.76 -8.45
v 20.00 9.76 -8.45
v 20.00 9.76 -8.75
v 12.00 9.76 -8.75
v 12.00 9.68 -8.75
v 20.00 9.68 -8.75
v 20.00 9.68 -8.45
v 12.00 9.68 -8.45
v 12.00 9.68 -8.75
v 12.00 9.76 -8.75
v 20.00 9.76 -8.75
v 20.00 9.68 -8.75
v 12.00 9.68 -8.45
v 20.00 9.68 -8.45
v 20.00 9.76 -8.45
v 12.00 9.76 -8.45
v 20.00 9.76 -8.45
v 28.00 9.76 -8.45
v 28.00 9.76 -8.75
v 20.00 9.76 -8.75
v 20.00 9.68 -8.75
v 28.00 9.68 -8.75
v 28.00 9.68 -8.45
v 20.00 9.68 -8.45
v 20.00 9.68 -8.75
v 20.00 9.76 -8.75
v 28.00 9.76 -8.75
v 28.00 9.68 -8.75
v 20.00 9.68 -8.45
v 28.00 9.68 -8.45
v 28.00 9.76 -8.45
v 20.00 9.76 -8.45
v 28.00 9.76 -8.45
v 36.00 9.76 -8.45
v 36.00 9.76 -8.75
v 28.00 9.76 -8.75
v 28.00 9.68 -8.75
v 36.00 9.68 -8.75
v 36.00 9.68 -8.45
v 28.00 9.68 -8.45
v 28.00 9.68 -8.75
v 28.00 9.76 -8.75
v 36.00 9.76 -8.75
v 36.00 9.68 -8.75
v 28.00 9.68 -8.45
v 36.00 9.68 -8.45
v 36.00 9.76 -8.45
v 28.00 9.76 -8.45
v 36.00 9.76 -8.45
v 44.00 9.76 -8.45
v 44.00 9.76 -8.75
v 36.00 9.76 -8.75
v 36.00 9.68 -8.75
v 44.00 9.68 -8.75
v 44.00 9.68 -8.45
v 36.00 9.68 -8.45
v 36.00 9.68 -8.75
v 36.00 9.76 -8.75
v 44.00 9.76 -8.75
v 44.00 9.68 -8.75
v 36.00 9.68 -8.45
v 44.00 9.68 -8.45
v 44.00 9.76 -8.45
v 36.00 9.76 -8.45
v 44.00 9.68 -8.75
v 44.00 9.76 -8.75
v 44.00 9.76 -8.45
v 44.00 9.68 -8.45
v -44.00 9.68 -8.75
v -44.00 9.68 -8.45
v -44.00 9.76 -8.45
v -44.00 9.76 -8.75
v -44.00 9.76 8.75
v -36.00 9.76 8.75
v -36.00 9.76 8.45
v -44.00 9.76 8.45
v -44.00 9.68 8.45
v -36.00 9.68 8.45
v -36.00 9.68 8.75
v -44.00 9.68 8.75
v -44.00 9.68 8.45
v -44.00 9.76 8.45
v -36.00 9.76 8.45
v -36.00 9.68 8.45
v -44.00 9.68 8.75
v -36.00 9.68 8.75
v -36.00 9.76 8.75
v -44.00 9.76 8.75
v -36.00 9.76 8.75
v -28.00 9.76 8.75
v -28.00 9.76 8.45
v -36.00 9.76 8.45
v -36.00 9.68 8.45
v -28.00 9.68 8.45
v -28.00 9.68 8.75
v -36.00 9.68 8.75
v -36.00 9.68 8.45
v -36.00 9.76 8.45
v -28.00 9.76 8.45
v -28.00 9.68 8.45
v -36.00 9.68 8.75
v -28.00 9.68 8.75
v -28.00 9.76 8.75
v -36.00 9.76 8.75
v -28.00 9.76 8.75
v -20.00 9.76 8.75
v -20.00 9.76 8.45
v -28.00 9.76 8.45
v -28.00 9.68 8.45
v -20.00 9.68 8.45
v -20.00 9.68 8.75
v -28.00 9.68 8.75
v -28.00 9.68 8.45
v -28.00 9.76 8.45
v -20.00 9.76 8.45
v -20.00 9.68 8.45
v -28.00 9.68 8.75
v -20.00 9.68 8.75
v -20.00 9.76 8.75
v -28.00 9.76 8.75
v -20.00 9.76 8.75
v -12.00 9.76 8.75
v -12.00 9.76 8.45
v -20.00 9.76 8.45
v -20.00 9.68 8.45
v -12.00 9.68 8.45
v -12.00 9.68 8.75
v -20.00 9.68 8.75
v -20.00 9.68 8.45
v -20.00 9.76 8.45
v -12.00 9.76 8.45
v -12.00 9.68 8.45
v -20.00 9.68 8.75
v -12.00 9.68 8.75
v -12.00 9.76 8.75
v -20.00 9.76 8.75
v -12.00 9.76 8.75
v -4.00 9.76 8.75
v -4.00 9.76 8.45
v -12.00 9.76 8.45
v -12.00 9.68 8.45
v -4.00 9.68 8.45
v -4.00 9.68 8.75
v -12.00 9.68 8.75
v -12.00 9.68 8.45
v -12.00 9.76 8.45
v -4.00 9.76 8.45
v -4.00 9.68 8.45
v -12.00 9.68 8.75
v -4.00 9.68 8.75
v -4.00 9.76 8.75
v -12.00 9.76 8.75
v -4.00 9.76 8.75
v 4.00 9.76 8.75
v 4.00 9.76 8.45
v -4.00 9.76 8.45
v -4.00 9.68 8.45
v 4.00 9.68 8.45
v 4.00 9.68 8.75
v -4.00 9.68 8.75
v -4.00 9.68 8.45
v -4.00 9.76 8.45
v 4.00 9.76 8.45
v 4.00 9.68 8.45
v -4.00 9.68 8.75
v 4.00 9.68 8.75
v 4.00 9.76 8.75
v -4.00 9.76 8.75
v 4.00 9.76 8.75
v 12.00 9.76 8.75
v 12.00 9.76 8.45
v 4.00 9.76 8.45
v 4.00 9.68 8.45
v 12.00 9.68 8.45
v 12.00 9.68 8.75
v 4.00 9.68 8.75
v 4.00 9.68 8.45
v 4.00 9.76 8.45
v 12.00 9.76 8.45
v 12.00 9.68 8.45
v 4.00 9.68 8.75
v 12.00 9.68 8.75
v 12.00 9.76 8.75
v 4.00 9.76 8.75
v 12.00 9.76 8.75
v 20.00 9.76 8.75
v 20.00 9.76 8.45
v 12.00 9.76 8.45
v 12.00 9.68 8.45
v 20.00 9.68 8.45
v 20.00 9.68 8.75
v 12.00 9.68 8.75
v 12.00 9.68 8.45
v 12.00 9.76 8.45
v 20.00 9.76 8.45
v 20.00 9.68 8.45
v 12.00 9.68 8.75
v 20.00 9.68 8.75
v 20.00 9.76 8.75
v 12.00 9.76 8.75
v 20.00 9.76 8.75
v 28.00 9.76 8.75
v 28.00 9.76 8.45
v 20.00 9.76 8.45
v 20.00 9.68 8.45
v 28.00 9.68 8.45
v 28.00 9.68 8.75
v 20.00 9.68 8.75
v 20.00 9.68 8.45
v 20.00 9.76 8.45
v 28.00 9.76 8.45
v 28.00 9.68 8.45
v 20.00 9.68 8.75
v 28.00 9.68 8.75
v 28.00 9.76 8.75
v 20.00 9.76 8.75
v 28.00 9.76 8.75
v 36.00 9.76 8.75
v 36.00 9.76 8.45
v 28.00 9.76 8.45
v 28.00 9.68 8.45
v 36.00 9.68 8.45
v 36.00 9.68 8.75
v 28.00 9.68 8.75
v 28.00 9.68 8.45
v 28.00 9.76 8.45
v 36.00 9.76 8.45
v 36.00 9.68 8.45
v 28.00 9.68 8.75
v 36.00 9.68 8.75
v 36.00 9.76 8.75
v 28.00 9.76 8.75
v 36.00 9.76 8.75
v 44.00 9.76 8.75
v 44.00 9.76 8.45
v 36.00 9.76 8.45
v 36.00 9.68 8.45
v 44.00 9.68 8.45
v 44.00 9.68 8.75
v 36.00 9.68 8.75
v 36.00 9.68 8.45
v 36.00 9.76 8.45
v 44.00 9.76 8.45
v 44.00 9.68 8.45
v 36.00 9.68 8.75
v 44.00 9.68 8.75
v 44.00 9.76 8.75
v 36.00 9.76 8.75
v 44.00 9.68 8.45
v 44.00 9.76 8.45
v 44.00 9.76 8.75
v 44.00 9.68 8.75
v -44.00 9.68 8.45
v -44.00 9.68 8.75
v -44.00 9.76 8.75
v -44.00 9.76 8.45
v -43.00 9.68 -4.85
v -39.00 9.68 -4.85
v -39.00 9.68 -4.55
v -43.00 9.68 -4.55
v -43.00 9.76 -4.85
v -39.00 9.76 -4.85
v -39.00 9.76 -4.55
v -43.00 9.76 -4.55
v -34.00 9.68 -4.85
v -30.00 9.68 -4.85
v -30.00 9.68 -4.55
v -34.00 9.68 -4.55
v -34.00 9.76 -4.85
v -30.00 9.76 -4.85
v -30.00 9.76 -4.55
v -34.00 9.76 -4.55
v -25.00 9.68 -4.85
v -21.00 9.68 -4.85
v -21.00 9.68 -4.55
v -25.00 9.68 -4.55
v -25.00 9.76 -4.85
v -21.00 9.76 -4.85
v -21.00 9.76 -4.55
v -25.00 9.76 -4.55
v -16.00 9.68 -4.85
v -12.00 9.68 -4.85
v -12.00 9.68 -4.55
v -16.00 9.68 -4.55
v -16.00 9.76 -4.85
v -12.00 9.76 -4.85
v -12.00 9.76 -4.55
v -16.00 9.76 -4.55
v -7.00 9.68 -4.85
v -3.00 9.68 -4.85
v -3.00 9.68 -4.55
v -7.00 9.68 -4.55
v -7.00 9.76 -4.85
v -3.00 9.76 -4.85
v -3.00 9.76 -4.55
v -7.00 9.76 -4.55
v 2.00 9.68 -4.85
v 6.00 9.68 -4.85
v 6.00 9.68 -4.55
v 2.00 9.68 -4.55
v 2.00 9.76 -4.85
v 6.00 9.76 -4.85
v 6.00 9.76 -4.55
v 2.00 9.76 -4.55
v 11.00 9.68 -4.85
v 15.00 9.68 -4.85
v 15.00 9.68 -4.55
v 11.00 9.68 -4.55
v 11.00 9.76 -4.85
v 15.00 9.76 -4.85
v 15.00 9.76 -4.55
v 11.00 9.76 -4.55
v 20.00 9.68 -4.85
v 24.00 9.68 -4.85
v 24.00 9.68 -4.55
v 20.00 9.68 -4.55
v 20.00 9.76 -4.85
v 24.00 9.76 -4.85
v 24.00 9.76 -4.55
v 20.00 9.76 -4.55
v 29.00 9.68 -4.85
v 33.00 9.68 -4.85
v 33.00 9.68 -4.55
v 29.00 9.68 -4.55
v 29.00 9.76 -4.85
v 33.00 9.76 -4.85
v 33.00 9.76 -4.55
v 29.00 9.76 -4.55
v 38.00 9.68 -4.85
v 42.00 9.68 -4.85
v 42.00 9.68 -4.55
v 38.00 9.68 -4.55
v 38.00 9.76 -4.85
v 42.00 9.76 -4.85
v 42.00 9.76 -4.55
v 38.00 9.76 -4.55
v -43.00 9.68 4.55
v -39.00 9.68 4.55
v -39.00 9.68 4.85
v -43.00 9.68 4.85
v -43.00 9.76 4.55
v -39.00 9.76 4.55
v -39.00 9.76 4.85
v -43.00 9.76 4.85
v -34.00 9.68 4.55
v -30.00 9.68 4.55
v -30.00 9.68 4.85
v -34.00 9.68 4.85
v -34.00 9.76 4.55
v -30.00 9.76 4.55
v -30.00 9.76 4.85
v -34.00 9.76 4.85
v -25.00 9.68 4.55
v -21.00 9.68 4.55
v -21.00 9.68 4.85
v -25.00 9.68 4.85
v -25.00 9.76 4.55
v -21.00 9.76 4.55
v -21.00 9.76 4.85
v -25.00 9.76 4.85
v -16.00 9.68 4.55
v -12.00 9.68 4.55
v -12.00 9.68 4.85
v -16.00 9.68 4.85
v -16.00 9.76 4.55
v -12.00 9.76 4.55
v -12.00 9.76 4.85
v -16.00 9.76 4.85
v -7.00 9.68 4.55
v -3.00 9.68 4.55
v -3.00 9.68 4.85
v -7.00 9.68 4.85
v -7.00 9.76 4.55
v -3.00 9.76 4.55
v -3.00 9.76 4.85
v -7.00 9.76 4.85
v 2.00 9.68 4.55
v 6.00 9.68 4.55
v 6.00 9.68 4.85
v 2.00 9.68 4.85
v 2.00 9.76 4.55
v 6.00 9.76 4.55
v 6.00 9.76 4.85
v 2.00 9.76 4.85
v 11.00 9.68 4.55
v 15.00 9.68 4.55
v 15.00 9.68 4.85
v 11.00 9.68 4.85
v 11.00 9.76 4.55
v 15.00 9.76 4.55
v 15.00 9.76 4.85
v 11.00 9.76 4.85
v 20.00 9.68 4.55
v 24.00 9.68 4.55
v 24.00 9.68 4.85
v 20.00 9.68 4.85
v 20.00 9.76 4.55
v 24.00 9.76 4.55
v 24.00 9.76 4.85
v 20.00 9.76 4.85
v 29.00 9.68 4.55
v 33.00 9.68 4.55
v 33.00 9.68 4.85
v 29.00 9.68 4.85
v 29.00 9.76 4.55
v 33.00 9.76 4.55
v 33.00 9.76 4.85
v 29.00 9.76 4.85
v 38.00 9.68 4.55
v 42.00 9.68 4.55
v 42.00 9.68 4.85
v 38.00 9.68 4.85
v 38.00 9.76 4.55
v 42.00 9.76 4.55
v 42.00 9.76 4.85
v 38.00 9.76 4.85
v -22.20 10.50 -0.20
v -21.80 10.50 -0.20
v -21.80 10.50 0.20
v -22.20 10.50 0.20
v -22.20 15.00 -0.20
v -21.80 15.00 -0.20
v -21.80 15.00 0.20
v -22.20 15.00 0.20
v -22.20 14.80 -2.60
v -21.80 14.80 -2.60
v -21.80 14.80 2.60
v -22.20 14.80 2.60
v -22.20 15.00 -2.60
v -21.80 15.00 -2.60
v -21.80 15.00 2.60
v -22.20 15.00 2.60
v -22.50 14.50 -2.90
v -21.50 14.50 -2.90
v -21.50 14.50 -1.90
v -22.50 14.50 -1.90
v -22.50 14.80 -2.90
v -21.50 14.80 -2.90
v -21.50 14.80 -1.90
v -22.50 14.80 -1.90
v -22.50 14.50 1.90
v -21.50 14.50 1.90
v -21.50 14.50 2.90
v -22.50 14.50 2.90
v -22.50 14.80 1.90
v -21.50 14.80 1.90
v -21.50 14.80 2.90
v -22.50 14.80 2.90
v 21.80 10.50 -0.20
v 22.20 10.50 -0.20
v 22.20 10.50 0.20
v 21.80 10.50 0.20
v 21.80 15.00 -0.20
v 22.20 15.00 -0.20
v 22.20 15.00 0.20
v 21.80 15.00 0.20
v 21.80 14.80 -2.60
v 22.20 14.80 -2.60
v 22.20 14.80 2.60
v 21.80 14.80 2.60
v 21.80 15.00 -2.60
v 22.20 15.00 -2.60
v 22.20 15.00 2.60
v 21.80 15.00 2.60
v 21.50 14.50 -2.90
v 22.50 14.50 -2.90
v 22.50 14.50 -1.90
v 21.50 14.50 -1.90
v 21.50 14.80 -2.90
v 22.50 14.80 -2.90
v 22.50 14.80 -1.90
v 21.50 14.80 -1.90
v 21.50 14.50 1.90
v 22.50 14.50 1.90
v 22.50 14.50 2.90
v 21.50 14.50 2.90
v 21.50 14.80 1.90
v 22.50 14.80 1.90
v 22.50 14.80 2.90
v 21.50 14.80 2.90
v -36.20 10.00 -7.75
v -31.80 10.00 -7.75
v -31.80 10.00 -5.85
v -36.20 10.00 -5.85
v -36.20 10.80 -7.75
v -31.80 10.80 -7.75
v -31.80 10.80 -5.85
v -36.20 10.80 -5.85
v -35.10 10.80 -7.27
v -32.90 10.80 -7.27
v -32.90 10.80 -6.33
v -35.10 10.80 -6.33
v -35.10 11.35 -7.27
v -32.90 11.35 -7.27
v -32.90 11.35 -6.33
v -35.10 11.35 -6.33
v -8.20 10.00 -3.55
v -3.80 10.00 -3.55
v -3.80 10.00 -1.65
v -8.20 10.00 -1.65
v -8.20 10.80 -3.55
v -3.80 10.80 -3.55
v -3.80 10.80 -1.65
v -8.20 10.80 -1.65
v -7.10 10.80 -3.08
v -4.90 10.80 -3.08
v -4.90 10.80 -2.13
v -7.10 10.80 -2.13
v -7.10 11.35 -3.08
v -4.90 11.35 -3.08
v -4.90 11.35 -2.13
v -7.10 11.35 -2.13
v 23.80 10.00 -7.75
v 28.20 10.00 -7.75
v 28.20 10.00 -5.85
v 23.80 10.00 -5.85
v 23.80 10.80 -7.75
v 28.20 10.80 -7.75
v 28.20 10.80 -5.85
v 23.80 10.80 -5.85
v 24.90 10.80 -7.27
v 27.10 10.80 -7.27
v 27.10 10.80 -6.33
v 24.90 10.80 -6.33
v 24.90 11.35 -7.27
v 27.10 11.35 -7.27
v 27.10 11.35 -6.33
v 24.90 11.35 -6.33
v -22.20 10.00 1.65
v -17.80 10.00 1.65
v -17.80 10.00 3.55
v -22.20 10.00 3.55
v -22.20 10.80 1.65
v -17.80 10.80 1.65
v -17.80 10.80 3.55
v -22.20 10.80 3.55
v -21.10 10.80 2.13
v -18.90 10.80 2.13
v -18.90 10.80 3.08
v -21.10 10.80 3.08
v -21.10 11.35 2.13
v -18.90 11.35 2.13
v -18.90 11.35 3.08
v -21.10 11.35 3.08
v 9.80 10.00 5.85
v 14.20 10.00 5.85
v 14.20 10.00 7.75
v 9.80 10.00 7.75
v 9.80 10.80 5.85
v 14.20 10.80 5.85
v 14.20 10.80 7.75
v 9.80 10.80 7.75
v 10.90 10.80 6.33
v 13.10 10.80 6.33
v 13.10 10.80 7.27
v 10.90 10.80 7.27
v 10.90 11.35 6.33
v 13.10 11.35 6.33
v 13.10 11.35 7.27
v 10.90 11.35 7.27
v 35.80 10.00 1.65
v 40.20 10.00 1.65
v 40.20 10.00 3.55
v 35.80 10.00 3.55
v 35.80 10.80 1.65
v 40.20 10.80 1.65
v 40.20 10.80 3.55
v 35.80 10.80 3.55
v 36.90 10.80 2.13
v 39.10 10.80 2.13
v 39.10 10.80 3.08
v 36.90 10.80 3.08
v 36.90 11.35 2.13
v 39.10 11.35 2.13
v 39.10 11.35 3.08
v 36.90 11.35 3.08
v -30.20 0.42 -11.95
v -25.80 0.42 -11.95
v -25.80 0.42 -10.05
v -30.20 0.42 -10.05
v -30.20 1.22 -11.95
v -25.80 1.22 -11.95
v -25.80 1.22 -10.05
v -30.20 1.22 -10.05
v -29.10 1.22 -11.47
v -26.90 1.22 -11.47
v -26.90 1.22 -10.53
v -29.10 1.22 -10.53
v -29.10 1.77 -11.47
v -26.90 1.77 -11.47
v -26.90 1.77 -10.53
v -29.10 1.77 -10.53
v 1.80 0.42 -6.95
v 6.20 0.42 -6.95
v 6.20 0.42 -5.05
v 1.80 0.42 -5.05
v 1.80 1.22 -6.95
v 6.20 1.22 -6.95
v 6.20 1.22 -5.05
v 1.80 1.22 -5.05
v 2.90 1.22 -6.47
v 5.10 1.22 -6.47
v 5.10 1.22 -5.53
v 2.90 1.22 -5.53
v 2.90 1.77 -6.47
v 5.10 1.77 -6.47
v 5.10 1.77 -5.53
v 2.90 1.77 -5.53
v 27.80 0.42 -11.95
v 32.20 0.42 -11.95
v 32.20 0.42 -10.05
v 27.80 0.42 -10.05
v 27.80 1.22 -11.95
v 32.20 1.22 -11.95
v 32.20 1.22 -10.05
v 27.80 1.22 -10.05
v 28.90 1.22 -11.47
v 31.10 1.22 -11.47
v 31.10 1.22 -10.53
v 28.90 1.22 -10.53
v 28.90 1.77 -11.47
v 31.10 1.77 -11.47
v 31.10 1.77 -10.53
v 28.90 1.77 -10.53
v -16.20 0.42 14.55
v -11.80 0.42 14.55
v -11.80 0.42 16.45
v -16.20 0.42 16.45
v -16.20 1.22 14.55
v -11.80 1.22 14.55
v -11.80 1.22 16.45
v -16.20 1.22 16.45
v -15.10 1.22 15.03
v -12.90 1.22 15.03
v -12.90 1.22 15.97
v -15.10 1.22 15.97
v -15.10 1.77 15.03
v -12.90 1.77 15.03
v -12.90 1.77 15.97
v -15.10 1.77 15.97
v 17.80 0.42 19.55
v 22.20 0.42 19.55
v 22.20 0.42 21.45
v 17.80 0.42 21.45
v 17.80 1.22 19.55
v 22.20 1.22 19.55
v 22.20 1.22 21.45
v 17.80 1.22 21.45
v 18.90 1.22 20.02
v 21.10 1.22 20.02
v 21.10 1.22 20.98
v 18.90 1.22 20.98
v 18.90 1.77 20.02
v 21.10 1.77 20.02
v 21.10 1.77 20.98
v 18.90 1.77 20.98
v -9.00 0.35 4.20
v -0.50 0.35 4.20
v -0.50 0.35 6.80
v -9.00 0.35 6.80
v -9.00 3.20 4.20
v -0.50 3.20 4.20
v -0.50 3.20 6.80
v -9.00 3.20 6.80
v -8.60 1.90 4.15
v -0.90 1.90 4.15
v -0.90 1.90 6.85
v -8.60 1.90 6.85
v -8.60 2.80 4.15
v -0.90 2.80 4.15
v -0.90 2.80 6.85
v -8.60 2.80 6.85
v -8.70 1.00 4.14
v -0.80 1.00 4.14
v -0.80 1.00 6.86
v -8.70 1.00 6.86
v -8.70 1.40 4.14
v -0.80 1.40 4.14
v -0.80 1.40 6.86
v -8.70 1.40 6.86
v 0.50 0.35 4.20
v 9.00 0.35 4.20
v 9.00 0.35 6.80
v 0.50 0.35 6.80
v 0.50 3.20 4.20
v 9.00 3.20 4.20
v 9.00 3.20 6.80
v 0.50 3.20 6.80
v 0.90 1.90 4.15
v 8.60 1.90 4.15
v 8.60 1.90 6.85
v 0.90 1.90 6.85
v 0.90 2.80 4.15
v 8.60 2.80 4.15
v 8.60 2.80 6.85
v 0.90 2.80 6.85
v 0.80 1.00 4.14
v 8.70 1.00 4.14
v 8.70 1.00 6.86
v 0.80 1.00 6.86
v 0.80 1.40 4.14
v 8.70 1.40 4.14
v 8.70 1.40 6.86
v 0.80 1.40 6.86
v 25.00 0.35 9.70
v 33.50 0.35 9.70
v 33.50 0.35 12.30
v 25.00 0.35 12.30
v 25.00 3.20 9.70
v 33.50 3.20 9.70
v 33.50 3.20 12.30
v 25.00 3.20 12.30
v 25.40 1.90 9.65
v 33.10 1.90 9.65
v 33.10 1.90 12.35
v 25.40 1.90 12.35
v 25.40 2.80 9.65
v 33.10 2.80 9.65
v 33.10 2.80 12.35
v 25.40 2.80 12.35
v 25.30 1.00 9.64
v 33.20 1.00 9.64
v 33.20 1.00 12.36
v 25.30 1.00 12.36
v 25.30 1.40 9.64
v 33.20 1.40 9.64
v 33.20 1.40 12.36
v 25.30 1.40 12.36
v 34.50 0.35 9.70
v 43.00 0.35 9.70
v 43.00 0.35 12.30
v 34.50 0.35 12.30
v 34.50 3.20 9.70
v 43.00 3.20 9.70
v 43.00 3.20 12.30
v 34.50 3.20 12.30
v 34.90 1.90 9.65
v 42.60 1.90 9.65
v 42.60 1.90 12.35
v 34.90 1.90 12.35
v 34.90 2.80 9.65
v 42.60 2.80 9.65
v 42.60 2.80 12.35
v 34.90 2.80 12.35
v 34.80 1.00 9.64
v 42.70 1.00 9.64
v 42.70 1.00 12.36
v 34.80 1.00 12.36
v 34.80 1.40 9.64
v 42.70 1.40 9.64
v 42.70 1.40 12.36
v 34.80 1.40 12.36
v -40.30 0.00 -14.80
v -39.70 0.00 -14.80
v -39.70 0.00 -14.20
v -40.30 0.00 -14.20
v -40.30 2.70 -14.80
v -39.70 2.70 -14.80
v -39.70 2.70 -14.20
v -40.30 2.70 -14.20
v -42.04 2.52 -16.54
v -37.96 2.52 -16.54
v -37.96 2.52 -12.46
v -42.04 2.52 -12.46
v -42.04 4.68 -16.54
v -37.96 4.68 -16.54
v -37.96 4.68 -12.46
v -42.04 4.68 -12.46
v -41.22 4.68 -15.72
v -38.78 4.68 -15.72
v -38.78 4.68 -13.28
v -41.22 4.68 -13.28
v -41.22 6.00 -15.72
v -38.78 6.00 -15.72
v -38.78 6.00 -13.28
v -41.22 6.00 -13.28
v -24.30 0.00 -14.80
v -23.70 0.00 -14.80
v -23.70 0.00 -14.20
v -24.30 0.00 -14.20
v -24.30 2.70 -14.80
v -23.70 2.70 -14.80
v -23.70 2.70 -14.20
v -24.30 2.70 -14.20
v -26.04 2.52 -16.54
v -21.96 2.52 -16.54
v -21.96 2.52 -12.46
v -26.04 2.52 -12.46
v -26.04 4.68 -16.54
v -21.96 4.68 -16.54
v -21.96 4.68 -12.46
v -26.04 4.68 -12.46
v -25.22 4.68 -15.72
v -22.78 4.68 -15.72
v -22.78 4.68 -13.28
v -25.22 4.68 -13.28
v -25.22 6.00 -15.72
v -22.78 6.00 -15.72
v -22.78 6.00 -13.28
v -25.22 6.00 -13.28
v -8.30 0.00 -14.80
v -7.70 0.00 -14.80
v -7.70 0.00 -14.20
v -8.30 0.00 -14.20
v -8.30 2.70 -14.80
v -7.70 2.70 -14.80
v -7.70 2.70 -14.20
v -8.30 2.70 -14.20
v -10.04 2.52 -16.54
v -5.96 2.52 -16.54
v -5.96 2.52 -12.46
v -10.04 2.52 -12.46
v -10.04 4.68 -16.54
v -5.96 4.68 -16.54
v -5.96 4.68 -12.46
v -10.04 4.68 -12.46
v -9.22 4.68 -15.72
v -6.78 4.68 -15.72
v -6.78 4.68 -13.28
v -9.22 4.68 -13.28
v -9.22 6.00 -15.72
v -6.78 6.00 -15.72
v -6.78 6.00 -13.28
v -9.22 6.00 -13.28
v 7.70 0.00 -14.80
v 8.30 0.00 -14.80
v 8.30 0.00 -14.20
v 7.70 0.00 -14.20
v 7.70 2.70 -14.80
v 8.30 2.70 -14.80
v 8.30 2.70 -14.20
v 7.70 2.70 -14.20
v 5.96 2.52 -16.54
v 10.04 2.52 -16.54
v 10.04 2.52 -12.46
v 5.96 2.52 -12.46
v 5.96 4.68 -16.54
v 10.04 4.68 -16.54
v 10.04 4.68 -12.46
v 5.96 4.68 -12.46
v 6.78 4.68 -15.72
v 9.22 4.68 -15.72
v 9.22 4.68 -13.28
v 6.78 4.68 -13.28
v 6.78 6.00 -15.72
v 9.22 6.00 -15.72
v 9.22 6.00 -13.28
v 6.78 6.00 -13.28
v 23.70 0.00 -14.80
v 24.30 0.00 -14.80
v 24.30 0.00 -14.20
v 23.70 0.00 -14.20
v 23.70 2.70 -14.80
v 24.30 2.70 -14.80
v 24.30 2.70 -14.20
v 23.70 2.70 -14.20
v 21.96 2.52 -16.54
v 26.04 2.52 -16.54
v 26.04 2.52 -12.46
v 21.96 2.52 -12.46
v 21.96 4.68 -16.54
v 26.04 4.68 -16.54
v 26.04 4.68 -12.46
v 21.96 4.68 -12.46
v 22.78 4.68 -15.72
v 25.22 4.68 -15.72
v 25.22 4.68 -13.28
v 22.78 4.68 -13.28
v 22.78 6.00 -15.72
v 25.22 6.00 -15.72
v 25.22 6.00 -13.28
v 22.78 6.00 -13.28
v 39.70 0.00 -14.80
v 40.30 0.00 -14.80
v 40.30 0.00 -14.20
v 39.70 0.00 -14.20
v 39.70 2.70 -14.80
v 40.30 2.70 -14.80
v 40.30 2.70 -14.20
v 39.70 2.70 -14.20
v 37.96 2.52 -16.54
v 42.04 2.52 -16.54
v 42.04 2.52 -12.46
v 37.96 2.52 -12.46
v 37.96 4.68 -16.54
v 42.04 4.68 -16.54
v 42.04 4.68 -12.46
v 37.96 4.68 -12.46
v 38.78 4.68 -15.72
v 41.22 4.68 -15.72
v 41.22 4.68 -13.28
v 38.78 4.68 -13.28
v 38.78 6.00 -15.72
v 41.22 6.00 -15.72
v 41.22 6.00 -13.28
v 38.78 6.00 -13.28
v -34.30 0.00 -21.30
v -33.70 0.00 -21.30
v -33.70 0.00 -20.70
v -34.30 0.00 -20.70
v -34.30 2.48 -21.30
v -33.70 2.48 -21.30
v -33.70 2.48 -20.70
v -34.30 2.48 -20.70
v -35.87 2.31 -22.87
v -32.13 2.31 -22.87
v -32.13 2.31 -19.13
v -35.87 2.31 -19.13
v -35.87 4.29 -22.87
v -32.13 4.29 -22.87
v -32.13 4.29 -19.13
v -35.87 4.29 -19.13
v -35.12 4.29 -22.12
v -32.88 4.29 -22.12
v -32.88 4.29 -19.88
v -35.12 4.29 -19.88
v -35.12 5.50 -22.12
v -32.88 5.50 -22.12
v -32.88 5.50 -19.88
v -35.12 5.50 -19.88
v -12.30 0.00 -21.30
v -11.70 0.00 -21.30
v -11.70 0.00 -20.70
v -12.30 0.00 -20.70
v -12.30 2.48 -21.30
v -11.70 2.48 -21.30
v -11.70 2.48 -20.70
v -12.30 2.48 -20.70
v -13.87 2.31 -22.87
v -10.13 2.31 -22.87
v -10.13 2.31 -19.13
v -13.87 2.31 -19.13
v -13.87 4.29 -22.87
v -10.13 4.29 -22.87
v -10.13 4.29 -19.13
v -13.87 4.29 -19.13
v -13.12 4.29 -22.12
v -10.88 4.29 -22.12
v -10.88 4.29 -19.88
v -13.12 4.29 -19.88
v -13.12 5.50 -22.12
v -10.88 5.50 -22.12
v -10.88 5.50 -19.88
v -13.12 5.50 -19.88
v 9.70 0.00 -21.30
v 10.30 0.00 -21.30
v 10.30 0.00 -20.70
v 9.70 0.00 -20.70
v 9.70 2.48 -21.30
v 10.30 2.48 -21.30
v 10.30 2.48 -20.70
v 9.70 2.48 -20.70
v 8.13 2.31 -22.87
v 11.87 2.31 -22.87
v 11.87 2.31 -19.13
v 8.13 2.31 -19.13
v 8.13 4.29 -22.87
v 11.87 4.29 -22.87
v 11.87 4.29 -19.13
v 8.13 4.29 -19.13
v 8.88 4.29 -22.12
v 11.12 4.29 -22.12
v 11.12 4.29 -19.88
v 8.88 4.29 -19.88
v 8.88 5.50 -22.12
v 11.12 5.50 -22.12
v 11.12 5.50 -19.88
v 8.88 5.50 -19.88
v 35.70 0.00 -21.30
v 36.30 0.00 -21.30
v 36.30 0.00 -20.70
v 35.70 0.00 -20.70
v 35.70 2.48 -21.30
v 36.30 2.48 -21.30
v 36.30 2.48 -20.70
v 35.70 2.48 -20.70
v 34.13 2.31 -22.87
v 37.87 2.31 -22.87
v 37.87 2.31 -19.13
v 34.13 2.31 -19.13
v 34.13 4.29 -22.87
v 37.87 4.29 -22.87
v 37.87 4.29 -19.13
v 34.13 4.29 -19.13
v 34.88 4.29 -22.12
v 37.12 4.29 -22.12
v 37.12 4.29 -19.88
v 34.88 4.29 -19.88
v 34.88 5.50 -22.12
v 37.12 5.50 -22.12
v 37.12 5.50 -19.88
v 34.88 5.50 -19.88
o Terreno
usemtl base
f 8 7 6 5
f 1 2 3 4
f 1 5 6 2
f 4 3 7 8
f 2 6 7 3
f 1 4 8 5
usemtl pasto
f 16 15 14 13
f 9 10 11 12
f 9 13 14 10
f 12 11 15 16
f 10 14 15 11
f 9 12 16 13
o CorredorVial
usemtl pasto
f 24 23 22 21
f 17 18 19 20
f 17 21 22 18
f 20 19 23 24
f 18 22 23 19
f 17 20 24 21
usemtl asfaltoBus
f 32 31 30 29
f 25 26 27 28
f 25 29 30 26
f 28 27 31 32
f 26 30 31 27
f 25 28 32 29
usemtl anden
f 40 39 38 37
f 33 34 35 36
f 33 37 38 34
f 36 35 39 40
f 34 38 39 35
f 33 36 40 37
usemtl asfaltoBus
f 48 47 46 45
f 41 42 43 44
f 41 45 46 42
f 44 43 47 48
f 42 46 47 43
f 41 44 48 45
usemtl asfalto
f 56 55 54 53
f 49 50 51 52
f 49 53 54 50
f 52 51 55 56
f 50 54 55 51
f 49 52 56 53
f 64 63 62 61
f 57 58 59 60
f 57 61 62 58
f 60 59 63 64
f 58 62 63 59
f 57 60 64 61
usemtl pasto
f 72 71 70 69
f 65 66 67 68
f 65 69 70 66
f 68 67 71 72
f 66 70 71 67
f 65 68 72 69
usemtl ciclovia
f 80 79 78 77
f 73 74 75 76
f 73 77 78 74
f 76 75 79 80
f 74 78 79 75
f 73 76 80 77
usemtl vereda
f 88 87 86 85
f 81 82 83 84
f 81 85 86 82
f 84 83 87 88
f 82 86 87 83
f 81 84 88 85
usemtl linea
f 96 95 94 93
f 89 90 91 92
f 89 93 94 90
f 92 91 95 96
f 90 94 95 91
f 89 92 96 93
f 104 103 102 101
f 97 98 99 100
f 97 101 102 98
f 100 99 103 104
f 98 102 103 99
f 97 100 104 101
f 112 111 110 109
f 105 106 107 108
f 105 109 110 106
f 108 107 111 112
f 106 110 111 107
f 105 108 112 109
f 120 119 118 117
f 113 114 115 116
f 113 117 118 114
f 116 115 119 120
f 114 118 119 115
f 113 116 120 117
f 128 127 126 125
f 121 122 123 124
f 121 125 126 122
f 124 123 127 128
f 122 126 127 123
f 121 124 128 125
f 136 135 134 133
f 129 130 131 132
f 129 133 134 130
f 132 131 135 136
f 130 134 135 131
f 129 132 136 133
f 144 143 142 141
f 137 138 139 140
f 137 141 142 138
f 140 139 143 144
f 138 142 143 139
f 137 140 144 141
f 152 151 150 149
f 145 146 147 148
f 145 149 150 146
f 148 147 151 152
f 146 150 151 147
f 145 148 152 149
f 160 159 158 157
f 153 154 155 156
f 153 157 158 154
f 156 155 159 160
f 154 158 159 155
f 153 156 160 157
f 168 167 166 165
f 161 162 163 164
f 161 165 166 162
f 164 163 167 168
f 162 166 167 163
f 161 164 168 165
f 176 175 174 173
f 169 170 171 172
f 169 173 174 170
f 172 171 175 176
f 170 174 175 171
f 169 172 176 173
f 184 183 182 181
f 177 178 179 180
f 177 181 182 178
f 180 179 183 184
f 178 182 183 179
f 177 180 184 181
f 192 191 190 189
f 185 186 187 188
f 185 189 190 186
f 188 187 191 192
f 186 190 191 187
f 185 188 192 189
f 200 199 198 197
f 193 194 195 196
f 193 197 198 194
f 196 195 199 200
f 194 198 199 195
f 193 196 200 197
f 208 207 206 205
f 201 202 203 204
f 201 205 206 202
f 204 203 207 208
f 202 206 207 203
f 201 204 208 205
f 216 215 214 213
f 209 210 211 212
f 209 213 214 210
f 212 211 215 216
f 210 214 215 211
f 209 212 216 213
f 224 223 222 221
f 217 218 219 220
f 217 221 222 218
f 220 219 223 224
f 218 222 223 219
f 217 220 224 221
f 232 231 230 229
f 225 226 227 228
f 225 229 230 226
f 228 227 231 232
f 226 230 231 227
f 225 228 232 229
f 240 239 238 237
f 233 234 235 236
f 233 237 238 234
f 236 235 239 240
f 234 238 239 235
f 233 236 240 237
f 248 247 246 245
f 241 242 243 244
f 241 245 246 242
f 244 243 247 248
f 242 246 247 243
f 241 244 248 245
f 256 255 254 253
f 249 250 251 252
f 249 253 254 250
f 252 251 255 256
f 250 254 255 251
f 249 252 256 253
f 264 263 262 261
f 257 258 259 260
f 257 261 262 258
f 260 259 263 264
f 258 262 263 259
f 257 260 264 261
f 272 271 270 269
f 265 266 267 268
f 265 269 270 266
f 268 267 271 272
f 266 270 271 267
f 265 268 272 269
f 280 279 278 277
f 273 274 275 276
f 273 277 278 274
f 276 275 279 280
f 274 278 279 275
f 273 276 280 277
f 288 287 286 285
f 281 282 283 284
f 281 285 286 282
f 284 283 287 288
f 282 286 287 283
f 281 284 288 285
f 296 295 294 293
f 289 290 291 292
f 289 293 294 290
f 292 291 295 296
f 290 294 295 291
f 289 292 296 293
f 304 303 302 301
f 297 298 299 300
f 297 301 302 298
f 300 299 303 304
f 298 302 303 299
f 297 300 304 301
f 312 311 310 309
f 305 306 307 308
f 305 309 310 306
f 308 307 311 312
f 306 310 311 307
f 305 308 312 309
f 320 319 318 317
f 313 314 315 316
f 313 317 318 314
f 316 315 319 320
f 314 318 319 315
f 313 316 320 317
f 328 327 326 325
f 321 322 323 324
f 321 325 326 322
f 324 323 327 328
f 322 326 327 323
f 321 324 328 325
f 336 335 334 333
f 329 330 331 332
f 329 333 334 330
f 332 331 335 336
f 330 334 335 331
f 329 332 336 333
f 344 343 342 341
f 337 338 339 340
f 337 341 342 338
f 340 339 343 344
f 338 342 343 339
f 337 340 344 341
f 352 351 350 349
f 345 346 347 348
f 345 349 350 346
f 348 347 351 352
f 346 350 351 347
f 345 348 352 349
f 360 359 358 357
f 353 354 355 356
f 353 357 358 354
f 356 355 359 360
f 354 358 359 355
f 353 356 360 357
f 368 367 366 365
f 361 362 363 364
f 361 365 366 362
f 364 363 367 368
f 362 366 367 363
f 361 364 368 365
f 376 375 374 373
f 369 370 371 372
f 369 373 374 370
f 372 371 375 376
f 370 374 375 371
f 369 372 376 373
f 384 383 382 381
f 377 378 379 380
f 377 381 382 378
f 380 379 383 384
f 378 382 383 379
f 377 380 384 381
f 392 391 390 389
f 385 386 387 388
f 385 389 390 386
f 388 387 391 392
f 386 390 391 387
f 385 388 392 389
f 400 399 398 397
f 393 394 395 396
f 393 397 398 394
f 396 395 399 400
f 394 398 399 395
f 393 396 400 397
f 408 407 406 405
f 401 402 403 404
f 401 405 406 402
f 404 403 407 408
f 402 406 407 403
f 401 404 408 405
f 416 415 414 413
f 409 410 411 412
f 409 413 414 410
f 412 411 415 416
f 410 414 415 411
f 409 412 416 413
f 424 423 422 421
f 417 418 419 420
f 417 421 422 418
f 420 419 423 424
f 418 422 423 419
f 417 420 424 421
f 432 431 430 429
f 425 426 427 428
f 425 429 430 426
f 428 427 431 432
f 426 430 431 427
f 425 428 432 429
f 440 439 438 437
f 433 434 435 436
f 433 437 438 434
f 436 435 439 440
f 434 438 439 435
f 433 436 440 437
usemtl lineaAmar
f 448 447 446 445
f 441 442 443 444
f 441 445 446 442
f 444 443 447 448
f 442 446 447 443
f 441 444 448 445
f 456 455 454 453
f 449 450 451 452
f 449 453 454 450
f 452 451 455 456
f 450 454 455 451
f 449 452 456 453
o Estacion
usemtl barrera
f 457 458 459 460
f 461 462 463 464
f 465 466 467 468
f 469 470 471 472
f 473 474 475 476
f 477 478 479 480
f 481 482 483 484
f 485 486 487 488
f 489 490 491 492
f 493 494 495 496
f 497 498 499 500
f 501 502 503 504
f 505 506 507 508
f 509 510 511 512
f 513 514 515 516
f 517 518 519 520
f 521 522 523 524
f 525 526 527 528
f 529 530 531 532
f 533 534 535 536
f 537 538 539 540
f 541 542 543 544
f 545 546 547 548
f 549 550 551 552
f 553 554 555 556
f 557 558 559 560
f 561 562 563 564
f 565 566 567 568
f 569 570 571 572
f 573 574 575 576
f 577 578 579 580
f 581 582 583 584
f 585 586 587 588
f 589 590 591 592
usemtl anden
f 593 594 595 596
f 597 598 599 600
f 601 602 603 604
f 605 606 607 608
f 609 610 611 612
f 613 614 615 616
f 617 618 619 620
f 621 622 623 624
f 625 626 627 628
f 629 630 631 632
f 633 634 635 636
f 637 638 639 640
f 641 642 643 644
f 645 646 647 648
f 649 650 651 652
f 653 654 655 656
f 657 658 659 660
f 661 662 663 664
usemtl poste
f 672 671 670 669
f 665 666 667 668
f 665 669 670 666
f 668 667 671 672
f 666 670 671 667
f 665 668 672 669
f 680 679 678 677
f 673 674 675 676
f 673 677 678 674
f 676 675 679 680
f 674 678 679 675
f 673 676 680 677
f 688 687 686 685
f 681 682 683 684
f 681 685 686 682
f 684 683 687 688
f 682 686 687 683
f 681 684 688 685
f 696 695 694 693
f 689 690 691 692
f 689 693 694 690
f 692 691 695 696
f 690 694 695 691
f 689 692 696 693
usemtl techo
f 697 698 699 700
f 701 702 703 704
f 705 706 707 708
f 709 710 711 712
f 713 714 715 716
f 717 718 719 720
f 721 722 723 724
f 725 726 727 728
f 729 730 731 732
f 733 734 735 736
f 737 738 739 740
f 741 742 743 744
f 745 746 747 748
f 749 750 751 752
f 753 754 755 756
f 757 758 759 760
f 761 762 763 764
f 765 766 767 768
f 769 770 771 772
f 773 774 775 776
f 777 778 779 780
f 781 782 783 784
o Columnas
usemtl columna
f 792 791 790 789
f 785 786 787 788
f 785 789 790 786
f 788 787 791 792
f 786 790 791 787
f 785 788 792 789
f 793 794 795 796
f 793 797 798 794
f 796 795 799 800
f 794 798 799 795
f 793 796 800 797
f 801 802 803 804
f 801 805 806 802
f 804 803 807 808
f 802 806 807 803
f 801 804 808 805
f 816 815 814 813
f 809 810 811 812
f 809 813 814 810
f 812 811 815 816
f 810 814 815 811
f 809 812 816 813
f 817 818 819 820
f 817 821 822 818
f 820 819 823 824
f 818 822 823 819
f 817 820 824 821
f 825 826 827 828
f 825 829 830 826
f 828 827 831 832
f 826 830 831 827
f 825 828 832 829
f 840 839 838 837
f 833 834 835 836
f 833 837 838 834
f 836 835 839 840
f 834 838 839 835
f 833 836 840 837
f 841 842 843 844
f 841 845 846 842
f 844 843 847 848
f 842 846 847 843
f 841 844 848 845
f 849 850 851 852
f 849 853 854 850
f 852 851 855 856
f 850 854 855 851
f 849 852 856 853
o ViaElevada
usemtl asfalto
f 857 858 859 860
usemtl concreto
f 861 862 863 864
usemtl asfalto
f 865 866 867 868
usemtl concreto
f 869 870 871 872
usemtl asfalto
f 873 874 875 876
usemtl concreto
f 877 878 879 880
usemtl asfalto
f 881 882 883 884
usemtl concreto
f 885 886 887 888
f 889 890 891 892
f 893 894 895 896
usemtl asfalto
f 897 898 899 900
usemtl concreto
f 901 902 903 904
usemtl asfalto
f 905 906 907 908
usemtl concreto
f 909 910 911 912
usemtl asfalto
f 913 914 915 916
usemtl concreto
f 917 918 919 920
usemtl asfalto
f 921 922 923 924
usemtl concreto
f 925 926 927 928
f 929 930 931 932
f 933 934 935 936
usemtl asfalto
f 937 938 939 940
usemtl concreto
f 941 942 943 944
usemtl asfalto
f 945 946 947 948
usemtl concreto
f 949 950 951 952
usemtl asfalto
f 953 954 955 956
usemtl concreto
f 957 958 959 960
usemtl asfalto
f 961 962 963 964
usemtl concreto
f 965 966 967 968
f 969 970 971 972
f 973 974 975 976
usemtl asfalto
f 977 978 979 980
usemtl concreto
f 981 982 983 984
usemtl asfalto
f 985 986 987 988
usemtl concreto
f 989 990 991 992
usemtl asfalto
f 993 994 995 996
usemtl concreto
f 997 998 999 1000
usemtl asfalto
f 1001 1002 1003 1004
usemtl concreto
f 1005 1006 1007 1008
f 1009 1010 1011 1012
f 1013 1014 1015 1016
usemtl asfalto
f 1017 1018 1019 1020
usemtl concreto
f 1021 1022 1023 1024
usemtl asfalto
f 1025 1026 1027 1028
usemtl concreto
f 1029 1030 1031 1032
usemtl asfalto
f 1033 1034 1035 1036
usemtl concreto
f 1037 1038 1039 1040
usemtl asfalto
f 1041 1042 1043 1044
usemtl concreto
f 1045 1046 1047 1048
f 1049 1050 1051 1052
f 1053 1054 1055 1056
usemtl asfalto
f 1057 1058 1059 1060
usemtl concreto
f 1061 1062 1063 1064
usemtl asfalto
f 1065 1066 1067 1068
usemtl concreto
f 1069 1070 1071 1072
usemtl asfalto
f 1073 1074 1075 1076
usemtl concreto
f 1077 1078 1079 1080
usemtl asfalto
f 1081 1082 1083 1084
usemtl concreto
f 1085 1086 1087 1088
f 1089 1090 1091 1092
f 1093 1094 1095 1096
usemtl asfalto
f 1097 1098 1099 1100
usemtl concreto
f 1101 1102 1103 1104
usemtl asfalto
f 1105 1106 1107 1108
usemtl concreto
f 1109 1110 1111 1112
usemtl asfalto
f 1113 1114 1115 1116
usemtl concreto
f 1117 1118 1119 1120
usemtl asfalto
f 1121 1122 1123 1124
usemtl concreto
f 1125 1126 1127 1128
f 1129 1130 1131 1132
f 1133 1134 1135 1136
usemtl asfalto
f 1137 1138 1139 1140
usemtl concreto
f 1141 1142 1143 1144
usemtl asfalto
f 1145 1146 1147 1148
usemtl concreto
f 1149 1150 1151 1152
usemtl asfalto
f 1153 1154 1155 1156
usemtl concreto
f 1157 1158 1159 1160
usemtl asfalto
f 1161 1162 1163 1164
usemtl concreto
f 1165 1166 1167 1168
f 1169 1170 1171 1172
f 1173 1174 1175 1176
usemtl asfalto
f 1177 1178 1179 1180
usemtl concreto
f 1181 1182 1183 1184
usemtl asfalto
f 1185 1186 1187 1188
usemtl concreto
f 1189 1190 1191 1192
usemtl asfalto
f 1193 1194 1195 1196
usemtl concreto
f 1197 1198 1199 1200
usemtl asfalto
f 1201 1202 1203 1204
usemtl concreto
f 1205 1206 1207 1208
f 1209 1210 1211 1212
f 1213 1214 1215 1216
usemtl asfalto
f 1217 1218 1219 1220
usemtl concreto
f 1221 1222 1223 1224
usemtl asfalto
f 1225 1226 1227 1228
usemtl concreto
f 1229 1230 1231 1232
usemtl asfalto
f 1233 1234 1235 1236
usemtl concreto
f 1237 1238 1239 1240
usemtl asfalto
f 1241 1242 1243 1244
usemtl concreto
f 1245 1246 1247 1248
f 1249 1250 1251 1252
f 1253 1254 1255 1256
usemtl asfalto
f 1257 1258 1259 1260
usemtl concreto
f 1261 1262 1263 1264
usemtl asfalto
f 1265 1266 1267 1268
usemtl concreto
f 1269 1270 1271 1272
usemtl asfalto
f 1273 1274 1275 1276
usemtl concreto
f 1277 1278 1279 1280
usemtl asfalto
f 1281 1282 1283 1284
usemtl concreto
f 1285 1286 1287 1288
f 1289 1290 1291 1292
f 1293 1294 1295 1296
usemtl asfalto
f 1297 1298 1299 1300
usemtl concreto
f 1301 1302 1303 1304
usemtl asfalto
f 1305 1306 1307 1308
usemtl concreto
f 1309 1310 1311 1312
usemtl asfalto
f 1313 1314 1315 1316
usemtl concreto
f 1317 1318 1319 1320
usemtl asfalto
f 1321 1322 1323 1324
usemtl concreto
f 1325 1326 1327 1328
f 1329 1330 1331 1332
f 1333 1334 1335 1336
f 1337 1338 1339 1340
f 1341 1342 1343 1344
o ViaElevadaEncima
usemtl barrera
f 1345 1346 1347 1348
f 1349 1350 1351 1352
f 1353 1354 1355 1356
f 1357 1358 1359 1360
f 1361 1362 1363 1364
f 1365 1366 1367 1368
f 1369 1370 1371 1372
f 1373 1374 1375 1376
f 1377 1378 1379 1380
f 1381 1382 1383 1384
f 1385 1386 1387 1388
f 1389 1390 1391 1392
f 1393 1394 1395 1396
f 1397 1398 1399 1400
f 1401 1402 1403 1404
f 1405 1406 1407 1408
f 1409 1410 1411 1412
f 1413 1414 1415 1416
f 1417 1418 1419 1420
f 1421 1422 1423 1424
f 1425 1426 1427 1428
f 1429 1430 1431 1432
f 1433 1434 1435 1436
f 1437 1438 1439 1440
f 1441 1442 1443 1444
f 1445 1446 1447 1448
f 1449 1450 1451 1452
f 1453 1454 1455 1456
f 1457 1458 1459 1460
f 1461 1462 1463 1464
f 1465 1466 1467 1468
f 1469 1470 1471 1472
f 1473 1474 1475 1476
f 1477 1478 1479 1480
f 1481 1482 1483 1484
f 1485 1486 1487 1488
f 1489 1490 1491 1492
f 1493 1494 1495 1496
f 1497 1498 1499 1500
f 1501 1502 1503 1504
f 1505 1506 1507 1508
f 1509 1510 1511 1512
f 1513 1514 1515 1516
f 1517 1518 1519 1520
f 1521 1522 1523 1524
f 1525 1526 1527 1528
f 1529 1530 1531 1532
f 1533 1534 1535 1536
f 1537 1538 1539 1540
f 1541 1542 1543 1544
f 1545 1546 1547 1548
f 1549 1550 1551 1552
f 1553 1554 1555 1556
f 1557 1558 1559 1560
f 1561 1562 1563 1564
f 1565 1566 1567 1568
f 1569 1570 1571 1572
f 1573 1574 1575 1576
f 1577 1578 1579 1580
f 1581 1582 1583 1584
f 1585 1586 1587 1588
f 1589 1590 1591 1592
f 1593 1594 1595 1596
f 1597 1598 1599 1600
f 1601 1602 1603 1604
f 1605 1606 1607 1608
f 1609 1610 1611 1612
f 1613 1614 1615 1616
f 1617 1618 1619 1620
f 1621 1622 1623 1624
f 1625 1626 1627 1628
f 1629 1630 1631 1632
f 1633 1634 1635 1636
f 1637 1638 1639 1640
f 1641 1642 1643 1644
f 1645 1646 1647 1648
f 1649 1650 1651 1652
f 1653 1654 1655 1656
f 1657 1658 1659 1660
f 1661 1662 1663 1664
f 1665 1666 1667 1668
f 1669 1670 1671 1672
f 1673 1674 1675 1676
f 1677 1678 1679 1680
f 1681 1682 1683 1684
f 1685 1686 1687 1688
f 1689 1690 1691 1692
f 1693 1694 1695 1696
f 1697 1698 1699 1700
f 1701 1702 1703 1704
f 1705 1706 1707 1708
f 1709 1710 1711 1712
f 1713 1714 1715 1716
f 1717 1718 1719 1720
f 1721 1722 1723 1724
f 1725 1726 1727 1728
f 1729 1730 1731 1732
f 1733 1734 1735 1736
f 1737 1738 1739 1740
f 1741 1742 1743 1744
f 1745 1746 1747 1748
f 1749 1750 1751 1752
usemtl linea
f 1753 1754 1755 1756
f 1757 1758 1759 1760
f 1761 1762 1763 1764
f 1765 1766 1767 1768
f 1769 1770 1771 1772
f 1773 1774 1775 1776
f 1777 1778 1779 1780
f 1781 1782 1783 1784
f 1785 1786 1787 1788
f 1789 1790 1791 1792
f 1793 1794 1795 1796
f 1797 1798 1799 1800
f 1801 1802 1803 1804
f 1805 1806 1807 1808
f 1809 1810 1811 1812
f 1813 1814 1815 1816
f 1817 1818 1819 1820
f 1821 1822 1823 1824
f 1825 1826 1827 1828
f 1829 1830 1831 1832
f 1833 1834 1835 1836
f 1837 1838 1839 1840
f 1841 1842 1843 1844
f 1845 1846 1847 1848
f 1849 1850 1851 1852
f 1853 1854 1855 1856
f 1857 1858 1859 1860
f 1861 1862 1863 1864
f 1865 1866 1867 1868
f 1869 1870 1871 1872
f 1873 1874 1875 1876
f 1877 1878 1879 1880
f 1881 1882 1883 1884
f 1885 1886 1887 1888
f 1889 1890 1891 1892
f 1893 1894 1895 1896
f 1897 1898 1899 1900
f 1901 1902 1903 1904
f 1905 1906 1907 1908
f 1909 1910 1911 1912
f 1913 1914 1915 1916
f 1917 1918 1919 1920
f 1921 1922 1923 1924
f 1925 1926 1927 1928
f 1929 1930 1931 1932
f 1933 1934 1935 1936
f 1937 1938 1939 1940
f 1941 1942 1943 1944
f 1945 1946 1947 1948
f 1949 1950 1951 1952
f 1953 1954 1955 1956
f 1957 1958 1959 1960
f 1961 1962 1963 1964
f 1965 1966 1967 1968
f 1969 1970 1971 1972
f 1973 1974 1975 1976
f 1977 1978 1979 1980
f 1981 1982 1983 1984
f 1985 1986 1987 1988
f 1989 1990 1991 1992
f 1993 1994 1995 1996
f 1997 1998 1999 2000
f 2001 2002 2003 2004
f 2005 2006 2007 2008
f 2009 2010 2011 2012
f 2013 2014 2015 2016
f 2017 2018 2019 2020
f 2021 2022 2023 2024
f 2025 2026 2027 2028
f 2029 2030 2031 2032
f 2033 2034 2035 2036
f 2037 2038 2039 2040
f 2041 2042 2043 2044
f 2045 2046 2047 2048
f 2049 2050 2051 2052
f 2053 2054 2055 2056
f 2057 2058 2059 2060
f 2061 2062 2063 2064
f 2065 2066 2067 2068
f 2069 2070 2071 2072
f 2073 2074 2075 2076
f 2077 2078 2079 2080
f 2081 2082 2083 2084
f 2085 2086 2087 2088
f 2089 2090 2091 2092
f 2093 2094 2095 2096
f 2097 2098 2099 2100
f 2101 2102 2103 2104
f 2105 2106 2107 2108
f 2109 2110 2111 2112
f 2113 2114 2115 2116
f 2117 2118 2119 2120
f 2128 2127 2126 2125
f 2121 2122 2123 2124
f 2121 2125 2126 2122
f 2124 2123 2127 2128
f 2122 2126 2127 2123
f 2121 2124 2128 2125
f 2136 2135 2134 2133
f 2129 2130 2131 2132
f 2129 2133 2134 2130
f 2132 2131 2135 2136
f 2130 2134 2135 2131
f 2129 2132 2136 2133
f 2144 2143 2142 2141
f 2137 2138 2139 2140
f 2137 2141 2142 2138
f 2140 2139 2143 2144
f 2138 2142 2143 2139
f 2137 2140 2144 2141
f 2152 2151 2150 2149
f 2145 2146 2147 2148
f 2145 2149 2150 2146
f 2148 2147 2151 2152
f 2146 2150 2151 2147
f 2145 2148 2152 2149
f 2160 2159 2158 2157
f 2153 2154 2155 2156
f 2153 2157 2158 2154
f 2156 2155 2159 2160
f 2154 2158 2159 2155
f 2153 2156 2160 2157
f 2168 2167 2166 2165
f 2161 2162 2163 2164
f 2161 2165 2166 2162
f 2164 2163 2167 2168
f 2162 2166 2167 2163
f 2161 2164 2168 2165
f 2176 2175 2174 2173
f 2169 2170 2171 2172
f 2169 2173 2174 2170
f 2172 2171 2175 2176
f 2170 2174 2175 2171
f 2169 2172 2176 2173
f 2184 2183 2182 2181
f 2177 2178 2179 2180
f 2177 2181 2182 2178
f 2180 2179 2183 2184
f 2178 2182 2183 2179
f 2177 2180 2184 2181
f 2192 2191 2190 2189
f 2185 2186 2187 2188
f 2185 2189 2190 2186
f 2188 2187 2191 2192
f 2186 2190 2191 2187
f 2185 2188 2192 2189
f 2200 2199 2198 2197
f 2193 2194 2195 2196
f 2193 2197 2198 2194
f 2196 2195 2199 2200
f 2194 2198 2199 2195
f 2193 2196 2200 2197
f 2208 2207 2206 2205
f 2201 2202 2203 2204
f 2201 2205 2206 2202
f 2204 2203 2207 2208
f 2202 2206 2207 2203
f 2201 2204 2208 2205
f 2216 2215 2214 2213
f 2209 2210 2211 2212
f 2209 2213 2214 2210
f 2212 2211 2215 2216
f 2210 2214 2215 2211
f 2209 2212 2216 2213
f 2224 2223 2222 2221
f 2217 2218 2219 2220
f 2217 2221 2222 2218
f 2220 2219 2223 2224
f 2218 2222 2223 2219
f 2217 2220 2224 2221
f 2232 2231 2230 2229
f 2225 2226 2227 2228
f 2225 2229 2230 2226
f 2228 2227 2231 2232
f 2226 2230 2231 2227
f 2225 2228 2232 2229
f 2240 2239 2238 2237
f 2233 2234 2235 2236
f 2233 2237 2238 2234
f 2236 2235 2239 2240
f 2234 2238 2239 2235
f 2233 2236 2240 2237
f 2248 2247 2246 2245
f 2241 2242 2243 2244
f 2241 2245 2246 2242
f 2244 2243 2247 2248
f 2242 2246 2247 2243
f 2241 2244 2248 2245
f 2256 2255 2254 2253
f 2249 2250 2251 2252
f 2249 2253 2254 2250
f 2252 2251 2255 2256
f 2250 2254 2255 2251
f 2249 2252 2256 2253
f 2264 2263 2262 2261
f 2257 2258 2259 2260
f 2257 2261 2262 2258
f 2260 2259 2263 2264
f 2258 2262 2263 2259
f 2257 2260 2264 2261
f 2272 2271 2270 2269
f 2265 2266 2267 2268
f 2265 2269 2270 2266
f 2268 2267 2271 2272
f 2266 2270 2271 2267
f 2265 2268 2272 2269
f 2280 2279 2278 2277
f 2273 2274 2275 2276
f 2273 2277 2278 2274
f 2276 2275 2279 2280
f 2274 2278 2279 2275
f 2273 2276 2280 2277
usemtl poste
f 2288 2287 2286 2285
f 2281 2282 2283 2284
f 2281 2285 2286 2282
f 2284 2283 2287 2288
f 2282 2286 2287 2283
f 2281 2284 2288 2285
f 2296 2295 2294 2293
f 2289 2290 2291 2292
f 2289 2293 2294 2290
f 2292 2291 2295 2296
f 2290 2294 2295 2291
f 2289 2292 2296 2293
usemtl amarillo
f 2304 2303 2302 2301
f 2297 2298 2299 2300
f 2297 2301 2302 2298
f 2300 2299 2303 2304
f 2298 2302 2303 2299
f 2297 2300 2304 2301
f 2312 2311 2310 2309
f 2305 2306 2307 2308
f 2305 2309 2310 2306
f 2308 2307 2311 2312
f 2306 2310 2311 2307
f 2305 2308 2312 2309
usemtl poste
f 2320 2319 2318 2317
f 2313 2314 2315 2316
f 2313 2317 2318 2314
f 2316 2315 2319 2320
f 2314 2318 2319 2315
f 2313 2316 2320 2317
f 2328 2327 2326 2325
f 2321 2322 2323 2324
f 2321 2325 2326 2322
f 2324 2323 2327 2328
f 2322 2326 2327 2323
f 2321 2324 2328 2325
usemtl amarillo
f 2336 2335 2334 2333
f 2329 2330 2331 2332
f 2329 2333 2334 2330
f 2332 2331 2335 2336
f 2330 2334 2335 2331
f 2329 2332 2336 2333
f 2344 2343 2342 2341
f 2337 2338 2339 2340
f 2337 2341 2342 2338
f 2340 2339 2343 2344
f 2338 2342 2343 2339
f 2337 2340 2344 2341
usemtl blanco
f 2352 2351 2350 2349
f 2345 2346 2347 2348
f 2345 2349 2350 2346
f 2348 2347 2351 2352
f 2346 2350 2351 2347
f 2345 2348 2352 2349
usemtl vidrio
f 2360 2359 2358 2357
f 2353 2354 2355 2356
f 2353 2357 2358 2354
f 2356 2355 2359 2360
f 2354 2358 2359 2355
f 2353 2356 2360 2357
usemtl rojo
f 2368 2367 2366 2365
f 2361 2362 2363 2364
f 2361 2365 2366 2362
f 2364 2363 2367 2368
f 2362 2366 2367 2363
f 2361 2364 2368 2365
usemtl vidrio
f 2376 2375 2374 2373
f 2369 2370 2371 2372
f 2369 2373 2374 2370
f 2372 2371 2375 2376
f 2370 2374 2375 2371
f 2369 2372 2376 2373
usemtl azul
f 2384 2383 2382 2381
f 2377 2378 2379 2380
f 2377 2381 2382 2378
f 2380 2379 2383 2384
f 2378 2382 2383 2379
f 2377 2380 2384 2381
usemtl vidrio
f 2392 2391 2390 2389
f 2385 2386 2387 2388
f 2385 2389 2390 2386
f 2388 2387 2391 2392
f 2386 2390 2391 2387
f 2385 2388 2392 2389
usemtl amarillo
f 2400 2399 2398 2397
f 2393 2394 2395 2396
f 2393 2397 2398 2394
f 2396 2395 2399 2400
f 2394 2398 2399 2395
f 2393 2396 2400 2397
usemtl vidrio
f 2408 2407 2406 2405
f 2401 2402 2403 2404
f 2401 2405 2406 2402
f 2404 2403 2407 2408
f 2402 2406 2407 2403
f 2401 2404 2408 2405
usemtl blanco
f 2416 2415 2414 2413
f 2409 2410 2411 2412
f 2409 2413 2414 2410
f 2412 2411 2415 2416
f 2410 2414 2415 2411
f 2409 2412 2416 2413
usemtl vidrio
f 2424 2423 2422 2421
f 2417 2418 2419 2420
f 2417 2421 2422 2418
f 2420 2419 2423 2424
f 2418 2422 2423 2419
f 2417 2420 2424 2421
usemtl gris
f 2432 2431 2430 2429
f 2425 2426 2427 2428
f 2425 2429 2430 2426
f 2428 2427 2431 2432
f 2426 2430 2431 2427
f 2425 2428 2432 2429
usemtl vidrio
f 2440 2439 2438 2437
f 2433 2434 2435 2436
f 2433 2437 2438 2434
f 2436 2435 2439 2440
f 2434 2438 2439 2435
f 2433 2436 2440 2437
o Vehiculos
usemtl rojo
f 2448 2447 2446 2445
f 2441 2442 2443 2444
f 2441 2445 2446 2442
f 2444 2443 2447 2448
f 2442 2446 2447 2443
f 2441 2444 2448 2445
usemtl vidrio
f 2456 2455 2454 2453
f 2449 2450 2451 2452
f 2449 2453 2454 2450
f 2452 2451 2455 2456
f 2450 2454 2455 2451
f 2449 2452 2456 2453
usemtl blanco
f 2464 2463 2462 2461
f 2457 2458 2459 2460
f 2457 2461 2462 2458
f 2460 2459 2463 2464
f 2458 2462 2463 2459
f 2457 2460 2464 2461
usemtl vidrio
f 2472 2471 2470 2469
f 2465 2466 2467 2468
f 2465 2469 2470 2466
f 2468 2467 2471 2472
f 2466 2470 2471 2467
f 2465 2468 2472 2469
usemtl gris
f 2480 2479 2478 2477
f 2473 2474 2475 2476
f 2473 2477 2478 2474
f 2476 2475 2479 2480
f 2474 2478 2479 2475
f 2473 2476 2480 2477
usemtl vidrio
f 2488 2487 2486 2485
f 2481 2482 2483 2484
f 2481 2485 2486 2482
f 2484 2483 2487 2488
f 2482 2486 2487 2483
f 2481 2484 2488 2485
usemtl azul
f 2496 2495 2494 2493
f 2489 2490 2491 2492
f 2489 2493 2494 2490
f 2492 2491 2495 2496
f 2490 2494 2495 2491
f 2489 2492 2496 2493
usemtl vidrio
f 2504 2503 2502 2501
f 2497 2498 2499 2500
f 2497 2501 2502 2498
f 2500 2499 2503 2504
f 2498 2502 2503 2499
f 2497 2500 2504 2501
usemtl amarillo
f 2512 2511 2510 2509
f 2505 2506 2507 2508
f 2505 2509 2510 2506
f 2508 2507 2511 2512
f 2506 2510 2511 2507
f 2505 2508 2512 2509
usemtl vidrio
f 2520 2519 2518 2517
f 2513 2514 2515 2516
f 2513 2517 2518 2514
f 2516 2515 2519 2520
f 2514 2518 2519 2515
f 2513 2516 2520 2517
usemtl busPlata
f 2528 2527 2526 2525
f 2521 2522 2523 2524
f 2521 2525 2526 2522
f 2524 2523 2527 2528
f 2522 2526 2527 2523
f 2521 2524 2528 2525
usemtl busVidrio
f 2536 2535 2534 2533
f 2529 2530 2531 2532
f 2529 2533 2534 2530
f 2532 2531 2535 2536
f 2530 2534 2535 2531
f 2529 2532 2536 2533
usemtl busFranja
f 2544 2543 2542 2541
f 2537 2538 2539 2540
f 2537 2541 2542 2538
f 2540 2539 2543 2544
f 2538 2542 2543 2539
f 2537 2540 2544 2541
usemtl busPlata
f 2552 2551 2550 2549
f 2545 2546 2547 2548
f 2545 2549 2550 2546
f 2548 2547 2551 2552
f 2546 2550 2551 2547
f 2545 2548 2552 2549
usemtl busVidrio
f 2560 2559 2558 2557
f 2553 2554 2555 2556
f 2553 2557 2558 2554
f 2556 2555 2559 2560
f 2554 2558 2559 2555
f 2553 2556 2560 2557
usemtl busFranja
f 2568 2567 2566 2565
f 2561 2562 2563 2564
f 2561 2565 2566 2562
f 2564 2563 2567 2568
f 2562 2566 2567 2563
f 2561 2564 2568 2565
usemtl busPlata
f 2576 2575 2574 2573
f 2569 2570 2571 2572
f 2569 2573 2574 2570
f 2572 2571 2575 2576
f 2570 2574 2575 2571
f 2569 2572 2576 2573
usemtl busVidrio
f 2584 2583 2582 2581
f 2577 2578 2579 2580
f 2577 2581 2582 2578
f 2580 2579 2583 2584
f 2578 2582 2583 2579
f 2577 2580 2584 2581
usemtl busFranja
f 2592 2591 2590 2589
f 2585 2586 2587 2588
f 2585 2589 2590 2586
f 2588 2587 2591 2592
f 2586 2590 2591 2587
f 2585 2588 2592 2589
usemtl busPlata
f 2600 2599 2598 2597
f 2593 2594 2595 2596
f 2593 2597 2598 2594
f 2596 2595 2599 2600
f 2594 2598 2599 2595
f 2593 2596 2600 2597
usemtl busVidrio
f 2608 2607 2606 2605
f 2601 2602 2603 2604
f 2601 2605 2606 2602
f 2604 2603 2607 2608
f 2602 2606 2607 2603
f 2601 2604 2608 2605
usemtl busFranja
f 2616 2615 2614 2613
f 2609 2610 2611 2612
f 2609 2613 2614 2610
f 2612 2611 2615 2616
f 2610 2614 2615 2611
f 2609 2612 2616 2613
o Arboles
usemtl tronco
f 2624 2623 2622 2621
f 2617 2618 2619 2620
f 2617 2621 2622 2618
f 2620 2619 2623 2624
f 2618 2622 2623 2619
f 2617 2620 2624 2621
usemtl copa
f 2632 2631 2630 2629
f 2625 2626 2627 2628
f 2625 2629 2630 2626
f 2628 2627 2631 2632
f 2626 2630 2631 2627
f 2625 2628 2632 2629
f 2640 2639 2638 2637
f 2633 2634 2635 2636
f 2633 2637 2638 2634
f 2636 2635 2639 2640
f 2634 2638 2639 2635
f 2633 2636 2640 2637
usemtl tronco
f 2648 2647 2646 2645
f 2641 2642 2643 2644
f 2641 2645 2646 2642
f 2644 2643 2647 2648
f 2642 2646 2647 2643
f 2641 2644 2648 2645
usemtl copa
f 2656 2655 2654 2653
f 2649 2650 2651 2652
f 2649 2653 2654 2650
f 2652 2651 2655 2656
f 2650 2654 2655 2651
f 2649 2652 2656 2653
f 2664 2663 2662 2661
f 2657 2658 2659 2660
f 2657 2661 2662 2658
f 2660 2659 2663 2664
f 2658 2662 2663 2659
f 2657 2660 2664 2661
usemtl tronco
f 2672 2671 2670 2669
f 2665 2666 2667 2668
f 2665 2669 2670 2666
f 2668 2667 2671 2672
f 2666 2670 2671 2667
f 2665 2668 2672 2669
usemtl copa
f 2680 2679 2678 2677
f 2673 2674 2675 2676
f 2673 2677 2678 2674
f 2676 2675 2679 2680
f 2674 2678 2679 2675
f 2673 2676 2680 2677
f 2688 2687 2686 2685
f 2681 2682 2683 2684
f 2681 2685 2686 2682
f 2684 2683 2687 2688
f 2682 2686 2687 2683
f 2681 2684 2688 2685
usemtl tronco
f 2696 2695 2694 2693
f 2689 2690 2691 2692
f 2689 2693 2694 2690
f 2692 2691 2695 2696
f 2690 2694 2695 2691
f 2689 2692 2696 2693
usemtl copa
f 2704 2703 2702 2701
f 2697 2698 2699 2700
f 2697 2701 2702 2698
f 2700 2699 2703 2704
f 2698 2702 2703 2699
f 2697 2700 2704 2701
f 2712 2711 2710 2709
f 2705 2706 2707 2708
f 2705 2709 2710 2706
f 2708 2707 2711 2712
f 2706 2710 2711 2707
f 2705 2708 2712 2709
usemtl tronco
f 2720 2719 2718 2717
f 2713 2714 2715 2716
f 2713 2717 2718 2714
f 2716 2715 2719 2720
f 2714 2718 2719 2715
f 2713 2716 2720 2717
usemtl copa
f 2728 2727 2726 2725
f 2721 2722 2723 2724
f 2721 2725 2726 2722
f 2724 2723 2727 2728
f 2722 2726 2727 2723
f 2721 2724 2728 2725
f 2736 2735 2734 2733
f 2729 2730 2731 2732
f 2729 2733 2734 2730
f 2732 2731 2735 2736
f 2730 2734 2735 2731
f 2729 2732 2736 2733
usemtl tronco
f 2744 2743 2742 2741
f 2737 2738 2739 2740
f 2737 2741 2742 2738
f 2740 2739 2743 2744
f 2738 2742 2743 2739
f 2737 2740 2744 2741
usemtl copa
f 2752 2751 2750 2749
f 2745 2746 2747 2748
f 2745 2749 2750 2746
f 2748 2747 2751 2752
f 2746 2750 2751 2747
f 2745 2748 2752 2749
f 2760 2759 2758 2757
f 2753 2754 2755 2756
f 2753 2757 2758 2754
f 2756 2755 2759 2760
f 2754 2758 2759 2755
f 2753 2756 2760 2757
usemtl tronco
f 2768 2767 2766 2765
f 2761 2762 2763 2764
f 2761 2765 2766 2762
f 2764 2763 2767 2768
f 2762 2766 2767 2763
f 2761 2764 2768 2765
usemtl copa
f 2776 2775 2774 2773
f 2769 2770 2771 2772
f 2769 2773 2774 2770
f 2772 2771 2775 2776
f 2770 2774 2775 2771
f 2769 2772 2776 2773
f 2784 2783 2782 2781
f 2777 2778 2779 2780
f 2777 2781 2782 2778
f 2780 2779 2783 2784
f 2778 2782 2783 2779
f 2777 2780 2784 2781
usemtl tronco
f 2792 2791 2790 2789
f 2785 2786 2787 2788
f 2785 2789 2790 2786
f 2788 2787 2791 2792
f 2786 2790 2791 2787
f 2785 2788 2792 2789
usemtl copa
f 2800 2799 2798 2797
f 2793 2794 2795 2796
f 2793 2797 2798 2794
f 2796 2795 2799 2800
f 2794 2798 2799 2795
f 2793 2796 2800 2797
f 2808 2807 2806 2805
f 2801 2802 2803 2804
f 2801 2805 2806 2802
f 2804 2803 2807 2808
f 2802 2806 2807 2803
f 2801 2804 2808 2805
usemtl tronco
f 2816 2815 2814 2813
f 2809 2810 2811 2812
f 2809 2813 2814 2810
f 2812 2811 2815 2816
f 2810 2814 2815 2811
f 2809 2812 2816 2813
usemtl copa
f 2824 2823 2822 2821
f 2817 2818 2819 2820
f 2817 2821 2822 2818
f 2820 2819 2823 2824
f 2818 2822 2823 2819
f 2817 2820 2824 2821
f 2832 2831 2830 2829
f 2825 2826 2827 2828
f 2825 2829 2830 2826
f 2828 2827 2831 2832
f 2826 2830 2831 2827
f 2825 2828 2832 2829
usemtl tronco
f 2840 2839 2838 2837
f 2833 2834 2835 2836
f 2833 2837 2838 2834
f 2836 2835 2839 2840
f 2834 2838 2839 2835
f 2833 2836 2840 2837
usemtl copa
f 2848 2847 2846 2845
f 2841 2842 2843 2844
f 2841 2845 2846 2842
f 2844 2843 2847 2848
f 2842 2846 2847 2843
f 2841 2844 2848 2845
f 2856 2855 2854 2853
f 2849 2850 2851 2852
f 2849 2853 2854 2850
f 2852 2851 2855 2856
f 2850 2854 2855 2851
f 2849 2852 2856 2853
