# Vía Expresa Elevada — pieza "1-terreno-y-pasto"
# Impórtala a Tinkercad y píntala con el balde de pintura.
# Todas las piezas usan las mismas coordenadas, así que calzan solas.

v -45.00 0.00 25.00
v 45.00 0.00 25.00
v 45.00 0.00 -25.00
v -45.00 0.00 -25.00
v -45.00 -1.00 -25.00
v 45.00 -1.00 -25.00
v 45.00 -1.00 25.00
v -45.00 -1.00 25.00
v -45.00 0.40 25.00
v 45.00 0.40 25.00
v 45.00 0.40 -25.00
v -45.00 0.40 -25.00
v -45.00 0.00 -25.00
v 45.00 0.00 -25.00
v 45.00 0.00 25.00
v -45.00 0.00 25.00

f 1 2 3 4
f 5 6 7 8
f 5 4 3 6
f 8 7 2 1
f 6 3 2 7
f 5 8 1 4
f 9 10 11 12
f 13 14 15 16
f 13 12 11 14
f 16 15 10 9
f 14 11 10 15
f 13 16 9 12
