# Vía Expresa Elevada — pieza "1-terreno-y-jardines"
# Impórtala a Tinkercad y píntala con el balde de pintura.
# Las seis piezas usan las mismas coordenadas, así que calzan solas.

v -105.000 0.000 -13.667
v -81.667 0.000 -13.667
v -81.667 0.000 -33.000
v -105.000 0.000 -33.000
v -105.000 -1.200 -33.000
v -81.667 -1.200 -33.000
v -81.667 -1.200 -13.667
v -105.000 -1.200 -13.667
v -105.000 0.000 5.667
v -81.667 0.000 5.667
v -81.667 0.000 -13.667
v -105.000 0.000 -13.667
v -105.000 -1.200 -13.667
v -81.667 -1.200 -13.667
v -81.667 -1.200 5.667
v -105.000 -1.200 5.667
v -105.000 0.000 25.000
v -81.667 0.000 25.000
v -81.667 0.000 5.667
v -105.000 0.000 5.667
v -105.000 -1.200 5.667
v -81.667 -1.200 5.667
v -81.667 -1.200 25.000
v -105.000 -1.200 25.000
v -81.667 0.000 -13.667
v -58.333 0.000 -13.667
v -58.333 0.000 -33.000
v -81.667 0.000 -33.000
v -81.667 -1.200 -33.000
v -58.333 -1.200 -33.000
v -58.333 -1.200 -13.667
v -81.667 -1.200 -13.667
v -81.667 0.000 5.667
v -58.333 0.000 5.667
v -58.333 0.000 -13.667
v -81.667 0.000 -13.667
v -81.667 -1.200 -13.667
v -58.333 -1.200 -13.667
v -58.333 -1.200 5.667
v -81.667 -1.200 5.667
v -81.667 0.000 25.000
v -58.333 0.000 25.000
v -58.333 0.000 5.667
v -81.667 0.000 5.667
v -81.667 -1.200 5.667
v -58.333 -1.200 5.667
v -58.333 -1.200 25.000
v -81.667 -1.200 25.000
v -58.333 0.000 -13.667
v -35.000 0.000 -13.667
v -35.000 0.000 -33.000
v -58.333 0.000 -33.000
v -58.333 -1.200 -33.000
v -35.000 -1.200 -33.000
v -35.000 -1.200 -13.667
v -58.333 -1.200 -13.667
v -58.333 0.000 5.667
v -35.000 0.000 5.667
v -35.000 0.000 -13.667
v -58.333 0.000 -13.667
v -58.333 -1.200 -13.667
v -35.000 -1.200 -13.667
v -35.000 -1.200 5.667
v -58.333 -1.200 5.667
v -58.333 0.000 25.000
v -35.000 0.000 25.000
v -35.000 0.000 5.667
v -58.333 0.000 5.667
v -58.333 -1.200 5.667
v -35.000 -1.200 5.667
v -35.000 -1.200 25.000
v -58.333 -1.200 25.000
v -35.000 0.000 -13.667
v -11.667 0.000 -13.667
v -11.667 0.000 -33.000
v -35.000 0.000 -33.000
v -35.000 -1.200 -33.000
v -11.667 -1.200 -33.000
v -11.667 -1.200 -13.667
v -35.000 -1.200 -13.667
v -35.000 0.000 5.667
v -11.667 0.000 5.667
v -11.667 0.000 -13.667
v -35.000 0.000 -13.667
v -35.000 -1.200 -13.667
v -11.667 -1.200 -13.667
v -11.667 -1.200 5.667
v -35.000 -1.200 5.667
v -35.000 0.000 25.000
v -11.667 0.000 25.000
v -11.667 0.000 5.667
v -35.000 0.000 5.667
v -35.000 -1.200 5.667
v -11.667 -1.200 5.667
v -11.667 -1.200 25.000
v -35.000 -1.200 25.000
v -11.667 0.000 -13.667
v 11.667 0.000 -13.667
v 11.667 0.000 -33.000
v -11.667 0.000 -33.000
v -11.667 -1.200 -33.000
v 11.667 -1.200 -33.000
v 11.667 -1.200 -13.667
v -11.667 -1.200 -13.667
v -11.667 0.000 5.667
v 11.667 0.000 5.667
v 11.667 0.000 -13.667
v -11.667 0.000 -13.667
v -11.667 -1.200 -13.667
v 11.667 -1.200 -13.667
v 11.667 -1.200 5.667
v -11.667 -1.200 5.667
v -11.667 0.000 25.000
v 11.667 0.000 25.000
v 11.667 0.000 5.667
v -11.667 0.000 5.667
v -11.667 -1.200 5.667
v 11.667 -1.200 5.667
v 11.667 -1.200 25.000
v -11.667 -1.200 25.000
v 11.667 0.000 -13.667
v 35.000 0.000 -13.667
v 35.000 0.000 -33.000
v 11.667 0.000 -33.000
v 11.667 -1.200 -33.000
v 35.000 -1.200 -33.000
v 35.000 -1.200 -13.667
v 11.667 -1.200 -13.667
v 11.667 0.000 5.667
v 35.000 0.000 5.667
v 35.000 0.000 -13.667
v 11.667 0.000 -13.667
v 11.667 -1.200 -13.667
v 35.000 -1.200 -13.667
v 35.000 -1.200 5.667
v 11.667 -1.200 5.667
v 11.667 0.000 25.000
v 35.000 0.000 25.000
v 35.000 0.000 5.667
v 11.667 0.000 5.667
v 11.667 -1.200 5.667
v 35.000 -1.200 5.667
v 35.000 -1.200 25.000
v 11.667 -1.200 25.000
v 35.000 0.000 -13.667
v 58.333 0.000 -13.667
v 58.333 0.000 -33.000
v 35.000 0.000 -33.000
v 35.000 -1.200 -33.000
v 58.333 -1.200 -33.000
v 58.333 -1.200 -13.667
v 35.000 -1.200 -13.667
v 35.000 0.000 5.667
v 58.333 0.000 5.667
v 58.333 0.000 -13.667
v 35.000 0.000 -13.667
v 35.000 -1.200 -13.667
v 58.333 -1.200 -13.667
v 58.333 -1.200 5.667
v 35.000 -1.200 5.667
v 35.000 0.000 25.000
v 58.333 0.000 25.000
v 58.333 0.000 5.667
v 35.000 0.000 5.667
v 35.000 -1.200 5.667
v 58.333 -1.200 5.667
v 58.333 -1.200 25.000
v 35.000 -1.200 25.000
v 58.333 0.000 -13.667
v 81.667 0.000 -13.667
v 81.667 0.000 -33.000
v 58.333 0.000 -33.000
v 58.333 -1.200 -33.000
v 81.667 -1.200 -33.000
v 81.667 -1.200 -13.667
v 58.333 -1.200 -13.667
v 58.333 0.000 5.667
v 81.667 0.000 5.667
v 81.667 0.000 -13.667
v 58.333 0.000 -13.667
v 58.333 -1.200 -13.667
v 81.667 -1.200 -13.667
v 81.667 -1.200 5.667
v 58.333 -1.200 5.667
v 58.333 0.000 25.000
v 81.667 0.000 25.000
v 81.667 0.000 5.667
v 58.333 0.000 5.667
v 58.333 -1.200 5.667
v 81.667 -1.200 5.667
v 81.667 -1.200 25.000
v 58.333 -1.200 25.000
v 81.667 0.000 -13.667
v 105.000 0.000 -13.667
v 105.000 0.000 -33.000
v 81.667 0.000 -33.000
v 81.667 -1.200 -33.000
v 105.000 -1.200 -33.000
v 105.000 -1.200 -13.667
v 81.667 -1.200 -13.667
v 81.667 0.000 5.667
v 105.000 0.000 5.667
v 105.000 0.000 -13.667
v 81.667 0.000 -13.667
v 81.667 -1.200 -13.667
v 105.000 -1.200 -13.667
v 105.000 -1.200 5.667
v 81.667 -1.200 5.667
v 81.667 0.000 25.000
v 105.000 0.000 25.000
v 105.000 0.000 5.667
v 81.667 0.000 5.667
v 81.667 -1.200 5.667
v 105.000 -1.200 5.667
v 105.000 -1.200 25.000
v 81.667 -1.200 25.000
v -105.000 0.150 -13.667
v -81.667 0.150 -13.667
v -81.667 0.150 -33.000
v -105.000 0.150 -33.000
v -105.000 0.000 -33.000
v -81.667 0.000 -33.000
v -81.667 0.000 -13.667
v -105.000 0.000 -13.667
v -105.000 0.150 5.667
v -81.667 0.150 5.667
v -81.667 0.150 -13.667
v -105.000 0.150 -13.667
v -105.000 0.000 -13.667
v -81.667 0.000 -13.667
v -81.667 0.000 5.667
v -105.000 0.000 5.667
v -105.000 0.150 25.000
v -81.667 0.150 25.000
v -81.667 0.150 5.667
v -105.000 0.150 5.667
v -105.000 0.000 5.667
v -81.667 0.000 5.667
v -81.667 0.000 25.000
v -105.000 0.000 25.000
v -81.667 0.150 -13.667
v -58.333 0.150 -13.667
v -58.333 0.150 -33.000
v -81.667 0.150 -33.000
v -81.667 0.000 -33.000
v -58.333 0.000 -33.000
v -58.333 0.000 -13.667
v -81.667 0.000 -13.667
v -81.667 0.150 5.667
v -58.333 0.150 5.667
v -58.333 0.150 -13.667
v -81.667 0.150 -13.667
v -81.667 0.000 -13.667
v -58.333 0.000 -13.667
v -58.333 0.000 5.667
v -81.667 0.000 5.667
v -81.667 0.150 25.000
v -58.333 0.150 25.000
v -58.333 0.150 5.667
v -81.667 0.150 5.667
v -81.667 0.000 5.667
v -58.333 0.000 5.667
v -58.333 0.000 25.000
v -81.667 0.000 25.000
v -58.333 0.150 -13.667
v -35.000 0.150 -13.667
v -35.000 0.150 -33.000
v -58.333 0.150 -33.000
v -58.333 0.000 -33.000
v -35.000 0.000 -33.000
v -35.000 0.000 -13.667
v -58.333 0.000 -13.667
v -58.333 0.150 5.667
v -35.000 0.150 5.667
v -35.000 0.150 -13.667
v -58.333 0.150 -13.667
v -58.333 0.000 -13.667
v -35.000 0.000 -13.667
v -35.000 0.000 5.667
v -58.333 0.000 5.667
v -58.333 0.150 25.000
v -35.000 0.150 25.000
v -35.000 0.150 5.667
v -58.333 0.150 5.667
v -58.333 0.000 5.667
v -35.000 0.000 5.667
v -35.000 0.000 25.000
v -58.333 0.000 25.000
v -35.000 0.150 -13.667
v -11.667 0.150 -13.667
v -11.667 0.150 -33.000
v -35.000 0.150 -33.000
v -35.000 0.000 -33.000
v -11.667 0.000 -33.000
v -11.667 0.000 -13.667
v -35.000 0.000 -13.667
v -35.000 0.150 5.667
v -11.667 0.150 5.667
v -11.667 0.150 -13.667
v -35.000 0.150 -13.667
v -35.000 0.000 -13.667
v -11.667 0.000 -13.667
v -11.667 0.000 5.667
v -35.000 0.000 5.667
v -35.000 0.150 25.000
v -11.667 0.150 25.000
v -11.667 0.150 5.667
v -35.000 0.150 5.667
v -35.000 0.000 5.667
v -11.667 0.000 5.667
v -11.667 0.000 25.000
v -35.000 0.000 25.000
v -11.667 0.150 -13.667
v 11.667 0.150 -13.667
v 11.667 0.150 -33.000
v -11.667 0.150 -33.000
v -11.667 0.000 -33.000
v 11.667 0.000 -33.000
v 11.667 0.000 -13.667
v -11.667 0.000 -13.667
v -11.667 0.150 5.667
v 11.667 0.150 5.667
v 11.667 0.150 -13.667
v -11.667 0.150 -13.667
v -11.667 0.000 -13.667
v 11.667 0.000 -13.667
v 11.667 0.000 5.667
v -11.667 0.000 5.667
v -11.667 0.150 25.000
v 11.667 0.150 25.000
v 11.667 0.150 5.667
v -11.667 0.150 5.667
v -11.667 0.000 5.667
v 11.667 0.000 5.667
v 11.667 0.000 25.000
v -11.667 0.000 25.000
v 11.667 0.150 -13.667
v 35.000 0.150 -13.667
v 35.000 0.150 -33.000
v 11.667 0.150 -33.000
v 11.667 0.000 -33.000
v 35.000 0.000 -33.000
v 35.000 0.000 -13.667
v 11.667 0.000 -13.667
v 11.667 0.150 5.667
v 35.000 0.150 5.667
v 35.000 0.150 -13.667
v 11.667 0.150 -13.667
v 11.667 0.000 -13.667
v 35.000 0.000 -13.667
v 35.000 0.000 5.667
v 11.667 0.000 5.667
v 11.667 0.150 25.000
v 35.000 0.150 25.000
v 35.000 0.150 5.667
v 11.667 0.150 5.667
v 11.667 0.000 5.667
v 35.000 0.000 5.667
v 35.000 0.000 25.000
v 11.667 0.000 25.000
v 35.000 0.150 -13.667
v 58.333 0.150 -13.667
v 58.333 0.150 -33.000
v 35.000 0.150 -33.000
v 35.000 0.000 -33.000
v 58.333 0.000 -33.000
v 58.333 0.000 -13.667
v 35.000 0.000 -13.667
v 35.000 0.150 5.667
v 58.333 0.150 5.667
v 58.333 0.150 -13.667
v 35.000 0.150 -13.667
v 35.000 0.000 -13.667
v 58.333 0.000 -13.667
v 58.333 0.000 5.667
v 35.000 0.000 5.667
v 35.000 0.150 25.000
v 58.333 0.150 25.000
v 58.333 0.150 5.667
v 35.000 0.150 5.667
v 35.000 0.000 5.667
v 58.333 0.000 5.667
v 58.333 0.000 25.000
v 35.000 0.000 25.000
v 58.333 0.150 -13.667
v 81.667 0.150 -13.667
v 81.667 0.150 -33.000
v 58.333 0.150 -33.000
v 58.333 0.000 -33.000
v 81.667 0.000 -33.000
v 81.667 0.000 -13.667
v 58.333 0.000 -13.667
v 58.333 0.150 5.667
v 81.667 0.150 5.667
v 81.667 0.150 -13.667
v 58.333 0.150 -13.667
v 58.333 0.000 -13.667
v 81.667 0.000 -13.667
v 81.667 0.000 5.667
v 58.333 0.000 5.667
v 58.333 0.150 25.000
v 81.667 0.150 25.000
v 81.667 0.150 5.667
v 58.333 0.150 5.667
v 58.333 0.000 5.667
v 81.667 0.000 5.667
v 81.667 0.000 25.000
v 58.333 0.000 25.000
v 81.667 0.150 -13.667
v 105.000 0.150 -13.667
v 105.000 0.150 -33.000
v 81.667 0.150 -33.000
v 81.667 0.000 -33.000
v 105.000 0.000 -33.000
v 105.000 0.000 -13.667
v 81.667 0.000 -13.667
v 81.667 0.150 5.667
v 105.000 0.150 5.667
v 105.000 0.150 -13.667
v 81.667 0.150 -13.667
v 81.667 0.000 -13.667
v 105.000 0.000 -13.667
v 105.000 0.000 5.667
v 81.667 0.000 5.667
v 81.667 0.150 25.000
v 105.000 0.150 25.000
v 105.000 0.150 5.667
v 81.667 0.150 5.667
v 81.667 0.000 5.667
v 105.000 0.000 5.667
v 105.000 0.000 25.000
v 81.667 0.000 25.000
v -105.000 0.160 7.500
v -81.667 0.160 7.500
v -81.667 0.160 -7.500
v -105.000 0.160 -7.500
v -105.000 0.140 -7.500
v -81.667 0.140 -7.500
v -81.667 0.140 7.500
v -105.000 0.140 7.500
v -81.667 0.160 7.500
v -58.333 0.160 7.500
v -58.333 0.160 -7.500
v -81.667 0.160 -7.500
v -81.667 0.140 -7.500
v -58.333 0.140 -7.500
v -58.333 0.140 7.500
v -81.667 0.140 7.500
v -58.333 0.160 7.500
v -35.000 0.160 7.500
v -35.000 0.160 -7.500
v -58.333 0.160 -7.500
v -58.333 0.140 -7.500
v -35.000 0.140 -7.500
v -35.000 0.140 7.500
v -58.333 0.140 7.500
v -35.000 0.160 7.500
v -11.667 0.160 7.500
v -11.667 0.160 -7.500
v -35.000 0.160 -7.500
v -35.000 0.140 -7.500
v -11.667 0.140 -7.500
v -11.667 0.140 7.500
v -35.000 0.140 7.500
v -11.667 0.160 7.500
v 11.667 0.160 7.500
v 11.667 0.160 -7.500
v -11.667 0.160 -7.500
v -11.667 0.140 -7.500
v 11.667 0.140 -7.500
v 11.667 0.140 7.500
v -11.667 0.140 7.500
v 11.667 0.160 7.500
v 35.000 0.160 7.500
v 35.000 0.160 -7.500
v 11.667 0.160 -7.500
v 11.667 0.140 -7.500
v 35.000 0.140 -7.500
v 35.000 0.140 7.500
v 11.667 0.140 7.500
v 35.000 0.160 7.500
v 58.333 0.160 7.500
v 58.333 0.160 -7.500
v 35.000 0.160 -7.500
v 35.000 0.140 -7.500
v 58.333 0.140 -7.500
v 58.333 0.140 7.500
v 35.000 0.140 7.500
v 58.333 0.160 7.500
v 81.667 0.160 7.500
v 81.667 0.160 -7.500
v 58.333 0.160 -7.500
v 58.333 0.140 -7.500
v 81.667 0.140 -7.500
v 81.667 0.140 7.500
v 58.333 0.140 7.500
v 81.667 0.160 7.500
v 105.000 0.160 7.500
v 105.000 0.160 -7.500
v 81.667 0.160 -7.500
v 81.667 0.140 -7.500
v 105.000 0.140 -7.500
v 105.000 0.140 7.500
v 81.667 0.140 7.500

f 1 2 3 4
f 5 6 7 8
f 5 4 3 6
f 5 8 1 4
f 9 10 11 12
f 13 14 15 16
f 13 16 9 12
f 17 18 19 20
f 21 22 23 24
f 24 23 18 17
f 21 24 17 20
f 25 26 27 28
f 29 30 31 32
f 29 28 27 30
f 33 34 35 36
f 37 38 39 40
f 41 42 43 44
f 45 46 47 48
f 48 47 42 41
f 49 50 51 52
f 53 54 55 56
f 53 52 51 54
f 57 58 59 60
f 61 62 63 64
f 65 66 67 68
f 69 70 71 72
f 72 71 66 65
f 73 74 75 76
f 77 78 79 80
f 77 76 75 78
f 81 82 83 84
f 85 86 87 88
f 89 90 91 92
f 93 94 95 96
f 96 95 90 89
f 97 98 99 100
f 101 102 103 104
f 101 100 99 102
f 105 106 107 108
f 109 110 111 112
f 113 114 115 116
f 117 118 119 120
f 120 119 114 113
f 121 122 123 124
f 125 126 127 128
f 125 124 123 126
f 129 130 131 132
f 133 134 135 136
f 137 138 139 140
f 141 142 143 144
f 144 143 138 137
f 145 146 147 148
f 149 150 151 152
f 149 148 147 150
f 153 154 155 156
f 157 158 159 160
f 161 162 163 164
f 165 166 167 168
f 168 167 162 161
f 169 170 171 172
f 173 174 175 176
f 173 172 171 174
f 177 178 179 180
f 181 182 183 184
f 185 186 187 188
f 189 190 191 192
f 192 191 186 185
f 193 194 195 196
f 197 198 199 200
f 197 196 195 198
f 198 195 194 199
f 201 202 203 204
f 205 206 207 208
f 206 203 202 207
f 209 210 211 212
f 213 214 215 216
f 216 215 210 209
f 214 211 210 215
f 217 218 219 220
f 221 222 223 224
f 221 220 219 222
f 221 224 217 220
f 225 226 227 228
f 229 230 231 232
f 229 232 225 228
f 233 234 235 236
f 237 238 239 240
f 240 239 234 233
f 237 240 233 236
f 241 242 243 244
f 245 246 247 248
f 245 244 243 246
f 249 250 251 252
f 253 254 255 256
f 257 258 259 260
f 261 262 263 264
f 264 263 258 257
f 265 266 267 268
f 269 270 271 272
f 269 268 267 270
f 273 274 275 276
f 277 278 279 280
f 281 282 283 284
f 285 286 287 288
f 288 287 282 281
f 289 290 291 292
f 293 294 295 296
f 293 292 291 294
f 297 298 299 300
f 301 302 303 304
f 305 306 307 308
f 309 310 311 312
f 312 311 306 305
f 313 314 315 316
f 317 318 319 320
f 317 316 315 318
f 321 322 323 324
f 325 326 327 328
f 329 330 331 332
f 333 334 335 336
f 336 335 330 329
f 337 338 339 340
f 341 342 343 344
f 341 340 339 342
f 345 346 347 348
f 349 350 351 352
f 353 354 355 356
f 357 358 359 360
f 360 359 354 353
f 361 362 363 364
f 365 366 367 368
f 365 364 363 366
f 369 370 371 372
f 373 374 375 376
f 377 378 379 380
f 381 382 383 384
f 384 383 378 377
f 385 386 387 388
f 389 390 391 392
f 389 388 387 390
f 393 394 395 396
f 397 398 399 400
f 401 402 403 404
f 405 406 407 408
f 408 407 402 401
f 409 410 411 412
f 413 414 415 416
f 413 412 411 414
f 414 411 410 415
f 417 418 419 420
f 421 422 423 424
f 422 419 418 423
f 425 426 427 428
f 429 430 431 432
f 432 431 426 425
f 430 427 426 431
f 433 434 435 436
f 437 438 439 440
f 437 436 435 438
f 440 439 434 433
f 437 440 433 436
f 441 442 443 444
f 445 446 447 448
f 445 444 443 446
f 448 447 442 441
f 449 450 451 452
f 453 454 455 456
f 453 452 451 454
f 456 455 450 449
f 457 458 459 460
f 461 462 463 464
f 461 460 459 462
f 464 463 458 457
f 465 466 467 468
f 469 470 471 472
f 469 468 467 470
f 472 471 466 465
f 473 474 475 476
f 477 478 479 480
f 477 476 475 478
f 480 479 474 473
f 481 482 483 484
f 485 486 487 488
f 485 484 483 486
f 488 487 482 481
f 489 490 491 492
f 493 494 495 496
f 493 492 491 494
f 496 495 490 489
f 497 498 499 500
f 501 502 503 504
f 501 500 499 502
f 504 503 498 497
f 502 499 498 503
