# Vía Expresa Elevada — pieza "2-pistas"
# Impórtala a Tinkercad y píntala con el balde de pintura.
# Las seis piezas usan las mismas coordenadas, así que calzan solas.

v -105.000 0.170 -15.500
v -81.667 0.170 -15.500
v -81.667 0.170 -25.500
v -105.000 0.170 -25.500
v -105.000 0.020 -25.500
v -81.667 0.020 -25.500
v -81.667 0.020 -15.500
v -105.000 0.020 -15.500
v -81.667 0.170 -15.500
v -58.333 0.170 -15.500
v -58.333 0.170 -25.500
v -81.667 0.170 -25.500
v -81.667 0.020 -25.500
v -58.333 0.020 -25.500
v -58.333 0.020 -15.500
v -81.667 0.020 -15.500
v -58.333 0.170 -15.500
v -35.000 0.170 -15.500
v -35.000 0.170 -25.500
v -58.333 0.170 -25.500
v -58.333 0.020 -25.500
v -35.000 0.020 -25.500
v -35.000 0.020 -15.500
v -58.333 0.020 -15.500
v -35.000 0.170 -15.500
v -11.667 0.170 -15.500
v -11.667 0.170 -25.500
v -35.000 0.170 -25.500
v -35.000 0.020 -25.500
v -11.667 0.020 -25.500
v -11.667 0.020 -15.500
v -35.000 0.020 -15.500
v -11.667 0.170 -15.500
v 11.667 0.170 -15.500
v 11.667 0.170 -25.500
v -11.667 0.170 -25.500
v -11.667 0.020 -25.500
v 11.667 0.020 -25.500
v 11.667 0.020 -15.500
v -11.667 0.020 -15.500
v 11.667 0.170 -15.500
v 35.000 0.170 -15.500
v 35.000 0.170 -25.500
v 11.667 0.170 -25.500
v 11.667 0.020 -25.500
v 35.000 0.020 -25.500
v 35.000 0.020 -15.500
v 11.667 0.020 -15.500
v 35.000 0.170 -15.500
v 58.333 0.170 -15.500
v 58.333 0.170 -25.500
v 35.000 0.170 -25.500
v 35.000 0.020 -25.500
v 58.333 0.020 -25.500
v 58.333 0.020 -15.500
v 35.000 0.020 -15.500
v 58.333 0.170 -15.500
v 81.667 0.170 -15.500
v 81.667 0.170 -25.500
v 58.333 0.170 -25.500
v 58.333 0.020 -25.500
v 81.667 0.020 -25.500
v 81.667 0.020 -15.500
v 58.333 0.020 -15.500
v 81.667 0.170 -15.500
v 105.000 0.170 -15.500
v 105.000 0.170 -25.500
v 81.667 0.170 -25.500
v 81.667 0.020 -25.500
v 105.000 0.020 -25.500
v 105.000 0.020 -15.500
v 81.667 0.020 -15.500
v -105.000 0.170 11.000
v -81.667 0.170 11.000
v -81.667 0.170 7.500
v -105.000 0.170 7.500
v -105.000 0.020 7.500
v -81.667 0.020 7.500
v -81.667 0.020 11.000
v -105.000 0.020 11.000
v -81.667 0.170 11.000
v -58.333 0.170 11.000
v -58.333 0.170 7.500
v -81.667 0.170 7.500
v -81.667 0.020 7.500
v -58.333 0.020 7.500
v -58.333 0.020 11.000
v -81.667 0.020 11.000
v -58.333 0.170 11.000
v -35.000 0.170 11.000
v -35.000 0.170 7.500
v -58.333 0.170 7.500
v -58.333 0.020 7.500
v -35.000 0.020 7.500
v -35.000 0.020 11.000
v -58.333 0.020 11.000
v -35.000 0.170 11.000
v -11.667 0.170 11.000
v -11.667 0.170 7.500
v -35.000 0.170 7.500
v -35.000 0.020 7.500
v -11.667 0.020 7.500
v -11.667 0.020 11.000
v -35.000 0.020 11.000
v -11.667 0.170 11.000
v 11.667 0.170 11.000
v 11.667 0.170 7.500
v -11.667 0.170 7.500
v -11.667 0.020 7.500
v 11.667 0.020 7.500
v 11.667 0.020 11.000
v -11.667 0.020 11.000
v 11.667 0.170 11.000
v 35.000 0.170 11.000
v 35.000 0.170 7.500
v 11.667 0.170 7.500
v 11.667 0.020 7.500
v 35.000 0.020 7.500
v 35.000 0.020 11.000
v 11.667 0.020 11.000
v 35.000 0.170 11.000
v 58.333 0.170 11.000
v 58.333 0.170 7.500
v 35.000 0.170 7.500
v 35.000 0.020 7.500
v 58.333 0.020 7.500
v 58.333 0.020 11.000
v 35.000 0.020 11.000
v 58.333 0.170 11.000
v 81.667 0.170 11.000
v 81.667 0.170 7.500
v 58.333 0.170 7.500
v 58.333 0.020 7.500
v 81.667 0.020 7.500
v 81.667 0.020 11.000
v 58.333 0.020 11.000
v 81.667 0.170 11.000
v 105.000 0.170 11.000
v 105.000 0.170 7.500
v 81.667 0.170 7.500
v 81.667 0.020 7.500
v 105.000 0.020 7.500
v 105.000 0.020 11.000
v 81.667 0.020 11.000
v -105.000 0.170 18.000
v -81.667 0.170 18.000
v -81.667 0.170 14.500
v -105.000 0.170 14.500
v -105.000 0.020 14.500
v -81.667 0.020 14.500
v -81.667 0.020 18.000
v -105.000 0.020 18.000
v -81.667 0.170 18.000
v -58.333 0.170 18.000
v -58.333 0.170 14.500
v -81.667 0.170 14.500
v -81.667 0.020 14.500
v -58.333 0.020 14.500
v -58.333 0.020 18.000
v -81.667 0.020 18.000
v -58.333 0.170 18.000
v -35.000 0.170 18.000
v -35.000 0.170 14.500
v -58.333 0.170 14.500
v -58.333 0.020 14.500
v -35.000 0.020 14.500
v -35.000 0.020 18.000
v -58.333 0.020 18.000
v -35.000 0.170 18.000
v -11.667 0.170 18.000
v -11.667 0.170 14.500
v -35.000 0.170 14.500
v -35.000 0.020 14.500
v -11.667 0.020 14.500
v -11.667 0.020 18.000
v -35.000 0.020 18.000
v -11.667 0.170 18.000
v 11.667 0.170 18.000
v 11.667 0.170 14.500
v -11.667 0.170 14.500
v -11.667 0.020 14.500
v 11.667 0.020 14.500
v 11.667 0.020 18.000
v -11.667 0.020 18.000
v 11.667 0.170 18.000
v 35.000 0.170 18.000
v 35.000 0.170 14.500
v 11.667 0.170 14.500
v 11.667 0.020 14.500
v 35.000 0.020 14.500
v 35.000 0.020 18.000
v 11.667 0.020 18.000
v 35.000 0.170 18.000
v 58.333 0.170 18.000
v 58.333 0.170 14.500
v 35.000 0.170 14.500
v 35.000 0.020 14.500
v 58.333 0.020 14.500
v 58.333 0.020 18.000
v 35.000 0.020 18.000
v 58.333 0.170 18.000
v 81.667 0.170 18.000
v 81.667 0.170 14.500
v 58.333 0.170 14.500
v 58.333 0.020 14.500
v 81.667 0.020 14.500
v 81.667 0.020 18.000
v 58.333 0.020 18.000
v 81.667 0.170 18.000
v 105.000 0.170 18.000
v 105.000 0.170 14.500
v 81.667 0.170 14.500
v 81.667 0.020 14.500
v 105.000 0.020 14.500
v 105.000 0.020 18.000
v 81.667 0.020 18.000
v -102.000 0.190 -22.100
v -98.000 0.190 -22.100
v -98.000 0.190 -22.300
v -102.000 0.190 -22.300
v -102.000 0.170 -22.300
v -98.000 0.170 -22.300
v -98.000 0.170 -22.100
v -102.000 0.170 -22.100
v -93.000 0.190 -22.100
v -89.000 0.190 -22.100
v -89.000 0.190 -22.300
v -93.000 0.190 -22.300
v -93.000 0.170 -22.300
v -89.000 0.170 -22.300
v -89.000 0.170 -22.100
v -93.000 0.170 -22.100
v -84.000 0.190 -22.100
v -80.000 0.190 -22.100
v -80.000 0.190 -22.300
v -84.000 0.190 -22.300
v -84.000 0.170 -22.300
v -80.000 0.170 -22.300
v -80.000 0.170 -22.100
v -84.000 0.170 -22.100
v -75.000 0.190 -22.100
v -71.000 0.190 -22.100
v -71.000 0.190 -22.300
v -75.000 0.190 -22.300
v -75.000 0.170 -22.300
v -71.000 0.170 -22.300
v -71.000 0.170 -22.100
v -75.000 0.170 -22.100
v -66.000 0.190 -22.100
v -62.000 0.190 -22.100
v -62.000 0.190 -22.300
v -66.000 0.190 -22.300
v -66.000 0.170 -22.300
v -62.000 0.170 -22.300
v -62.000 0.170 -22.100
v -66.000 0.170 -22.100
v -57.000 0.190 -22.100
v -53.000 0.190 -22.100
v -53.000 0.190 -22.300
v -57.000 0.190 -22.300
v -57.000 0.170 -22.300
v -53.000 0.170 -22.300
v -53.000 0.170 -22.100
v -57.000 0.170 -22.100
v -48.000 0.190 -22.100
v -44.000 0.190 -22.100
v -44.000 0.190 -22.300
v -48.000 0.190 -22.300
v -48.000 0.170 -22.300
v -44.000 0.170 -22.300
v -44.000 0.170 -22.100
v -48.000 0.170 -22.100
v -39.000 0.190 -22.100
v -35.000 0.190 -22.100
v -35.000 0.190 -22.300
v -39.000 0.190 -22.300
v -39.000 0.170 -22.300
v -35.000 0.170 -22.300
v -35.000 0.170 -22.100
v -39.000 0.170 -22.100
v -30.000 0.190 -22.100
v -26.000 0.190 -22.100
v -26.000 0.190 -22.300
v -30.000 0.190 -22.300
v -30.000 0.170 -22.300
v -26.000 0.170 -22.300
v -26.000 0.170 -22.100
v -30.000 0.170 -22.100
v -21.000 0.190 -22.100
v -17.000 0.190 -22.100
v -17.000 0.190 -22.300
v -21.000 0.190 -22.300
v -21.000 0.170 -22.300
v -17.000 0.170 -22.300
v -17.000 0.170 -22.100
v -21.000 0.170 -22.100
v -12.000 0.190 -22.100
v -8.000 0.190 -22.100
v -8.000 0.190 -22.300
v -12.000 0.190 -22.300
v -12.000 0.170 -22.300
v -8.000 0.170 -22.300
v -8.000 0.170 -22.100
v -12.000 0.170 -22.100
v -3.000 0.190 -22.100
v 1.000 0.190 -22.100
v 1.000 0.190 -22.300
v -3.000 0.190 -22.300
v -3.000 0.170 -22.300
v 1.000 0.170 -22.300
v 1.000 0.170 -22.100
v -3.000 0.170 -22.100
v 6.000 0.190 -22.100
v 10.000 0.190 -22.100
v 10.000 0.190 -22.300
v 6.000 0.190 -22.300
v 6.000 0.170 -22.300
v 10.000 0.170 -22.300
v 10.000 0.170 -22.100
v 6.000 0.170 -22.100
v 15.000 0.190 -22.100
v 19.000 0.190 -22.100
v 19.000 0.190 -22.300
v 15.000 0.190 -22.300
v 15.000 0.170 -22.300
v 19.000 0.170 -22.300
v 19.000 0.170 -22.100
v 15.000 0.170 -22.100
v 24.000 0.190 -22.100
v 28.000 0.190 -22.100
v 28.000 0.190 -22.300
v 24.000 0.190 -22.300
v 24.000 0.170 -22.300
v 28.000 0.170 -22.300
v 28.000 0.170 -22.100
v 24.000 0.170 -22.100
v 33.000 0.190 -22.100
v 37.000 0.190 -22.100
v 37.000 0.190 -22.300
v 33.000 0.190 -22.300
v 33.000 0.170 -22.300
v 37.000 0.170 -22.300
v 37.000 0.170 -22.100
v 33.000 0.170 -22.100
v 42.000 0.190 -22.100
v 46.000 0.190 -22.100
v 46.000 0.190 -22.300
v 42.000 0.190 -22.300
v 42.000 0.170 -22.300
v 46.000 0.170 -22.300
v 46.000 0.170 -22.100
v 42.000 0.170 -22.100
v 51.000 0.190 -22.100
v 55.000 0.190 -22.100
v 55.000 0.190 -22.300
v 51.000 0.190 -22.300
v 51.000 0.170 -22.300
v 55.000 0.170 -22.300
v 55.000 0.170 -22.100
v 51.000 0.170 -22.100
v 60.000 0.190 -22.100
v 64.000 0.190 -22.100
v 64.000 0.190 -22.300
v 60.000 0.190 -22.300
v 60.000 0.170 -22.300
v 64.000 0.170 -22.300
v 64.000 0.170 -22.100
v 60.000 0.170 -22.100
v 69.000 0.190 -22.100
v 73.000 0.190 -22.100
v 73.000 0.190 -22.300
v 69.000 0.190 -22.300
v 69.000 0.170 -22.300
v 73.000 0.170 -22.300
v 73.000 0.170 -22.100
v 69.000 0.170 -22.100
v 78.000 0.190 -22.100
v 82.000 0.190 -22.100
v 82.000 0.190 -22.300
v 78.000 0.190 -22.300
v 78.000 0.170 -22.300
v 82.000 0.170 -22.300
v 82.000 0.170 -22.100
v 78.000 0.170 -22.100
v 87.000 0.190 -22.100
v 91.000 0.190 -22.100
v 91.000 0.190 -22.300
v 87.000 0.190 -22.300
v 87.000 0.170 -22.300
v 91.000 0.170 -22.300
v 91.000 0.170 -22.100
v 87.000 0.170 -22.100
v 96.000 0.190 -22.100
v 100.000 0.190 -22.100
v 100.000 0.190 -22.300
v 96.000 0.190 -22.300
v 96.000 0.170 -22.300
v 100.000 0.170 -22.300
v 100.000 0.170 -22.100
v 96.000 0.170 -22.100
v -102.000 0.190 -18.700
v -98.000 0.190 -18.700
v -98.000 0.190 -18.900
v -102.000 0.190 -18.900
v -102.000 0.170 -18.900
v -98.000 0.170 -18.900
v -98.000 0.170 -18.700
v -102.000 0.170 -18.700
v -93.000 0.190 -18.700
v -89.000 0.190 -18.700
v -89.000 0.190 -18.900
v -93.000 0.190 -18.900
v -93.000 0.170 -18.900
v -89.000 0.170 -18.900
v -89.000 0.170 -18.700
v -93.000 0.170 -18.700
v -84.000 0.190 -18.700
v -80.000 0.190 -18.700
v -80.000 0.190 -18.900
v -84.000 0.190 -18.900
v -84.000 0.170 -18.900
v -80.000 0.170 -18.900
v -80.000 0.170 -18.700
v -84.000 0.170 -18.700
v -75.000 0.190 -18.700
v -71.000 0.190 -18.700
v -71.000 0.190 -18.900
v -75.000 0.190 -18.900
v -75.000 0.170 -18.900
v -71.000 0.170 -18.900
v -71.000 0.170 -18.700
v -75.000 0.170 -18.700
v -66.000 0.190 -18.700
v -62.000 0.190 -18.700
v -62.000 0.190 -18.900
v -66.000 0.190 -18.900
v -66.000 0.170 -18.900
v -62.000 0.170 -18.900
v -62.000 0.170 -18.700
v -66.000 0.170 -18.700
v -57.000 0.190 -18.700
v -53.000 0.190 -18.700
v -53.000 0.190 -18.900
v -57.000 0.190 -18.900
v -57.000 0.170 -18.900
v -53.000 0.170 -18.900
v -53.000 0.170 -18.700
v -57.000 0.170 -18.700
v -48.000 0.190 -18.700
v -44.000 0.190 -18.700
v -44.000 0.190 -18.900
v -48.000 0.190 -18.900
v -48.000 0.170 -18.900
v -44.000 0.170 -18.900
v -44.000 0.170 -18.700
v -48.000 0.170 -18.700
v -39.000 0.190 -18.700
v -35.000 0.190 -18.700
v -35.000 0.190 -18.900
v -39.000 0.190 -18.900
v -39.000 0.170 -18.900
v -35.000 0.170 -18.900
v -35.000 0.170 -18.700
v -39.000 0.170 -18.700
v -30.000 0.190 -18.700
v -26.000 0.190 -18.700
v -26.000 0.190 -18.900
v -30.000 0.190 -18.900
v -30.000 0.170 -18.900
v -26.000 0.170 -18.900
v -26.000 0.170 -18.700
v -30.000 0.170 -18.700
v -21.000 0.190 -18.700
v -17.000 0.190 -18.700
v -17.000 0.190 -18.900
v -21.000 0.190 -18.900
v -21.000 0.170 -18.900
v -17.000 0.170 -18.900
v -17.000 0.170 -18.700
v -21.000 0.170 -18.700
v -12.000 0.190 -18.700
v -8.000 0.190 -18.700
v -8.000 0.190 -18.900
v -12.000 0.190 -18.900
v -12.000 0.170 -18.900
v -8.000 0.170 -18.900
v -8.000 0.170 -18.700
v -12.000 0.170 -18.700
v -3.000 0.190 -18.700
v 1.000 0.190 -18.700
v 1.000 0.190 -18.900
v -3.000 0.190 -18.900
v -3.000 0.170 -18.900
v 1.000 0.170 -18.900
v 1.000 0.170 -18.700
v -3.000 0.170 -18.700
v 6.000 0.190 -18.700
v 10.000 0.190 -18.700
v 10.000 0.190 -18.900
v 6.000 0.190 -18.900
v 6.000 0.170 -18.900
v 10.000 0.170 -18.900
v 10.000 0.170 -18.700
v 6.000 0.170 -18.700
v 15.000 0.190 -18.700
v 19.000 0.190 -18.700
v 19.000 0.190 -18.900
v 15.000 0.190 -18.900
v 15.000 0.170 -18.900
v 19.000 0.170 -18.900
v 19.000 0.170 -18.700
v 15.000 0.170 -18.700
v 24.000 0.190 -18.700
v 28.000 0.190 -18.700
v 28.000 0.190 -18.900
v 24.000 0.190 -18.900
v 24.000 0.170 -18.900
v 28.000 0.170 -18.900
v 28.000 0.170 -18.700
v 24.000 0.170 -18.700
v 33.000 0.190 -18.700
v 37.000 0.190 -18.700
v 37.000 0.190 -18.900
v 33.000 0.190 -18.900
v 33.000 0.170 -18.900
v 37.000 0.170 -18.900
v 37.000 0.170 -18.700
v 33.000 0.170 -18.700
v 42.000 0.190 -18.700
v 46.000 0.190 -18.700
v 46.000 0.190 -18.900
v 42.000 0.190 -18.900
v 42.000 0.170 -18.900
v 46.000 0.170 -18.900
v 46.000 0.170 -18.700
v 42.000 0.170 -18.700
v 51.000 0.190 -18.700
v 55.000 0.190 -18.700
v 55.000 0.190 -18.900
v 51.000 0.190 -18.900
v 51.000 0.170 -18.900
v 55.000 0.170 -18.900
v 55.000 0.170 -18.700
v 51.000 0.170 -18.700
v 60.000 0.190 -18.700
v 64.000 0.190 -18.700
v 64.000 0.190 -18.900
v 60.000 0.190 -18.900
v 60.000 0.170 -18.900
v 64.000 0.170 -18.900
v 64.000 0.170 -18.700
v 60.000 0.170 -18.700
v 69.000 0.190 -18.700
v 73.000 0.190 -18.700
v 73.000 0.190 -18.900
v 69.000 0.190 -18.900
v 69.000 0.170 -18.900
v 73.000 0.170 -18.900
v 73.000 0.170 -18.700
v 69.000 0.170 -18.700
v 78.000 0.190 -18.700
v 82.000 0.190 -18.700
v 82.000 0.190 -18.900
v 78.000 0.190 -18.900
v 78.000 0.170 -18.900
v 82.000 0.170 -18.900
v 82.000 0.170 -18.700
v 78.000 0.170 -18.700
v 87.000 0.190 -18.700
v 91.000 0.190 -18.700
v 91.000 0.190 -18.900
v 87.000 0.190 -18.900
v 87.000 0.170 -18.900
v 91.000 0.170 -18.900
v 91.000 0.170 -18.700
v 87.000 0.170 -18.700
v 96.000 0.190 -18.700
v 100.000 0.190 -18.700
v 100.000 0.190 -18.900
v 96.000 0.190 -18.900
v 96.000 0.170 -18.900
v 100.000 0.170 -18.900
v 100.000 0.170 -18.700
v 96.000 0.170 -18.700
v -105.000 0.190 -25.300
v -81.667 0.190 -25.300
v -81.667 0.190 -25.500
v -105.000 0.190 -25.500
v -105.000 0.170 -25.500
v -81.667 0.170 -25.500
v -81.667 0.170 -25.300
v -105.000 0.170 -25.300
v -81.667 0.190 -25.300
v -58.333 0.190 -25.300
v -58.333 0.190 -25.500
v -81.667 0.190 -25.500
v -81.667 0.170 -25.500
v -58.333 0.170 -25.500
v -58.333 0.170 -25.300
v -81.667 0.170 -25.300
v -58.333 0.190 -25.300
v -35.000 0.190 -25.300
v -35.000 0.190 -25.500
v -58.333 0.190 -25.500
v -58.333 0.170 -25.500
v -35.000 0.170 -25.500
v -35.000 0.170 -25.300
v -58.333 0.170 -25.300
v -35.000 0.190 -25.300
v -11.667 0.190 -25.300
v -11.667 0.190 -25.500
v -35.000 0.190 -25.500
v -35.000 0.170 -25.500
v -11.667 0.170 -25.500
v -11.667 0.170 -25.300
v -35.000 0.170 -25.300
v -11.667 0.190 -25.300
v 11.667 0.190 -25.300
v 11.667 0.190 -25.500
v -11.667 0.190 -25.500
v -11.667 0.170 -25.500
v 11.667 0.170 -25.500
v 11.667 0.170 -25.300
v -11.667 0.170 -25.300
v 11.667 0.190 -25.300
v 35.000 0.190 -25.300
v 35.000 0.190 -25.500
v 11.667 0.190 -25.500
v 11.667 0.170 -25.500
v 35.000 0.170 -25.500
v 35.000 0.170 -25.300
v 11.667 0.170 -25.300
v 35.000 0.190 -25.300
v 58.333 0.190 -25.300
v 58.333 0.190 -25.500
v 35.000 0.190 -25.500
v 35.000 0.170 -25.500
v 58.333 0.170 -25.500
v 58.333 0.170 -25.300
v 35.000 0.170 -25.300
v 58.333 0.190 -25.300
v 81.667 0.190 -25.300
v 81.667 0.190 -25.500
v 58.333 0.190 -25.500
v 58.333 0.170 -25.500
v 81.667 0.170 -25.500
v 81.667 0.170 -25.300
v 58.333 0.170 -25.300
v 81.667 0.190 -25.300
v 105.000 0.190 -25.300
v 105.000 0.190 -25.500
v 81.667 0.190 -25.500
v 81.667 0.170 -25.500
v 105.000 0.170 -25.500
v 105.000 0.170 -25.300
v 81.667 0.170 -25.300
v -105.000 0.190 -15.500
v -81.667 0.190 -15.500
v -81.667 0.190 -15.700
v -105.000 0.190 -15.700
v -105.000 0.170 -15.700
v -81.667 0.170 -15.700
v -81.667 0.170 -15.500
v -105.000 0.170 -15.500
v -81.667 0.190 -15.500
v -58.333 0.190 -15.500
v -58.333 0.190 -15.700
v -81.667 0.190 -15.700
v -81.667 0.170 -15.700
v -58.333 0.170 -15.700
v -58.333 0.170 -15.500
v -81.667 0.170 -15.500
v -58.333 0.190 -15.500
v -35.000 0.190 -15.500
v -35.000 0.190 -15.700
v -58.333 0.190 -15.700
v -58.333 0.170 -15.700
v -35.000 0.170 -15.700
v -35.000 0.170 -15.500
v -58.333 0.170 -15.500
v -35.000 0.190 -15.500
v -11.667 0.190 -15.500
v -11.667 0.190 -15.700
v -35.000 0.190 -15.700
v -35.000 0.170 -15.700
v -11.667 0.170 -15.700
v -11.667 0.170 -15.500
v -35.000 0.170 -15.500
v -11.667 0.190 -15.500
v 11.667 0.190 -15.500
v 11.667 0.190 -15.700
v -11.667 0.190 -15.700
v -11.667 0.170 -15.700
v 11.667 0.170 -15.700
v 11.667 0.170 -15.500
v -11.667 0.170 -15.500
v 11.667 0.190 -15.500
v 35.000 0.190 -15.500
v 35.000 0.190 -15.700
v 11.667 0.190 -15.700
v 11.667 0.170 -15.700
v 35.000 0.170 -15.700
v 35.000 0.170 -15.500
v 11.667 0.170 -15.500
v 35.000 0.190 -15.500
v 58.333 0.190 -15.500
v 58.333 0.190 -15.700
v 35.000 0.190 -15.700
v 35.000 0.170 -15.700
v 58.333 0.170 -15.700
v 58.333 0.170 -15.500
v 35.000 0.170 -15.500
v 58.333 0.190 -15.500
v 81.667 0.190 -15.500
v 81.667 0.190 -15.700
v 58.333 0.190 -15.700
v 58.333 0.170 -15.700
v 81.667 0.170 -15.700
v 81.667 0.170 -15.500
v 58.333 0.170 -15.500
v 81.667 0.190 -15.500
v 105.000 0.190 -15.500
v 105.000 0.190 -15.700
v 81.667 0.190 -15.700
v 81.667 0.170 -15.700
v 105.000 0.170 -15.700
v 105.000 0.170 -15.500
v 81.667 0.170 -15.500
v -103.000 1.060 11.420
v -80.111 1.060 11.420
v -80.111 1.060 11.180
v -103.000 1.060 11.180
v -103.000 1.040 11.180
v -80.111 1.040 11.180
v -80.111 1.040 11.420
v -103.000 1.040 11.420
v -80.111 1.060 11.420
v -57.222 1.060 11.420
v -57.222 1.060 11.180
v -80.111 1.060 11.180
v -80.111 1.040 11.180
v -57.222 1.040 11.180
v -57.222 1.040 11.420
v -80.111 1.040 11.420
v -57.222 1.060 11.420
v -34.333 1.060 11.420
v -34.333 1.060 11.180
v -57.222 1.060 11.180
v -57.222 1.040 11.180
v -34.333 1.040 11.180
v -34.333 1.040 11.420
v -57.222 1.040 11.420
v -34.333 1.060 11.420
v -11.444 1.060 11.420
v -11.444 1.060 11.180
v -34.333 1.060 11.180
v -34.333 1.040 11.180
v -11.444 1.040 11.180
v -11.444 1.040 11.420
v -34.333 1.040 11.420
v -11.444 1.060 11.420
v 11.444 1.060 11.420
v 11.444 1.060 11.180
v -11.444 1.060 11.180
v -11.444 1.040 11.180
v 11.444 1.040 11.180
v 11.444 1.040 11.420
v -11.444 1.040 11.420
v 11.444 1.060 11.420
v 34.333 1.060 11.420
v 34.333 1.060 11.180
v 11.444 1.060 11.180
v 11.444 1.040 11.180
v 34.333 1.040 11.180
v 34.333 1.040 11.420
v 11.444 1.040 11.420
v 34.333 1.060 11.420
v 57.222 1.060 11.420
v 57.222 1.060 11.180
v 34.333 1.060 11.180
v 34.333 1.040 11.180
v 57.222 1.040 11.180
v 57.222 1.040 11.420
v 34.333 1.040 11.420
v 57.222 1.060 11.420
v 80.111 1.060 11.420
v 80.111 1.060 11.180
v 57.222 1.060 11.180
v 57.222 1.040 11.180
v 80.111 1.040 11.180
v 80.111 1.040 11.420
v 57.222 1.040 11.420
v 80.111 1.060 11.420
v 103.000 1.060 11.420
v 103.000 1.060 11.180
v 80.111 1.060 11.180
v 80.111 1.040 11.180
v 103.000 1.040 11.180
v 103.000 1.040 11.420
v 80.111 1.040 11.420
v -103.000 1.060 14.320
v -80.111 1.060 14.320
v -80.111 1.060 14.080
v -103.000 1.060 14.080
v -103.000 1.040 14.080
v -80.111 1.040 14.080
v -80.111 1.040 14.320
v -103.000 1.040 14.320
v -80.111 1.060 14.320
v -57.222 1.060 14.320
v -57.222 1.060 14.080
v -80.111 1.060 14.080
v -80.111 1.040 14.080
v -57.222 1.040 14.080
v -57.222 1.040 14.320
v -80.111 1.040 14.320
v -57.222 1.060 14.320
v -34.333 1.060 14.320
v -34.333 1.060 14.080
v -57.222 1.060 14.080
v -57.222 1.040 14.080
v -34.333 1.040 14.080
v -34.333 1.040 14.320
v -57.222 1.040 14.320
v -34.333 1.060 14.320
v -11.444 1.060 14.320
v -11.444 1.060 14.080
v -34.333 1.060 14.080
v -34.333 1.040 14.080
v -11.444 1.040 14.080
v -11.444 1.040 14.320
v -34.333 1.040 14.320
v -11.444 1.060 14.320
v 11.444 1.060 14.320
v 11.444 1.060 14.080
v -11.444 1.060 14.080
v -11.444 1.040 14.080
v 11.444 1.040 14.080
v 11.444 1.040 14.320
v -11.444 1.040 14.320
v 11.444 1.060 14.320
v 34.333 1.060 14.320
v 34.333 1.060 14.080
v 11.444 1.060 14.080
v 11.444 1.040 14.080
v 34.333 1.040 14.080
v 34.333 1.040 14.320
v 11.444 1.040 14.320
v 34.333 1.060 14.320
v 57.222 1.060 14.320
v 57.222 1.060 14.080
v 34.333 1.060 14.080
v 34.333 1.040 14.080
v 57.222 1.040 14.080
v 57.222 1.040 14.320
v 34.333 1.040 14.320
v 57.222 1.060 14.320
v 80.111 1.060 14.320
v 80.111 1.060 14.080
v 57.222 1.060 14.080
v 57.222 1.040 14.080
v 80.111 1.040 14.080
v 80.111 1.040 14.320
v 57.222 1.040 14.320
v 80.111 1.060 14.320
v 103.000 1.060 14.320
v 103.000 1.060 14.080
v 80.111 1.060 14.080
v 80.111 1.040 14.080
v 103.000 1.040 14.080
v 103.000 1.040 14.320
v 80.111 1.040 14.320
v -103.000 10.000 -7.500
v -103.000 10.000 7.500
v -80.111 10.000 7.500
v -80.111 10.000 -7.500
v -57.222 10.000 7.500
v -57.222 10.000 -7.500
v -34.333 10.000 7.500
v -34.333 10.000 -7.500
v -11.444 10.000 7.500
v -11.444 10.000 -7.500
v 11.444 10.000 7.500
v 11.444 10.000 -7.500
v 34.333 10.000 7.500
v 34.333 10.000 -7.500
v 57.222 10.000 7.500
v 57.222 10.000 -7.500
v 80.111 10.000 7.500
v 80.111 10.000 -7.500
v 103.000 10.000 7.500
v 103.000 10.000 -7.500
v 6.999 10.000 -13.900
v 7.001 10.000 -7.500
v 12.297 9.993 -7.503
v 12.148 9.993 -13.901
v 17.698 9.852 -7.754
v 17.190 9.852 -14.133
v 23.108 9.550 -8.364
v 22.225 9.550 -14.703
v 28.471 9.108 -9.253
v 27.307 9.108 -15.546
v 33.789 8.548 -10.339
v 32.433 8.548 -16.594
v 39.063 7.892 -11.547
v 37.603 7.892 -17.778
v 44.296 7.163 -12.801
v 42.815 7.163 -19.027
v 49.487 6.381 -14.026
v 48.069 6.381 -20.267
v 54.636 5.570 -15.151
v 53.364 5.570 -21.424
v 59.740 4.751 -16.105
v 58.704 4.751 -22.421
v 64.798 3.946 -16.820
v 64.091 3.946 -23.181
v 69.820 3.177 -17.229
v 69.514 3.177 -23.622
v 74.912 2.466 -17.300
v 74.866 2.466 -23.700
v 80.111 1.835 -17.300
v 80.111 1.835 -23.700
v 85.333 1.306 -17.300
v 85.333 1.306 -23.700
v 90.556 0.900 -17.300
v 90.556 0.900 -23.700
v 95.778 0.641 -17.300
v 95.778 0.641 -23.700
v 101.000 0.550 -17.300
v 101.000 0.550 -23.700
v -7.001 10.000 -7.500
v -6.999 10.000 -13.900
v -12.148 9.993 -13.901
v -12.297 9.993 -7.503
v -17.190 9.852 -14.133
v -17.698 9.852 -7.754
v -22.225 9.550 -14.703
v -23.108 9.550 -8.364
v -27.307 9.108 -15.546
v -28.471 9.108 -9.253
v -32.433 8.548 -16.594
v -33.789 8.548 -10.339
v -37.603 7.892 -17.778
v -39.063 7.892 -11.547
v -42.815 7.163 -19.027
v -44.296 7.163 -12.801
v -48.069 6.381 -20.267
v -49.487 6.381 -14.026
v -53.364 5.570 -21.424
v -54.636 5.570 -15.151
v -58.704 4.751 -22.421
v -59.740 4.751 -16.105
v -64.091 3.946 -23.181
v -64.798 3.946 -16.820
v -69.514 3.177 -23.622
v -69.820 3.177 -17.229
v -74.866 2.466 -23.700
v -74.912 2.466 -17.300
v -80.111 1.835 -23.700
v -80.111 1.835 -17.300
v -85.333 1.306 -23.700
v -85.333 1.306 -17.300
v -90.556 0.900 -23.700
v -90.556 0.900 -17.300
v -95.778 0.641 -23.700
v -95.778 0.641 -17.300
v -101.000 0.550 -23.700
v -101.000 0.550 -17.300
v -102.000 10.040 -3.300
v -79.333 10.040 -3.300
v -79.333 10.040 -3.500
v -102.000 10.040 -3.500
v -102.000 10.020 -3.500
v -79.333 10.020 -3.500
v -79.333 10.020 -3.300
v -102.000 10.020 -3.300
v -79.333 10.040 -3.300
v -56.667 10.040 -3.300
v -56.667 10.040 -3.500
v -79.333 10.040 -3.500
v -79.333 10.020 -3.500
v -56.667 10.020 -3.500
v -56.667 10.020 -3.300
v -79.333 10.020 -3.300
v -56.667 10.040 -3.300
v -34.000 10.040 -3.300
v -34.000 10.040 -3.500
v -56.667 10.040 -3.500
v -56.667 10.020 -3.500
v -34.000 10.020 -3.500
v -34.000 10.020 -3.300
v -56.667 10.020 -3.300
v -34.000 10.040 -3.300
v -11.333 10.040 -3.300
v -11.333 10.040 -3.500
v -34.000 10.040 -3.500
v -34.000 10.020 -3.500
v -11.333 10.020 -3.500
v -11.333 10.020 -3.300
v -34.000 10.020 -3.300
v -11.333 10.040 -3.300
v 11.333 10.040 -3.300
v 11.333 10.040 -3.500
v -11.333 10.040 -3.500
v -11.333 10.020 -3.500
v 11.333 10.020 -3.500
v 11.333 10.020 -3.300
v -11.333 10.020 -3.300
v 11.333 10.040 -3.300
v 34.000 10.040 -3.300
v 34.000 10.040 -3.500
v 11.333 10.040 -3.500
v 11.333 10.020 -3.500
v 34.000 10.020 -3.500
v 34.000 10.020 -3.300
v 11.333 10.020 -3.300
v 34.000 10.040 -3.300
v 56.667 10.040 -3.300
v 56.667 10.040 -3.500
v 34.000 10.040 -3.500
v 34.000 10.020 -3.500
v 56.667 10.020 -3.500
v 56.667 10.020 -3.300
v 34.000 10.020 -3.300
v 56.667 10.040 -3.300
v 79.333 10.040 -3.300
v 79.333 10.040 -3.500
v 56.667 10.040 -3.500
v 56.667 10.020 -3.500
v 79.333 10.020 -3.500
v 79.333 10.020 -3.300
v 56.667 10.020 -3.300
v 79.333 10.040 -3.300
v 102.000 10.040 -3.300
v 102.000 10.040 -3.500
v 79.333 10.040 -3.500
v 79.333 10.020 -3.500
v 102.000 10.020 -3.500
v 102.000 10.020 -3.300
v 79.333 10.020 -3.300
v -102.000 10.040 3.500
v -79.333 10.040 3.500
v -79.333 10.040 3.300
v -102.000 10.040 3.300
v -102.000 10.020 3.300
v -79.333 10.020 3.300
v -79.333 10.020 3.500
v -102.000 10.020 3.500
v -79.333 10.040 3.500
v -56.667 10.040 3.500
v -56.667 10.040 3.300
v -79.333 10.040 3.300
v -79.333 10.020 3.300
v -56.667 10.020 3.300
v -56.667 10.020 3.500
v -79.333 10.020 3.500
v -56.667 10.040 3.500
v -34.000 10.040 3.500
v -34.000 10.040 3.300
v -56.667 10.040 3.300
v -56.667 10.020 3.300
v -34.000 10.020 3.300
v -34.000 10.020 3.500
v -56.667 10.020 3.500
v -34.000 10.040 3.500
v -11.333 10.040 3.500
v -11.333 10.040 3.300
v -34.000 10.040 3.300
v -34.000 10.020 3.300
v -11.333 10.020 3.300
v -11.333 10.020 3.500
v -34.000 10.020 3.500
v -11.333 10.040 3.500
v 11.333 10.040 3.500
v 11.333 10.040 3.300
v -11.333 10.040 3.300
v -11.333 10.020 3.300
v 11.333 10.020 3.300
v 11.333 10.020 3.500
v -11.333 10.020 3.500
v 11.333 10.040 3.500
v 34.000 10.040 3.500
v 34.000 10.040 3.300
v 11.333 10.040 3.300
v 11.333 10.020 3.300
v 34.000 10.020 3.300
v 34.000 10.020 3.500
v 11.333 10.020 3.500
v 34.000 10.040 3.500
v 56.667 10.040 3.500
v 56.667 10.040 3.300
v 34.000 10.040 3.300
v 34.000 10.020 3.300
v 56.667 10.020 3.300
v 56.667 10.020 3.500
v 34.000 10.020 3.500
v 56.667 10.040 3.500
v 79.333 10.040 3.500
v 79.333 10.040 3.300
v 56.667 10.040 3.300
v 56.667 10.020 3.300
v 79.333 10.020 3.300
v 79.333 10.020 3.500
v 56.667 10.020 3.500
v 79.333 10.040 3.500
v 102.000 10.040 3.500
v 102.000 10.040 3.300
v 79.333 10.040 3.300
v 79.333 10.020 3.300
v 102.000 10.020 3.300
v 102.000 10.020 3.500
v 79.333 10.020 3.500
v -101.000 10.040 -1.500
v -97.000 10.040 -1.500
v -97.000 10.040 -1.700
v -101.000 10.040 -1.700
v -101.000 10.020 -1.700
v -97.000 10.020 -1.700
v -97.000 10.020 -1.500
v -101.000 10.020 -1.500
v -92.000 10.040 -1.500
v -88.000 10.040 -1.500
v -88.000 10.040 -1.700
v -92.000 10.040 -1.700
v -92.000 10.020 -1.700
v -88.000 10.020 -1.700
v -88.000 10.020 -1.500
v -92.000 10.020 -1.500
v -83.000 10.040 -1.500
v -79.000 10.040 -1.500
v -79.000 10.040 -1.700
v -83.000 10.040 -1.700
v -83.000 10.020 -1.700
v -79.000 10.020 -1.700
v -79.000 10.020 -1.500
v -83.000 10.020 -1.500
v -74.000 10.040 -1.500
v -70.000 10.040 -1.500
v -70.000 10.040 -1.700
v -74.000 10.040 -1.700
v -74.000 10.020 -1.700
v -70.000 10.020 -1.700
v -70.000 10.020 -1.500
v -74.000 10.020 -1.500
v -65.000 10.040 -1.500
v -61.000 10.040 -1.500
v -61.000 10.040 -1.700
v -65.000 10.040 -1.700
v -65.000 10.020 -1.700
v -61.000 10.020 -1.700
v -61.000 10.020 -1.500
v -65.000 10.020 -1.500
v -56.000 10.040 -1.500
v -52.000 10.040 -1.500
v -52.000 10.040 -1.700
v -56.000 10.040 -1.700
v -56.000 10.020 -1.700
v -52.000 10.020 -1.700
v -52.000 10.020 -1.500
v -56.000 10.020 -1.500
v -47.000 10.040 -1.500
v -43.000 10.040 -1.500
v -43.000 10.040 -1.700
v -47.000 10.040 -1.700
v -47.000 10.020 -1.700
v -43.000 10.020 -1.700
v -43.000 10.020 -1.500
v -47.000 10.020 -1.500
v -38.000 10.040 -1.500
v -34.000 10.040 -1.500
v -34.000 10.040 -1.700
v -38.000 10.040 -1.700
v -38.000 10.020 -1.700
v -34.000 10.020 -1.700
v -34.000 10.020 -1.500
v -38.000 10.020 -1.500
v -29.000 10.040 -1.500
v -25.000 10.040 -1.500
v -25.000 10.040 -1.700
v -29.000 10.040 -1.700
v -29.000 10.020 -1.700
v -25.000 10.020 -1.700
v -25.000 10.020 -1.500
v -29.000 10.020 -1.500
v -20.000 10.040 -1.500
v -16.000 10.040 -1.500
v -16.000 10.040 -1.700
v -20.000 10.040 -1.700
v -20.000 10.020 -1.700
v -16.000 10.020 -1.700
v -16.000 10.020 -1.500
v -20.000 10.020 -1.500
v -11.000 10.040 -1.500
v -7.000 10.040 -1.500
v -7.000 10.040 -1.700
v -11.000 10.040 -1.700
v -11.000 10.020 -1.700
v -7.000 10.020 -1.700
v -7.000 10.020 -1.500
v -11.000 10.020 -1.500
v -2.000 10.040 -1.500
v 2.000 10.040 -1.500
v 2.000 10.040 -1.700
v -2.000 10.040 -1.700
v -2.000 10.020 -1.700
v 2.000 10.020 -1.700
v 2.000 10.020 -1.500
v -2.000 10.020 -1.500
v 7.000 10.040 -1.500
v 11.000 10.040 -1.500
v 11.000 10.040 -1.700
v 7.000 10.040 -1.700
v 7.000 10.020 -1.700
v 11.000 10.020 -1.700
v 11.000 10.020 -1.500
v 7.000 10.020 -1.500
v 16.000 10.040 -1.500
v 20.000 10.040 -1.500
v 20.000 10.040 -1.700
v 16.000 10.040 -1.700
v 16.000 10.020 -1.700
v 20.000 10.020 -1.700
v 20.000 10.020 -1.500
v 16.000 10.020 -1.500
v 25.000 10.040 -1.500
v 29.000 10.040 -1.500
v 29.000 10.040 -1.700
v 25.000 10.040 -1.700
v 25.000 10.020 -1.700
v 29.000 10.020 -1.700
v 29.000 10.020 -1.500
v 25.000 10.020 -1.500
v 34.000 10.040 -1.500
v 38.000 10.040 -1.500
v 38.000 10.040 -1.700
v 34.000 10.040 -1.700
v 34.000 10.020 -1.700
v 38.000 10.020 -1.700
v 38.000 10.020 -1.500
v 34.000 10.020 -1.500
v 43.000 10.040 -1.500
v 47.000 10.040 -1.500
v 47.000 10.040 -1.700
v 43.000 10.040 -1.700
v 43.000 10.020 -1.700
v 47.000 10.020 -1.700
v 47.000 10.020 -1.500
v 43.000 10.020 -1.500
v 52.000 10.040 -1.500
v 56.000 10.040 -1.500
v 56.000 10.040 -1.700
v 52.000 10.040 -1.700
v 52.000 10.020 -1.700
v 56.000 10.020 -1.700
v 56.000 10.020 -1.500
v 52.000 10.020 -1.500
v 61.000 10.040 -1.500
v 65.000 10.040 -1.500
v 65.000 10.040 -1.700
v 61.000 10.040 -1.700
v 61.000 10.020 -1.700
v 65.000 10.020 -1.700
v 65.000 10.020 -1.500
v 61.000 10.020 -1.500
v 70.000 10.040 -1.500
v 74.000 10.040 -1.500
v 74.000 10.040 -1.700
v 70.000 10.040 -1.700
v 70.000 10.020 -1.700
v 74.000 10.020 -1.700
v 74.000 10.020 -1.500
v 70.000 10.020 -1.500
v 79.000 10.040 -1.500
v 83.000 10.040 -1.500
v 83.000 10.040 -1.700
v 79.000 10.040 -1.700
v 79.000 10.020 -1.700
v 83.000 10.020 -1.700
v 83.000 10.020 -1.500
v 79.000 10.020 -1.500
v 88.000 10.040 -1.500
v 92.000 10.040 -1.500
v 92.000 10.040 -1.700
v 88.000 10.040 -1.700
v 88.000 10.020 -1.700
v 92.000 10.020 -1.700
v 92.000 10.020 -1.500
v 88.000 10.020 -1.500
v 97.000 10.040 -1.500
v 101.000 10.040 -1.500
v 101.000 10.040 -1.700
v 97.000 10.040 -1.700
v 97.000 10.020 -1.700
v 101.000 10.020 -1.700
v 101.000 10.020 -1.500
v 97.000 10.020 -1.500
v -101.000 10.040 1.700
v -97.000 10.040 1.700
v -97.000 10.040 1.500
v -101.000 10.040 1.500
v -101.000 10.020 1.500
v -97.000 10.020 1.500
v -97.000 10.020 1.700
v -101.000 10.020 1.700
v -92.000 10.040 1.700
v -88.000 10.040 1.700
v -88.000 10.040 1.500
v -92.000 10.040 1.500
v -92.000 10.020 1.500
v -88.000 10.020 1.500
v -88.000 10.020 1.700
v -92.000 10.020 1.700
v -83.000 10.040 1.700
v -79.000 10.040 1.700
v -79.000 10.040 1.500
v -83.000 10.040 1.500
v -83.000 10.020 1.500
v -79.000 10.020 1.500
v -79.000 10.020 1.700
v -83.000 10.020 1.700
v -74.000 10.040 1.700
v -70.000 10.040 1.700
v -70.000 10.040 1.500
v -74.000 10.040 1.500
v -74.000 10.020 1.500
v -70.000 10.020 1.500
v -70.000 10.020 1.700
v -74.000 10.020 1.700
v -65.000 10.040 1.700
v -61.000 10.040 1.700
v -61.000 10.040 1.500
v -65.000 10.040 1.500
v -65.000 10.020 1.500
v -61.000 10.020 1.500
v -61.000 10.020 1.700
v -65.000 10.020 1.700
v -56.000 10.040 1.700
v -52.000 10.040 1.700
v -52.000 10.040 1.500
v -56.000 10.040 1.500
v -56.000 10.020 1.500
v -52.000 10.020 1.500
v -52.000 10.020 1.700
v -56.000 10.020 1.700
v -47.000 10.040 1.700
v -43.000 10.040 1.700
v -43.000 10.040 1.500
v -47.000 10.040 1.500
v -47.000 10.020 1.500
v -43.000 10.020 1.500
v -43.000 10.020 1.700
v -47.000 10.020 1.700
v -38.000 10.040 1.700
v -34.000 10.040 1.700
v -34.000 10.040 1.500
v -38.000 10.040 1.500
v -38.000 10.020 1.500
v -34.000 10.020 1.500
v -34.000 10.020 1.700
v -38.000 10.020 1.700
v -29.000 10.040 1.700
v -25.000 10.040 1.700
v -25.000 10.040 1.500
v -29.000 10.040 1.500
v -29.000 10.020 1.500
v -25.000 10.020 1.500
v -25.000 10.020 1.700
v -29.000 10.020 1.700
v -20.000 10.040 1.700
v -16.000 10.040 1.700
v -16.000 10.040 1.500
v -20.000 10.040 1.500
v -20.000 10.020 1.500
v -16.000 10.020 1.500
v -16.000 10.020 1.700
v -20.000 10.020 1.700
v -11.000 10.040 1.700
v -7.000 10.040 1.700
v -7.000 10.040 1.500
v -11.000 10.040 1.500
v -11.000 10.020 1.500
v -7.000 10.020 1.500
v -7.000 10.020 1.700
v -11.000 10.020 1.700
v -2.000 10.040 1.700
v 2.000 10.040 1.700
v 2.000 10.040 1.500
v -2.000 10.040 1.500
v -2.000 10.020 1.500
v 2.000 10.020 1.500
v 2.000 10.020 1.700
v -2.000 10.020 1.700
v 7.000 10.040 1.700
v 11.000 10.040 1.700
v 11.000 10.040 1.500
v 7.000 10.040 1.500
v 7.000 10.020 1.500
v 11.000 10.020 1.500
v 11.000 10.020 1.700
v 7.000 10.020 1.700
v 16.000 10.040 1.700
v 20.000 10.040 1.700
v 20.000 10.040 1.500
v 16.000 10.040 1.500
v 16.000 10.020 1.500
v 20.000 10.020 1.500
v 20.000 10.020 1.700
v 16.000 10.020 1.700
v 25.000 10.040 1.700
v 29.000 10.040 1.700
v 29.000 10.040 1.500
v 25.000 10.040 1.500
v 25.000 10.020 1.500
v 29.000 10.020 1.500
v 29.000 10.020 1.700
v 25.000 10.020 1.700
v 34.000 10.040 1.700
v 38.000 10.040 1.700
v 38.000 10.040 1.500
v 34.000 10.040 1.500
v 34.000 10.020 1.500
v 38.000 10.020 1.500
v 38.000 10.020 1.700
v 34.000 10.020 1.700
v 43.000 10.040 1.700
v 47.000 10.040 1.700
v 47.000 10.040 1.500
v 43.000 10.040 1.500
v 43.000 10.020 1.500
v 47.000 10.020 1.500
v 47.000 10.020 1.700
v 43.000 10.020 1.700
v 52.000 10.040 1.700
v 56.000 10.040 1.700
v 56.000 10.040 1.500
v 52.000 10.040 1.500
v 52.000 10.020 1.500
v 56.000 10.020 1.500
v 56.000 10.020 1.700
v 52.000 10.020 1.700
v 61.000 10.040 1.700
v 65.000 10.040 1.700
v 65.000 10.040 1.500
v 61.000 10.040 1.500
v 61.000 10.020 1.500
v 65.000 10.020 1.500
v 65.000 10.020 1.700
v 61.000 10.020 1.700
v 70.000 10.040 1.700
v 74.000 10.040 1.700
v 74.000 10.040 1.500
v 70.000 10.040 1.500
v 70.000 10.020 1.500
v 74.000 10.020 1.500
v 74.000 10.020 1.700
v 70.000 10.020 1.700
v 79.000 10.040 1.700
v 83.000 10.040 1.700
v 83.000 10.040 1.500
v 79.000 10.040 1.500
v 79.000 10.020 1.500
v 83.000 10.020 1.500
v 83.000 10.020 1.700
v 79.000 10.020 1.700
v 88.000 10.040 1.700
v 92.000 10.040 1.700
v 92.000 10.040 1.500
v 88.000 10.040 1.500
v 88.000 10.020 1.500
v 92.000 10.020 1.500
v 92.000 10.020 1.700
v 88.000 10.020 1.700
v 97.000 10.040 1.700
v 101.000 10.040 1.700
v 101.000 10.040 1.500
v 97.000 10.040 1.500
v 97.000 10.020 1.500
v 101.000 10.020 1.500
v 101.000 10.020 1.700
v 97.000 10.020 1.700
v -102.000 10.040 -6.550
v -79.333 10.040 -6.550
v -79.333 10.040 -6.750
v -102.000 10.040 -6.750
v -102.000 10.020 -6.750
v -79.333 10.020 -6.750
v -79.333 10.020 -6.550
v -102.000 10.020 -6.550
v -79.333 10.040 -6.550
v -56.667 10.040 -6.550
v -56.667 10.040 -6.750
v -79.333 10.040 -6.750
v -79.333 10.020 -6.750
v -56.667 10.020 -6.750
v -56.667 10.020 -6.550
v -79.333 10.020 -6.550
v -56.667 10.040 -6.550
v -34.000 10.040 -6.550
v -34.000 10.040 -6.750
v -56.667 10.040 -6.750
v -56.667 10.020 -6.750
v -34.000 10.020 -6.750
v -34.000 10.020 -6.550
v -56.667 10.020 -6.550
v -34.000 10.040 -6.550
v -11.333 10.040 -6.550
v -11.333 10.040 -6.750
v -34.000 10.040 -6.750
v -34.000 10.020 -6.750
v -11.333 10.020 -6.750
v -11.333 10.020 -6.550
v -34.000 10.020 -6.550
v -11.333 10.040 -6.550
v 11.333 10.040 -6.550
v 11.333 10.040 -6.750
v -11.333 10.040 -6.750
v -11.333 10.020 -6.750
v 11.333 10.020 -6.750
v 11.333 10.020 -6.550
v -11.333 10.020 -6.550
v 11.333 10.040 -6.550
v 34.000 10.040 -6.550
v 34.000 10.040 -6.750
v 11.333 10.040 -6.750
v 11.333 10.020 -6.750
v 34.000 10.020 -6.750
v 34.000 10.020 -6.550
v 11.333 10.020 -6.550
v 34.000 10.040 -6.550
v 56.667 10.040 -6.550
v 56.667 10.040 -6.750
v 34.000 10.040 -6.750
v 34.000 10.020 -6.750
v 56.667 10.020 -6.750
v 56.667 10.020 -6.550
v 34.000 10.020 -6.550
v 56.667 10.040 -6.550
v 79.333 10.040 -6.550
v 79.333 10.040 -6.750
v 56.667 10.040 -6.750
v 56.667 10.020 -6.750
v 79.333 10.020 -6.750
v 79.333 10.020 -6.550
v 56.667 10.020 -6.550
v 79.333 10.040 -6.550
v 102.000 10.040 -6.550
v 102.000 10.040 -6.750
v 79.333 10.040 -6.750
v 79.333 10.020 -6.750
v 102.000 10.020 -6.750
v 102.000 10.020 -6.550
v 79.333 10.020 -6.550
v -102.000 10.040 6.750
v -79.333 10.040 6.750
v -79.333 10.040 6.550
v -102.000 10.040 6.550
v -102.000 10.020 6.550
v -79.333 10.020 6.550
v -79.333 10.020 6.750
v -102.000 10.020 6.750
v -79.333 10.040 6.750
v -56.667 10.040 6.750
v -56.667 10.040 6.550
v -79.333 10.040 6.550
v -79.333 10.020 6.550
v -56.667 10.020 6.550
v -56.667 10.020 6.750
v -79.333 10.020 6.750
v -56.667 10.040 6.750
v -34.000 10.040 6.750
v -34.000 10.040 6.550
v -56.667 10.040 6.550
v -56.667 10.020 6.550
v -34.000 10.020 6.550
v -34.000 10.020 6.750
v -56.667 10.020 6.750
v -34.000 10.040 6.750
v -11.333 10.040 6.750
v -11.333 10.040 6.550
v -34.000 10.040 6.550
v -34.000 10.020 6.550
v -11.333 10.020 6.550
v -11.333 10.020 6.750
v -34.000 10.020 6.750
v -11.333 10.040 6.750
v 11.333 10.040 6.750
v 11.333 10.040 6.550
v -11.333 10.040 6.550
v -11.333 10.020 6.550
v 11.333 10.020 6.550
v 11.333 10.020 6.750
v -11.333 10.020 6.750
v 11.333 10.040 6.750
v 34.000 10.040 6.750
v 34.000 10.040 6.550
v 11.333 10.040 6.550
v 11.333 10.020 6.550
v 34.000 10.020 6.550
v 34.000 10.020 6.750
v 11.333 10.020 6.750
v 34.000 10.040 6.750
v 56.667 10.040 6.750
v 56.667 10.040 6.550
v 34.000 10.040 6.550
v 34.000 10.020 6.550
v 56.667 10.020 6.550
v 56.667 10.020 6.750
v 34.000 10.020 6.750
v 56.667 10.040 6.750
v 79.333 10.040 6.750
v 79.333 10.040 6.550
v 56.667 10.040 6.550
v 56.667 10.020 6.550
v 79.333 10.020 6.550
v 79.333 10.020 6.750
v 56.667 10.020 6.750
v 79.333 10.040 6.750
v 102.000 10.040 6.750
v 102.000 10.040 6.550
v 79.333 10.040 6.550
v 79.333 10.020 6.550
v 102.000 10.020 6.550
v 102.000 10.020 6.750
v 79.333 10.020 6.750

f 1 2 3 4
f 5 6 7 8
f 5 4 3 6
f 8 7 2 1
f 5 8 1 4
f 9 10 11 12
f 13 14 15 16
f 13 12 11 14
f 16 15 10 9
f 17 18 19 20
f 21 22 23 24
f 21 20 19 22
f 24 23 18 17
f 25 26 27 28
f 29 30 31 32
f 29 28 27 30
f 32 31 26 25
f 33 34 35 36
f 37 38 39 40
f 37 36 35 38
f 40 39 34 33
f 41 42 43 44
f 45 46 47 48
f 45 44 43 46
f 48 47 42 41
f 49 50 51 52
f 53 54 55 56
f 53 52 51 54
f 56 55 50 49
f 57 58 59 60
f 61 62 63 64
f 61 60 59 62
f 64 63 58 57
f 65 66 67 68
f 69 70 71 72
f 69 68 67 70
f 72 71 66 65
f 70 67 66 71
f 73 74 75 76
f 77 78 79 80
f 77 76 75 78
f 80 79 74 73
f 77 80 73 76
f 81 82 83 84
f 85 86 87 88
f 85 84 83 86
f 88 87 82 81
f 89 90 91 92
f 93 94 95 96
f 93 92 91 94
f 96 95 90 89
f 97 98 99 100
f 101 102 103 104
f 101 100 99 102
f 104 103 98 97
f 105 106 107 108
f 109 110 111 112
f 109 108 107 110
f 112 111 106 105
f 113 114 115 116
f 117 118 119 120
f 117 116 115 118
f 120 119 114 113
f 121 122 123 124
f 125 126 127 128
f 125 124 123 126
f 128 127 122 121
f 129 130 131 132
f 133 134 135 136
f 133 132 131 134
f 136 135 130 129
f 137 138 139 140
f 141 142 143 144
f 141 140 139 142
f 144 143 138 137
f 142 139 138 143
f 145 146 147 148
f 149 150 151 152
f 149 148 147 150
f 152 151 146 145
f 149 152 145 148
f 153 154 155 156
f 157 158 159 160
f 157 156 155 158
f 160 159 154 153
f 161 162 163 164
f 165 166 167 168
f 165 164 163 166
f 168 167 162 161
f 169 170 171 172
f 173 174 175 176
f 173 172 171 174
f 176 175 170 169
f 177 178 179 180
f 181 182 183 184
f 181 180 179 182
f 184 183 178 177
f 185 186 187 188
f 189 190 191 192
f 189 188 187 190
f 192 191 186 185
f 193 194 195 196
f 197 198 199 200
f 197 196 195 198
f 200 199 194 193
f 201 202 203 204
f 205 206 207 208
f 205 204 203 206
f 208 207 202 201
f 209 210 211 212
f 213 214 215 216
f 213 212 211 214
f 216 215 210 209
f 214 211 210 215
f 217 218 219 220
f 221 222 223 224
f 221 220 219 222
f 224 223 218 217
f 222 219 218 223
f 221 224 217 220
f 225 226 227 228
f 229 230 231 232
f 229 228 227 230
f 232 231 226 225
f 230 227 226 231
f 229 232 225 228
f 233 234 235 236
f 237 238 239 240
f 237 236 235 238
f 240 239 234 233
f 238 235 234 239
f 237 240 233 236
f 241 242 243 244
f 245 246 247 248
f 245 244 243 246
f 248 247 242 241
f 246 243 242 247
f 245 248 241 244
f 249 250 251 252
f 253 254 255 256
f 253 252 251 254
f 256 255 250 249
f 254 251 250 255
f 253 256 249 252
f 257 258 259 260
f 261 262 263 264
f 261 260 259 262
f 264 263 258 257
f 262 259 258 263
f 261 264 257 260
f 265 266 267 268
f 269 270 271 272
f 269 268 267 270
f 272 271 266 265
f 270 267 266 271
f 269 272 265 268
f 273 274 275 276
f 277 278 279 280
f 277 276 275 278
f 280 279 274 273
f 278 275 274 279
f 277 280 273 276
f 281 282 283 284
f 285 286 287 288
f 285 284 283 286
f 288 287 282 281
f 286 283 282 287
f 285 288 281 284
f 289 290 291 292
f 293 294 295 296
f 293 292 291 294
f 296 295 290 289
f 294 291 290 295
f 293 296 289 292
f 297 298 299 300
f 301 302 303 304
f 301 300 299 302
f 304 303 298 297
f 302 299 298 303
f 301 304 297 300
f 305 306 307 308
f 309 310 311 312
f 309 308 307 310
f 312 311 306 305
f 310 307 306 311
f 309 312 305 308
f 313 314 315 316
f 317 318 319 320
f 317 316 315 318
f 320 319 314 313
f 318 315 314 319
f 317 320 313 316
f 321 322 323 324
f 325 326 327 328
f 325 324 323 326
f 328 327 322 321
f 326 323 322 327
f 325 328 321 324
f 329 330 331 332
f 333 334 335 336
f 333 332 331 334
f 336 335 330 329
f 334 331 330 335
f 333 336 329 332
f 337 338 339 340
f 341 342 343 344
f 341 340 339 342
f 344 343 338 337
f 342 339 338 343
f 341 344 337 340
f 345 346 347 348
f 349 350 351 352
f 349 348 347 350
f 352 351 346 345
f 350 347 346 351
f 349 352 345 348
f 353 354 355 356
f 357 358 359 360
f 357 356 355 358
f 360 359 354 353
f 358 355 354 359
f 357 360 353 356
f 361 362 363 364
f 365 366 367 368
f 365 364 363 366
f 368 367 362 361
f 366 363 362 367
f 365 368 361 364
f 369 370 371 372
f 373 374 375 376
f 373 372 371 374
f 376 375 370 369
f 374 371 370 375
f 373 376 369 372
f 377 378 379 380
f 381 382 383 384
f 381 380 379 382
f 384 383 378 377
f 382 379 378 383
f 381 384 377 380
f 385 386 387 388
f 389 390 391 392
f 389 388 387 390
f 392 391 386 385
f 390 387 386 391
f 389 392 385 388
f 393 394 395 396
f 397 398 399 400
f 397 396 395 398
f 400 399 394 393
f 398 395 394 399
f 397 400 393 396
f 401 402 403 404
f 405 406 407 408
f 405 404 403 406
f 408 407 402 401
f 406 403 402 407
f 405 408 401 404
f 409 410 411 412
f 413 414 415 416
f 413 412 411 414
f 416 415 410 409
f 414 411 410 415
f 413 416 409 412
f 417 418 419 420
f 421 422 423 424
f 421 420 419 422
f 424 423 418 417
f 422 419 418 423
f 421 424 417 420
f 425 426 427 428
f 429 430 431 432
f 429 428 427 430
f 432 431 426 425
f 430 427 426 431
f 429 432 425 428
f 433 434 435 436
f 437 438 439 440
f 437 436 435 438
f 440 439 434 433
f 438 435 434 439
f 437 440 433 436
f 441 442 443 444
f 445 446 447 448
f 445 444 443 446
f 448 447 442 441
f 446 443 442 447
f 445 448 441 444
f 449 450 451 452
f 453 454 455 456
f 453 452 451 454
f 456 455 450 449
f 454 451 450 455
f 453 456 449 452
f 457 458 459 460
f 461 462 463 464
f 461 460 459 462
f 464 463 458 457
f 462 459 458 463
f 461 464 457 460
f 465 466 467 468
f 469 470 471 472
f 469 468 467 470
f 472 471 466 465
f 470 467 466 471
f 469 472 465 468
f 473 474 475 476
f 477 478 479 480
f 477 476 475 478
f 480 479 474 473
f 478 475 474 479
f 477 480 473 476
f 481 482 483 484
f 485 486 487 488
f 485 484 483 486
f 488 487 482 481
f 486 483 482 487
f 485 488 481 484
f 489 490 491 492
f 493 494 495 496
f 493 492 491 494
f 496 495 490 489
f 494 491 490 495
f 493 496 489 492
f 497 498 499 500
f 501 502 503 504
f 501 500 499 502
f 504 503 498 497
f 502 499 498 503
f 501 504 497 500
f 505 506 507 508
f 509 510 511 512
f 509 508 507 510
f 512 511 506 505
f 510 507 506 511
f 509 512 505 508
f 513 514 515 516
f 517 518 519 520
f 517 516 515 518
f 520 519 514 513
f 518 515 514 519
f 517 520 513 516
f 521 522 523 524
f 525 526 527 528
f 525 524 523 526
f 528 527 522 521
f 526 523 522 527
f 525 528 521 524
f 529 530 531 532
f 533 534 535 536
f 533 532 531 534
f 536 535 530 529
f 534 531 530 535
f 533 536 529 532
f 537 538 539 540
f 541 542 543 544
f 541 540 539 542
f 544 543 538 537
f 542 539 538 543
f 541 544 537 540
f 545 546 547 548
f 549 550 551 552
f 549 548 547 550
f 552 551 546 545
f 550 547 546 551
f 549 552 545 548
f 553 554 555 556
f 557 558 559 560
f 557 556 555 558
f 560 559 554 553
f 558 555 554 559
f 557 560 553 556
f 561 562 563 564
f 565 566 567 568
f 565 564 563 566
f 568 567 562 561
f 566 563 562 567
f 565 568 561 564
f 569 570 571 572
f 573 574 575 576
f 573 572 571 574
f 576 575 570 569
f 574 571 570 575
f 573 576 569 572
f 577 578 579 580
f 581 582 583 584
f 581 580 579 582
f 584 583 578 577
f 582 579 578 583
f 581 584 577 580
f 585 586 587 588
f 589 590 591 592
f 589 588 587 590
f 592 591 586 585
f 589 592 585 588
f 593 594 595 596
f 597 598 599 600
f 597 596 595 598
f 600 599 594 593
f 601 602 603 604
f 605 606 607 608
f 605 604 603 606
f 608 607 602 601
f 609 610 611 612
f 613 614 615 616
f 613 612 611 614
f 616 615 610 609
f 617 618 619 620
f 621 622 623 624
f 621 620 619 622
f 624 623 618 617
f 625 626 627 628
f 629 630 631 632
f 629 628 627 630
f 632 631 626 625
f 633 634 635 636
f 637 638 639 640
f 637 636 635 638
f 640 639 634 633
f 641 642 643 644
f 645 646 647 648
f 645 644 643 646
f 648 647 642 641
f 649 650 651 652
f 653 654 655 656
f 653 652 651 654
f 656 655 650 649
f 654 651 650 655
f 657 658 659 660
f 661 662 663 664
f 661 660 659 662
f 664 663 658 657
f 661 664 657 660
f 665 666 667 668
f 669 670 671 672
f 669 668 667 670
f 672 671 666 665
f 673 674 675 676
f 677 678 679 680
f 677 676 675 678
f 680 679 674 673
f 681 682 683 684
f 685 686 687 688
f 685 684 683 686
f 688 687 682 681
f 689 690 691 692
f 693 694 695 696
f 693 692 691 694
f 696 695 690 689
f 697 698 699 700
f 701 702 703 704
f 701 700 699 702
f 704 703 698 697
f 705 706 707 708
f 709 710 711 712
f 709 708 707 710
f 712 711 706 705
f 713 714 715 716
f 717 718 719 720
f 717 716 715 718
f 720 719 714 713
f 721 722 723 724
f 725 726 727 728
f 725 724 723 726
f 728 727 722 721
f 726 723 722 727
f 729 730 731 732
f 733 734 735 736
f 733 732 731 734
f 736 735 730 729
f 733 736 729 732
f 737 738 739 740
f 741 742 743 744
f 741 740 739 742
f 744 743 738 737
f 745 746 747 748
f 749 750 751 752
f 749 748 747 750
f 752 751 746 745
f 753 754 755 756
f 757 758 759 760
f 757 756 755 758
f 760 759 754 753
f 761 762 763 764
f 765 766 767 768
f 765 764 763 766
f 768 767 762 761
f 769 770 771 772
f 773 774 775 776
f 773 772 771 774
f 776 775 770 769
f 777 778 779 780
f 781 782 783 784
f 781 780 779 782
f 784 783 778 777
f 785 786 787 788
f 789 790 791 792
f 789 788 787 790
f 792 791 786 785
f 793 794 795 796
f 797 798 799 800
f 797 796 795 798
f 800 799 794 793
f 798 795 794 799
f 801 802 803 804
f 805 806 807 808
f 805 804 803 806
f 808 807 802 801
f 805 808 801 804
f 809 810 811 812
f 813 814 815 816
f 813 812 811 814
f 816 815 810 809
f 817 818 819 820
f 821 822 823 824
f 821 820 819 822
f 824 823 818 817
f 825 826 827 828
f 829 830 831 832
f 829 828 827 830
f 832 831 826 825
f 833 834 835 836
f 837 838 839 840
f 837 836 835 838
f 840 839 834 833
f 841 842 843 844
f 845 846 847 848
f 845 844 843 846
f 848 847 842 841
f 849 850 851 852
f 853 854 855 856
f 853 852 851 854
f 856 855 850 849
f 857 858 859 860
f 861 862 863 864
f 861 860 859 862
f 864 863 858 857
f 865 866 867 868
f 869 870 871 872
f 869 868 867 870
f 872 871 866 865
f 870 867 866 871
f 873 874 875 876
f 876 875 877 878
f 878 877 879 880
f 880 879 881 882
f 882 881 883 884
f 884 883 885 886
f 886 885 887 888
f 888 887 889 890
f 890 889 891 892
f 893 894 895 896
f 896 895 897 898
f 898 897 899 900
f 900 899 901 902
f 902 901 903 904
f 904 903 905 906
f 906 905 907 908
f 908 907 909 910
f 910 909 911 912
f 912 911 913 914
f 914 913 915 916
f 916 915 917 918
f 918 917 919 920
f 920 919 921 922
f 922 921 923 924
f 924 923 925 926
f 926 925 927 928
f 928 927 929 930
f 931 932 933 934
f 934 933 935 936
f 936 935 937 938
f 938 937 939 940
f 940 939 941 942
f 942 941 943 944
f 944 943 945 946
f 946 945 947 948
f 948 947 949 950
f 950 949 951 952
f 952 951 953 954
f 954 953 955 956
f 956 955 957 958
f 958 957 959 960
f 960 959 961 962
f 962 961 963 964
f 964 963 965 966
f 966 965 967 968
f 969 970 971 972
f 973 974 975 976
f 973 972 971 974
f 976 975 970 969
f 973 976 969 972
f 977 978 979 980
f 981 982 983 984
f 981 980 979 982
f 984 983 978 977
f 985 986 987 988
f 989 990 991 992
f 989 988 987 990
f 992 991 986 985
f 993 994 995 996
f 997 998 999 1000
f 997 996 995 998
f 1000 999 994 993
f 1001 1002 1003 1004
f 1005 1006 1007 1008
f 1005 1004 1003 1006
f 1008 1007 1002 1001
f 1009 1010 1011 1012
f 1013 1014 1015 1016
f 1013 1012 1011 1014
f 1016 1015 1010 1009
f 1017 1018 1019 1020
f 1021 1022 1023 1024
f 1021 1020 1019 1022
f 1024 1023 1018 1017
f 1025 1026 1027 1028
f 1029 1030 1031 1032
f 1029 1028 1027 1030
f 1032 1031 1026 1025
f 1033 1034 1035 1036
f 1037 1038 1039 1040
f 1037 1036 1035 1038
f 1040 1039 1034 1033
f 1038 1035 1034 1039
f 1041 1042 1043 1044
f 1045 1046 1047 1048
f 1045 1044 1043 1046
f 1048 1047 1042 1041
f 1045 1048 1041 1044
f 1049 1050 1051 1052
f 1053 1054 1055 1056
f 1053 1052 1051 1054
f 1056 1055 1050 1049
f 1057 1058 1059 1060
f 1061 1062 1063 1064
f 1061 1060 1059 1062
f 1064 1063 1058 1057
f 1065 1066 1067 1068
f 1069 1070 1071 1072
f 1069 1068 1067 1070
f 1072 1071 1066 1065
f 1073 1074 1075 1076
f 1077 1078 1079 1080
f 1077 1076 1075 1078
f 1080 1079 1074 1073
f 1081 1082 1083 1084
f 1085 1086 1087 1088
f 1085 1084 1083 1086
f 1088 1087 1082 1081
f 1089 1090 1091 1092
f 1093 1094 1095 1096
f 1093 1092 1091 1094
f 1096 1095 1090 1089
f 1097 1098 1099 1100
f 1101 1102 1103 1104
f 1101 1100 1099 1102
f 1104 1103 1098 1097
f 1105 1106 1107 1108
f 1109 1110 1111 1112
f 1109 1108 1107 1110
f 1112 1111 1106 1105
f 1110 1107 1106 1111
f 1113 1114 1115 1116
f 1117 1118 1119 1120
f 1117 1116 1115 1118
f 1120 1119 1114 1113
f 1118 1115 1114 1119
f 1117 1120 1113 1116
f 1121 1122 1123 1124
f 1125 1126 1127 1128
f 1125 1124 1123 1126
f 1128 1127 1122 1121
f 1126 1123 1122 1127
f 1125 1128 1121 1124
f 1129 1130 1131 1132
f 1133 1134 1135 1136
f 1133 1132 1131 1134
f 1136 1135 1130 1129
f 1134 1131 1130 1135
f 1133 1136 1129 1132
f 1137 1138 1139 1140
f 1141 1142 1143 1144
f 1141 1140 1139 1142
f 1144 1143 1138 1137
f 1142 1139 1138 1143
f 1141 1144 1137 1140
f 1145 1146 1147 1148
f 1149 1150 1151 1152
f 1149 1148 1147 1150
f 1152 1151 1146 1145
f 1150 1147 1146 1151
f 1149 1152 1145 1148
f 1153 1154 1155 1156
f 1157 1158 1159 1160
f 1157 1156 1155 1158
f 1160 1159 1154 1153
f 1158 1155 1154 1159
f 1157 1160 1153 1156
f 1161 1162 1163 1164
f 1165 1166 1167 1168
f 1165 1164 1163 1166
f 1168 1167 1162 1161
f 1166 1163 1162 1167
f 1165 1168 1161 1164
f 1169 1170 1171 1172
f 1173 1174 1175 1176
f 1173 1172 1171 1174
f 1176 1175 1170 1169
f 1174 1171 1170 1175
f 1173 1176 1169 1172
f 1177 1178 1179 1180
f 1181 1182 1183 1184
f 1181 1180 1179 1182
f 1184 1183 1178 1177
f 1182 1179 1178 1183
f 1181 1184 1177 1180
f 1185 1186 1187 1188
f 1189 1190 1191 1192
f 1189 1188 1187 1190
f 1192 1191 1186 1185
f 1190 1187 1186 1191
f 1189 1192 1185 1188
f 1193 1194 1195 1196
f 1197 1198 1199 1200
f 1197 1196 1195 1198
f 1200 1199 1194 1193
f 1198 1195 1194 1199
f 1197 1200 1193 1196
f 1201 1202 1203 1204
f 1205 1206 1207 1208
f 1205 1204 1203 1206
f 1208 1207 1202 1201
f 1206 1203 1202 1207
f 1205 1208 1201 1204
f 1209 1210 1211 1212
f 1213 1214 1215 1216
f 1213 1212 1211 1214
f 1216 1215 1210 1209
f 1214 1211 1210 1215
f 1213 1216 1209 1212
f 1217 1218 1219 1220
f 1221 1222 1223 1224
f 1221 1220 1219 1222
f 1224 1223 1218 1217
f 1222 1219 1218 1223
f 1221 1224 1217 1220
f 1225 1226 1227 1228
f 1229 1230 1231 1232
f 1229 1228 1227 1230
f 1232 1231 1226 1225
f 1230 1227 1226 1231
f 1229 1232 1225 1228
f 1233 1234 1235 1236
f 1237 1238 1239 1240
f 1237 1236 1235 1238
f 1240 1239 1234 1233
f 1238 1235 1234 1239
f 1237 1240 1233 1236
f 1241 1242 1243 1244
f 1245 1246 1247 1248
f 1245 1244 1243 1246
f 1248 1247 1242 1241
f 1246 1243 1242 1247
f 1245 1248 1241 1244
f 1249 1250 1251 1252
f 1253 1254 1255 1256
f 1253 1252 1251 1254
f 1256 1255 1250 1249
f 1254 1251 1250 1255
f 1253 1256 1249 1252
f 1257 1258 1259 1260
f 1261 1262 1263 1264
f 1261 1260 1259 1262
f 1264 1263 1258 1257
f 1262 1259 1258 1263
f 1261 1264 1257 1260
f 1265 1266 1267 1268
f 1269 1270 1271 1272
f 1269 1268 1267 1270
f 1272 1271 1266 1265
f 1270 1267 1266 1271
f 1269 1272 1265 1268
f 1273 1274 1275 1276
f 1277 1278 1279 1280
f 1277 1276 1275 1278
f 1280 1279 1274 1273
f 1278 1275 1274 1279
f 1277 1280 1273 1276
f 1281 1282 1283 1284
f 1285 1286 1287 1288
f 1285 1284 1283 1286
f 1288 1287 1282 1281
f 1286 1283 1282 1287
f 1285 1288 1281 1284
f 1289 1290 1291 1292
f 1293 1294 1295 1296
f 1293 1292 1291 1294
f 1296 1295 1290 1289
f 1294 1291 1290 1295
f 1293 1296 1289 1292
f 1297 1298 1299 1300
f 1301 1302 1303 1304
f 1301 1300 1299 1302
f 1304 1303 1298 1297
f 1302 1299 1298 1303
f 1301 1304 1297 1300
f 1305 1306 1307 1308
f 1309 1310 1311 1312
f 1309 1308 1307 1310
f 1312 1311 1306 1305
f 1310 1307 1306 1311
f 1309 1312 1305 1308
f 1313 1314 1315 1316
f 1317 1318 1319 1320
f 1317 1316 1315 1318
f 1320 1319 1314 1313
f 1318 1315 1314 1319
f 1317 1320 1313 1316
f 1321 1322 1323 1324
f 1325 1326 1327 1328
f 1325 1324 1323 1326
f 1328 1327 1322 1321
f 1326 1323 1322 1327
f 1325 1328 1321 1324
f 1329 1330 1331 1332
f 1333 1334 1335 1336
f 1333 1332 1331 1334
f 1336 1335 1330 1329
f 1334 1331 1330 1335
f 1333 1336 1329 1332
f 1337 1338 1339 1340
f 1341 1342 1343 1344
f 1341 1340 1339 1342
f 1344 1343 1338 1337
f 1342 1339 1338 1343
f 1341 1344 1337 1340
f 1345 1346 1347 1348
f 1349 1350 1351 1352
f 1349 1348 1347 1350
f 1352 1351 1346 1345
f 1350 1347 1346 1351
f 1349 1352 1345 1348
f 1353 1354 1355 1356
f 1357 1358 1359 1360
f 1357 1356 1355 1358
f 1360 1359 1354 1353
f 1358 1355 1354 1359
f 1357 1360 1353 1356
f 1361 1362 1363 1364
f 1365 1366 1367 1368
f 1365 1364 1363 1366
f 1368 1367 1362 1361
f 1366 1363 1362 1367
f 1365 1368 1361 1364
f 1369 1370 1371 1372
f 1373 1374 1375 1376
f 1373 1372 1371 1374
f 1376 1375 1370 1369
f 1374 1371 1370 1375
f 1373 1376 1369 1372
f 1377 1378 1379 1380
f 1381 1382 1383 1384
f 1381 1380 1379 1382
f 1384 1383 1378 1377
f 1382 1379 1378 1383
f 1381 1384 1377 1380
f 1385 1386 1387 1388
f 1389 1390 1391 1392
f 1389 1388 1387 1390
f 1392 1391 1386 1385
f 1390 1387 1386 1391
f 1389 1392 1385 1388
f 1393 1394 1395 1396
f 1397 1398 1399 1400
f 1397 1396 1395 1398
f 1400 1399 1394 1393
f 1398 1395 1394 1399
f 1397 1400 1393 1396
f 1401 1402 1403 1404
f 1405 1406 1407 1408
f 1405 1404 1403 1406
f 1408 1407 1402 1401
f 1406 1403 1402 1407
f 1405 1408 1401 1404
f 1409 1410 1411 1412
f 1413 1414 1415 1416
f 1413 1412 1411 1414
f 1416 1415 1410 1409
f 1414 1411 1410 1415
f 1413 1416 1409 1412
f 1417 1418 1419 1420
f 1421 1422 1423 1424
f 1421 1420 1419 1422
f 1424 1423 1418 1417
f 1422 1419 1418 1423
f 1421 1424 1417 1420
f 1425 1426 1427 1428
f 1429 1430 1431 1432
f 1429 1428 1427 1430
f 1432 1431 1426 1425
f 1430 1427 1426 1431
f 1429 1432 1425 1428
f 1433 1434 1435 1436
f 1437 1438 1439 1440
f 1437 1436 1435 1438
f 1440 1439 1434 1433
f 1438 1435 1434 1439
f 1437 1440 1433 1436
f 1441 1442 1443 1444
f 1445 1446 1447 1448
f 1445 1444 1443 1446
f 1448 1447 1442 1441
f 1446 1443 1442 1447
f 1445 1448 1441 1444
f 1449 1450 1451 1452
f 1453 1454 1455 1456
f 1453 1452 1451 1454
f 1456 1455 1450 1449
f 1454 1451 1450 1455
f 1453 1456 1449 1452
f 1457 1458 1459 1460
f 1461 1462 1463 1464
f 1461 1460 1459 1462
f 1464 1463 1458 1457
f 1462 1459 1458 1463
f 1461 1464 1457 1460
f 1465 1466 1467 1468
f 1469 1470 1471 1472
f 1469 1468 1467 1470
f 1472 1471 1466 1465
f 1470 1467 1466 1471
f 1469 1472 1465 1468
f 1473 1474 1475 1476
f 1477 1478 1479 1480
f 1477 1476 1475 1478
f 1480 1479 1474 1473
f 1478 1475 1474 1479
f 1477 1480 1473 1476
f 1481 1482 1483 1484
f 1485 1486 1487 1488
f 1485 1484 1483 1486
f 1488 1487 1482 1481
f 1485 1488 1481 1484
f 1489 1490 1491 1492
f 1493 1494 1495 1496
f 1493 1492 1491 1494
f 1496 1495 1490 1489
f 1497 1498 1499 1500
f 1501 1502 1503 1504
f 1501 1500 1499 1502
f 1504 1503 1498 1497
f 1505 1506 1507 1508
f 1509 1510 1511 1512
f 1509 1508 1507 1510
f 1512 1511 1506 1505
f 1513 1514 1515 1516
f 1517 1518 1519 1520
f 1517 1516 1515 1518
f 1520 1519 1514 1513
f 1521 1522 1523 1524
f 1525 1526 1527 1528
f 1525 1524 1523 1526
f 1528 1527 1522 1521
f 1529 1530 1531 1532
f 1533 1534 1535 1536
f 1533 1532 1531 1534
f 1536 1535 1530 1529
f 1537 1538 1539 1540
f 1541 1542 1543 1544
f 1541 1540 1539 1542
f 1544 1543 1538 1537
f 1545 1546 1547 1548
f 1549 1550 1551 1552
f 1549 1548 1547 1550
f 1552 1551 1546 1545
f 1550 1547 1546 1551
f 1553 1554 1555 1556
f 1557 1558 1559 1560
f 1557 1556 1555 1558
f 1560 1559 1554 1553
f 1557 1560 1553 1556
f 1561 1562 1563 1564
f 1565 1566 1567 1568
f 1565 1564 1563 1566
f 1568 1567 1562 1561
f 1569 1570 1571 1572
f 1573 1574 1575 1576
f 1573 1572 1571 1574
f 1576 1575 1570 1569
f 1577 1578 1579 1580
f 1581 1582 1583 1584
f 1581 1580 1579 1582
f 1584 1583 1578 1577
f 1585 1586 1587 1588
f 1589 1590 1591 1592
f 1589 1588 1587 1590
f 1592 1591 1586 1585
f 1593 1594 1595 1596
f 1597 1598 1599 1600
f 1597 1596 1595 1598
f 1600 1599 1594 1593
f 1601 1602 1603 1604
f 1605 1606 1607 1608
f 1605 1604 1603 1606
f 1608 1607 1602 1601
f 1609 1610 1611 1612
f 1613 1614 1615 1616
f 1613 1612 1611 1614
f 1616 1615 1610 1609
f 1617 1618 1619 1620
f 1621 1622 1623 1624
f 1621 1620 1619 1622
f 1624 1623 1618 1617
f 1622 1619 1618 1623
