# Vía Expresa Elevada — pieza "3-concreto"
# Impórtala a Tinkercad y píntala con el balde de pintura.
# Las seis piezas usan las mismas coordenadas, así que calzan solas.

v -105.000 0.170 -30.000
v -81.667 0.170 -30.000
v -81.667 0.170 -33.000
v -105.000 0.170 -33.000
v -105.000 0.020 -33.000
v -81.667 0.020 -33.000
v -81.667 0.020 -30.000
v -105.000 0.020 -30.000
v -81.667 0.170 -30.000
v -58.333 0.170 -30.000
v -58.333 0.170 -33.000
v -81.667 0.170 -33.000
v -81.667 0.020 -33.000
v -58.333 0.020 -33.000
v -58.333 0.020 -30.000
v -81.667 0.020 -30.000
v -58.333 0.170 -30.000
v -35.000 0.170 -30.000
v -35.000 0.170 -33.000
v -58.333 0.170 -33.000
v -58.333 0.020 -33.000
v -35.000 0.020 -33.000
v -35.000 0.020 -30.000
v -58.333 0.020 -30.000
v -35.000 0.170 -30.000
v -11.667 0.170 -30.000
v -11.667 0.170 -33.000
v -35.000 0.170 -33.000
v -35.000 0.020 -33.000
v -11.667 0.020 -33.000
v -11.667 0.020 -30.000
v -35.000 0.020 -30.000
v -11.667 0.170 -30.000
v 11.667 0.170 -30.000
v 11.667 0.170 -33.000
v -11.667 0.170 -33.000
v -11.667 0.020 -33.000
v 11.667 0.020 -33.000
v 11.667 0.020 -30.000
v -11.667 0.020 -30.000
v 11.667 0.170 -30.000
v 35.000 0.170 -30.000
v 35.000 0.170 -33.000
v 11.667 0.170 -33.000
v 11.667 0.020 -33.000
v 35.000 0.020 -33.000
v 35.000 0.020 -30.000
v 11.667 0.020 -30.000
v 35.000 0.170 -30.000
v 58.333 0.170 -30.000
v 58.333 0.170 -33.000
v 35.000 0.170 -33.000
v 35.000 0.020 -33.000
v 58.333 0.020 -33.000
v 58.333 0.020 -30.000
v 35.000 0.020 -30.000
v 58.333 0.170 -30.000
v 81.667 0.170 -30.000
v 81.667 0.170 -33.000
v 58.333 0.170 -33.000
v 58.333 0.020 -33.000
v 81.667 0.020 -33.000
v 81.667 0.020 -30.000
v 58.333 0.020 -30.000
v 81.667 0.170 -30.000
v 105.000 0.170 -30.000
v 105.000 0.170 -33.000
v 81.667 0.170 -33.000
v 81.667 0.020 -33.000
v 105.000 0.020 -33.000
v 105.000 0.020 -30.000
v 81.667 0.020 -30.000
v -105.000 0.170 25.000
v -81.667 0.170 25.000
v -81.667 0.170 21.000
v -105.000 0.170 21.000
v -105.000 0.020 21.000
v -81.667 0.020 21.000
v -81.667 0.020 25.000
v -105.000 0.020 25.000
v -81.667 0.170 25.000
v -58.333 0.170 25.000
v -58.333 0.170 21.000
v -81.667 0.170 21.000
v -81.667 0.020 21.000
v -58.333 0.020 21.000
v -58.333 0.020 25.000
v -81.667 0.020 25.000
v -58.333 0.170 25.000
v -35.000 0.170 25.000
v -35.000 0.170 21.000
v -58.333 0.170 21.000
v -58.333 0.020 21.000
v -35.000 0.020 21.000
v -35.000 0.020 25.000
v -58.333 0.020 25.000
v -35.000 0.170 25.000
v -11.667 0.170 25.000
v -11.667 0.170 21.000
v -35.000 0.170 21.000
v -35.000 0.020 21.000
v -11.667 0.020 21.000
v -11.667 0.020 25.000
v -35.000 0.020 25.000
v -11.667 0.170 25.000
v 11.667 0.170 25.000
v 11.667 0.170 21.000
v -11.667 0.170 21.000
v -11.667 0.020 21.000
v 11.667 0.020 21.000
v 11.667 0.020 25.000
v -11.667 0.020 25.000
v 11.667 0.170 25.000
v 35.000 0.170 25.000
v 35.000 0.170 21.000
v 11.667 0.170 21.000
v 11.667 0.020 21.000
v 35.000 0.020 21.000
v 35.000 0.020 25.000
v 11.667 0.020 25.000
v 35.000 0.170 25.000
v 58.333 0.170 25.000
v 58.333 0.170 21.000
v 35.000 0.170 21.000
v 35.000 0.020 21.000
v 58.333 0.020 21.000
v 58.333 0.020 25.000
v 35.000 0.020 25.000
v 58.333 0.170 25.000
v 81.667 0.170 25.000
v 81.667 0.170 21.000
v 58.333 0.170 21.000
v 58.333 0.020 21.000
v 81.667 0.020 21.000
v 81.667 0.020 25.000
v 58.333 0.020 25.000
v 81.667 0.170 25.000
v 105.000 0.170 25.000
v 105.000 0.170 21.000
v 81.667 0.170 21.000
v 81.667 0.020 21.000
v 105.000 0.020 21.000
v 105.000 0.020 25.000
v 81.667 0.020 25.000
v -18.000 1.050 14.500
v 0.000 1.050 14.500
v 0.000 1.050 11.000
v -18.000 1.050 11.000
v -18.000 0.150 11.000
v 0.000 0.150 11.000
v 0.000 0.150 14.500
v -18.000 0.150 14.500
v 0.000 1.050 14.500
v 18.000 1.050 14.500
v 18.000 1.050 11.000
v 0.000 1.050 11.000
v 0.000 0.150 11.000
v 18.000 0.150 11.000
v 18.000 0.150 14.500
v 0.000 0.150 14.500
v -19.000 4.550 14.700
v 0.000 4.550 14.700
v 0.000 4.550 10.800
v -19.000 4.550 10.800
v -19.000 4.300 10.800
v 0.000 4.300 10.800
v 0.000 4.300 14.700
v -19.000 4.300 14.700
v 0.000 4.550 14.700
v 19.000 4.550 14.700
v 19.000 4.550 10.800
v 0.000 4.550 10.800
v 0.000 4.300 10.800
v 19.000 4.300 10.800
v 19.000 4.300 14.700
v 0.000 4.300 14.700
v -14.890 4.150 12.750
v -15.000 4.150 12.860
v -15.000 1.050 12.880
v -14.870 1.050 12.750
v -15.110 4.150 12.750
v -15.130 1.050 12.750
v -15.000 4.150 12.640
v -15.000 1.050 12.620
v -4.890 4.150 12.750
v -5.000 4.150 12.860
v -5.000 1.050 12.880
v -4.870 1.050 12.750
v -5.110 4.150 12.750
v -5.130 1.050 12.750
v -5.000 4.150 12.640
v -5.000 1.050 12.620
v 5.110 4.150 12.750
v 5.000 4.150 12.860
v 5.000 1.050 12.880
v 5.130 1.050 12.750
v 4.890 4.150 12.750
v 4.870 1.050 12.750
v 5.000 4.150 12.640
v 5.000 1.050 12.620
v 15.110 4.150 12.750
v 15.000 4.150 12.860
v 15.000 1.050 12.880
v 15.130 1.050 12.750
v 14.890 4.150 12.750
v 14.870 1.050 12.750
v 15.000 4.150 12.640
v 15.000 1.050 12.620
v -92.600 0.550 2.200
v -87.400 0.550 2.200
v -87.400 0.550 -2.200
v -92.600 0.550 -2.200
v -92.600 0.000 -2.200
v -87.400 0.000 -2.200
v -87.400 0.000 2.200
v -92.600 0.000 2.200
v -91.200 6.200 -1.000
v -88.800 6.200 -1.000
v -88.300 0.550 -1.300
v -91.700 0.550 -1.300
v -88.800 6.200 1.000
v -88.300 0.550 1.300
v -91.200 6.200 1.000
v -91.700 0.550 1.300
v -91.350 8.000 -6.600
v -91.350 8.000 6.600
v -88.650 8.000 6.600
v -88.650 8.000 -6.600
v -91.350 7.150 6.600
v -88.650 7.150 6.600
v -91.350 6.200 1.500
v -88.650 6.200 1.500
v -91.350 6.200 -1.500
v -88.650 6.200 -1.500
v -62.600 0.550 2.200
v -57.400 0.550 2.200
v -57.400 0.550 -2.200
v -62.600 0.550 -2.200
v -62.600 0.000 -2.200
v -57.400 0.000 -2.200
v -57.400 0.000 2.200
v -62.600 0.000 2.200
v -61.200 6.200 -1.000
v -58.800 6.200 -1.000
v -58.300 0.550 -1.300
v -61.700 0.550 -1.300
v -58.800 6.200 1.000
v -58.300 0.550 1.300
v -61.200 6.200 1.000
v -61.700 0.550 1.300
v -61.350 8.000 -6.600
v -61.350 8.000 6.600
v -58.650 8.000 6.600
v -58.650 8.000 -6.600
v -61.350 7.150 6.600
v -58.650 7.150 6.600
v -61.350 6.200 1.500
v -58.650 6.200 1.500
v -61.350 6.200 -1.500
v -58.650 6.200 -1.500
v -32.600 0.550 2.200
v -27.400 0.550 2.200
v -27.400 0.550 -2.200
v -32.600 0.550 -2.200
v -32.600 0.000 -2.200
v -27.400 0.000 -2.200
v -27.400 0.000 2.200
v -32.600 0.000 2.200
v -31.200 6.200 -1.000
v -28.800 6.200 -1.000
v -28.300 0.550 -1.300
v -31.700 0.550 -1.300
v -28.800 6.200 1.000
v -28.300 0.550 1.300
v -31.200 6.200 1.000
v -31.700 0.550 1.300
v -31.350 8.000 -6.600
v -31.350 8.000 6.600
v -28.650 8.000 6.600
v -28.650 8.000 -6.600
v -31.350 7.150 6.600
v -28.650 7.150 6.600
v -31.350 6.200 1.500
v -28.650 6.200 1.500
v -31.350 6.200 -1.500
v -28.650 6.200 -1.500
v -2.600 0.550 2.200
v 2.600 0.550 2.200
v 2.600 0.550 -2.200
v -2.600 0.550 -2.200
v -2.600 0.000 -2.200
v 2.600 0.000 -2.200
v 2.600 0.000 2.200
v -2.600 0.000 2.200
v -1.200 6.200 -1.000
v 1.200 6.200 -1.000
v 1.700 0.550 -1.300
v -1.700 0.550 -1.300
v 1.200 6.200 1.000
v 1.700 0.550 1.300
v -1.200 6.200 1.000
v -1.700 0.550 1.300
v -1.350 8.000 -6.600
v -1.350 8.000 6.600
v 1.350 8.000 6.600
v 1.350 8.000 -6.600
v -1.350 7.150 6.600
v 1.350 7.150 6.600
v -1.350 6.200 1.500
v 1.350 6.200 1.500
v -1.350 6.200 -1.500
v 1.350 6.200 -1.500
v 27.400 0.550 2.200
v 32.600 0.550 2.200
v 32.600 0.550 -2.200
v 27.400 0.550 -2.200
v 27.400 0.000 -2.200
v 32.600 0.000 -2.200
v 32.600 0.000 2.200
v 27.400 0.000 2.200
v 28.800 6.200 -1.000
v 31.200 6.200 -1.000
v 31.700 0.550 -1.300
v 28.300 0.550 -1.300
v 31.200 6.200 1.000
v 31.700 0.550 1.300
v 28.800 6.200 1.000
v 28.300 0.550 1.300
v 28.650 8.000 -6.600
v 28.650 8.000 6.600
v 31.350 8.000 6.600
v 31.350 8.000 -6.600
v 28.650 7.150 6.600
v 31.350 7.150 6.600
v 28.650 6.200 1.500
v 31.350 6.200 1.500
v 28.650 6.200 -1.500
v 31.350 6.200 -1.500
v 57.400 0.550 2.200
v 62.600 0.550 2.200
v 62.600 0.550 -2.200
v 57.400 0.550 -2.200
v 57.400 0.000 -2.200
v 62.600 0.000 -2.200
v 62.600 0.000 2.200
v 57.400 0.000 2.200
v 58.800 6.200 -1.000
v 61.200 6.200 -1.000
v 61.700 0.550 -1.300
v 58.300 0.550 -1.300
v 61.200 6.200 1.000
v 61.700 0.550 1.300
v 58.800 6.200 1.000
v 58.300 0.550 1.300
v 58.650 8.000 -6.600
v 58.650 8.000 6.600
v 61.350 8.000 6.600
v 61.350 8.000 -6.600
v 58.650 7.150 6.600
v 61.350 7.150 6.600
v 58.650 6.200 1.500
v 61.350 6.200 1.500
v 58.650 6.200 -1.500
v 61.350 6.200 -1.500
v 87.400 0.550 2.200
v 92.600 0.550 2.200
v 92.600 0.550 -2.200
v 87.400 0.550 -2.200
v 87.400 0.000 -2.200
v 92.600 0.000 -2.200
v 92.600 0.000 2.200
v 87.400 0.000 2.200
v 88.800 6.200 -1.000
v 91.200 6.200 -1.000
v 91.700 0.550 -1.300
v 88.300 0.550 -1.300
v 91.200 6.200 1.000
v 91.700 0.550 1.300
v 88.800 6.200 1.000
v 88.300 0.550 1.300
v 88.650 8.000 -6.600
v 88.650 8.000 6.600
v 91.350 8.000 6.600
v 91.350 8.000 -6.600
v 88.650 7.150 6.600
v 91.350 7.150 6.600
v 88.650 6.200 1.500
v 91.350 6.200 1.500
v 88.650 6.200 -1.500
v 91.350 6.200 -1.500
v -103.000 10.000 7.500
v -103.000 9.450 7.500
v -80.111 9.450 7.500
v -80.111 10.000 7.500
v -103.000 8.000 4.100
v -80.111 8.000 4.100
v -103.000 8.000 -4.100
v -80.111 8.000 -4.100
v -103.000 9.450 -7.500
v -80.111 9.450 -7.500
v -103.000 10.000 -7.500
v -80.111 10.000 -7.500
v -57.222 9.450 7.500
v -57.222 10.000 7.500
v -57.222 8.000 4.100
v -57.222 8.000 -4.100
v -57.222 9.450 -7.500
v -57.222 10.000 -7.500
v -34.333 9.450 7.500
v -34.333 10.000 7.500
v -34.333 8.000 4.100
v -34.333 8.000 -4.100
v -34.333 9.450 -7.500
v -34.333 10.000 -7.500
v -11.444 9.450 7.500
v -11.444 10.000 7.500
v -11.444 8.000 4.100
v -11.444 8.000 -4.100
v -11.444 9.450 -7.500
v -11.444 10.000 -7.500
v 11.444 9.450 7.500
v 11.444 10.000 7.500
v 11.444 8.000 4.100
v 11.444 8.000 -4.100
v 11.444 9.450 -7.500
v 11.444 10.000 -7.500
v 34.333 9.450 7.500
v 34.333 10.000 7.500
v 34.333 8.000 4.100
v 34.333 8.000 -4.100
v 34.333 9.450 -7.500
v 34.333 10.000 -7.500
v 57.222 9.450 7.500
v 57.222 10.000 7.500
v 57.222 8.000 4.100
v 57.222 8.000 -4.100
v 57.222 9.450 -7.500
v 57.222 10.000 -7.500
v 80.111 9.450 7.500
v 80.111 10.000 7.500
v 80.111 8.000 4.100
v 80.111 8.000 -4.100
v 80.111 9.450 -7.500
v 80.111 10.000 -7.500
v 103.000 9.450 7.500
v 103.000 10.000 7.500
v 103.000 8.000 4.100
v 103.000 8.000 -4.100
v 103.000 9.450 -7.500
v 103.000 10.000 -7.500
v 7.001 10.000 -7.500
v 7.001 9.650 -7.500
v 12.297 9.643 -7.503
v 12.297 9.993 -7.503
v 7.001 9.050 -8.400
v 12.276 9.043 -8.403
v 6.999 9.050 -13.000
v 12.169 9.043 -13.002
v 6.999 9.650 -13.900
v 12.148 9.643 -13.901
v 6.999 10.000 -13.900
v 12.148 9.993 -13.901
v 17.698 9.502 -7.754
v 17.698 9.852 -7.754
v 17.627 8.902 -8.651
v 17.262 8.902 -13.236
v 17.190 9.502 -14.133
v 17.190 9.852 -14.133
v 23.108 9.200 -8.364
v 23.108 9.550 -8.364
v 22.984 8.600 -9.256
v 22.349 8.600 -13.812
v 22.225 9.200 -14.703
v 22.225 9.550 -14.703
v 28.471 8.758 -9.253
v 28.471 9.108 -9.253
v 28.307 8.158 -10.138
v 27.470 8.158 -14.661
v 27.307 8.758 -15.546
v 27.307 9.108 -15.546
v 33.789 8.198 -10.339
v 33.789 8.548 -10.339
v 33.598 7.598 -11.219
v 32.624 7.598 -15.715
v 32.433 8.198 -16.594
v 32.433 8.548 -16.594
v 39.063 7.542 -11.547
v 39.063 7.892 -11.547
v 38.858 6.942 -12.423
v 37.809 6.942 -16.902
v 37.603 7.542 -17.778
v 37.603 7.892 -17.778
v 44.296 6.813 -12.801
v 44.296 7.163 -12.801
v 44.088 6.213 -13.676
v 43.023 6.213 -18.152
v 42.815 6.813 -19.027
v 42.815 7.163 -19.027
v 49.487 6.031 -14.026
v 49.487 6.381 -14.026
v 49.287 5.431 -14.904
v 48.268 5.431 -19.389
v 48.069 6.031 -20.267
v 48.069 6.381 -20.267
v 54.636 5.220 -15.151
v 54.636 5.570 -15.151
v 54.457 4.620 -16.033
v 53.543 4.620 -20.542
v 53.364 5.220 -21.424
v 53.364 5.570 -21.424
v 59.740 4.401 -16.105
v 59.740 4.751 -16.105
v 59.594 3.801 -16.994
v 58.850 3.801 -21.533
v 58.704 4.401 -22.421
v 58.704 4.751 -22.421
v 64.798 3.596 -16.820
v 64.798 3.946 -16.820
v 64.699 2.996 -17.714
v 64.190 2.996 -22.286
v 64.091 3.596 -23.181
v 64.091 3.946 -23.181
v 69.820 2.827 -17.229
v 69.820 3.177 -17.229
v 69.777 2.227 -18.128
v 69.557 2.227 -22.723
v 69.514 2.827 -23.622
v 69.514 3.177 -23.622
v 74.912 2.116 -17.300
v 74.912 2.466 -17.300
v 74.905 1.516 -18.200
v 74.872 1.516 -22.800
v 74.866 2.116 -23.700
v 74.866 2.466 -23.700
v 80.111 1.485 -17.300
v 80.111 1.835 -17.300
v 80.111 0.885 -18.200
v 80.111 0.885 -22.800
v 80.111 1.485 -23.700
v 80.111 1.835 -23.700
v 85.333 0.956 -17.300
v 85.333 1.306 -17.300
v 85.333 0.356 -18.200
v 85.333 0.356 -22.800
v 85.333 0.956 -23.700
v 85.333 1.306 -23.700
v 90.556 0.550 -17.300
v 90.556 0.900 -17.300
v 90.556 -0.050 -18.200
v 90.556 -0.050 -22.800
v 90.556 0.550 -23.700
v 90.556 0.900 -23.700
v 95.778 0.291 -17.300
v 95.778 0.641 -17.300
v 95.778 -0.309 -18.200
v 95.778 -0.309 -22.800
v 95.778 0.291 -23.700
v 95.778 0.641 -23.700
v 101.000 0.200 -17.300
v 101.000 0.550 -17.300
v 101.000 -0.400 -18.200
v 101.000 -0.400 -22.800
v 101.000 0.200 -23.700
v 101.000 0.550 -23.700
v 12.148 9.993 -13.881
v 12.161 9.993 -13.321
v 6.999 10.000 -13.320
v 6.999 10.000 -13.880
v 12.161 10.073 -13.321
v 6.999 10.080 -13.320
v 12.159 10.323 -13.431
v 6.999 10.330 -13.430
v 12.157 10.943 -13.501
v 6.999 10.950 -13.500
v 12.152 10.943 -13.701
v 6.999 10.950 -13.700
v 12.151 10.323 -13.771
v 6.999 10.330 -13.770
v 12.148 10.073 -13.881
v 6.999 10.080 -13.880
v 17.192 9.852 -14.114
v 17.236 9.852 -13.555
v 17.236 9.932 -13.555
v 17.228 10.182 -13.665
v 17.222 10.802 -13.735
v 17.206 10.802 -13.934
v 17.201 10.182 -14.004
v 17.192 9.932 -14.114
v 22.228 9.550 -14.683
v 22.305 9.550 -14.129
v 22.305 9.630 -14.129
v 22.290 9.880 -14.238
v 22.280 10.500 -14.307
v 22.253 10.500 -14.505
v 22.243 9.880 -14.574
v 22.228 9.630 -14.683
v 27.310 9.108 -15.526
v 27.412 9.108 -14.976
v 27.412 9.188 -14.976
v 27.392 9.438 -15.084
v 27.379 10.058 -15.153
v 27.343 10.058 -15.349
v 27.330 9.438 -15.418
v 27.310 9.188 -15.526
v 32.438 8.548 -16.575
v 32.556 8.548 -16.027
v 32.556 8.628 -16.027
v 32.533 8.878 -16.135
v 32.518 9.498 -16.203
v 32.476 9.498 -16.399
v 32.461 8.878 -16.467
v 32.438 8.628 -16.575
v 37.608 7.892 -17.759
v 37.736 7.892 -17.214
v 37.736 7.972 -17.214
v 37.711 8.222 -17.321
v 37.695 8.842 -17.389
v 37.649 8.842 -17.584
v 37.633 8.222 -17.652
v 37.608 7.972 -17.759
v 42.820 7.163 -19.008
v 42.949 7.163 -18.463
v 42.949 7.243 -18.463
v 42.924 7.493 -18.570
v 42.908 8.113 -18.638
v 42.861 8.113 -18.833
v 42.845 7.493 -18.901
v 42.820 7.243 -19.008
v 48.073 6.381 -20.248
v 48.197 6.381 -19.701
v 48.197 6.461 -19.701
v 48.173 6.711 -19.809
v 48.157 7.331 -19.877
v 48.113 7.331 -20.072
v 48.097 6.711 -20.140
v 48.073 6.461 -20.248
v 53.368 5.570 -21.404
v 53.480 5.570 -20.855
v 53.480 5.650 -20.855
v 53.458 5.900 -20.963
v 53.444 6.520 -21.032
v 53.404 6.520 -21.228
v 53.390 5.900 -21.296
v 53.368 5.650 -21.404
v 58.708 4.751 -22.401
v 58.798 4.751 -21.849
v 58.798 4.831 -21.849
v 58.780 5.081 -21.957
v 58.769 5.701 -22.026
v 58.737 5.701 -22.224
v 58.725 5.081 -22.293
v 58.708 4.831 -22.401
v 64.093 3.946 -23.161
v 64.155 3.946 -22.604
v 64.155 4.026 -22.604
v 64.143 4.276 -22.714
v 64.135 4.896 -22.783
v 64.113 4.896 -22.982
v 64.105 4.276 -23.051
v 64.093 4.026 -23.161
v 69.515 3.177 -23.602
v 69.541 3.177 -23.042
v 69.541 3.257 -23.042
v 69.536 3.507 -23.152
v 69.533 4.127 -23.222
v 69.523 4.127 -23.422
v 69.520 3.507 -23.492
v 69.515 3.257 -23.602
v 74.866 2.466 -23.680
v 74.870 2.466 -23.120
v 74.870 2.546 -23.120
v 74.869 2.796 -23.230
v 74.869 3.416 -23.300
v 74.867 3.416 -23.500
v 74.867 2.796 -23.570
v 74.866 2.546 -23.680
v 80.111 1.835 -23.680
v 80.111 1.835 -23.120
v 80.111 1.915 -23.120
v 80.111 2.165 -23.230
v 80.111 2.785 -23.300
v 80.111 2.785 -23.500
v 80.111 2.165 -23.570
v 80.111 1.915 -23.680
v 85.333 1.306 -23.680
v 85.333 1.306 -23.120
v 85.333 1.386 -23.120
v 85.333 1.636 -23.230
v 85.333 2.256 -23.300
v 85.333 2.256 -23.500
v 85.333 1.636 -23.570
v 85.333 1.386 -23.680
v 90.556 0.900 -23.680
v 90.556 0.900 -23.120
v 90.556 0.980 -23.120
v 90.556 1.230 -23.230
v 90.556 1.850 -23.300
v 90.556 1.850 -23.500
v 90.556 1.230 -23.570
v 90.556 0.980 -23.680
v 95.778 0.641 -23.680
v 95.778 0.641 -23.120
v 95.778 0.721 -23.120
v 95.778 0.971 -23.230
v 95.778 1.591 -23.300
v 95.778 1.591 -23.500
v 95.778 0.971 -23.570
v 95.778 0.721 -23.680
v 101.000 0.550 -23.680
v 101.000 0.550 -23.120
v 101.000 0.630 -23.120
v 101.000 0.880 -23.230
v 101.000 1.500 -23.300
v 101.000 1.500 -23.500
v 101.000 0.880 -23.570
v 101.000 0.630 -23.680
v 12.283 9.993 -8.083
v 12.296 9.993 -7.523
v 7.001 10.000 -7.520
v 7.001 10.000 -8.080
v 12.296 10.073 -7.523
v 7.001 10.080 -7.520
v 12.294 10.323 -7.633
v 7.001 10.330 -7.630
v 12.292 10.943 -7.703
v 7.001 10.950 -7.700
v 12.288 10.943 -7.903
v 7.001 10.950 -7.900
v 12.286 10.323 -7.973
v 7.001 10.330 -7.970
v 12.283 10.073 -8.083
v 7.001 10.080 -8.080
v 17.652 9.852 -8.332
v 17.697 9.852 -7.774
v 17.697 9.932 -7.774
v 17.688 10.182 -7.883
v 17.683 10.802 -7.953
v 17.667 10.802 -8.152
v 17.661 10.182 -8.222
v 17.652 9.932 -8.332
v 23.028 9.550 -8.939
v 23.106 9.550 -8.384
v 23.106 9.630 -8.384
v 23.090 9.880 -8.493
v 23.081 10.500 -8.563
v 23.053 10.500 -8.761
v 23.044 9.880 -8.830
v 23.028 9.630 -8.939
v 28.366 9.108 -9.823
v 28.468 9.108 -9.272
v 28.468 9.188 -9.272
v 28.448 9.438 -9.381
v 28.435 10.058 -9.449
v 28.398 10.058 -9.646
v 28.386 9.438 -9.715
v 28.366 9.188 -9.823
v 33.666 8.548 -10.906
v 33.785 8.548 -10.359
v 33.785 8.628 -10.359
v 33.761 8.878 -10.467
v 33.747 9.498 -10.535
v 33.704 9.498 -10.730
v 33.689 8.878 -10.799
v 33.666 8.628 -10.906
v 38.931 7.892 -12.112
v 39.059 7.892 -11.567
v 39.059 7.972 -11.567
v 39.034 8.222 -11.674
v 39.018 8.842 -11.742
v 38.972 8.842 -11.937
v 38.956 8.222 -12.005
v 38.931 7.972 -12.112
v 44.162 7.163 -13.365
v 44.291 7.163 -12.820
v 44.291 7.243 -12.820
v 44.266 7.493 -12.927
v 44.250 8.113 -12.995
v 44.203 8.113 -13.190
v 44.187 7.493 -13.258
v 44.162 7.243 -13.365
v 49.358 6.381 -14.592
v 49.482 6.381 -14.046
v 49.482 6.461 -14.046
v 49.458 6.711 -14.153
v 49.443 7.331 -14.221
v 49.398 7.331 -14.416
v 49.383 6.711 -14.484
v 49.358 6.461 -14.592
v 54.520 5.570 -15.720
v 54.632 5.570 -15.171
v 54.632 5.650 -15.171
v 54.610 5.900 -15.279
v 54.596 6.520 -15.347
v 54.556 6.520 -15.543
v 54.542 5.900 -15.612
v 54.520 5.650 -15.720
v 59.646 4.751 -16.678
v 59.737 4.751 -16.125
v 59.737 4.831 -16.125
v 59.719 5.081 -16.234
v 59.708 5.701 -16.303
v 59.675 5.701 -16.500
v 59.664 5.081 -16.569
v 59.646 4.831 -16.678
v 64.734 3.946 -17.396
v 64.796 3.946 -16.840
v 64.796 4.026 -16.840
v 64.784 4.276 -16.949
v 64.776 4.896 -17.019
v 64.754 4.896 -17.217
v 64.746 4.276 -17.287
v 64.734 4.026 -17.396
v 69.792 3.177 -17.808
v 69.819 3.177 -17.249
v 69.819 3.257 -17.249
v 69.813 3.507 -17.359
v 69.810 4.127 -17.429
v 69.800 4.127 -17.629
v 69.797 3.507 -17.698
v 69.792 3.257 -17.808
v 74.908 2.466 -17.880
v 74.912 2.466 -17.320
v 74.912 2.546 -17.320
v 74.911 2.796 -17.430
v 74.910 3.416 -17.500
v 74.909 3.416 -17.700
v 74.908 2.796 -17.770
v 74.908 2.546 -17.880
v 80.111 1.835 -17.880
v 80.111 1.835 -17.320
v 80.111 1.915 -17.320
v 80.111 2.165 -17.430
v 80.111 2.785 -17.500
v 80.111 2.785 -17.700
v 80.111 2.165 -17.770
v 80.111 1.915 -17.880
v 85.333 1.306 -17.880
v 85.333 1.306 -17.320
v 85.333 1.386 -17.320
v 85.333 1.636 -17.430
v 85.333 2.256 -17.500
v 85.333 2.256 -17.700
v 85.333 1.636 -17.770
v 85.333 1.386 -17.880
v 90.556 0.900 -17.880
v 90.556 0.900 -17.320
v 90.556 0.980 -17.320
v 90.556 1.230 -17.430
v 90.556 1.850 -17.500
v 90.556 1.850 -17.700
v 90.556 1.230 -17.770
v 90.556 0.980 -17.880
v 95.778 0.641 -17.880
v 95.778 0.641 -17.320
v 95.778 0.721 -17.320
v 95.778 0.971 -17.430
v 95.778 1.591 -17.500
v 95.778 1.591 -17.700
v 95.778 0.971 -17.770
v 95.778 0.721 -17.880
v 101.000 0.550 -17.880
v 101.000 0.550 -17.320
v 101.000 0.630 -17.320
v 101.000 0.880 -17.430
v 101.000 1.500 -17.500
v 101.000 1.500 -17.700
v 101.000 0.880 -17.770
v 101.000 0.630 -17.880
v 25.989 0.450 -10.499
v 29.789 0.450 -10.499
v 29.789 0.450 -14.299
v 25.989 0.450 -14.299
v 25.989 0.000 -14.299
v 29.789 0.000 -14.299
v 29.789 0.000 -10.499
v 25.989 0.000 -10.499
v 28.789 8.058 -12.399
v 28.339 8.058 -11.620
v 28.464 0.450 -11.403
v 29.039 0.450 -12.399
v 27.439 8.058 -11.620
v 27.314 0.450 -11.403
v 26.989 8.058 -12.399
v 26.739 0.450 -12.399
v 27.439 8.058 -13.179
v 27.314 0.450 -13.395
v 28.339 8.058 -13.179
v 28.464 0.450 -13.395
v 46.878 0.450 -15.247
v 50.678 0.450 -15.247
v 50.678 0.450 -19.047
v 46.878 0.450 -19.047
v 46.878 0.000 -19.047
v 50.678 0.000 -19.047
v 50.678 0.000 -15.247
v 46.878 0.000 -15.247
v 49.678 5.331 -17.147
v 49.228 5.331 -16.367
v 49.353 0.450 -16.151
v 49.928 0.450 -17.147
v 48.328 5.331 -16.367
v 48.203 0.450 -16.151
v 47.878 5.331 -17.147
v 47.628 0.450 -17.147
v 48.328 5.331 -17.926
v 48.203 0.450 -18.143
v 49.228 5.331 -17.926
v 49.353 0.450 -18.143
v -6.999 10.000 -13.900
v -6.999 9.650 -13.900
v -12.148 9.643 -13.901
v -12.148 9.993 -13.901
v -6.999 9.050 -13.000
v -12.169 9.043 -13.002
v -7.001 9.050 -8.400
v -12.276 9.043 -8.403
v -7.001 9.650 -7.500
v -12.297 9.643 -7.503
v -7.001 10.000 -7.500
v -12.297 9.993 -7.503
v -17.190 9.502 -14.133
v -17.190 9.852 -14.133
v -17.262 8.902 -13.236
v -17.627 8.902 -8.651
v -17.698 9.502 -7.754
v -17.698 9.852 -7.754
v -22.225 9.200 -14.703
v -22.225 9.550 -14.703
v -22.349 8.600 -13.812
v -22.984 8.600 -9.256
v -23.108 9.200 -8.364
v -23.108 9.550 -8.364
v -27.307 8.758 -15.546
v -27.307 9.108 -15.546
v -27.470 8.158 -14.661
v -28.307 8.158 -10.138
v -28.471 8.758 -9.253
v -28.471 9.108 -9.253
v -32.433 8.198 -16.594
v -32.433 8.548 -16.594
v -32.624 7.598 -15.715
v -33.598 7.598 -11.219
v -33.789 8.198 -10.339
v -33.789 8.548 -10.339
v -37.603 7.542 -17.778
v -37.603 7.892 -17.778
v -37.809 6.942 -16.902
v -38.858 6.942 -12.423
v -39.063 7.542 -11.547
v -39.063 7.892 -11.547
v -42.815 6.813 -19.027
v -42.815 7.163 -19.027
v -43.023 6.213 -18.152
v -44.088 6.213 -13.676
v -44.296 6.813 -12.801
v -44.296 7.163 -12.801
v -48.069 6.031 -20.267
v -48.069 6.381 -20.267
v -48.268 5.431 -19.389
v -49.287 5.431 -14.904
v -49.487 6.031 -14.026
v -49.487 6.381 -14.026
v -53.364 5.220 -21.424
v -53.364 5.570 -21.424
v -53.543 4.620 -20.542
v -54.457 4.620 -16.033
v -54.636 5.220 -15.151
v -54.636 5.570 -15.151
v -58.704 4.401 -22.421
v -58.704 4.751 -22.421
v -58.850 3.801 -21.533
v -59.594 3.801 -16.994
v -59.740 4.401 -16.105
v -59.740 4.751 -16.105
v -64.091 3.596 -23.181
v -64.091 3.946 -23.181
v -64.190 2.996 -22.286
v -64.699 2.996 -17.714
v -64.798 3.596 -16.820
v -64.798 3.946 -16.820
v -69.514 2.827 -23.622
v -69.514 3.177 -23.622
v -69.557 2.227 -22.723
v -69.777 2.227 -18.128
v -69.820 2.827 -17.229
v -69.820 3.177 -17.229
v -74.866 2.116 -23.700
v -74.866 2.466 -23.700
v -74.872 1.516 -22.800
v -74.905 1.516 -18.200
v -74.912 2.116 -17.300
v -74.912 2.466 -17.300
v -80.111 1.485 -23.700
v -80.111 1.835 -23.700
v -80.111 0.885 -22.800
v -80.111 0.885 -18.200
v -80.111 1.485 -17.300
v -80.111 1.835 -17.300
v -85.333 0.956 -23.700
v -85.333 1.306 -23.700
v -85.333 0.356 -22.800
v -85.333 0.356 -18.200
v -85.333 0.956 -17.300
v -85.333 1.306 -17.300
v -90.556 0.550 -23.700
v -90.556 0.900 -23.700
v -90.556 -0.050 -22.800
v -90.556 -0.050 -18.200
v -90.556 0.550 -17.300
v -90.556 0.900 -17.300
v -95.778 0.291 -23.700
v -95.778 0.641 -23.700
v -95.778 -0.309 -22.800
v -95.778 -0.309 -18.200
v -95.778 0.291 -17.300
v -95.778 0.641 -17.300
v -101.000 0.200 -23.700
v -101.000 0.550 -23.700
v -101.000 -0.400 -22.800
v -101.000 -0.400 -18.200
v -101.000 0.200 -17.300
v -101.000 0.550 -17.300
v -12.296 9.993 -7.523
v -12.283 9.993 -8.083
v -7.001 10.000 -8.080
v -7.001 10.000 -7.520
v -12.283 10.073 -8.083
v -7.001 10.080 -8.080
v -12.286 10.323 -7.973
v -7.001 10.330 -7.970
v -12.288 10.943 -7.903
v -7.001 10.950 -7.900
v -12.292 10.943 -7.703
v -7.001 10.950 -7.700
v -12.294 10.323 -7.633
v -7.001 10.330 -7.630
v -12.296 10.073 -7.523
v -7.001 10.080 -7.520
v -17.697 9.852 -7.774
v -17.652 9.852 -8.332
v -17.652 9.932 -8.332
v -17.661 10.182 -8.222
v -17.667 10.802 -8.152
v -17.683 10.802 -7.953
v -17.688 10.182 -7.883
v -17.697 9.932 -7.774
v -23.106 9.550 -8.384
v -23.028 9.550 -8.939
v -23.028 9.630 -8.939
v -23.044 9.880 -8.830
v -23.053 10.500 -8.761
v -23.081 10.500 -8.563
v -23.090 9.880 -8.493
v -23.106 9.630 -8.384
v -28.468 9.108 -9.272
v -28.366 9.108 -9.823
v -28.366 9.188 -9.823
v -28.386 9.438 -9.715
v -28.398 10.058 -9.646
v -28.435 10.058 -9.449
v -28.448 9.438 -9.381
v -28.468 9.188 -9.272
v -33.785 8.548 -10.359
v -33.666 8.548 -10.906
v -33.666 8.628 -10.906
v -33.689 8.878 -10.799
v -33.704 9.498 -10.730
v -33.747 9.498 -10.535
v -33.761 8.878 -10.467
v -33.785 8.628 -10.359
v -39.059 7.892 -11.567
v -38.931 7.892 -12.112
v -38.931 7.972 -12.112
v -38.956 8.222 -12.005
v -38.972 8.842 -11.937
v -39.018 8.842 -11.742
v -39.034 8.222 -11.674
v -39.059 7.972 -11.567
v -44.291 7.163 -12.820
v -44.162 7.163 -13.365
v -44.162 7.243 -13.365
v -44.187 7.493 -13.258
v -44.203 8.113 -13.190
v -44.250 8.113 -12.995
v -44.266 7.493 -12.927
v -44.291 7.243 -12.820
v -49.482 6.381 -14.046
v -49.358 6.381 -14.592
v -49.358 6.461 -14.592
v -49.383 6.711 -14.484
v -49.398 7.331 -14.416
v -49.443 7.331 -14.221
v -49.458 6.711 -14.153
v -49.482 6.461 -14.046
v -54.632 5.570 -15.171
v -54.520 5.570 -15.720
v -54.520 5.650 -15.720
v -54.542 5.900 -15.612
v -54.556 6.520 -15.543
v -54.596 6.520 -15.347
v -54.610 5.900 -15.279
v -54.632 5.650 -15.171
v -59.737 4.751 -16.125
v -59.646 4.751 -16.678
v -59.646 4.831 -16.678
v -59.664 5.081 -16.569
v -59.675 5.701 -16.500
v -59.708 5.701 -16.303
v -59.719 5.081 -16.234
v -59.737 4.831 -16.125
v -64.796 3.946 -16.840
v -64.734 3.946 -17.396
v -64.734 4.026 -17.396
v -64.746 4.276 -17.287
v -64.754 4.896 -17.217
v -64.776 4.896 -17.019
v -64.784 4.276 -16.949
v -64.796 4.026 -16.840
v -69.819 3.177 -17.249
v -69.792 3.177 -17.808
v -69.792 3.257 -17.808
v -69.797 3.507 -17.698
v -69.800 4.127 -17.629
v -69.810 4.127 -17.429
v -69.813 3.507 -17.359
v -69.819 3.257 -17.249
v -74.912 2.466 -17.320
v -74.908 2.466 -17.880
v -74.908 2.546 -17.880
v -74.908 2.796 -17.770
v -74.909 3.416 -17.700
v -74.910 3.416 -17.500
v -74.911 2.796 -17.430
v -74.912 2.546 -17.320
v -80.111 1.835 -17.320
v -80.111 1.835 -17.880
v -80.111 1.915 -17.880
v -80.111 2.165 -17.770
v -80.111 2.785 -17.700
v -80.111 2.785 -17.500
v -80.111 2.165 -17.430
v -80.111 1.915 -17.320
v -85.333 1.306 -17.320
v -85.333 1.306 -17.880
v -85.333 1.386 -17.880
v -85.333 1.636 -17.770
v -85.333 2.256 -17.700
v -85.333 2.256 -17.500
v -85.333 1.636 -17.430
v -85.333 1.386 -17.320
v -90.556 0.900 -17.320
v -90.556 0.900 -17.880
v -90.556 0.980 -17.880
v -90.556 1.230 -17.770
v -90.556 1.850 -17.700
v -90.556 1.850 -17.500
v -90.556 1.230 -17.430
v -90.556 0.980 -17.320
v -95.778 0.641 -17.320
v -95.778 0.641 -17.880
v -95.778 0.721 -17.880
v -95.778 0.971 -17.770
v -95.778 1.591 -17.700
v -95.778 1.591 -17.500
v -95.778 0.971 -17.430
v -95.778 0.721 -17.320
v -101.000 0.550 -17.320
v -101.000 0.550 -17.880
v -101.000 0.630 -17.880
v -101.000 0.880 -17.770
v -101.000 1.500 -17.700
v -101.000 1.500 -17.500
v -101.000 0.880 -17.430
v -101.000 0.630 -17.320
v -12.161 9.993 -13.321
v -12.148 9.993 -13.881
v -6.999 10.000 -13.880
v -6.999 10.000 -13.320
v -12.148 10.073 -13.881
v -6.999 10.080 -13.880
v -12.151 10.323 -13.771
v -6.999 10.330 -13.770
v -12.152 10.943 -13.701
v -6.999 10.950 -13.700
v -12.157 10.943 -13.501
v -6.999 10.950 -13.500
v -12.159 10.323 -13.431
v -6.999 10.330 -13.430
v -12.161 10.073 -13.321
v -6.999 10.080 -13.320
v -17.236 9.852 -13.555
v -17.192 9.852 -14.114
v -17.192 9.932 -14.114
v -17.201 10.182 -14.004
v -17.206 10.802 -13.934
v -17.222 10.802 -13.735
v -17.228 10.182 -13.665
v -17.236 9.932 -13.555
v -22.305 9.550 -14.129
v -22.228 9.550 -14.683
v -22.228 9.630 -14.683
v -22.243 9.880 -14.574
v -22.253 10.500 -14.505
v -22.280 10.500 -14.307
v -22.290 9.880 -14.238
v -22.305 9.630 -14.129
v -27.412 9.108 -14.976
v -27.310 9.108 -15.526
v -27.310 9.188 -15.526
v -27.330 9.438 -15.418
v -27.343 10.058 -15.349
v -27.379 10.058 -15.153
v -27.392 9.438 -15.084
v -27.412 9.188 -14.976
v -32.556 8.548 -16.027
v -32.438 8.548 -16.575
v -32.438 8.628 -16.575
v -32.461 8.878 -16.467
v -32.476 9.498 -16.399
v -32.518 9.498 -16.203
v -32.533 8.878 -16.135
v -32.556 8.628 -16.027
v -37.736 7.892 -17.214
v -37.608 7.892 -17.759
v -37.608 7.972 -17.759
v -37.633 8.222 -17.652
v -37.649 8.842 -17.584
v -37.695 8.842 -17.389
v -37.711 8.222 -17.321
v -37.736 7.972 -17.214
v -42.949 7.163 -18.463
v -42.820 7.163 -19.008
v -42.820 7.243 -19.008
v -42.845 7.493 -18.901
v -42.861 8.113 -18.833
v -42.908 8.113 -18.638
v -42.924 7.493 -18.570
v -42.949 7.243 -18.463
v -48.197 6.381 -19.701
v -48.073 6.381 -20.248
v -48.073 6.461 -20.248
v -48.097 6.711 -20.140
v -48.113 7.331 -20.072
v -48.157 7.331 -19.877
v -48.173 6.711 -19.809
v -48.197 6.461 -19.701
v -53.480 5.570 -20.855
v -53.368 5.570 -21.404
v -53.368 5.650 -21.404
v -53.390 5.900 -21.296
v -53.404 6.520 -21.228
v -53.444 6.520 -21.032
v -53.458 5.900 -20.963
v -53.480 5.650 -20.855
v -58.798 4.751 -21.849
v -58.708 4.751 -22.401
v -58.708 4.831 -22.401
v -58.725 5.081 -22.293
v -58.737 5.701 -22.224
v -58.769 5.701 -22.026
v -58.780 5.081 -21.957
v -58.798 4.831 -21.849
v -64.155 3.946 -22.604
v -64.093 3.946 -23.161
v -64.093 4.026 -23.161
v -64.105 4.276 -23.051
v -64.113 4.896 -22.982
v -64.135 4.896 -22.783
v -64.143 4.276 -22.714
v -64.155 4.026 -22.604
v -69.541 3.177 -23.042
v -69.515 3.177 -23.602
v -69.515 3.257 -23.602
v -69.520 3.507 -23.492
v -69.523 4.127 -23.422
v -69.533 4.127 -23.222
v -69.536 3.507 -23.152
v -69.541 3.257 -23.042
v -74.870 2.466 -23.120
v -74.866 2.466 -23.680
v -74.866 2.546 -23.680
v -74.867 2.796 -23.570
v -74.867 3.416 -23.500
v -74.869 3.416 -23.300
v -74.869 2.796 -23.230
v -74.870 2.546 -23.120
v -80.111 1.835 -23.120
v -80.111 1.835 -23.680
v -80.111 1.915 -23.680
v -80.111 2.165 -23.570
v -80.111 2.785 -23.500
v -80.111 2.785 -23.300
v -80.111 2.165 -23.230
v -80.111 1.915 -23.120
v -85.333 1.306 -23.120
v -85.333 1.306 -23.680
v -85.333 1.386 -23.680
v -85.333 1.636 -23.570
v -85.333 2.256 -23.500
v -85.333 2.256 -23.300
v -85.333 1.636 -23.230
v -85.333 1.386 -23.120
v -90.556 0.900 -23.120
v -90.556 0.900 -23.680
v -90.556 0.980 -23.680
v -90.556 1.230 -23.570
v -90.556 1.850 -23.500
v -90.556 1.850 -23.300
v -90.556 1.230 -23.230
v -90.556 0.980 -23.120
v -95.778 0.641 -23.120
v -95.778 0.641 -23.680
v -95.778 0.721 -23.680
v -95.778 0.971 -23.570
v -95.778 1.591 -23.500
v -95.778 1.591 -23.300
v -95.778 0.971 -23.230
v -95.778 0.721 -23.120
v -101.000 0.550 -23.120
v -101.000 0.550 -23.680
v -101.000 0.630 -23.680
v -101.000 0.880 -23.570
v -101.000 1.500 -23.500
v -101.000 1.500 -23.300
v -101.000 0.880 -23.230
v -101.000 0.630 -23.120
v -29.789 0.450 -10.499
v -25.989 0.450 -10.499
v -25.989 0.450 -14.299
v -29.789 0.450 -14.299
v -29.789 0.000 -14.299
v -25.989 0.000 -14.299
v -25.989 0.000 -10.499
v -29.789 0.000 -10.499
v -26.989 8.058 -12.399
v -27.439 8.058 -11.620
v -27.314 0.450 -11.403
v -26.739 0.450 -12.399
v -28.339 8.058 -11.620
v -28.464 0.450 -11.403
v -28.789 8.058 -12.399
v -29.039 0.450 -12.399
v -28.339 8.058 -13.179
v -28.464 0.450 -13.395
v -27.439 8.058 -13.179
v -27.314 0.450 -13.395
v -50.678 0.450 -15.247
v -46.878 0.450 -15.247
v -46.878 0.450 -19.047
v -50.678 0.450 -19.047
v -50.678 0.000 -19.047
v -46.878 0.000 -19.047
v -46.878 0.000 -15.247
v -50.678 0.000 -15.247
v -47.878 5.331 -17.147
v -48.328 5.331 -16.367
v -48.203 0.450 -16.151
v -47.628 0.450 -17.147
v -49.228 5.331 -16.367
v -49.353 0.450 -16.151
v -49.678 5.331 -17.147
v -49.928 0.450 -17.147
v -49.228 5.331 -17.926
v -49.353 0.450 -18.143
v -48.328 5.331 -17.926
v -48.203 0.450 -18.143
v -83.700 10.000 -7.480
v -83.700 10.000 -6.920
v -103.000 10.000 -6.920
v -103.000 10.000 -7.480
v -83.700 10.080 -6.920
v -103.000 10.080 -6.920
v -83.700 10.330 -7.030
v -103.000 10.330 -7.030
v -83.700 11.050 -7.100
v -103.000 11.050 -7.100
v -83.700 11.050 -7.300
v -103.000 11.050 -7.300
v -83.700 10.330 -7.370
v -103.000 10.330 -7.370
v -83.700 10.080 -7.480
v -103.000 10.080 -7.480
v -64.400 10.000 -7.480
v -64.400 10.000 -6.920
v -64.400 10.080 -6.920
v -64.400 10.330 -7.030
v -64.400 11.050 -7.100
v -64.400 11.050 -7.300
v -64.400 10.330 -7.370
v -64.400 10.080 -7.480
v -45.100 10.000 -7.480
v -45.100 10.000 -6.920
v -45.100 10.080 -6.920
v -45.100 10.330 -7.030
v -45.100 11.050 -7.100
v -45.100 11.050 -7.300
v -45.100 10.330 -7.370
v -45.100 10.080 -7.480
v -25.800 10.000 -7.480
v -25.800 10.000 -6.920
v -25.800 10.080 -6.920
v -25.800 10.330 -7.030
v -25.800 11.050 -7.100
v -25.800 11.050 -7.300
v -25.800 10.330 -7.370
v -25.800 10.080 -7.480
v 7.000 10.000 -7.480
v 7.000 10.000 -6.920
v -7.000 10.000 -6.920
v -7.000 10.000 -7.480
v 7.000 10.080 -6.920
v -7.000 10.080 -6.920
v 7.000 10.330 -7.030
v -7.000 10.330 -7.030
v 7.000 11.050 -7.100
v -7.000 11.050 -7.100
v 7.000 11.050 -7.300
v -7.000 11.050 -7.300
v 7.000 10.330 -7.370
v -7.000 10.330 -7.370
v 7.000 10.080 -7.480
v -7.000 10.080 -7.480
v 45.100 10.000 -7.480
v 45.100 10.000 -6.920
v 25.800 10.000 -6.920
v 25.800 10.000 -7.480
v 45.100 10.080 -6.920
v 25.800 10.080 -6.920
v 45.100 10.330 -7.030
v 25.800 10.330 -7.030
v 45.100 11.050 -7.100
v 25.800 11.050 -7.100
v 45.100 11.050 -7.300
v 25.800 11.050 -7.300
v 45.100 10.330 -7.370
v 25.800 10.330 -7.370
v 45.100 10.080 -7.480
v 25.800 10.080 -7.480
v 64.400 10.000 -7.480
v 64.400 10.000 -6.920
v 64.400 10.080 -6.920
v 64.400 10.330 -7.030
v 64.400 11.050 -7.100
v 64.400 11.050 -7.300
v 64.400 10.330 -7.370
v 64.400 10.080 -7.480
v 83.700 10.000 -7.480
v 83.700 10.000 -6.920
v 83.700 10.080 -6.920
v 83.700 10.330 -7.030
v 83.700 11.050 -7.100
v 83.700 11.050 -7.300
v 83.700 10.330 -7.370
v 83.700 10.080 -7.480
v 103.000 10.000 -7.480
v 103.000 10.000 -6.920
v 103.000 10.080 -6.920
v 103.000 10.330 -7.030
v 103.000 11.050 -7.100
v 103.000 11.050 -7.300
v 103.000 10.330 -7.370
v 103.000 10.080 -7.480
v -80.111 10.000 6.920
v -80.111 10.000 7.480
v -103.000 10.000 7.480
v -103.000 10.000 6.920
v -80.111 10.080 7.480
v -103.000 10.080 7.480
v -80.111 10.330 7.370
v -103.000 10.330 7.370
v -80.111 11.050 7.300
v -103.000 11.050 7.300
v -80.111 11.050 7.100
v -103.000 11.050 7.100
v -80.111 10.330 7.030
v -103.000 10.330 7.030
v -80.111 10.080 6.920
v -103.000 10.080 6.920
v -57.222 10.000 6.920
v -57.222 10.000 7.480
v -57.222 10.080 7.480
v -57.222 10.330 7.370
v -57.222 11.050 7.300
v -57.222 11.050 7.100
v -57.222 10.330 7.030
v -57.222 10.080 6.920
v -34.333 10.000 6.920
v -34.333 10.000 7.480
v -34.333 10.080 7.480
v -34.333 10.330 7.370
v -34.333 11.050 7.300
v -34.333 11.050 7.100
v -34.333 10.330 7.030
v -34.333 10.080 6.920
v -11.444 10.000 6.920
v -11.444 10.000 7.480
v -11.444 10.080 7.480
v -11.444 10.330 7.370
v -11.444 11.050 7.300
v -11.444 11.050 7.100
v -11.444 10.330 7.030
v -11.444 10.080 6.920
v 11.444 10.000 6.920
v 11.444 10.000 7.480
v 11.444 10.080 7.480
v 11.444 10.330 7.370
v 11.444 11.050 7.300
v 11.444 11.050 7.100
v 11.444 10.330 7.030
v 11.444 10.080 6.920
v 34.333 10.000 6.920
v 34.333 10.000 7.480
v 34.333 10.080 7.480
v 34.333 10.330 7.370
v 34.333 11.050 7.300
v 34.333 11.050 7.100
v 34.333 10.330 7.030
v 34.333 10.080 6.920
v 57.222 10.000 6.920
v 57.222 10.000 7.480
v 57.222 10.080 7.480
v 57.222 10.330 7.370
v 57.222 11.050 7.300
v 57.222 11.050 7.100
v 57.222 10.330 7.030
v 57.222 10.080 6.920
v 80.111 10.000 6.920
v 80.111 10.000 7.480
v 80.111 10.080 7.480
v 80.111 10.330 7.370
v 80.111 11.050 7.300
v 80.111 11.050 7.100
v 80.111 10.330 7.030
v 80.111 10.080 6.920
v 103.000 10.000 6.920
v 103.000 10.000 7.480
v 103.000 10.080 7.480
v 103.000 10.330 7.370
v 103.000 11.050 7.300
v 103.000 11.050 7.100
v 103.000 10.330 7.030
v 103.000 10.080 6.920
v -80.111 10.000 -0.280
v -80.111 10.000 0.280
v -103.000 10.000 0.280
v -103.000 10.000 -0.280
v -80.111 10.080 0.280
v -103.000 10.080 0.280
v -80.111 10.330 0.170
v -103.000 10.330 0.170
v -80.111 10.900 0.100
v -103.000 10.900 0.100
v -80.111 10.900 -0.100
v -103.000 10.900 -0.100
v -80.111 10.330 -0.170
v -103.000 10.330 -0.170
v -80.111 10.080 -0.280
v -103.000 10.080 -0.280
v -57.222 10.000 -0.280
v -57.222 10.000 0.280
v -57.222 10.080 0.280
v -57.222 10.330 0.170
v -57.222 10.900 0.100
v -57.222 10.900 -0.100
v -57.222 10.330 -0.170
v -57.222 10.080 -0.280
v -34.333 10.000 -0.280
v -34.333 10.000 0.280
v -34.333 10.080 0.280
v -34.333 10.330 0.170
v -34.333 10.900 0.100
v -34.333 10.900 -0.100
v -34.333 10.330 -0.170
v -34.333 10.080 -0.280
v -11.444 10.000 -0.280
v -11.444 10.000 0.280
v -11.444 10.080 0.280
v -11.444 10.330 0.170
v -11.444 10.900 0.100
v -11.444 10.900 -0.100
v -11.444 10.330 -0.170
v -11.444 10.080 -0.280
v 11.444 10.000 -0.280
v 11.444 10.000 0.280
v 11.444 10.080 0.280
v 11.444 10.330 0.170
v 11.444 10.900 0.100
v 11.444 10.900 -0.100
v 11.444 10.330 -0.170
v 11.444 10.080 -0.280
v 34.333 10.000 -0.280
v 34.333 10.000 0.280
v 34.333 10.080 0.280
v 34.333 10.330 0.170
v 34.333 10.900 0.100
v 34.333 10.900 -0.100
v 34.333 10.330 -0.170
v 34.333 10.080 -0.280
v 57.222 10.000 -0.280
v 57.222 10.000 0.280
v 57.222 10.080 0.280
v 57.222 10.330 0.170
v 57.222 10.900 0.100
v 57.222 10.900 -0.100
v 57.222 10.330 -0.170
v 57.222 10.080 -0.280
v 80.111 10.000 -0.280
v 80.111 10.000 0.280
v 80.111 10.080 0.280
v 80.111 10.330 0.170
v 80.111 10.900 0.100
v 80.111 10.900 -0.100
v 80.111 10.330 -0.170
v 80.111 10.080 -0.280
v 103.000 10.000 -0.280
v 103.000 10.000 0.280
v 103.000 10.080 0.280
v 103.000 10.330 0.170
v 103.000 10.900 0.100
v 103.000 10.900 -0.100
v 103.000 10.330 -0.170
v 103.000 10.080 -0.280
v -86.890 17.500 0.000
v -87.000 17.500 0.110
v -87.000 0.000 0.160
v -86.840 0.000 0.000
v -87.110 17.500 0.000
v -87.160 0.000 0.000
v -87.000 17.500 -0.110
v -87.000 0.000 -0.160
v -87.090 17.500 0.000
v -86.910 17.500 0.000
v -86.910 17.500 -2.600
v -87.090 17.500 -2.600
v -87.090 17.380 -2.600
v -86.910 17.380 -2.600
v -86.910 17.380 0.000
v -87.090 17.380 0.000
v -87.090 17.500 2.600
v -86.910 17.500 2.600
v -86.910 17.500 0.000
v -87.090 17.500 0.000
v -87.090 17.380 0.000
v -86.910 17.380 0.000
v -86.910 17.380 2.600
v -87.090 17.380 2.600
v -52.890 17.500 0.000
v -53.000 17.500 0.110
v -53.000 0.000 0.160
v -52.840 0.000 0.000
v -53.110 17.500 0.000
v -53.160 0.000 0.000
v -53.000 17.500 -0.110
v -53.000 0.000 -0.160
v -53.090 17.500 0.000
v -52.910 17.500 0.000
v -52.910 17.500 -2.600
v -53.090 17.500 -2.600
v -53.090 17.380 -2.600
v -52.910 17.380 -2.600
v -52.910 17.380 0.000
v -53.090 17.380 0.000
v -53.090 17.500 2.600
v -52.910 17.500 2.600
v -52.910 17.500 0.000
v -53.090 17.500 0.000
v -53.090 17.380 0.000
v -52.910 17.380 0.000
v -52.910 17.380 2.600
v -53.090 17.380 2.600
v -18.890 17.500 0.000
v -19.000 17.500 0.110
v -19.000 0.000 0.160
v -18.840 0.000 0.000
v -19.110 17.500 0.000
v -19.160 0.000 0.000
v -19.000 17.500 -0.110
v -19.000 0.000 -0.160
v -19.090 17.500 0.000
v -18.910 17.500 0.000
v -18.910 17.500 -2.600
v -19.090 17.500 -2.600
v -19.090 17.380 -2.600
v -18.910 17.380 -2.600
v -18.910 17.380 0.000
v -19.090 17.380 0.000
v -19.090 17.500 2.600
v -18.910 17.500 2.600
v -18.910 17.500 0.000
v -19.090 17.500 0.000
v -19.090 17.380 0.000
v -18.910 17.380 0.000
v -18.910 17.380 2.600
v -19.090 17.380 2.600
v 15.110 17.500 0.000
v 15.000 17.500 0.110
v 15.000 0.000 0.160
v 15.160 0.000 0.000
v 14.890 17.500 0.000
v 14.840 0.000 0.000
v 15.000 17.500 -0.110
v 15.000 0.000 -0.160
v 14.910 17.500 0.000
v 15.090 17.500 0.000
v 15.090 17.500 -2.600
v 14.910 17.500 -2.600
v 14.910 17.380 -2.600
v 15.090 17.380 -2.600
v 15.090 17.380 0.000
v 14.910 17.380 0.000
v 14.910 17.500 2.600
v 15.090 17.500 2.600
v 15.090 17.500 0.000
v 14.910 17.500 0.000
v 14.910 17.380 0.000
v 15.090 17.380 0.000
v 15.090 17.380 2.600
v 14.910 17.380 2.600
v 49.110 17.500 0.000
v 49.000 17.500 0.110
v 49.000 0.000 0.160
v 49.160 0.000 0.000
v 48.890 17.500 0.000
v 48.840 0.000 0.000
v 49.000 17.500 -0.110
v 49.000 0.000 -0.160
v 48.910 17.500 0.000
v 49.090 17.500 0.000
v 49.090 17.500 -2.600
v 48.910 17.500 -2.600
v 48.910 17.380 -2.600
v 49.090 17.380 -2.600
v 49.090 17.380 0.000
v 48.910 17.380 0.000
v 48.910 17.500 2.600
v 49.090 17.500 2.600
v 49.090 17.500 0.000
v 48.910 17.500 0.000
v 48.910 17.380 0.000
v 49.090 17.380 0.000
v 49.090 17.380 2.600
v 48.910 17.380 2.600
v 83.110 17.500 0.000
v 83.000 17.500 0.110
v 83.000 0.000 0.160
v 83.160 0.000 0.000
v 82.890 17.500 0.000
v 82.840 0.000 0.000
v 83.000 17.500 -0.110
v 83.000 0.000 -0.160
v 82.910 17.500 0.000
v 83.090 17.500 0.000
v 83.090 17.500 -2.600
v 82.910 17.500 -2.600
v 82.910 17.380 -2.600
v 83.090 17.380 -2.600
v 83.090 17.380 0.000
v 82.910 17.380 0.000
v 82.910 17.500 2.600
v 83.090 17.500 2.600
v 83.090 17.500 0.000
v 82.910 17.500 0.000
v 82.910 17.380 0.000
v 83.090 17.380 0.000
v 83.090 17.380 2.600
v 82.910 17.380 2.600

f 1 2 3 4
f 5 6 7 8
f 5 4 3 6
f 8 7 2 1
f 5 8 1 4
f 9 10 11 12
f 13 14 15 16
f 13 12 11 14
f 16 15 10 9
f 17 18 19 20
f 21 22 23 24
f 21 20 19 22
f 24 23 18 17
f 25 26 27 28
f 29 30 31 32
f 29 28 27 30
f 32 31 26 25
f 33 34 35 36
f 37 38 39 40
f 37 36 35 38
f 40 39 34 33
f 41 42 43 44
f 45 46 47 48
f 45 44 43 46
f 48 47 42 41
f 49 50 51 52
f 53 54 55 56
f 53 52 51 54
f 56 55 50 49
f 57 58 59 60
f 61 62 63 64
f 61 60 59 62
f 64 63 58 57
f 65 66 67 68
f 69 70 71 72
f 69 68 67 70
f 72 71 66 65
f 70 67 66 71
f 73 74 75 76
f 77 78 79 80
f 77 76 75 78
f 80 79 74 73
f 77 80 73 76
f 81 82 83 84
f 85 86 87 88
f 85 84 83 86
f 88 87 82 81
f 89 90 91 92
f 93 94 95 96
f 93 92 91 94
f 96 95 90 89
f 97 98 99 100
f 101 102 103 104
f 101 100 99 102
f 104 103 98 97
f 105 106 107 108
f 109 110 111 112
f 109 108 107 110
f 112 111 106 105
f 113 114 115 116
f 117 118 119 120
f 117 116 115 118
f 120 119 114 113
f 121 122 123 124
f 125 126 127 128
f 125 124 123 126
f 128 127 122 121
f 129 130 131 132
f 133 134 135 136
f 133 132 131 134
f 136 135 130 129
f 137 138 139 140
f 141 142 143 144
f 141 140 139 142
f 144 143 138 137
f 142 139 138 143
f 145 146 147 148
f 149 150 151 152
f 149 148 147 150
f 152 151 146 145
f 149 152 145 148
f 153 154 155 156
f 157 158 159 160
f 157 156 155 158
f 160 159 154 153
f 158 155 154 159
f 161 162 163 164
f 165 166 167 168
f 165 164 163 166
f 168 167 162 161
f 165 168 161 164
f 169 170 171 172
f 173 174 175 176
f 173 172 171 174
f 176 175 170 169
f 174 171 170 175
f 177 178 179 180
f 178 181 182 179
f 181 183 184 182
f 183 177 180 184
f 181 178 177
f 183 181 177
f 179 182 180
f 182 184 180
f 185 186 187 188
f 186 189 190 187
f 189 191 192 190
f 191 185 188 192
f 189 186 185
f 191 189 185
f 187 190 188
f 190 192 188
f 193 194 195 196
f 194 197 198 195
f 197 199 200 198
f 199 193 196 200
f 197 194 193
f 199 197 193
f 195 198 196
f 198 200 196
f 201 202 203 204
f 202 205 206 203
f 205 207 208 206
f 207 201 204 208
f 205 202 201
f 207 205 201
f 203 206 204
f 206 208 204
f 209 210 211 212
f 213 214 215 216
f 213 212 211 214
f 216 215 210 209
f 214 211 210 215
f 213 216 209 212
f 217 218 219 220
f 218 221 222 219
f 221 223 224 222
f 223 217 220 224
f 223 221 218 217
f 220 219 222 224
f 225 226 227 228
f 226 229 230 227
f 229 231 232 230
f 231 233 234 232
f 233 225 228 234
f 225 229 226
f 225 231 229
f 225 233 231
f 228 227 230
f 228 230 232
f 228 232 234
f 235 236 237 238
f 239 240 241 242
f 239 238 237 240
f 242 241 236 235
f 240 237 236 241
f 239 242 235 238
f 243 244 245 246
f 244 247 248 245
f 247 249 250 248
f 249 243 246 250
f 249 247 244 243
f 246 245 248 250
f 251 252 253 254
f 252 255 256 253
f 255 257 258 256
f 257 259 260 258
f 259 251 254 260
f 251 255 252
f 251 257 255
f 251 259 257
f 254 253 256
f 254 256 258
f 254 258 260
f 261 262 263 264
f 265 266 267 268
f 265 264 263 266
f 268 267 262 261
f 266 263 262 267
f 265 268 261 264
f 269 270 271 272
f 270 273 274 271
f 273 275 276 274
f 275 269 272 276
f 275 273 270 269
f 272 271 274 276
f 277 278 279 280
f 278 281 282 279
f 281 283 284 282
f 283 285 286 284
f 285 277 280 286
f 277 281 278
f 277 283 281
f 277 285 283
f 280 279 282
f 280 282 284
f 280 284 286
f 287 288 289 290
f 291 292 293 294
f 291 290 289 292
f 294 293 288 287
f 292 289 288 293
f 291 294 287 290
f 295 296 297 298
f 296 299 300 297
f 299 301 302 300
f 301 295 298 302
f 301 299 296 295
f 298 297 300 302
f 303 304 305 306
f 304 307 308 305
f 307 309 310 308
f 309 311 312 310
f 311 303 306 312
f 303 307 304
f 303 309 307
f 303 311 309
f 306 305 308
f 306 308 310
f 306 310 312
f 313 314 315 316
f 317 318 319 320
f 317 316 315 318
f 320 319 314 313
f 318 315 314 319
f 317 320 313 316
f 321 322 323 324
f 322 325 326 323
f 325 327 328 326
f 327 321 324 328
f 327 325 322 321
f 324 323 326 328
f 329 330 331 332
f 330 333 334 331
f 333 335 336 334
f 335 337 338 336
f 337 329 332 338
f 329 333 330
f 329 335 333
f 329 337 335
f 332 331 334
f 332 334 336
f 332 336 338
f 339 340 341 342
f 343 344 345 346
f 343 342 341 344
f 346 345 340 339
f 344 341 340 345
f 343 346 339 342
f 347 348 349 350
f 348 351 352 349
f 351 353 354 352
f 353 347 350 354
f 353 351 348 347
f 350 349 352 354
f 355 356 357 358
f 356 359 360 357
f 359 361 362 360
f 361 363 364 362
f 363 355 358 364
f 355 359 356
f 355 361 359
f 355 363 361
f 358 357 360
f 358 360 362
f 358 362 364
f 365 366 367 368
f 369 370 371 372
f 369 368 367 370
f 372 371 366 365
f 370 367 366 371
f 369 372 365 368
f 373 374 375 376
f 374 377 378 375
f 377 379 380 378
f 379 373 376 380
f 379 377 374 373
f 376 375 378 380
f 381 382 383 384
f 382 385 386 383
f 385 387 388 386
f 387 389 390 388
f 389 381 384 390
f 381 385 382
f 381 387 385
f 381 389 387
f 384 383 386
f 384 386 388
f 384 388 390
f 391 392 393 394
f 392 395 396 393
f 395 397 398 396
f 397 399 400 398
f 399 401 402 400
f 394 393 403 404
f 393 396 405 403
f 396 398 406 405
f 398 400 407 406
f 400 402 408 407
f 404 403 409 410
f 403 405 411 409
f 405 406 412 411
f 406 407 413 412
f 407 408 414 413
f 410 409 415 416
f 409 411 417 415
f 411 412 418 417
f 412 413 419 418
f 413 414 420 419
f 416 415 421 422
f 415 417 423 421
f 417 418 424 423
f 418 419 425 424
f 419 420 426 425
f 422 421 427 428
f 421 423 429 427
f 423 424 430 429
f 424 425 431 430
f 425 426 432 431
f 428 427 433 434
f 427 429 435 433
f 429 430 436 435
f 430 431 437 436
f 431 432 438 437
f 434 433 439 440
f 433 435 441 439
f 435 436 442 441
f 436 437 443 442
f 437 438 444 443
f 440 439 445 446
f 439 441 447 445
f 441 442 448 447
f 442 443 449 448
f 443 444 450 449
f 401 392 391
f 401 395 392
f 401 397 395
f 401 399 397
f 450 446 445
f 450 445 447
f 450 447 448
f 450 448 449
f 451 452 453 454
f 452 455 456 453
f 455 457 458 456
f 457 459 460 458
f 459 461 462 460
f 454 453 463 464
f 453 456 465 463
f 456 458 466 465
f 458 460 467 466
f 460 462 468 467
f 464 463 469 470
f 463 465 471 469
f 465 466 472 471
f 466 467 473 472
f 467 468 474 473
f 470 469 475 476
f 469 471 477 475
f 471 472 478 477
f 472 473 479 478
f 473 474 480 479
f 476 475 481 482
f 475 477 483 481
f 477 478 484 483
f 478 479 485 484
f 479 480 486 485
f 482 481 487 488
f 481 483 489 487
f 483 484 490 489
f 484 485 491 490
f 485 486 492 491
f 488 487 493 494
f 487 489 495 493
f 489 490 496 495
f 490 491 497 496
f 491 492 498 497
f 494 493 499 500
f 493 495 501 499
f 495 496 502 501
f 496 497 503 502
f 497 498 504 503
f 500 499 505 506
f 499 501 507 505
f 501 502 508 507
f 502 503 509 508
f 503 504 510 509
f 506 505 511 512
f 505 507 513 511
f 507 508 514 513
f 508 509 515 514
f 509 510 516 515
f 512 511 517 518
f 511 513 519 517
f 513 514 520 519
f 514 515 521 520
f 515 516 522 521
f 518 517 523 524
f 517 519 525 523
f 519 520 526 525
f 520 521 527 526
f 521 522 528 527
f 524 523 529 530
f 523 525 531 529
f 525 526 532 531
f 526 527 533 532
f 527 528 534 533
f 530 529 535 536
f 529 531 537 535
f 531 532 538 537
f 532 533 539 538
f 533 534 540 539
f 536 535 541 542
f 535 537 543 541
f 537 538 544 543
f 538 539 545 544
f 539 540 546 545
f 542 541 547 548
f 541 543 549 547
f 543 544 550 549
f 544 545 551 550
f 545 546 552 551
f 548 547 553 554
f 547 549 555 553
f 549 550 556 555
f 550 551 557 556
f 551 552 558 557
f 554 553 559 560
f 553 555 561 559
f 555 556 562 561
f 556 557 563 562
f 557 558 564 563
f 461 452 451
f 461 455 452
f 461 457 455
f 461 459 457
f 564 560 559
f 564 559 561
f 564 561 562
f 564 562 563
f 565 566 567 568
f 566 569 570 567
f 569 571 572 570
f 571 573 574 572
f 573 575 576 574
f 575 577 578 576
f 577 579 580 578
f 579 565 568 580
f 581 582 566 565
f 582 583 569 566
f 583 584 571 569
f 584 585 573 571
f 585 586 575 573
f 586 587 577 575
f 587 588 579 577
f 588 581 565 579
f 589 590 582 581
f 590 591 583 582
f 591 592 584 583
f 592 593 585 584
f 593 594 586 585
f 594 595 587 586
f 595 596 588 587
f 596 589 581 588
f 597 598 590 589
f 598 599 591 590
f 599 600 592 591
f 600 601 593 592
f 601 602 594 593
f 602 603 595 594
f 603 604 596 595
f 604 597 589 596
f 605 606 598 597
f 606 607 599 598
f 607 608 600 599
f 608 609 601 600
f 609 610 602 601
f 610 611 603 602
f 611 612 604 603
f 612 605 597 604
f 613 614 606 605
f 614 615 607 606
f 615 616 608 607
f 616 617 609 608
f 617 618 610 609
f 618 619 611 610
f 619 620 612 611
f 620 613 605 612
f 621 622 614 613
f 622 623 615 614
f 623 624 616 615
f 624 625 617 616
f 625 626 618 617
f 626 627 619 618
f 627 628 620 619
f 628 621 613 620
f 629 630 622 621
f 630 631 623 622
f 631 632 624 623
f 632 633 625 624
f 633 634 626 625
f 634 635 627 626
f 635 636 628 627
f 636 629 621 628
f 637 638 630 629
f 638 639 631 630
f 639 640 632 631
f 640 641 633 632
f 641 642 634 633
f 642 643 635 634
f 643 644 636 635
f 644 637 629 636
f 645 646 638 637
f 646 647 639 638
f 647 648 640 639
f 648 649 641 640
f 649 650 642 641
f 650 651 643 642
f 651 652 644 643
f 652 645 637 644
f 653 654 646 645
f 654 655 647 646
f 655 656 648 647
f 656 657 649 648
f 657 658 650 649
f 658 659 651 650
f 659 660 652 651
f 660 653 645 652
f 661 662 654 653
f 662 663 655 654
f 663 664 656 655
f 664 665 657 656
f 665 666 658 657
f 666 667 659 658
f 667 668 660 659
f 668 661 653 660
f 669 670 662 661
f 670 671 663 662
f 671 672 664 663
f 672 673 665 664
f 673 674 666 665
f 674 675 667 666
f 675 676 668 667
f 676 669 661 668
f 677 678 670 669
f 678 679 671 670
f 679 680 672 671
f 680 681 673 672
f 681 682 674 673
f 682 683 675 674
f 683 684 676 675
f 684 677 669 676
f 685 686 678 677
f 686 687 679 678
f 687 688 680 679
f 688 689 681 680
f 689 690 682 681
f 690 691 683 682
f 691 692 684 683
f 692 685 677 684
f 693 694 686 685
f 694 695 687 686
f 695 696 688 687
f 696 697 689 688
f 697 698 690 689
f 698 699 691 690
f 699 700 692 691
f 700 693 685 692
f 701 702 694 693
f 702 703 695 694
f 703 704 696 695
f 704 705 697 696
f 705 706 698 697
f 706 707 699 698
f 707 708 700 699
f 708 701 693 700
f 709 710 702 701
f 710 711 703 702
f 711 712 704 703
f 712 713 705 704
f 713 714 706 705
f 714 715 707 706
f 715 716 708 707
f 716 709 701 708
f 567 570 568
f 570 572 568
f 572 574 568
f 574 576 568
f 576 578 568
f 578 580 568
f 711 710 709
f 712 711 709
f 713 712 709
f 714 713 709
f 715 714 709
f 716 715 709
f 717 718 719 720
f 718 721 722 719
f 721 723 724 722
f 723 725 726 724
f 725 727 728 726
f 727 729 730 728
f 729 731 732 730
f 731 717 720 732
f 733 734 718 717
f 734 735 721 718
f 735 736 723 721
f 736 737 725 723
f 737 738 727 725
f 738 739 729 727
f 739 740 731 729
f 740 733 717 731
f 741 742 734 733
f 742 743 735 734
f 743 744 736 735
f 744 745 737 736
f 745 746 738 737
f 746 747 739 738
f 747 748 740 739
f 748 741 733 740
f 749 750 742 741
f 750 751 743 742
f 751 752 744 743
f 752 753 745 744
f 753 754 746 745
f 754 755 747 746
f 755 756 748 747
f 756 749 741 748
f 757 758 750 749
f 758 759 751 750
f 759 760 752 751
f 760 761 753 752
f 761 762 754 753
f 762 763 755 754
f 763 764 756 755
f 764 757 749 756
f 765 766 758 757
f 766 767 759 758
f 767 768 760 759
f 768 769 761 760
f 769 770 762 761
f 770 771 763 762
f 771 772 764 763
f 772 765 757 764
f 773 774 766 765
f 774 775 767 766
f 775 776 768 767
f 776 777 769 768
f 777 778 770 769
f 778 779 771 770
f 779 780 772 771
f 780 773 765 772
f 781 782 774 773
f 782 783 775 774
f 783 784 776 775
f 784 785 777 776
f 785 786 778 777
f 786 787 779 778
f 787 788 780 779
f 788 781 773 780
f 789 790 782 781
f 790 791 783 782
f 791 792 784 783
f 792 793 785 784
f 793 794 786 785
f 794 795 787 786
f 795 796 788 787
f 796 789 781 788
f 797 798 790 789
f 798 799 791 790
f 799 800 792 791
f 800 801 793 792
f 801 802 794 793
f 802 803 795 794
f 803 804 796 795
f 804 797 789 796
f 805 806 798 797
f 806 807 799 798
f 807 808 800 799
f 808 809 801 800
f 809 810 802 801
f 810 811 803 802
f 811 812 804 803
f 812 805 797 804
f 813 814 806 805
f 814 815 807 806
f 815 816 808 807
f 816 817 809 808
f 817 818 810 809
f 818 819 811 810
f 819 820 812 811
f 820 813 805 812
f 821 822 814 813
f 822 823 815 814
f 823 824 816 815
f 824 825 817 816
f 825 826 818 817
f 826 827 819 818
f 827 828 820 819
f 828 821 813 820
f 829 830 822 821
f 830 831 823 822
f 831 832 824 823
f 832 833 825 824
f 833 834 826 825
f 834 835 827 826
f 835 836 828 827
f 836 829 821 828
f 837 838 830 829
f 838 839 831 830
f 839 840 832 831
f 840 841 833 832
f 841 842 834 833
f 842 843 835 834
f 843 844 836 835
f 844 837 829 836
f 845 846 838 837
f 846 847 839 838
f 847 848 840 839
f 848 849 841 840
f 849 850 842 841
f 850 851 843 842
f 851 852 844 843
f 852 845 837 844
f 853 854 846 845
f 854 855 847 846
f 855 856 848 847
f 856 857 849 848
f 857 858 850 849
f 858 859 851 850
f 859 860 852 851
f 860 853 845 852
f 861 862 854 853
f 862 863 855 854
f 863 864 856 855
f 864 865 857 856
f 865 866 858 857
f 866 867 859 858
f 867 868 860 859
f 868 861 853 860
f 719 722 720
f 722 724 720
f 724 726 720
f 726 728 720
f 728 730 720
f 730 732 720
f 863 862 861
f 864 863 861
f 865 864 861
f 866 865 861
f 867 866 861
f 868 867 861
f 869 870 871 872
f 873 874 875 876
f 873 872 871 874
f 876 875 870 869
f 874 871 870 875
f 873 876 869 872
f 877 878 879 880
f 878 881 882 879
f 881 883 884 882
f 883 885 886 884
f 885 887 888 886
f 887 877 880 888
f 881 878 877
f 883 881 877
f 885 883 877
f 887 885 877
f 879 882 880
f 882 884 880
f 884 886 880
f 886 888 880
f 889 890 891 892
f 893 894 895 896
f 893 892 891 894
f 896 895 890 889
f 894 891 890 895
f 893 896 889 892
f 897 898 899 900
f 898 901 902 899
f 901 903 904 902
f 903 905 906 904
f 905 907 908 906
f 907 897 900 908
f 901 898 897
f 903 901 897
f 905 903 897
f 907 905 897
f 899 902 900
f 902 904 900
f 904 906 900
f 906 908 900
f 909 910 911 912
f 910 913 914 911
f 913 915 916 914
f 915 917 918 916
f 917 919 920 918
f 912 911 921 922
f 911 914 923 921
f 914 916 924 923
f 916 918 925 924
f 918 920 926 925
f 922 921 927 928
f 921 923 929 927
f 923 924 930 929
f 924 925 931 930
f 925 926 932 931
f 928 927 933 934
f 927 929 935 933
f 929 930 936 935
f 930 931 937 936
f 931 932 938 937
f 934 933 939 940
f 933 935 941 939
f 935 936 942 941
f 936 937 943 942
f 937 938 944 943
f 940 939 945 946
f 939 941 947 945
f 941 942 948 947
f 942 943 949 948
f 943 944 950 949
f 946 945 951 952
f 945 947 953 951
f 947 948 954 953
f 948 949 955 954
f 949 950 956 955
f 952 951 957 958
f 951 953 959 957
f 953 954 960 959
f 954 955 961 960
f 955 956 962 961
f 958 957 963 964
f 957 959 965 963
f 959 960 966 965
f 960 961 967 966
f 961 962 968 967
f 964 963 969 970
f 963 965 971 969
f 965 966 972 971
f 966 967 973 972
f 967 968 974 973
f 970 969 975 976
f 969 971 977 975
f 971 972 978 977
f 972 973 979 978
f 973 974 980 979
f 976 975 981 982
f 975 977 983 981
f 977 978 984 983
f 978 979 985 984
f 979 980 986 985
f 982 981 987 988
f 981 983 989 987
f 983 984 990 989
f 984 985 991 990
f 985 986 992 991
f 988 987 993 994
f 987 989 995 993
f 989 990 996 995
f 990 991 997 996
f 991 992 998 997
f 994 993 999 1000
f 993 995 1001 999
f 995 996 1002 1001
f 996 997 1003 1002
f 997 998 1004 1003
f 1000 999 1005 1006
f 999 1001 1007 1005
f 1001 1002 1008 1007
f 1002 1003 1009 1008
f 1003 1004 1010 1009
f 1006 1005 1011 1012
f 1005 1007 1013 1011
f 1007 1008 1014 1013
f 1008 1009 1015 1014
f 1009 1010 1016 1015
f 1012 1011 1017 1018
f 1011 1013 1019 1017
f 1013 1014 1020 1019
f 1014 1015 1021 1020
f 1015 1016 1022 1021
f 919 910 909
f 919 913 910
f 919 915 913
f 919 917 915
f 1022 1018 1017
f 1022 1017 1019
f 1022 1019 1020
f 1022 1020 1021
f 1023 1024 1025 1026
f 1024 1027 1028 1025
f 1027 1029 1030 1028
f 1029 1031 1032 1030
f 1031 1033 1034 1032
f 1033 1035 1036 1034
f 1035 1037 1038 1036
f 1037 1023 1026 1038
f 1039 1040 1024 1023
f 1040 1041 1027 1024
f 1041 1042 1029 1027
f 1042 1043 1031 1029
f 1043 1044 1033 1031
f 1044 1045 1035 1033
f 1045 1046 1037 1035
f 1046 1039 1023 1037
f 1047 1048 1040 1039
f 1048 1049 1041 1040
f 1049 1050 1042 1041
f 1050 1051 1043 1042
f 1051 1052 1044 1043
f 1052 1053 1045 1044
f 1053 1054 1046 1045
f 1054 1047 1039 1046
f 1055 1056 1048 1047
f 1056 1057 1049 1048
f 1057 1058 1050 1049
f 1058 1059 1051 1050
f 1059 1060 1052 1051
f 1060 1061 1053 1052
f 1061 1062 1054 1053
f 1062 1055 1047 1054
f 1063 1064 1056 1055
f 1064 1065 1057 1056
f 1065 1066 1058 1057
f 1066 1067 1059 1058
f 1067 1068 1060 1059
f 1068 1069 1061 1060
f 1069 1070 1062 1061
f 1070 1063 1055 1062
f 1071 1072 1064 1063
f 1072 1073 1065 1064
f 1073 1074 1066 1065
f 1074 1075 1067 1066
f 1075 1076 1068 1067
f 1076 1077 1069 1068
f 1077 1078 1070 1069
f 1078 1071 1063 1070
f 1079 1080 1072 1071
f 1080 1081 1073 1072
f 1081 1082 1074 1073
f 1082 1083 1075 1074
f 1083 1084 1076 1075
f 1084 1085 1077 1076
f 1085 1086 1078 1077
f 1086 1079 1071 1078
f 1087 1088 1080 1079
f 1088 1089 1081 1080
f 1089 1090 1082 1081
f 1090 1091 1083 1082
f 1091 1092 1084 1083
f 1092 1093 1085 1084
f 1093 1094 1086 1085
f 1094 1087 1079 1086
f 1095 1096 1088 1087
f 1096 1097 1089 1088
f 1097 1098 1090 1089
f 1098 1099 1091 1090
f 1099 1100 1092 1091
f 1100 1101 1093 1092
f 1101 1102 1094 1093
f 1102 1095 1087 1094
f 1103 1104 1096 1095
f 1104 1105 1097 1096
f 1105 1106 1098 1097
f 1106 1107 1099 1098
f 1107 1108 1100 1099
f 1108 1109 1101 1100
f 1109 1110 1102 1101
f 1110 1103 1095 1102
f 1111 1112 1104 1103
f 1112 1113 1105 1104
f 1113 1114 1106 1105
f 1114 1115 1107 1106
f 1115 1116 1108 1107
f 1116 1117 1109 1108
f 1117 1118 1110 1109
f 1118 1111 1103 1110
f 1119 1120 1112 1111
f 1120 1121 1113 1112
f 1121 1122 1114 1113
f 1122 1123 1115 1114
f 1123 1124 1116 1115
f 1124 1125 1117 1116
f 1125 1126 1118 1117
f 1126 1119 1111 1118
f 1127 1128 1120 1119
f 1128 1129 1121 1120
f 1129 1130 1122 1121
f 1130 1131 1123 1122
f 1131 1132 1124 1123
f 1132 1133 1125 1124
f 1133 1134 1126 1125
f 1134 1127 1119 1126
f 1135 1136 1128 1127
f 1136 1137 1129 1128
f 1137 1138 1130 1129
f 1138 1139 1131 1130
f 1139 1140 1132 1131
f 1140 1141 1133 1132
f 1141 1142 1134 1133
f 1142 1135 1127 1134
f 1143 1144 1136 1135
f 1144 1145 1137 1136
f 1145 1146 1138 1137
f 1146 1147 1139 1138
f 1147 1148 1140 1139
f 1148 1149 1141 1140
f 1149 1150 1142 1141
f 1150 1143 1135 1142
f 1151 1152 1144 1143
f 1152 1153 1145 1144
f 1153 1154 1146 1145
f 1154 1155 1147 1146
f 1155 1156 1148 1147
f 1156 1157 1149 1148
f 1157 1158 1150 1149
f 1158 1151 1143 1150
f 1159 1160 1152 1151
f 1160 1161 1153 1152
f 1161 1162 1154 1153
f 1162 1163 1155 1154
f 1163 1164 1156 1155
f 1164 1165 1157 1156
f 1165 1166 1158 1157
f 1166 1159 1151 1158
f 1167 1168 1160 1159
f 1168 1169 1161 1160
f 1169 1170 1162 1161
f 1170 1171 1163 1162
f 1171 1172 1164 1163
f 1172 1173 1165 1164
f 1173 1174 1166 1165
f 1174 1167 1159 1166
f 1025 1028 1026
f 1028 1030 1026
f 1030 1032 1026
f 1032 1034 1026
f 1034 1036 1026
f 1036 1038 1026
f 1169 1168 1167
f 1170 1169 1167
f 1171 1170 1167
f 1172 1171 1167
f 1173 1172 1167
f 1174 1173 1167
f 1175 1176 1177 1178
f 1176 1179 1180 1177
f 1179 1181 1182 1180
f 1181 1183 1184 1182
f 1183 1185 1186 1184
f 1185 1187 1188 1186
f 1187 1189 1190 1188
f 1189 1175 1178 1190
f 1191 1192 1176 1175
f 1192 1193 1179 1176
f 1193 1194 1181 1179
f 1194 1195 1183 1181
f 1195 1196 1185 1183
f 1196 1197 1187 1185
f 1197 1198 1189 1187
f 1198 1191 1175 1189
f 1199 1200 1192 1191
f 1200 1201 1193 1192
f 1201 1202 1194 1193
f 1202 1203 1195 1194
f 1203 1204 1196 1195
f 1204 1205 1197 1196
f 1205 1206 1198 1197
f 1206 1199 1191 1198
f 1207 1208 1200 1199
f 1208 1209 1201 1200
f 1209 1210 1202 1201
f 1210 1211 1203 1202
f 1211 1212 1204 1203
f 1212 1213 1205 1204
f 1213 1214 1206 1205
f 1214 1207 1199 1206
f 1215 1216 1208 1207
f 1216 1217 1209 1208
f 1217 1218 1210 1209
f 1218 1219 1211 1210
f 1219 1220 1212 1211
f 1220 1221 1213 1212
f 1221 1222 1214 1213
f 1222 1215 1207 1214
f 1223 1224 1216 1215
f 1224 1225 1217 1216
f 1225 1226 1218 1217
f 1226 1227 1219 1218
f 1227 1228 1220 1219
f 1228 1229 1221 1220
f 1229 1230 1222 1221
f 1230 1223 1215 1222
f 1231 1232 1224 1223
f 1232 1233 1225 1224
f 1233 1234 1226 1225
f 1234 1235 1227 1226
f 1235 1236 1228 1227
f 1236 1237 1229 1228
f 1237 1238 1230 1229
f 1238 1231 1223 1230
f 1239 1240 1232 1231
f 1240 1241 1233 1232
f 1241 1242 1234 1233
f 1242 1243 1235 1234
f 1243 1244 1236 1235
f 1244 1245 1237 1236
f 1245 1246 1238 1237
f 1246 1239 1231 1238
f 1247 1248 1240 1239
f 1248 1249 1241 1240
f 1249 1250 1242 1241
f 1250 1251 1243 1242
f 1251 1252 1244 1243
f 1252 1253 1245 1244
f 1253 1254 1246 1245
f 1254 1247 1239 1246
f 1255 1256 1248 1247
f 1256 1257 1249 1248
f 1257 1258 1250 1249
f 1258 1259 1251 1250
f 1259 1260 1252 1251
f 1260 1261 1253 1252
f 1261 1262 1254 1253
f 1262 1255 1247 1254
f 1263 1264 1256 1255
f 1264 1265 1257 1256
f 1265 1266 1258 1257
f 1266 1267 1259 1258
f 1267 1268 1260 1259
f 1268 1269 1261 1260
f 1269 1270 1262 1261
f 1270 1263 1255 1262
f 1271 1272 1264 1263
f 1272 1273 1265 1264
f 1273 1274 1266 1265
f 1274 1275 1267 1266
f 1275 1276 1268 1267
f 1276 1277 1269 1268
f 1277 1278 1270 1269
f 1278 1271 1263 1270
f 1279 1280 1272 1271
f 1280 1281 1273 1272
f 1281 1282 1274 1273
f 1282 1283 1275 1274
f 1283 1284 1276 1275
f 1284 1285 1277 1276
f 1285 1286 1278 1277
f 1286 1279 1271 1278
f 1287 1288 1280 1279
f 1288 1289 1281 1280
f 1289 1290 1282 1281
f 1290 1291 1283 1282
f 1291 1292 1284 1283
f 1292 1293 1285 1284
f 1293 1294 1286 1285
f 1294 1287 1279 1286
f 1295 1296 1288 1287
f 1296 1297 1289 1288
f 1297 1298 1290 1289
f 1298 1299 1291 1290
f 1299 1300 1292 1291
f 1300 1301 1293 1292
f 1301 1302 1294 1293
f 1302 1295 1287 1294
f 1303 1304 1296 1295
f 1304 1305 1297 1296
f 1305 1306 1298 1297
f 1306 1307 1299 1298
f 1307 1308 1300 1299
f 1308 1309 1301 1300
f 1309 1310 1302 1301
f 1310 1303 1295 1302
f 1311 1312 1304 1303
f 1312 1313 1305 1304
f 1313 1314 1306 1305
f 1314 1315 1307 1306
f 1315 1316 1308 1307
f 1316 1317 1309 1308
f 1317 1318 1310 1309
f 1318 1311 1303 1310
f 1319 1320 1312 1311
f 1320 1321 1313 1312
f 1321 1322 1314 1313
f 1322 1323 1315 1314
f 1323 1324 1316 1315
f 1324 1325 1317 1316
f 1325 1326 1318 1317
f 1326 1319 1311 1318
f 1177 1180 1178
f 1180 1182 1178
f 1182 1184 1178
f 1184 1186 1178
f 1186 1188 1178
f 1188 1190 1178
f 1321 1320 1319
f 1322 1321 1319
f 1323 1322 1319
f 1324 1323 1319
f 1325 1324 1319
f 1326 1325 1319
f 1327 1328 1329 1330
f 1331 1332 1333 1334
f 1331 1330 1329 1332
f 1334 1333 1328 1327
f 1332 1329 1328 1333
f 1331 1334 1327 1330
f 1335 1336 1337 1338
f 1336 1339 1340 1337
f 1339 1341 1342 1340
f 1341 1343 1344 1342
f 1343 1345 1346 1344
f 1345 1335 1338 1346
f 1339 1336 1335
f 1341 1339 1335
f 1343 1341 1335
f 1345 1343 1335
f 1337 1340 1338
f 1340 1342 1338
f 1342 1344 1338
f 1344 1346 1338
f 1347 1348 1349 1350
f 1351 1352 1353 1354
f 1351 1350 1349 1352
f 1354 1353 1348 1347
f 1352 1349 1348 1353
f 1351 1354 1347 1350
f 1355 1356 1357 1358
f 1356 1359 1360 1357
f 1359 1361 1362 1360
f 1361 1363 1364 1362
f 1363 1365 1366 1364
f 1365 1355 1358 1366
f 1359 1356 1355
f 1361 1359 1355
f 1363 1361 1355
f 1365 1363 1355
f 1357 1360 1358
f 1360 1362 1358
f 1362 1364 1358
f 1364 1366 1358
f 1367 1368 1369 1370
f 1368 1371 1372 1369
f 1371 1373 1374 1372
f 1373 1375 1376 1374
f 1375 1377 1378 1376
f 1377 1379 1380 1378
f 1379 1381 1382 1380
f 1381 1367 1370 1382
f 1383 1384 1368 1367
f 1384 1385 1371 1368
f 1385 1386 1373 1371
f 1386 1387 1375 1373
f 1387 1388 1377 1375
f 1388 1389 1379 1377
f 1389 1390 1381 1379
f 1390 1383 1367 1381
f 1391 1392 1384 1383
f 1392 1393 1385 1384
f 1393 1394 1386 1385
f 1394 1395 1387 1386
f 1395 1396 1388 1387
f 1396 1397 1389 1388
f 1397 1398 1390 1389
f 1398 1391 1383 1390
f 1399 1400 1392 1391
f 1400 1401 1393 1392
f 1401 1402 1394 1393
f 1402 1403 1395 1394
f 1403 1404 1396 1395
f 1404 1405 1397 1396
f 1405 1406 1398 1397
f 1406 1399 1391 1398
f 1369 1372 1370
f 1372 1374 1370
f 1374 1376 1370
f 1376 1378 1370
f 1378 1380 1370
f 1380 1382 1370
f 1401 1400 1399
f 1402 1401 1399
f 1403 1402 1399
f 1404 1403 1399
f 1405 1404 1399
f 1406 1405 1399
f 1407 1408 1409 1410
f 1408 1411 1412 1409
f 1411 1413 1414 1412
f 1413 1415 1416 1414
f 1415 1417 1418 1416
f 1417 1419 1420 1418
f 1419 1421 1422 1420
f 1421 1407 1410 1422
f 1409 1412 1410
f 1412 1414 1410
f 1414 1416 1410
f 1416 1418 1410
f 1418 1420 1410
f 1420 1422 1410
f 1411 1408 1407
f 1413 1411 1407
f 1415 1413 1407
f 1417 1415 1407
f 1419 1417 1407
f 1421 1419 1407
f 1423 1424 1425 1426
f 1424 1427 1428 1425
f 1427 1429 1430 1428
f 1429 1431 1432 1430
f 1431 1433 1434 1432
f 1433 1435 1436 1434
f 1435 1437 1438 1436
f 1437 1423 1426 1438
f 1439 1440 1424 1423
f 1440 1441 1427 1424
f 1441 1442 1429 1427
f 1442 1443 1431 1429
f 1443 1444 1433 1431
f 1444 1445 1435 1433
f 1445 1446 1437 1435
f 1446 1439 1423 1437
f 1447 1448 1440 1439
f 1448 1449 1441 1440
f 1449 1450 1442 1441
f 1450 1451 1443 1442
f 1451 1452 1444 1443
f 1452 1453 1445 1444
f 1453 1454 1446 1445
f 1454 1447 1439 1446
f 1455 1456 1448 1447
f 1456 1457 1449 1448
f 1457 1458 1450 1449
f 1458 1459 1451 1450
f 1459 1460 1452 1451
f 1460 1461 1453 1452
f 1461 1462 1454 1453
f 1462 1455 1447 1454
f 1425 1428 1426
f 1428 1430 1426
f 1430 1432 1426
f 1432 1434 1426
f 1434 1436 1426
f 1436 1438 1426
f 1457 1456 1455
f 1458 1457 1455
f 1459 1458 1455
f 1460 1459 1455
f 1461 1460 1455
f 1462 1461 1455
f 1463 1464 1465 1466
f 1464 1467 1468 1465
f 1467 1469 1470 1468
f 1469 1471 1472 1470
f 1471 1473 1474 1472
f 1473 1475 1476 1474
f 1475 1477 1478 1476
f 1477 1463 1466 1478
f 1479 1480 1464 1463
f 1480 1481 1467 1464
f 1481 1482 1469 1467
f 1482 1483 1471 1469
f 1483 1484 1473 1471
f 1484 1485 1475 1473
f 1485 1486 1477 1475
f 1486 1479 1463 1477
f 1487 1488 1480 1479
f 1488 1489 1481 1480
f 1489 1490 1482 1481
f 1490 1491 1483 1482
f 1491 1492 1484 1483
f 1492 1493 1485 1484
f 1493 1494 1486 1485
f 1494 1487 1479 1486
f 1495 1496 1488 1487
f 1496 1497 1489 1488
f 1497 1498 1490 1489
f 1498 1499 1491 1490
f 1499 1500 1492 1491
f 1500 1501 1493 1492
f 1501 1502 1494 1493
f 1502 1495 1487 1494
f 1503 1504 1496 1495
f 1504 1505 1497 1496
f 1505 1506 1498 1497
f 1506 1507 1499 1498
f 1507 1508 1500 1499
f 1508 1509 1501 1500
f 1509 1510 1502 1501
f 1510 1503 1495 1502
f 1511 1512 1504 1503
f 1512 1513 1505 1504
f 1513 1514 1506 1505
f 1514 1515 1507 1506
f 1515 1516 1508 1507
f 1516 1517 1509 1508
f 1517 1518 1510 1509
f 1518 1511 1503 1510
f 1519 1520 1512 1511
f 1520 1521 1513 1512
f 1521 1522 1514 1513
f 1522 1523 1515 1514
f 1523 1524 1516 1515
f 1524 1525 1517 1516
f 1525 1526 1518 1517
f 1526 1519 1511 1518
f 1527 1528 1520 1519
f 1528 1529 1521 1520
f 1529 1530 1522 1521
f 1530 1531 1523 1522
f 1531 1532 1524 1523
f 1532 1533 1525 1524
f 1533 1534 1526 1525
f 1534 1527 1519 1526
f 1535 1536 1528 1527
f 1536 1537 1529 1528
f 1537 1538 1530 1529
f 1538 1539 1531 1530
f 1539 1540 1532 1531
f 1540 1541 1533 1532
f 1541 1542 1534 1533
f 1542 1535 1527 1534
f 1465 1468 1466
f 1468 1470 1466
f 1470 1472 1466
f 1472 1474 1466
f 1474 1476 1466
f 1476 1478 1466
f 1537 1536 1535
f 1538 1537 1535
f 1539 1538 1535
f 1540 1539 1535
f 1541 1540 1535
f 1542 1541 1535
f 1543 1544 1545 1546
f 1544 1547 1548 1545
f 1547 1549 1550 1548
f 1549 1551 1552 1550
f 1551 1553 1554 1552
f 1553 1555 1556 1554
f 1555 1557 1558 1556
f 1557 1543 1546 1558
f 1559 1560 1544 1543
f 1560 1561 1547 1544
f 1561 1562 1549 1547
f 1562 1563 1551 1549
f 1563 1564 1553 1551
f 1564 1565 1555 1553
f 1565 1566 1557 1555
f 1566 1559 1543 1557
f 1567 1568 1560 1559
f 1568 1569 1561 1560
f 1569 1570 1562 1561
f 1570 1571 1563 1562
f 1571 1572 1564 1563
f 1572 1573 1565 1564
f 1573 1574 1566 1565
f 1574 1567 1559 1566
f 1575 1576 1568 1567
f 1576 1577 1569 1568
f 1577 1578 1570 1569
f 1578 1579 1571 1570
f 1579 1580 1572 1571
f 1580 1581 1573 1572
f 1581 1582 1574 1573
f 1582 1575 1567 1574
f 1583 1584 1576 1575
f 1584 1585 1577 1576
f 1585 1586 1578 1577
f 1586 1587 1579 1578
f 1587 1588 1580 1579
f 1588 1589 1581 1580
f 1589 1590 1582 1581
f 1590 1583 1575 1582
f 1591 1592 1584 1583
f 1592 1593 1585 1584
f 1593 1594 1586 1585
f 1594 1595 1587 1586
f 1595 1596 1588 1587
f 1596 1597 1589 1588
f 1597 1598 1590 1589
f 1598 1591 1583 1590
f 1599 1600 1592 1591
f 1600 1601 1593 1592
f 1601 1602 1594 1593
f 1602 1603 1595 1594
f 1603 1604 1596 1595
f 1604 1605 1597 1596
f 1605 1606 1598 1597
f 1606 1599 1591 1598
f 1607 1608 1600 1599
f 1608 1609 1601 1600
f 1609 1610 1602 1601
f 1610 1611 1603 1602
f 1611 1612 1604 1603
f 1612 1613 1605 1604
f 1613 1614 1606 1605
f 1614 1607 1599 1606
f 1615 1616 1608 1607
f 1616 1617 1609 1608
f 1617 1618 1610 1609
f 1618 1619 1611 1610
f 1619 1620 1612 1611
f 1620 1621 1613 1612
f 1621 1622 1614 1613
f 1622 1615 1607 1614
f 1545 1548 1546
f 1548 1550 1546
f 1550 1552 1546
f 1552 1554 1546
f 1554 1556 1546
f 1556 1558 1546
f 1617 1616 1615
f 1618 1617 1615
f 1619 1618 1615
f 1620 1619 1615
f 1621 1620 1615
f 1622 1621 1615
f 1623 1624 1625 1626
f 1624 1627 1628 1625
f 1627 1629 1630 1628
f 1629 1623 1626 1630
f 1627 1624 1623
f 1629 1627 1623
f 1625 1628 1626
f 1628 1630 1626
f 1631 1632 1633 1634
f 1635 1636 1637 1638
f 1635 1634 1633 1636
f 1638 1637 1632 1631
f 1636 1633 1632 1637
f 1635 1638 1631 1634
f 1639 1640 1641 1642
f 1643 1644 1645 1646
f 1643 1642 1641 1644
f 1646 1645 1640 1639
f 1644 1641 1640 1645
f 1643 1646 1639 1642
f 1647 1648 1649 1650
f 1648 1651 1652 1649
f 1651 1653 1654 1652
f 1653 1647 1650 1654
f 1651 1648 1647
f 1653 1651 1647
f 1649 1652 1650
f 1652 1654 1650
f 1655 1656 1657 1658
f 1659 1660 1661 1662
f 1659 1658 1657 1660
f 1662 1661 1656 1655
f 1660 1657 1656 1661
f 1659 1662 1655 1658
f 1663 1664 1665 1666
f 1667 1668 1669 1670
f 1667 1666 1665 1668
f 1670 1669 1664 1663
f 1668 1665 1664 1669
f 1667 1670 1663 1666
f 1671 1672 1673 1674
f 1672 1675 1676 1673
f 1675 1677 1678 1676
f 1677 1671 1674 1678
f 1675 1672 1671
f 1677 1675 1671
f 1673 1676 1674
f 1676 1678 1674
f 1679 1680 1681 1682
f 1683 1684 1685 1686
f 1683 1682 1681 1684
f 1686 1685 1680 1679
f 1684 1681 1680 1685
f 1683 1686 1679 1682
f 1687 1688 1689 1690
f 1691 1692 1693 1694
f 1691 1690 1689 1692
f 1694 1693 1688 1687
f 1692 1689 1688 1693
f 1691 1694 1687 1690
f 1695 1696 1697 1698
f 1696 1699 1700 1697
f 1699 1701 1702 1700
f 1701 1695 1698 1702
f 1699 1696 1695
f 1701 1699 1695
f 1697 1700 1698
f 1700 1702 1698
f 1703 1704 1705 1706
f 1707 1708 1709 1710
f 1707 1706 1705 1708
f 1710 1709 1704 1703
f 1708 1705 1704 1709
f 1707 1710 1703 1706
f 1711 1712 1713 1714
f 1715 1716 1717 1718
f 1715 1714 1713 1716
f 1718 1717 1712 1711
f 1716 1713 1712 1717
f 1715 1718 1711 1714
f 1719 1720 1721 1722
f 1720 1723 1724 1721
f 1723 1725 1726 1724
f 1725 1719 1722 1726
f 1723 1720 1719
f 1725 1723 1719
f 1721 1724 1722
f 1724 1726 1722
f 1727 1728 1729 1730
f 1731 1732 1733 1734
f 1731 1730 1729 1732
f 1734 1733 1728 1727
f 1732 1729 1728 1733
f 1731 1734 1727 1730
f 1735 1736 1737 1738
f 1739 1740 1741 1742
f 1739 1738 1737 1740
f 1742 1741 1736 1735
f 1740 1737 1736 1741
f 1739 1742 1735 1738
f 1743 1744 1745 1746
f 1744 1747 1748 1745
f 1747 1749 1750 1748
f 1749 1743 1746 1750
f 1747 1744 1743
f 1749 1747 1743
f 1745 1748 1746
f 1748 1750 1746
f 1751 1752 1753 1754
f 1755 1756 1757 1758
f 1755 1754 1753 1756
f 1758 1757 1752 1751
f 1756 1753 1752 1757
f 1755 1758 1751 1754
f 1759 1760 1761 1762
f 1763 1764 1765 1766
f 1763 1762 1761 1764
f 1766 1765 1760 1759
f 1764 1761 1760 1765
f 1763 1766 1759 1762
