# Vía Expresa Elevada — pieza "4-ciclovia"
# Impórtala a Tinkercad y píntala con el balde de pintura.
# Las seis piezas usan las mismas coordenadas, así que calzan solas.

v -105.000 0.170 -27.500
v -81.667 0.170 -27.500
v -81.667 0.170 -30.000
v -105.000 0.170 -30.000
v -105.000 0.020 -30.000
v -81.667 0.020 -30.000
v -81.667 0.020 -27.500
v -105.000 0.020 -27.500
v -81.667 0.170 -27.500
v -58.333 0.170 -27.500
v -58.333 0.170 -30.000
v -81.667 0.170 -30.000
v -81.667 0.020 -30.000
v -58.333 0.020 -30.000
v -58.333 0.020 -27.500
v -81.667 0.020 -27.500
v -58.333 0.170 -27.500
v -35.000 0.170 -27.500
v -35.000 0.170 -30.000
v -58.333 0.170 -30.000
v -58.333 0.020 -30.000
v -35.000 0.020 -30.000
v -35.000 0.020 -27.500
v -58.333 0.020 -27.500
v -35.000 0.170 -27.500
v -11.667 0.170 -27.500
v -11.667 0.170 -30.000
v -35.000 0.170 -30.000
v -35.000 0.020 -30.000
v -11.667 0.020 -30.000
v -11.667 0.020 -27.500
v -35.000 0.020 -27.500
v -11.667 0.170 -27.500
v 11.667 0.170 -27.500
v 11.667 0.170 -30.000
v -11.667 0.170 -30.000
v -11.667 0.020 -30.000
v 11.667 0.020 -30.000
v 11.667 0.020 -27.500
v -11.667 0.020 -27.500
v 11.667 0.170 -27.500
v 35.000 0.170 -27.500
v 35.000 0.170 -30.000
v 11.667 0.170 -30.000
v 11.667 0.020 -30.000
v 35.000 0.020 -30.000
v 35.000 0.020 -27.500
v 11.667 0.020 -27.500
v 35.000 0.170 -27.500
v 58.333 0.170 -27.500
v 58.333 0.170 -30.000
v 35.000 0.170 -30.000
v 35.000 0.020 -30.000
v 58.333 0.020 -30.000
v 58.333 0.020 -27.500
v 35.000 0.020 -27.500
v 58.333 0.170 -27.500
v 81.667 0.170 -27.500
v 81.667 0.170 -30.000
v 58.333 0.170 -30.000
v 58.333 0.020 -30.000
v 81.667 0.020 -30.000
v 81.667 0.020 -27.500
v 58.333 0.020 -27.500
v 81.667 0.170 -27.500
v 105.000 0.170 -27.500
v 105.000 0.170 -30.000
v 81.667 0.170 -30.000
v 81.667 0.020 -30.000
v 105.000 0.020 -30.000
v 105.000 0.020 -27.500
v 81.667 0.020 -27.500

f 1 2 3 4
f 5 6 7 8
f 5 4 3 6
f 8 7 2 1
f 5 8 1 4
f 9 10 11 12
f 13 14 15 16
f 13 12 11 14
f 16 15 10 9
f 17 18 19 20
f 21 22 23 24
f 21 20 19 22
f 24 23 18 17
f 25 26 27 28
f 29 30 31 32
f 29 28 27 30
f 32 31 26 25
f 33 34 35 36
f 37 38 39 40
f 37 36 35 38
f 40 39 34 33
f 41 42 43 44
f 45 46 47 48
f 45 44 43 46
f 48 47 42 41
f 49 50 51 52
f 53 54 55 56
f 53 52 51 54
f 56 55 50 49
f 57 58 59 60
f 61 62 63 64
f 61 60 59 62
f 64 63 58 57
f 65 66 67 68
f 69 70 71 72
f 69 68 67 70
f 72 71 66 65
f 70 67 66 71
