# Vía Expresa Elevada — pieza "5-carros-y-buses"
# Impórtala a Tinkercad y píntala con el balde de pintura.
# Las seis piezas usan las mismas coordenadas, así que calzan solas.

v -4.600 0.470 7.950
v -4.600 0.470 10.550
v -13.000 0.470 10.550
v -13.000 0.470 7.950
v -4.600 3.200 7.950
v -4.600 3.200 10.550
v -13.000 3.200 7.950
v -13.000 3.200 10.550
v -4.900 2.100 7.920
v -4.900 2.100 10.580
v -12.700 2.100 10.580
v -12.700 2.100 7.920
v -4.900 2.900 7.920
v -4.900 2.900 10.580
v -12.700 2.900 7.920
v -12.700 2.900 10.580
v -4.800 1.300 7.920
v -4.800 1.300 10.580
v -12.800 1.300 10.580
v -12.800 1.300 7.920
v -4.800 1.650 7.920
v -4.800 1.650 10.580
v -12.800 1.650 7.920
v -12.800 1.650 10.580
v 5.000 0.470 7.950
v 5.000 0.470 10.550
v -3.400 0.470 10.550
v -3.400 0.470 7.950
v 5.000 3.200 7.950
v 5.000 3.200 10.550
v -3.400 3.200 7.950
v -3.400 3.200 10.550
v 4.700 2.100 7.920
v 4.700 2.100 10.580
v -3.100 2.100 10.580
v -3.100 2.100 7.920
v 4.700 2.900 7.920
v 4.700 2.900 10.580
v -3.100 2.900 7.920
v -3.100 2.900 10.580
v 4.800 1.300 7.920
v 4.800 1.300 10.580
v -3.200 1.300 10.580
v -3.200 1.300 7.920
v 4.800 1.650 7.920
v 4.800 1.650 10.580
v -3.200 1.650 7.920
v -3.200 1.650 10.580
v -4.700 3.050 10.400
v -3.300 3.050 10.400
v -3.300 3.050 8.100
v -4.700 3.050 8.100
v -4.700 0.750 8.100
v -3.300 0.750 8.100
v -3.300 0.750 10.400
v -4.700 0.750 10.400
v -87.280 17.440 -2.380
v -86.720 17.440 -2.380
v -86.720 17.440 -2.820
v -87.280 17.440 -2.820
v -87.280 17.160 -2.820
v -86.720 17.160 -2.820
v -86.720 17.160 -2.380
v -87.280 17.160 -2.380
v -87.280 17.440 2.820
v -86.720 17.440 2.820
v -86.720 17.440 2.380
v -87.280 17.440 2.380
v -87.280 17.160 2.380
v -86.720 17.160 2.380
v -86.720 17.160 2.820
v -87.280 17.160 2.820
v -53.280 17.440 -2.380
v -52.720 17.440 -2.380
v -52.720 17.440 -2.820
v -53.280 17.440 -2.820
v -53.280 17.160 -2.820
v -52.720 17.160 -2.820
v -52.720 17.160 -2.380
v -53.280 17.160 -2.380
v -53.280 17.440 2.820
v -52.720 17.440 2.820
v -52.720 17.440 2.380
v -53.280 17.440 2.380
v -53.280 17.160 2.380
v -52.720 17.160 2.380
v -52.720 17.160 2.820
v -53.280 17.160 2.820
v -19.280 17.440 -2.380
v -18.720 17.440 -2.380
v -18.720 17.440 -2.820
v -19.280 17.440 -2.820
v -19.280 17.160 -2.820
v -18.720 17.160 -2.820
v -18.720 17.160 -2.380
v -19.280 17.160 -2.380
v -19.280 17.440 2.820
v -18.720 17.440 2.820
v -18.720 17.440 2.380
v -19.280 17.440 2.380
v -19.280 17.160 2.380
v -18.720 17.160 2.380
v -18.720 17.160 2.820
v -19.280 17.160 2.820
v 14.720 17.440 -2.380
v 15.280 17.440 -2.380
v 15.280 17.440 -2.820
v 14.720 17.440 -2.820
v 14.720 17.160 -2.820
v 15.280 17.160 -2.820
v 15.280 17.160 -2.380
v 14.720 17.160 -2.380
v 14.720 17.440 2.820
v 15.280 17.440 2.820
v 15.280 17.440 2.380
v 14.720 17.440 2.380
v 14.720 17.160 2.380
v 15.280 17.160 2.380
v 15.280 17.160 2.820
v 14.720 17.160 2.820
v 48.720 17.440 -2.380
v 49.280 17.440 -2.380
v 49.280 17.440 -2.820
v 48.720 17.440 -2.820
v 48.720 17.160 -2.820
v 49.280 17.160 -2.820
v 49.280 17.160 -2.380
v 48.720 17.160 -2.380
v 48.720 17.440 2.820
v 49.280 17.440 2.820
v 49.280 17.440 2.380
v 48.720 17.440 2.380
v 48.720 17.160 2.380
v 49.280 17.160 2.380
v 49.280 17.160 2.820
v 48.720 17.160 2.820
v 82.720 17.440 -2.380
v 83.280 17.440 -2.380
v 83.280 17.440 -2.820
v 82.720 17.440 -2.820
v 82.720 17.160 -2.820
v 83.280 17.160 -2.820
v 83.280 17.160 -2.380
v 82.720 17.160 -2.380
v 82.720 17.440 2.820
v 83.280 17.440 2.820
v 83.280 17.440 2.380
v 82.720 17.440 2.380
v 82.720 17.160 2.380
v 83.280 17.160 2.380
v 83.280 17.160 2.820
v 82.720 17.160 2.820
v -83.850 10.360 -6.120
v -83.850 10.360 -4.280
v -88.150 10.360 -4.280
v -88.150 10.360 -6.120
v -83.850 10.760 -6.120
v -83.850 10.760 -4.280
v -84.550 10.800 -6.120
v -84.550 10.800 -4.280
v -85.100 11.420 -6.120
v -85.100 11.420 -4.280
v -86.800 11.460 -6.120
v -86.800 11.460 -4.280
v -87.400 10.820 -6.120
v -87.400 10.820 -4.280
v -88.150 10.760 -6.120
v -88.150 10.760 -4.280
v -85.080 11.420 -6.000
v -85.080 11.420 -4.400
v -84.700 10.820 -4.400
v -84.700 10.820 -6.000
v -86.780 11.460 -6.000
v -86.780 11.460 -4.400
v -87.280 10.860 -6.000
v -87.280 10.860 -4.400
v -49.850 10.360 -3.320
v -49.850 10.360 -1.480
v -54.150 10.360 -1.480
v -54.150 10.360 -3.320
v -49.850 10.760 -3.320
v -49.850 10.760 -1.480
v -50.550 10.800 -3.320
v -50.550 10.800 -1.480
v -51.100 11.420 -3.320
v -51.100 11.420 -1.480
v -52.800 11.460 -3.320
v -52.800 11.460 -1.480
v -53.400 10.820 -3.320
v -53.400 10.820 -1.480
v -54.150 10.760 -3.320
v -54.150 10.760 -1.480
v -51.080 11.420 -3.200
v -51.080 11.420 -1.600
v -50.700 10.820 -1.600
v -50.700 10.820 -3.200
v -52.780 11.460 -3.200
v -52.780 11.460 -1.600
v -53.280 10.860 -3.200
v -53.280 10.860 -1.600
v -17.850 10.360 -6.120
v -17.850 10.360 -4.280
v -22.150 10.360 -4.280
v -22.150 10.360 -6.120
v -17.850 10.760 -6.120
v -17.850 10.760 -4.280
v -18.550 10.800 -6.120
v -18.550 10.800 -4.280
v -19.100 11.420 -6.120
v -19.100 11.420 -4.280
v -20.800 11.460 -6.120
v -20.800 11.460 -4.280
v -21.400 10.820 -6.120
v -21.400 10.820 -4.280
v -22.150 10.760 -6.120
v -22.150 10.760 -4.280
v -19.080 11.420 -6.000
v -19.080 11.420 -4.400
v -18.700 10.820 -4.400
v -18.700 10.820 -6.000
v -20.780 11.460 -6.000
v -20.780 11.460 -4.400
v -21.280 10.860 -6.000
v -21.280 10.860 -4.400
v 18.150 10.360 -3.320
v 18.150 10.360 -1.480
v 13.850 10.360 -1.480
v 13.850 10.360 -3.320
v 18.150 10.760 -3.320
v 18.150 10.760 -1.480
v 17.450 10.800 -3.320
v 17.450 10.800 -1.480
v 16.900 11.420 -3.320
v 16.900 11.420 -1.480
v 15.200 11.460 -3.320
v 15.200 11.460 -1.480
v 14.600 10.820 -3.320
v 14.600 10.820 -1.480
v 13.850 10.760 -3.320
v 13.850 10.760 -1.480
v 16.920 11.420 -3.200
v 16.920 11.420 -1.600
v 17.300 10.820 -1.600
v 17.300 10.820 -3.200
v 15.220 11.460 -3.200
v 15.220 11.460 -1.600
v 14.720 10.860 -3.200
v 14.720 10.860 -1.600
v 54.150 10.360 -6.120
v 54.150 10.360 -4.280
v 49.850 10.360 -4.280
v 49.850 10.360 -6.120
v 54.150 10.760 -6.120
v 54.150 10.760 -4.280
v 53.450 10.800 -6.120
v 53.450 10.800 -4.280
v 52.900 11.420 -6.120
v 52.900 11.420 -4.280
v 51.200 11.460 -6.120
v 51.200 11.460 -4.280
v 50.600 10.820 -6.120
v 50.600 10.820 -4.280
v 49.850 10.760 -6.120
v 49.850 10.760 -4.280
v 52.920 11.420 -6.000
v 52.920 11.420 -4.400
v 53.300 10.820 -4.400
v 53.300 10.820 -6.000
v 51.220 11.460 -6.000
v 51.220 11.460 -4.400
v 50.720 10.860 -6.000
v 50.720 10.860 -4.400
v 90.150 10.360 -3.320
v 90.150 10.360 -1.480
v 85.850 10.360 -1.480
v 85.850 10.360 -3.320
v 90.150 10.760 -3.320
v 90.150 10.760 -1.480
v 89.450 10.800 -3.320
v 89.450 10.800 -1.480
v 88.900 11.420 -3.320
v 88.900 11.420 -1.480
v 87.200 11.460 -3.320
v 87.200 11.460 -1.480
v 86.600 10.820 -3.320
v 86.600 10.820 -1.480
v 85.850 10.760 -3.320
v 85.850 10.760 -1.480
v 88.920 11.420 -3.200
v 88.920 11.420 -1.600
v 89.300 10.820 -1.600
v 89.300 10.820 -3.200
v 87.220 11.460 -3.200
v 87.220 11.460 -1.600
v 86.720 10.860 -3.200
v 86.720 10.860 -1.600
v -67.850 10.360 1.480
v -67.850 10.360 3.320
v -72.150 10.360 3.320
v -72.150 10.360 1.480
v -67.850 10.760 1.480
v -67.850 10.760 3.320
v -68.550 10.800 1.480
v -68.550 10.800 3.320
v -69.100 11.420 1.480
v -69.100 11.420 3.320
v -70.800 11.460 1.480
v -70.800 11.460 3.320
v -71.400 10.820 1.480
v -71.400 10.820 3.320
v -72.150 10.760 1.480
v -72.150 10.760 3.320
v -69.080 11.420 1.600
v -69.080 11.420 3.200
v -68.700 10.820 3.200
v -68.700 10.820 1.600
v -70.780 11.460 1.600
v -70.780 11.460 3.200
v -71.280 10.860 1.600
v -71.280 10.860 3.200
v -29.850 10.360 4.280
v -29.850 10.360 6.120
v -34.150 10.360 6.120
v -34.150 10.360 4.280
v -29.850 10.760 4.280
v -29.850 10.760 6.120
v -30.550 10.800 4.280
v -30.550 10.800 6.120
v -31.100 11.420 4.280
v -31.100 11.420 6.120
v -32.800 11.460 4.280
v -32.800 11.460 6.120
v -33.400 10.820 4.280
v -33.400 10.820 6.120
v -34.150 10.760 4.280
v -34.150 10.760 6.120
v -31.080 11.420 4.400
v -31.080 11.420 6.000
v -30.700 10.820 6.000
v -30.700 10.820 4.400
v -32.780 11.460 4.400
v -32.780 11.460 6.000
v -33.280 10.860 4.400
v -33.280 10.860 6.000
v 10.150 10.360 1.480
v 10.150 10.360 3.320
v 5.850 10.360 3.320
v 5.850 10.360 1.480
v 10.150 10.760 1.480
v 10.150 10.760 3.320
v 9.450 10.800 1.480
v 9.450 10.800 3.320
v 8.900 11.420 1.480
v 8.900 11.420 3.320
v 7.200 11.460 1.480
v 7.200 11.460 3.320
v 6.600 10.820 1.480
v 6.600 10.820 3.320
v 5.850 10.760 1.480
v 5.850 10.760 3.320
v 8.920 11.420 1.600
v 8.920 11.420 3.200
v 9.300 10.820 3.200
v 9.300 10.820 1.600
v 7.220 11.460 1.600
v 7.220 11.460 3.200
v 6.720 10.860 1.600
v 6.720 10.860 3.200
v 46.150 10.360 4.280
v 46.150 10.360 6.120
v 41.850 10.360 6.120
v 41.850 10.360 4.280
v 46.150 10.760 4.280
v 46.150 10.760 6.120
v 45.450 10.800 4.280
v 45.450 10.800 6.120
v 44.900 11.420 4.280
v 44.900 11.420 6.120
v 43.200 11.460 4.280
v 43.200 11.460 6.120
v 42.600 10.820 4.280
v 42.600 10.820 6.120
v 41.850 10.760 4.280
v 41.850 10.760 6.120
v 44.920 11.420 4.400
v 44.920 11.420 6.000
v 45.300 10.820 6.000
v 45.300 10.820 4.400
v 43.220 11.460 4.400
v 43.220 11.460 6.000
v 42.720 10.860 4.400
v 42.720 10.860 6.000
v 80.150 10.360 1.480
v 80.150 10.360 3.320
v 75.850 10.360 3.320
v 75.850 10.360 1.480
v 80.150 10.760 1.480
v 80.150 10.760 3.320
v 79.450 10.800 1.480
v 79.450 10.800 3.320
v 78.900 11.420 1.480
v 78.900 11.420 3.320
v 77.200 11.460 1.480
v 77.200 11.460 3.320
v 76.600 10.820 1.480
v 76.600 10.820 3.320
v 75.850 10.760 1.480
v 75.850 10.760 3.320
v 78.920 11.420 1.600
v 78.920 11.420 3.200
v 79.300 10.820 3.200
v 79.300 10.820 1.600
v 77.220 11.460 1.600
v 77.220 11.460 3.200
v 76.720 10.860 1.600
v 76.720 10.860 3.200
v 29.830 9.488 -13.280
v 29.830 9.488 -11.440
v 25.530 9.488 -11.440
v 25.530 9.488 -13.280
v 29.830 9.888 -13.280
v 29.830 9.888 -11.440
v 29.130 9.928 -13.280
v 29.130 9.928 -11.440
v 28.580 10.548 -13.280
v 28.580 10.548 -11.440
v 26.880 10.588 -13.280
v 26.880 10.588 -11.440
v 26.280 9.948 -13.280
v 26.280 9.948 -11.440
v 25.530 9.888 -13.280
v 25.530 9.888 -11.440
v 28.600 10.548 -13.160
v 28.600 10.548 -11.560
v 28.980 9.948 -11.560
v 28.980 9.948 -13.160
v 26.900 10.588 -13.160
v 26.900 10.588 -11.560
v 26.400 9.988 -13.160
v 26.400 9.988 -11.560
v 60.850 5.193 -20.095
v 60.850 5.193 -18.255
v 56.550 5.193 -18.255
v 56.550 5.193 -20.095
v 60.850 5.593 -20.095
v 60.850 5.593 -18.255
v 60.150 5.633 -20.095
v 60.150 5.633 -18.255
v 59.600 6.253 -20.095
v 59.600 6.253 -18.255
v 57.900 6.293 -20.095
v 57.900 6.293 -18.255
v 57.300 5.653 -20.095
v 57.300 5.653 -18.255
v 56.550 5.593 -20.095
v 56.550 5.593 -18.255
v 59.620 6.253 -19.975
v 59.620 6.253 -18.375
v 60.000 5.653 -18.375
v 60.000 5.653 -19.975
v 57.920 6.293 -19.975
v 57.920 6.293 -18.375
v 57.420 5.693 -19.975
v 57.420 5.693 -18.375
v 86.230 1.782 -21.420
v 86.230 1.782 -19.580
v 81.930 1.782 -19.580
v 81.930 1.782 -21.420
v 86.230 2.182 -21.420
v 86.230 2.182 -19.580
v 85.530 2.222 -21.420
v 85.530 2.222 -19.580
v 84.980 2.842 -21.420
v 84.980 2.842 -19.580
v 83.280 2.882 -21.420
v 83.280 2.882 -19.580
v 82.680 2.242 -21.420
v 82.680 2.242 -19.580
v 81.930 2.182 -21.420
v 81.930 2.182 -19.580
v 85.000 2.842 -21.300
v 85.000 2.842 -19.700
v 85.380 2.242 -19.700
v 85.380 2.242 -21.300
v 83.300 2.882 -21.300
v 83.300 2.882 -19.700
v 82.800 2.282 -21.300
v 82.800 2.282 -19.700
v -25.530 9.488 -13.280
v -25.530 9.488 -11.440
v -29.830 9.488 -11.440
v -29.830 9.488 -13.280
v -25.530 9.888 -13.280
v -25.530 9.888 -11.440
v -26.230 9.928 -13.280
v -26.230 9.928 -11.440
v -26.780 10.548 -13.280
v -26.780 10.548 -11.440
v -28.480 10.588 -13.280
v -28.480 10.588 -11.440
v -29.080 9.948 -13.280
v -29.080 9.948 -11.440
v -29.830 9.888 -13.280
v -29.830 9.888 -11.440
v -26.760 10.548 -13.160
v -26.760 10.548 -11.560
v -26.380 9.948 -11.560
v -26.380 9.948 -13.160
v -28.460 10.588 -13.160
v -28.460 10.588 -11.560
v -28.960 9.988 -13.160
v -28.960 9.988 -11.560
v -56.550 5.193 -20.095
v -56.550 5.193 -18.255
v -60.850 5.193 -18.255
v -60.850 5.193 -20.095
v -56.550 5.593 -20.095
v -56.550 5.593 -18.255
v -57.250 5.633 -20.095
v -57.250 5.633 -18.255
v -57.800 6.253 -20.095
v -57.800 6.253 -18.255
v -59.500 6.293 -20.095
v -59.500 6.293 -18.255
v -60.100 5.653 -20.095
v -60.100 5.653 -18.255
v -60.850 5.593 -20.095
v -60.850 5.593 -18.255
v -57.780 6.253 -19.975
v -57.780 6.253 -18.375
v -57.400 5.653 -18.375
v -57.400 5.653 -19.975
v -59.480 6.293 -19.975
v -59.480 6.293 -18.375
v -59.980 5.693 -19.975
v -59.980 5.693 -18.375
v -81.930 1.782 -21.420
v -81.930 1.782 -19.580
v -86.230 1.782 -19.580
v -86.230 1.782 -21.420
v -81.930 2.182 -21.420
v -81.930 2.182 -19.580
v -82.630 2.222 -21.420
v -82.630 2.222 -19.580
v -83.180 2.842 -21.420
v -83.180 2.842 -19.580
v -84.880 2.882 -21.420
v -84.880 2.882 -19.580
v -85.480 2.242 -21.420
v -85.480 2.242 -19.580
v -86.230 2.182 -21.420
v -86.230 2.182 -19.580
v -83.160 2.842 -21.300
v -83.160 2.842 -19.700
v -82.780 2.242 -19.700
v -82.780 2.242 -21.300
v -84.860 2.882 -21.300
v -84.860 2.882 -19.700
v -85.360 2.282 -21.300
v -85.360 2.282 -19.700
v -89.850 0.450 -24.820
v -89.850 0.450 -22.980
v -94.150 0.450 -22.980
v -94.150 0.450 -24.820
v -89.850 0.850 -24.820
v -89.850 0.850 -22.980
v -90.550 0.890 -24.820
v -90.550 0.890 -22.980
v -91.100 1.510 -24.820
v -91.100 1.510 -22.980
v -92.800 1.550 -24.820
v -92.800 1.550 -22.980
v -93.400 0.910 -24.820
v -93.400 0.910 -22.980
v -94.150 0.850 -24.820
v -94.150 0.850 -22.980
v -91.080 1.510 -24.700
v -91.080 1.510 -23.100
v -90.700 0.910 -23.100
v -90.700 0.910 -24.700
v -92.780 1.550 -24.700
v -92.780 1.550 -23.100
v -93.280 0.950 -24.700
v -93.280 0.950 -23.100
v -61.850 0.450 -18.020
v -61.850 0.450 -16.180
v -66.150 0.450 -16.180
v -66.150 0.450 -18.020
v -61.850 0.850 -18.020
v -61.850 0.850 -16.180
v -62.550 0.890 -18.020
v -62.550 0.890 -16.180
v -63.100 1.510 -18.020
v -63.100 1.510 -16.180
v -64.800 1.550 -18.020
v -64.800 1.550 -16.180
v -65.400 0.910 -18.020
v -65.400 0.910 -16.180
v -66.150 0.850 -18.020
v -66.150 0.850 -16.180
v -63.080 1.510 -17.900
v -63.080 1.510 -16.300
v -62.700 0.910 -16.300
v -62.700 0.910 -17.900
v -64.780 1.550 -17.900
v -64.780 1.550 -16.300
v -65.280 0.950 -17.900
v -65.280 0.950 -16.300
v -37.850 0.450 -24.820
v -37.850 0.450 -22.980
v -42.150 0.450 -22.980
v -42.150 0.450 -24.820
v -37.850 0.850 -24.820
v -37.850 0.850 -22.980
v -38.550 0.890 -24.820
v -38.550 0.890 -22.980
v -39.100 1.510 -24.820
v -39.100 1.510 -22.980
v -40.800 1.550 -24.820
v -40.800 1.550 -22.980
v -41.400 0.910 -24.820
v -41.400 0.910 -22.980
v -42.150 0.850 -24.820
v -42.150 0.850 -22.980
v -39.080 1.510 -24.700
v -39.080 1.510 -23.100
v -38.700 0.910 -23.100
v -38.700 0.910 -24.700
v -40.780 1.550 -24.700
v -40.780 1.550 -23.100
v -41.280 0.950 -24.700
v -41.280 0.950 -23.100
v -9.850 0.450 -21.420
v -9.850 0.450 -19.580
v -14.150 0.450 -19.580
v -14.150 0.450 -21.420
v -9.850 0.850 -21.420
v -9.850 0.850 -19.580
v -10.550 0.890 -21.420
v -10.550 0.890 -19.580
v -11.100 1.510 -21.420
v -11.100 1.510 -19.580
v -12.800 1.550 -21.420
v -12.800 1.550 -19.580
v -13.400 0.910 -21.420
v -13.400 0.910 -19.580
v -14.150 0.850 -21.420
v -14.150 0.850 -19.580
v -11.080 1.510 -21.300
v -11.080 1.510 -19.700
v -10.700 0.910 -19.700
v -10.700 0.910 -21.300
v -12.780 1.550 -21.300
v -12.780 1.550 -19.700
v -13.280 0.950 -21.300
v -13.280 0.950 -19.700
v 22.150 0.450 -18.020
v 22.150 0.450 -16.180
v 17.850 0.450 -16.180
v 17.850 0.450 -18.020
v 22.150 0.850 -18.020
v 22.150 0.850 -16.180
v 21.450 0.890 -18.020
v 21.450 0.890 -16.180
v 20.900 1.510 -18.020
v 20.900 1.510 -16.180
v 19.200 1.550 -18.020
v 19.200 1.550 -16.180
v 18.600 0.910 -18.020
v 18.600 0.910 -16.180
v 17.850 0.850 -18.020
v 17.850 0.850 -16.180
v 20.920 1.510 -17.900
v 20.920 1.510 -16.300
v 21.300 0.910 -16.300
v 21.300 0.910 -17.900
v 19.220 1.550 -17.900
v 19.220 1.550 -16.300
v 18.720 0.950 -17.900
v 18.720 0.950 -16.300
v 58.150 0.450 -24.820
v 58.150 0.450 -22.980
v 53.850 0.450 -22.980
v 53.850 0.450 -24.820
v 58.150 0.850 -24.820
v 58.150 0.850 -22.980
v 57.450 0.890 -24.820
v 57.450 0.890 -22.980
v 56.900 1.510 -24.820
v 56.900 1.510 -22.980
v 55.200 1.550 -24.820
v 55.200 1.550 -22.980
v 54.600 0.910 -24.820
v 54.600 0.910 -22.980
v 53.850 0.850 -24.820
v 53.850 0.850 -22.980
v 56.920 1.510 -24.700
v 56.920 1.510 -23.100
v 57.300 0.910 -23.100
v 57.300 0.910 -24.700
v 55.220 1.550 -24.700
v 55.220 1.550 -23.100
v 54.720 0.950 -24.700
v 54.720 0.950 -23.100
v 86.150 0.450 -18.020
v 86.150 0.450 -16.180
v 81.850 0.450 -16.180
v 81.850 0.450 -18.020
v 86.150 0.850 -18.020
v 86.150 0.850 -16.180
v 85.450 0.890 -18.020
v 85.450 0.890 -16.180
v 84.900 1.510 -18.020
v 84.900 1.510 -16.180
v 83.200 1.550 -18.020
v 83.200 1.550 -16.180
v 82.600 0.910 -18.020
v 82.600 0.910 -16.180
v 81.850 0.850 -18.020
v 81.850 0.850 -16.180
v 84.920 1.510 -17.900
v 84.920 1.510 -16.300
v 85.300 0.910 -16.300
v 85.300 0.910 -17.900
v 83.220 1.550 -17.900
v 83.220 1.550 -16.300
v 82.720 0.950 -17.900
v 82.720 0.950 -16.300

f 1 2 3 4
f 5 6 2 1
f 7 8 6 5
f 4 3 8 7
f 5 1 4
f 7 5 4
f 2 6 3
f 6 8 3
f 9 10 11 12
f 13 14 10 9
f 15 16 14 13
f 12 11 16 15
f 13 9 12
f 15 13 12
f 10 14 11
f 14 16 11
f 17 18 19 20
f 21 22 18 17
f 23 24 22 21
f 20 19 24 23
f 21 17 20
f 23 21 20
f 18 22 19
f 22 24 19
f 25 26 27 28
f 29 30 26 25
f 31 32 30 29
f 28 27 32 31
f 29 25 28
f 31 29 28
f 26 30 27
f 30 32 27
f 33 34 35 36
f 37 38 34 33
f 39 40 38 37
f 36 35 40 39
f 37 33 36
f 39 37 36
f 34 38 35
f 38 40 35
f 41 42 43 44
f 45 46 42 41
f 47 48 46 45
f 44 43 48 47
f 45 41 44
f 47 45 44
f 42 46 43
f 46 48 43
f 49 50 51 52
f 53 54 55 56
f 53 52 51 54
f 56 55 50 49
f 54 51 50 55
f 53 56 49 52
f 57 58 59 60
f 61 62 63 64
f 61 60 59 62
f 64 63 58 57
f 62 59 58 63
f 61 64 57 60
f 65 66 67 68
f 69 70 71 72
f 69 68 67 70
f 72 71 66 65
f 70 67 66 71
f 69 72 65 68
f 73 74 75 76
f 77 78 79 80
f 77 76 75 78
f 80 79 74 73
f 78 75 74 79
f 77 80 73 76
f 81 82 83 84
f 85 86 87 88
f 85 84 83 86
f 88 87 82 81
f 86 83 82 87
f 85 88 81 84
f 89 90 91 92
f 93 94 95 96
f 93 92 91 94
f 96 95 90 89
f 94 91 90 95
f 93 96 89 92
f 97 98 99 100
f 101 102 103 104
f 101 100 99 102
f 104 103 98 97
f 102 99 98 103
f 101 104 97 100
f 105 106 107 108
f 109 110 111 112
f 109 108 107 110
f 112 111 106 105
f 110 107 106 111
f 109 112 105 108
f 113 114 115 116
f 117 118 119 120
f 117 116 115 118
f 120 119 114 113
f 118 115 114 119
f 117 120 113 116
f 121 122 123 124
f 125 126 127 128
f 125 124 123 126
f 128 127 122 121
f 126 123 122 127
f 125 128 121 124
f 129 130 131 132
f 133 134 135 136
f 133 132 131 134
f 136 135 130 129
f 134 131 130 135
f 133 136 129 132
f 137 138 139 140
f 141 142 143 144
f 141 140 139 142
f 144 143 138 137
f 142 139 138 143
f 141 144 137 140
f 145 146 147 148
f 149 150 151 152
f 149 148 147 150
f 152 151 146 145
f 150 147 146 151
f 149 152 145 148
f 153 154 155 156
f 157 158 154 153
f 159 160 158 157
f 161 162 160 159
f 163 164 162 161
f 165 166 164 163
f 167 168 166 165
f 156 155 168 167
f 157 153 156
f 159 157 156
f 161 159 156
f 163 161 156
f 165 163 156
f 167 165 156
f 154 158 155
f 158 160 155
f 160 162 155
f 162 164 155
f 164 166 155
f 166 168 155
f 169 170 171 172
f 173 174 170 169
f 175 176 174 173
f 172 171 176 175
f 173 169 172
f 175 173 172
f 170 174 171
f 174 176 171
f 177 178 179 180
f 181 182 178 177
f 183 184 182 181
f 185 186 184 183
f 187 188 186 185
f 189 190 188 187
f 191 192 190 189
f 180 179 192 191
f 181 177 180
f 183 181 180
f 185 183 180
f 187 185 180
f 189 187 180
f 191 189 180
f 178 182 179
f 182 184 179
f 184 186 179
f 186 188 179
f 188 190 179
f 190 192 179
f 193 194 195 196
f 197 198 194 193
f 199 200 198 197
f 196 195 200 199
f 197 193 196
f 199 197 196
f 194 198 195
f 198 200 195
f 201 202 203 204
f 205 206 202 201
f 207 208 206 205
f 209 210 208 207
f 211 212 210 209
f 213 214 212 211
f 215 216 214 213
f 204 203 216 215
f 205 201 204
f 207 205 204
f 209 207 204
f 211 209 204
f 213 211 204
f 215 213 204
f 202 206 203
f 206 208 203
f 208 210 203
f 210 212 203
f 212 214 203
f 214 216 203
f 217 218 219 220
f 221 222 218 217
f 223 224 222 221
f 220 219 224 223
f 221 217 220
f 223 221 220
f 218 222 219
f 222 224 219
f 225 226 227 228
f 229 230 226 225
f 231 232 230 229
f 233 234 232 231
f 235 236 234 233
f 237 238 236 235
f 239 240 238 237
f 228 227 240 239
f 229 225 228
f 231 229 228
f 233 231 228
f 235 233 228
f 237 235 228
f 239 237 228
f 226 230 227
f 230 232 227
f 232 234 227
f 234 236 227
f 236 238 227
f 238 240 227
f 241 242 243 244
f 245 246 242 241
f 247 248 246 245
f 244 243 248 247
f 245 241 244
f 247 245 244
f 242 246 243
f 246 248 243
f 249 250 251 252
f 253 254 250 249
f 255 256 254 253
f 257 258 256 255
f 259 260 258 257
f 261 262 260 259
f 263 264 262 261
f 252 251 264 263
f 253 249 252
f 255 253 252
f 257 255 252
f 259 257 252
f 261 259 252
f 263 261 252
f 250 254 251
f 254 256 251
f 256 258 251
f 258 260 251
f 260 262 251
f 262 264 251
f 265 266 267 268
f 269 270 266 265
f 271 272 270 269
f 268 267 272 271
f 269 265 268
f 271 269 268
f 266 270 267
f 270 272 267
f 273 274 275 276
f 277 278 274 273
f 279 280 278 277
f 281 282 280 279
f 283 284 282 281
f 285 286 284 283
f 287 288 286 285
f 276 275 288 287
f 277 273 276
f 279 277 276
f 281 279 276
f 283 281 276
f 285 283 276
f 287 285 276
f 274 278 275
f 278 280 275
f 280 282 275
f 282 284 275
f 284 286 275
f 286 288 275
f 289 290 291 292
f 293 294 290 289
f 295 296 294 293
f 292 291 296 295
f 293 289 292
f 295 293 292
f 290 294 291
f 294 296 291
f 297 298 299 300
f 301 302 298 297
f 303 304 302 301
f 305 306 304 303
f 307 308 306 305
f 309 310 308 307
f 311 312 310 309
f 300 299 312 311
f 301 297 300
f 303 301 300
f 305 303 300
f 307 305 300
f 309 307 300
f 311 309 300
f 298 302 299
f 302 304 299
f 304 306 299
f 306 308 299
f 308 310 299
f 310 312 299
f 313 314 315 316
f 317 318 314 313
f 319 320 318 317
f 316 315 320 319
f 317 313 316
f 319 317 316
f 314 318 315
f 318 320 315
f 321 322 323 324
f 325 326 322 321
f 327 328 326 325
f 329 330 328 327
f 331 332 330 329
f 333 334 332 331
f 335 336 334 333
f 324 323 336 335
f 325 321 324
f 327 325 324
f 329 327 324
f 331 329 324
f 333 331 324
f 335 333 324
f 322 326 323
f 326 328 323
f 328 330 323
f 330 332 323
f 332 334 323
f 334 336 323
f 337 338 339 340
f 341 342 338 337
f 343 344 342 341
f 340 339 344 343
f 341 337 340
f 343 341 340
f 338 342 339
f 342 344 339
f 345 346 347 348
f 349 350 346 345
f 351 352 350 349
f 353 354 352 351
f 355 356 354 353
f 357 358 356 355
f 359 360 358 357
f 348 347 360 359
f 349 345 348
f 351 349 348
f 353 351 348
f 355 353 348
f 357 355 348
f 359 357 348
f 346 350 347
f 350 352 347
f 352 354 347
f 354 356 347
f 356 358 347
f 358 360 347
f 361 362 363 364
f 365 366 362 361
f 367 368 366 365
f 364 363 368 367
f 365 361 364
f 367 365 364
f 362 366 363
f 366 368 363
f 369 370 371 372
f 373 374 370 369
f 375 376 374 373
f 377 378 376 375
f 379 380 378 377
f 381 382 380 379
f 383 384 382 381
f 372 371 384 383
f 373 369 372
f 375 373 372
f 377 375 372
f 379 377 372
f 381 379 372
f 383 381 372
f 370 374 371
f 374 376 371
f 376 378 371
f 378 380 371
f 380 382 371
f 382 384 371
f 385 386 387 388
f 389 390 386 385
f 391 392 390 389
f 388 387 392 391
f 389 385 388
f 391 389 388
f 386 390 387
f 390 392 387
f 393 394 395 396
f 397 398 394 393
f 399 400 398 397
f 401 402 400 399
f 403 404 402 401
f 405 406 404 403
f 407 408 406 405
f 396 395 408 407
f 397 393 396
f 399 397 396
f 401 399 396
f 403 401 396
f 405 403 396
f 407 405 396
f 394 398 395
f 398 400 395
f 400 402 395
f 402 404 395
f 404 406 395
f 406 408 395
f 409 410 411 412
f 413 414 410 409
f 415 416 414 413
f 412 411 416 415
f 413 409 412
f 415 413 412
f 410 414 411
f 414 416 411
f 417 418 419 420
f 421 422 418 417
f 423 424 422 421
f 425 426 424 423
f 427 428 426 425
f 429 430 428 427
f 431 432 430 429
f 420 419 432 431
f 421 417 420
f 423 421 420
f 425 423 420
f 427 425 420
f 429 427 420
f 431 429 420
f 418 422 419
f 422 424 419
f 424 426 419
f 426 428 419
f 428 430 419
f 430 432 419
f 433 434 435 436
f 437 438 434 433
f 439 440 438 437
f 436 435 440 439
f 437 433 436
f 439 437 436
f 434 438 435
f 438 440 435
f 441 442 443 444
f 445 446 442 441
f 447 448 446 445
f 449 450 448 447
f 451 452 450 449
f 453 454 452 451
f 455 456 454 453
f 444 443 456 455
f 445 441 444
f 447 445 444
f 449 447 444
f 451 449 444
f 453 451 444
f 455 453 444
f 442 446 443
f 446 448 443
f 448 450 443
f 450 452 443
f 452 454 443
f 454 456 443
f 457 458 459 460
f 461 462 458 457
f 463 464 462 461
f 460 459 464 463
f 461 457 460
f 463 461 460
f 458 462 459
f 462 464 459
f 465 466 467 468
f 469 470 466 465
f 471 472 470 469
f 473 474 472 471
f 475 476 474 473
f 477 478 476 475
f 479 480 478 477
f 468 467 480 479
f 469 465 468
f 471 469 468
f 473 471 468
f 475 473 468
f 477 475 468
f 479 477 468
f 466 470 467
f 470 472 467
f 472 474 467
f 474 476 467
f 476 478 467
f 478 480 467
f 481 482 483 484
f 485 486 482 481
f 487 488 486 485
f 484 483 488 487
f 485 481 484
f 487 485 484
f 482 486 483
f 486 488 483
f 489 490 491 492
f 493 494 490 489
f 495 496 494 493
f 497 498 496 495
f 499 500 498 497
f 501 502 500 499
f 503 504 502 501
f 492 491 504 503
f 493 489 492
f 495 493 492
f 497 495 492
f 499 497 492
f 501 499 492
f 503 501 492
f 490 494 491
f 494 496 491
f 496 498 491
f 498 500 491
f 500 502 491
f 502 504 491
f 505 506 507 508
f 509 510 506 505
f 511 512 510 509
f 508 507 512 511
f 509 505 508
f 511 509 508
f 506 510 507
f 510 512 507
f 513 514 515 516
f 517 518 514 513
f 519 520 518 517
f 521 522 520 519
f 523 524 522 521
f 525 526 524 523
f 527 528 526 525
f 516 515 528 527
f 517 513 516
f 519 517 516
f 521 519 516
f 523 521 516
f 525 523 516
f 527 525 516
f 514 518 515
f 518 520 515
f 520 522 515
f 522 524 515
f 524 526 515
f 526 528 515
f 529 530 531 532
f 533 534 530 529
f 535 536 534 533
f 532 531 536 535
f 533 529 532
f 535 533 532
f 530 534 531
f 534 536 531
f 537 538 539 540
f 541 542 538 537
f 543 544 542 541
f 545 546 544 543
f 547 548 546 545
f 549 550 548 547
f 551 552 550 549
f 540 539 552 551
f 541 537 540
f 543 541 540
f 545 543 540
f 547 545 540
f 549 547 540
f 551 549 540
f 538 542 539
f 542 544 539
f 544 546 539
f 546 548 539
f 548 550 539
f 550 552 539
f 553 554 555 556
f 557 558 554 553
f 559 560 558 557
f 556 555 560 559
f 557 553 556
f 559 557 556
f 554 558 555
f 558 560 555
f 561 562 563 564
f 565 566 562 561
f 567 568 566 565
f 569 570 568 567
f 571 572 570 569
f 573 574 572 571
f 575 576 574 573
f 564 563 576 575
f 565 561 564
f 567 565 564
f 569 567 564
f 571 569 564
f 573 571 564
f 575 573 564
f 562 566 563
f 566 568 563
f 568 570 563
f 570 572 563
f 572 574 563
f 574 576 563
f 577 578 579 580
f 581 582 578 577
f 583 584 582 581
f 580 579 584 583
f 581 577 580
f 583 581 580
f 578 582 579
f 582 584 579
f 585 586 587 588
f 589 590 586 585
f 591 592 590 589
f 593 594 592 591
f 595 596 594 593
f 597 598 596 595
f 599 600 598 597
f 588 587 600 599
f 589 585 588
f 591 589 588
f 593 591 588
f 595 593 588
f 597 595 588
f 599 597 588
f 586 590 587
f 590 592 587
f 592 594 587
f 594 596 587
f 596 598 587
f 598 600 587
f 601 602 603 604
f 605 606 602 601
f 607 608 606 605
f 604 603 608 607
f 605 601 604
f 607 605 604
f 602 606 603
f 606 608 603
f 609 610 611 612
f 613 614 610 609
f 615 616 614 613
f 617 618 616 615
f 619 620 618 617
f 621 622 620 619
f 623 624 622 621
f 612 611 624 623
f 613 609 612
f 615 613 612
f 617 615 612
f 619 617 612
f 621 619 612
f 623 621 612
f 610 614 611
f 614 616 611
f 616 618 611
f 618 620 611
f 620 622 611
f 622 624 611
f 625 626 627 628
f 629 630 626 625
f 631 632 630 629
f 628 627 632 631
f 629 625 628
f 631 629 628
f 626 630 627
f 630 632 627
f 633 634 635 636
f 637 638 634 633
f 639 640 638 637
f 641 642 640 639
f 643 644 642 641
f 645 646 644 643
f 647 648 646 645
f 636 635 648 647
f 637 633 636
f 639 637 636
f 641 639 636
f 643 641 636
f 645 643 636
f 647 645 636
f 634 638 635
f 638 640 635
f 640 642 635
f 642 644 635
f 644 646 635
f 646 648 635
f 649 650 651 652
f 653 654 650 649
f 655 656 654 653
f 652 651 656 655
f 653 649 652
f 655 653 652
f 650 654 651
f 654 656 651
f 657 658 659 660
f 661 662 658 657
f 663 664 662 661
f 665 666 664 663
f 667 668 666 665
f 669 670 668 667
f 671 672 670 669
f 660 659 672 671
f 661 657 660
f 663 661 660
f 665 663 660
f 667 665 660
f 669 667 660
f 671 669 660
f 658 662 659
f 662 664 659
f 664 666 659
f 666 668 659
f 668 670 659
f 670 672 659
f 673 674 675 676
f 677 678 674 673
f 679 680 678 677
f 676 675 680 679
f 677 673 676
f 679 677 676
f 674 678 675
f 678 680 675
f 681 682 683 684
f 685 686 682 681
f 687 688 686 685
f 689 690 688 687
f 691 692 690 689
f 693 694 692 691
f 695 696 694 693
f 684 683 696 695
f 685 681 684
f 687 685 684
f 689 687 684
f 691 689 684
f 693 691 684
f 695 693 684
f 682 686 683
f 686 688 683
f 688 690 683
f 690 692 683
f 692 694 683
f 694 696 683
f 697 698 699 700
f 701 702 698 697
f 703 704 702 701
f 700 699 704 703
f 701 697 700
f 703 701 700
f 698 702 699
f 702 704 699
f 705 706 707 708
f 709 710 706 705
f 711 712 710 709
f 713 714 712 711
f 715 716 714 713
f 717 718 716 715
f 719 720 718 717
f 708 707 720 719
f 709 705 708
f 711 709 708
f 713 711 708
f 715 713 708
f 717 715 708
f 719 717 708
f 706 710 707
f 710 712 707
f 712 714 707
f 714 716 707
f 716 718 707
f 718 720 707
f 721 722 723 724
f 725 726 722 721
f 727 728 726 725
f 724 723 728 727
f 725 721 724
f 727 725 724
f 722 726 723
f 726 728 723
