# Vía Expresa Elevada — pieza "5-carros-y-bus"
# Impórtala a Tinkercad y píntala con el balde de pintura.
# Todas las piezas usan las mismas coordenadas, así que calzan solas.

v -8.00 3.40 10.30
v 4.00 3.40 10.30
v 4.00 3.40 7.70
v -8.00 3.40 7.70
v -8.00 0.40 7.70
v 4.00 0.40 7.70
v 4.00 0.40 10.30
v -8.00 0.40 10.30
v -27.00 10.90 -2.50
v -23.00 10.90 -2.50
v -23.00 10.90 -4.50
v -27.00 10.90 -4.50
v -27.00 9.90 -4.50
v -23.00 9.90 -4.50
v -23.00 9.90 -2.50
v -27.00 9.90 -2.50
v -26.00 11.70 -2.60
v -24.00 11.70 -2.60
v -24.00 11.70 -4.40
v -26.00 11.70 -4.40
v -26.00 10.90 -4.40
v -24.00 10.90 -4.40
v -24.00 10.90 -2.60
v -26.00 10.90 -2.60
v 8.00 10.90 -2.50
v 12.00 10.90 -2.50
v 12.00 10.90 -4.50
v 8.00 10.90 -4.50
v 8.00 9.90 -4.50
v 12.00 9.90 -4.50
v 12.00 9.90 -2.50
v 8.00 9.90 -2.50
v 9.00 11.70 -2.60
v 11.00 11.70 -2.60
v 11.00 11.70 -4.40
v 9.00 11.70 -4.40
v 9.00 10.90 -4.40
v 11.00 10.90 -4.40
v 11.00 10.90 -2.60
v 9.00 10.90 -2.60
v -7.00 10.90 4.50
v -3.00 10.90 4.50
v -3.00 10.90 2.50
v -7.00 10.90 2.50
v -7.00 9.90 2.50
v -3.00 9.90 2.50
v -3.00 9.90 4.50
v -7.00 9.90 4.50
v -6.00 11.70 4.40
v -4.00 11.70 4.40
v -4.00 11.70 2.60
v -6.00 11.70 2.60
v -6.00 10.90 2.60
v -4.00 10.90 2.60
v -4.00 10.90 4.40
v -6.00 10.90 4.40
v 26.00 10.90 4.50
v 30.00 10.90 4.50
v 30.00 10.90 2.50
v 26.00 10.90 2.50
v 26.00 9.90 2.50
v 30.00 9.90 2.50
v 30.00 9.90 4.50
v 26.00 9.90 4.50
v 27.00 11.70 4.40
v 29.00 11.70 4.40
v 29.00 11.70 2.60
v 27.00 11.70 2.60
v 27.00 10.90 2.60
v 29.00 10.90 2.60
v 29.00 10.90 4.40
v 27.00 10.90 4.40
v -22.00 1.40 -12.00
v -18.00 1.40 -12.00
v -18.00 1.40 -14.00
v -22.00 1.40 -14.00
v -22.00 0.40 -14.00
v -18.00 0.40 -14.00
v -18.00 0.40 -12.00
v -22.00 0.40 -12.00
v -21.00 2.20 -12.10
v -19.00 2.20 -12.10
v -19.00 2.20 -13.90
v -21.00 2.20 -13.90
v -21.00 1.40 -13.90
v -19.00 1.40 -13.90
v -19.00 1.40 -12.10
v -21.00 1.40 -12.10
v 13.00 1.40 -8.50
v 17.00 1.40 -8.50
v 17.00 1.40 -10.50
v 13.00 1.40 -10.50
v 13.00 0.40 -10.50
v 17.00 0.40 -10.50
v 17.00 0.40 -8.50
v 13.00 0.40 -8.50
v 14.00 2.20 -8.60
v 16.00 2.20 -8.60
v 16.00 2.20 -10.40
v 14.00 2.20 -10.40
v 14.00 1.40 -10.40
v 16.00 1.40 -10.40
v 16.00 1.40 -8.60
v 14.00 1.40 -8.60

f 1 2 3 4
f 5 6 7 8
f 5 4 3 6
f 8 7 2 1
f 6 3 2 7
f 5 8 1 4
f 9 10 11 12
f 13 14 15 16
f 13 12 11 14
f 16 15 10 9
f 14 11 10 15
f 13 16 9 12
f 17 18 19 20
f 21 22 23 24
f 21 20 19 22
f 24 23 18 17
f 22 19 18 23
f 21 24 17 20
f 25 26 27 28
f 29 30 31 32
f 29 28 27 30
f 32 31 26 25
f 30 27 26 31
f 29 32 25 28
f 33 34 35 36
f 37 38 39 40
f 37 36 35 38
f 40 39 34 33
f 38 35 34 39
f 37 40 33 36
f 41 42 43 44
f 45 46 47 48
f 45 44 43 46
f 48 47 42 41
f 46 43 42 47
f 45 48 41 44
f 49 50 51 52
f 53 54 55 56
f 53 52 51 54
f 56 55 50 49
f 54 51 50 55
f 53 56 49 52
f 57 58 59 60
f 61 62 63 64
f 61 60 59 62
f 64 63 58 57
f 62 59 58 63
f 61 64 57 60
f 65 66 67 68
f 69 70 71 72
f 69 68 67 70
f 72 71 66 65
f 70 67 66 71
f 69 72 65 68
f 73 74 75 76
f 77 78 79 80
f 77 76 75 78
f 80 79 74 73
f 78 75 74 79
f 77 80 73 76
f 81 82 83 84
f 85 86 87 88
f 85 84 83 86
f 88 87 82 81
f 86 83 82 87
f 85 88 81 84
f 89 90 91 92
f 93 94 95 96
f 93 92 91 94
f 96 95 90 89
f 94 91 90 95
f 93 96 89 92
f 97 98 99 100
f 101 102 103 104
f 101 100 99 102
f 104 103 98 97
f 102 99 98 103
f 101 104 97 100
