# Vía Expresa Elevada — pieza "6-arboles"
# Impórtala a Tinkercad y píntala con el balde de pintura.
# Las seis piezas usan las mismas coordenadas, así que calzan solas.

v -98.840 2.730 -26.500
v -98.920 2.730 -26.361
v -98.890 0.150 -26.309
v -98.780 0.150 -26.500
v -99.080 2.730 -26.361
v -99.110 0.150 -26.309
v -99.160 2.730 -26.500
v -99.220 0.150 -26.500
v -99.080 2.730 -26.639
v -99.110 0.150 -26.691
v -98.920 2.730 -26.639
v -98.890 0.150 -26.691
v -97.440 4.875 -26.500
v -98.518 4.875 -25.016
v -98.518 2.600 -25.016
v -97.440 2.600 -26.500
v -100.262 4.875 -25.583
v -100.262 2.600 -25.583
v -100.262 4.875 -27.417
v -100.262 2.600 -27.417
v -98.518 4.875 -27.984
v -98.518 2.600 -27.984
v -98.480 6.500 -26.500
v -98.839 6.500 -26.005
v -98.518 4.875 -25.016
v -97.440 4.875 -26.500
v -99.421 6.500 -26.194
v -100.262 4.875 -25.583
v -99.421 6.500 -26.806
v -100.262 4.875 -27.417
v -98.839 6.500 -26.995
v -98.518 4.875 -27.984
v -84.840 2.982 -26.500
v -84.920 2.982 -26.361
v -84.890 0.150 -26.309
v -84.780 0.150 -26.500
v -85.080 2.982 -26.361
v -85.110 0.150 -26.309
v -85.160 2.982 -26.500
v -85.220 0.150 -26.500
v -85.080 2.982 -26.639
v -85.110 0.150 -26.691
v -84.920 2.982 -26.639
v -84.890 0.150 -26.691
v -83.296 5.325 -26.500
v -84.473 5.325 -24.879
v -84.473 2.840 -24.879
v -83.296 2.840 -26.500
v -86.379 5.325 -25.498
v -86.379 2.840 -25.498
v -86.379 5.325 -27.502
v -86.379 2.840 -27.502
v -84.473 5.325 -28.121
v -84.473 2.840 -28.121
v -84.432 7.100 -26.500
v -84.824 7.100 -25.960
v -84.473 5.325 -24.879
v -83.296 5.325 -26.500
v -85.460 7.100 -26.166
v -86.379 5.325 -25.498
v -85.460 7.100 -26.834
v -86.379 5.325 -27.502
v -84.824 7.100 -27.040
v -84.473 5.325 -28.121
v -70.840 3.234 -26.500
v -70.920 3.234 -26.361
v -70.890 0.150 -26.309
v -70.780 0.150 -26.500
v -71.080 3.234 -26.361
v -71.110 0.150 -26.309
v -71.160 3.234 -26.500
v -71.220 0.150 -26.500
v -71.080 3.234 -26.639
v -71.110 0.150 -26.691
v -70.920 3.234 -26.639
v -70.890 0.150 -26.691
v -69.152 5.775 -26.500
v -70.429 5.775 -24.742
v -70.429 3.080 -24.742
v -69.152 3.080 -26.500
v -72.495 5.775 -25.414
v -72.495 3.080 -25.414
v -72.495 5.775 -27.586
v -72.495 3.080 -27.586
v -70.429 5.775 -28.258
v -70.429 3.080 -28.258
v -70.384 7.700 -26.500
v -70.810 7.700 -25.914
v -70.429 5.775 -24.742
v -69.152 5.775 -26.500
v -71.498 7.700 -26.138
v -72.495 5.775 -25.414
v -71.498 7.700 -26.862
v -72.495 5.775 -27.586
v -70.810 7.700 -27.086
v -70.429 5.775 -28.258
v -56.840 2.730 -26.500
v -56.920 2.730 -26.361
v -56.890 0.150 -26.309
v -56.780 0.150 -26.500
v -57.080 2.730 -26.361
v -57.110 0.150 -26.309
v -57.160 2.730 -26.500
v -57.220 0.150 -26.500
v -57.080 2.730 -26.639
v -57.110 0.150 -26.691
v -56.920 2.730 -26.639
v -56.890 0.150 -26.691
v -55.440 4.875 -26.500
v -56.518 4.875 -25.016
v -56.518 2.600 -25.016
v -55.440 2.600 -26.500
v -58.262 4.875 -25.583
v -58.262 2.600 -25.583
v -58.262 4.875 -27.417
v -58.262 2.600 -27.417
v -56.518 4.875 -27.984
v -56.518 2.600 -27.984
v -56.480 6.500 -26.500
v -56.839 6.500 -26.005
v -56.518 4.875 -25.016
v -55.440 4.875 -26.500
v -57.421 6.500 -26.194
v -58.262 4.875 -25.583
v -57.421 6.500 -26.806
v -58.262 4.875 -27.417
v -56.839 6.500 -26.995
v -56.518 4.875 -27.984
v -42.840 2.982 -26.500
v -42.920 2.982 -26.361
v -42.890 0.150 -26.309
v -42.780 0.150 -26.500
v -43.080 2.982 -26.361
v -43.110 0.150 -26.309
v -43.160 2.982 -26.500
v -43.220 0.150 -26.500
v -43.080 2.982 -26.639
v -43.110 0.150 -26.691
v -42.920 2.982 -26.639
v -42.890 0.150 -26.691
v -41.296 5.325 -26.500
v -42.473 5.325 -24.879
v -42.473 2.840 -24.879
v -41.296 2.840 -26.500
v -44.379 5.325 -25.498
v -44.379 2.840 -25.498
v -44.379 5.325 -27.502
v -44.379 2.840 -27.502
v -42.473 5.325 -28.121
v -42.473 2.840 -28.121
v -42.432 7.100 -26.500
v -42.824 7.100 -25.960
v -42.473 5.325 -24.879
v -41.296 5.325 -26.500
v -43.460 7.100 -26.166
v -44.379 5.325 -25.498
v -43.460 7.100 -26.834
v -44.379 5.325 -27.502
v -42.824 7.100 -27.040
v -42.473 5.325 -28.121
v -28.840 3.234 -26.500
v -28.920 3.234 -26.361
v -28.890 0.150 -26.309
v -28.780 0.150 -26.500
v -29.080 3.234 -26.361
v -29.110 0.150 -26.309
v -29.160 3.234 -26.500
v -29.220 0.150 -26.500
v -29.080 3.234 -26.639
v -29.110 0.150 -26.691
v -28.920 3.234 -26.639
v -28.890 0.150 -26.691
v -27.152 5.775 -26.500
v -28.429 5.775 -24.742
v -28.429 3.080 -24.742
v -27.152 3.080 -26.500
v -30.495 5.775 -25.414
v -30.495 3.080 -25.414
v -30.495 5.775 -27.586
v -30.495 3.080 -27.586
v -28.429 5.775 -28.258
v -28.429 3.080 -28.258
v -28.384 7.700 -26.500
v -28.810 7.700 -25.914
v -28.429 5.775 -24.742
v -27.152 5.775 -26.500
v -29.498 7.700 -26.138
v -30.495 5.775 -25.414
v -29.498 7.700 -26.862
v -30.495 5.775 -27.586
v -28.810 7.700 -27.086
v -28.429 5.775 -28.258
v -14.840 2.730 -26.500
v -14.920 2.730 -26.361
v -14.890 0.150 -26.309
v -14.780 0.150 -26.500
v -15.080 2.730 -26.361
v -15.110 0.150 -26.309
v -15.160 2.730 -26.500
v -15.220 0.150 -26.500
v -15.080 2.730 -26.639
v -15.110 0.150 -26.691
v -14.920 2.730 -26.639
v -14.890 0.150 -26.691
v -13.440 4.875 -26.500
v -14.518 4.875 -25.016
v -14.518 2.600 -25.016
v -13.440 2.600 -26.500
v -16.262 4.875 -25.583
v -16.262 2.600 -25.583
v -16.262 4.875 -27.417
v -16.262 2.600 -27.417
v -14.518 4.875 -27.984
v -14.518 2.600 -27.984
v -14.480 6.500 -26.500
v -14.839 6.500 -26.005
v -14.518 4.875 -25.016
v -13.440 4.875 -26.500
v -15.421 6.500 -26.194
v -16.262 4.875 -25.583
v -15.421 6.500 -26.806
v -16.262 4.875 -27.417
v -14.839 6.500 -26.995
v -14.518 4.875 -27.984
v -0.840 2.982 -26.500
v -0.920 2.982 -26.361
v -0.890 0.150 -26.309
v -0.780 0.150 -26.500
v -1.080 2.982 -26.361
v -1.110 0.150 -26.309
v -1.160 2.982 -26.500
v -1.220 0.150 -26.500
v -1.080 2.982 -26.639
v -1.110 0.150 -26.691
v -0.920 2.982 -26.639
v -0.890 0.150 -26.691
v 0.704 5.325 -26.500
v -0.473 5.325 -24.879
v -0.473 2.840 -24.879
v 0.704 2.840 -26.500
v -2.379 5.325 -25.498
v -2.379 2.840 -25.498
v -2.379 5.325 -27.502
v -2.379 2.840 -27.502
v -0.473 5.325 -28.121
v -0.473 2.840 -28.121
v -0.432 7.100 -26.500
v -0.824 7.100 -25.960
v -0.473 5.325 -24.879
v 0.704 5.325 -26.500
v -1.460 7.100 -26.166
v -2.379 5.325 -25.498
v -1.460 7.100 -26.834
v -2.379 5.325 -27.502
v -0.824 7.100 -27.040
v -0.473 5.325 -28.121
v 13.160 3.234 -26.500
v 13.080 3.234 -26.361
v 13.110 0.150 -26.309
v 13.220 0.150 -26.500
v 12.920 3.234 -26.361
v 12.890 0.150 -26.309
v 12.840 3.234 -26.500
v 12.780 0.150 -26.500
v 12.920 3.234 -26.639
v 12.890 0.150 -26.691
v 13.080 3.234 -26.639
v 13.110 0.150 -26.691
v 14.848 5.775 -26.500
v 13.571 5.775 -24.742
v 13.571 3.080 -24.742
v 14.848 3.080 -26.500
v 11.505 5.775 -25.414
v 11.505 3.080 -25.414
v 11.505 5.775 -27.586
v 11.505 3.080 -27.586
v 13.571 5.775 -28.258
v 13.571 3.080 -28.258
v 13.616 7.700 -26.500
v 13.190 7.700 -25.914
v 13.571 5.775 -24.742
v 14.848 5.775 -26.500
v 12.502 7.700 -26.138
v 11.505 5.775 -25.414
v 12.502 7.700 -26.862
v 11.505 5.775 -27.586
v 13.190 7.700 -27.086
v 13.571 5.775 -28.258
v 27.160 2.730 -26.500
v 27.080 2.730 -26.361
v 27.110 0.150 -26.309
v 27.220 0.150 -26.500
v 26.920 2.730 -26.361
v 26.890 0.150 -26.309
v 26.840 2.730 -26.500
v 26.780 0.150 -26.500
v 26.920 2.730 -26.639
v 26.890 0.150 -26.691
v 27.080 2.730 -26.639
v 27.110 0.150 -26.691
v 28.560 4.875 -26.500
v 27.482 4.875 -25.016
v 27.482 2.600 -25.016
v 28.560 2.600 -26.500
v 25.738 4.875 -25.583
v 25.738 2.600 -25.583
v 25.738 4.875 -27.417
v 25.738 2.600 -27.417
v 27.482 4.875 -27.984
v 27.482 2.600 -27.984
v 27.520 6.500 -26.500
v 27.161 6.500 -26.005
v 27.482 4.875 -25.016
v 28.560 4.875 -26.500
v 26.579 6.500 -26.194
v 25.738 4.875 -25.583
v 26.579 6.500 -26.806
v 25.738 4.875 -27.417
v 27.161 6.500 -26.995
v 27.482 4.875 -27.984
v 41.160 2.982 -26.500
v 41.080 2.982 -26.361
v 41.110 0.150 -26.309
v 41.220 0.150 -26.500
v 40.920 2.982 -26.361
v 40.890 0.150 -26.309
v 40.840 2.982 -26.500
v 40.780 0.150 -26.500
v 40.920 2.982 -26.639
v 40.890 0.150 -26.691
v 41.080 2.982 -26.639
v 41.110 0.150 -26.691
v 42.704 5.325 -26.500
v 41.527 5.325 -24.879
v 41.527 2.840 -24.879
v 42.704 2.840 -26.500
v 39.621 5.325 -25.498
v 39.621 2.840 -25.498
v 39.621 5.325 -27.502
v 39.621 2.840 -27.502
v 41.527 5.325 -28.121
v 41.527 2.840 -28.121
v 41.568 7.100 -26.500
v 41.176 7.100 -25.960
v 41.527 5.325 -24.879
v 42.704 5.325 -26.500
v 40.540 7.100 -26.166
v 39.621 5.325 -25.498
v 40.540 7.100 -26.834
v 39.621 5.325 -27.502
v 41.176 7.100 -27.040
v 41.527 5.325 -28.121
v 55.160 3.234 -26.500
v 55.080 3.234 -26.361
v 55.110 0.150 -26.309
v 55.220 0.150 -26.500
v 54.920 3.234 -26.361
v 54.890 0.150 -26.309
v 54.840 3.234 -26.500
v 54.780 0.150 -26.500
v 54.920 3.234 -26.639
v 54.890 0.150 -26.691
v 55.080 3.234 -26.639
v 55.110 0.150 -26.691
v 56.848 5.775 -26.500
v 55.571 5.775 -24.742
v 55.571 3.080 -24.742
v 56.848 3.080 -26.500
v 53.505 5.775 -25.414
v 53.505 3.080 -25.414
v 53.505 5.775 -27.586
v 53.505 3.080 -27.586
v 55.571 5.775 -28.258
v 55.571 3.080 -28.258
v 55.616 7.700 -26.500
v 55.190 7.700 -25.914
v 55.571 5.775 -24.742
v 56.848 5.775 -26.500
v 54.502 7.700 -26.138
v 53.505 5.775 -25.414
v 54.502 7.700 -26.862
v 53.505 5.775 -27.586
v 55.190 7.700 -27.086
v 55.571 5.775 -28.258
v 69.160 2.730 -26.500
v 69.080 2.730 -26.361
v 69.110 0.150 -26.309
v 69.220 0.150 -26.500
v 68.920 2.730 -26.361
v 68.890 0.150 -26.309
v 68.840 2.730 -26.500
v 68.780 0.150 -26.500
v 68.920 2.730 -26.639
v 68.890 0.150 -26.691
v 69.080 2.730 -26.639
v 69.110 0.150 -26.691
v 70.560 4.875 -26.500
v 69.482 4.875 -25.016
v 69.482 2.600 -25.016
v 70.560 2.600 -26.500
v 67.738 4.875 -25.583
v 67.738 2.600 -25.583
v 67.738 4.875 -27.417
v 67.738 2.600 -27.417
v 69.482 4.875 -27.984
v 69.482 2.600 -27.984
v 69.520 6.500 -26.500
v 69.161 6.500 -26.005
v 69.482 4.875 -25.016
v 70.560 4.875 -26.500
v 68.579 6.500 -26.194
v 67.738 4.875 -25.583
v 68.579 6.500 -26.806
v 67.738 4.875 -27.417
v 69.161 6.500 -26.995
v 69.482 4.875 -27.984
v 83.160 2.982 -26.500
v 83.080 2.982 -26.361
v 83.110 0.150 -26.309
v 83.220 0.150 -26.500
v 82.920 2.982 -26.361
v 82.890 0.150 -26.309
v 82.840 2.982 -26.500
v 82.780 0.150 -26.500
v 82.920 2.982 -26.639
v 82.890 0.150 -26.691
v 83.080 2.982 -26.639
v 83.110 0.150 -26.691
v 84.704 5.325 -26.500
v 83.527 5.325 -24.879
v 83.527 2.840 -24.879
v 84.704 2.840 -26.500
v 81.621 5.325 -25.498
v 81.621 2.840 -25.498
v 81.621 5.325 -27.502
v 81.621 2.840 -27.502
v 83.527 5.325 -28.121
v 83.527 2.840 -28.121
v 83.568 7.100 -26.500
v 83.176 7.100 -25.960
v 83.527 5.325 -24.879
v 84.704 5.325 -26.500
v 82.540 7.100 -26.166
v 81.621 5.325 -25.498
v 82.540 7.100 -26.834
v 81.621 5.325 -27.502
v 83.176 7.100 -27.040
v 83.527 5.325 -28.121
v 97.160 3.234 -26.500
v 97.080 3.234 -26.361
v 97.110 0.150 -26.309
v 97.220 0.150 -26.500
v 96.920 3.234 -26.361
v 96.890 0.150 -26.309
v 96.840 3.234 -26.500
v 96.780 0.150 -26.500
v 96.920 3.234 -26.639
v 96.890 0.150 -26.691
v 97.080 3.234 -26.639
v 97.110 0.150 -26.691
v 98.848 5.775 -26.500
v 97.571 5.775 -24.742
v 97.571 3.080 -24.742
v 98.848 3.080 -26.500
v 95.505 5.775 -25.414
v 95.505 3.080 -25.414
v 95.505 5.775 -27.586
v 95.505 3.080 -27.586
v 97.571 5.775 -28.258
v 97.571 3.080 -28.258
v 97.616 7.700 -26.500
v 97.190 7.700 -25.914
v 97.571 5.775 -24.742
v 98.848 5.775 -26.500
v 96.502 7.700 -26.138
v 95.505 5.775 -25.414
v 96.502 7.700 -26.862
v 95.505 5.775 -27.586
v 97.190 7.700 -27.086
v 97.571 5.775 -28.258
v -92.840 2.520 19.500
v -92.920 2.520 19.639
v -92.890 0.150 19.691
v -92.780 0.150 19.500
v -93.080 2.520 19.639
v -93.110 0.150 19.691
v -93.160 2.520 19.500
v -93.220 0.150 19.500
v -93.080 2.520 19.361
v -93.110 0.150 19.309
v -92.920 2.520 19.361
v -92.890 0.150 19.309
v -91.560 4.500 19.500
v -92.555 4.500 20.870
v -92.555 2.400 20.870
v -91.560 2.400 19.500
v -94.165 4.500 20.346
v -94.165 2.400 20.346
v -94.165 4.500 18.654
v -94.165 2.400 18.654
v -92.555 4.500 18.130
v -92.555 2.400 18.130
v -92.520 6.000 19.500
v -92.852 6.000 19.957
v -92.555 4.500 20.870
v -91.560 4.500 19.500
v -93.388 6.000 19.782
v -94.165 4.500 20.346
v -93.388 6.000 19.218
v -94.165 4.500 18.654
v -92.852 6.000 19.043
v -92.555 4.500 18.130
v -74.840 2.856 19.500
v -74.920 2.856 19.639
v -74.890 0.150 19.691
v -74.780 0.150 19.500
v -75.080 2.856 19.639
v -75.110 0.150 19.691
v -75.160 2.856 19.500
v -75.220 0.150 19.500
v -75.080 2.856 19.361
v -75.110 0.150 19.309
v -74.920 2.856 19.361
v -74.890 0.150 19.309
v -73.368 5.100 19.500
v -74.496 5.100 21.052
v -74.496 2.720 21.052
v -73.368 2.720 19.500
v -76.320 5.100 20.459
v -76.320 2.720 20.459
v -76.320 5.100 18.541
v -76.320 2.720 18.541
v -74.496 5.100 17.948
v -74.496 2.720 17.948
v -74.456 6.800 19.500
v -74.832 6.800 20.017
v -74.496 5.100 21.052
v -73.368 5.100 19.500
v -75.440 6.800 19.820
v -76.320 5.100 20.459
v -75.440 6.800 19.180
v -76.320 5.100 18.541
v -74.832 6.800 18.983
v -74.496 5.100 17.948
v -56.840 2.520 19.500
v -56.920 2.520 19.639
v -56.890 0.150 19.691
v -56.780 0.150 19.500
v -57.080 2.520 19.639
v -57.110 0.150 19.691
v -57.160 2.520 19.500
v -57.220 0.150 19.500
v -57.080 2.520 19.361
v -57.110 0.150 19.309
v -56.920 2.520 19.361
v -56.890 0.150 19.309
v -55.560 4.500 19.500
v -56.555 4.500 20.870
v -56.555 2.400 20.870
v -55.560 2.400 19.500
v -58.165 4.500 20.346
v -58.165 2.400 20.346
v -58.165 4.500 18.654
v -58.165 2.400 18.654
v -56.555 4.500 18.130
v -56.555 2.400 18.130
v -56.520 6.000 19.500
v -56.852 6.000 19.957
v -56.555 4.500 20.870
v -55.560 4.500 19.500
v -57.388 6.000 19.782
v -58.165 4.500 20.346
v -57.388 6.000 19.218
v -58.165 4.500 18.654
v -56.852 6.000 19.043
v -56.555 4.500 18.130
v -38.840 2.856 19.500
v -38.920 2.856 19.639
v -38.890 0.150 19.691
v -38.780 0.150 19.500
v -39.080 2.856 19.639
v -39.110 0.150 19.691
v -39.160 2.856 19.500
v -39.220 0.150 19.500
v -39.080 2.856 19.361
v -39.110 0.150 19.309
v -38.920 2.856 19.361
v -38.890 0.150 19.309
v -37.368 5.100 19.500
v -38.496 5.100 21.052
v -38.496 2.720 21.052
v -37.368 2.720 19.500
v -40.320 5.100 20.459
v -40.320 2.720 20.459
v -40.320 5.100 18.541
v -40.320 2.720 18.541
v -38.496 5.100 17.948
v -38.496 2.720 17.948
v -38.456 6.800 19.500
v -38.832 6.800 20.017
v -38.496 5.100 21.052
v -37.368 5.100 19.500
v -39.440 6.800 19.820
v -40.320 5.100 20.459
v -39.440 6.800 19.180
v -40.320 5.100 18.541
v -38.832 6.800 18.983
v -38.496 5.100 17.948
v -20.840 2.520 19.500
v -20.920 2.520 19.639
v -20.890 0.150 19.691
v -20.780 0.150 19.500
v -21.080 2.520 19.639
v -21.110 0.150 19.691
v -21.160 2.520 19.500
v -21.220 0.150 19.500
v -21.080 2.520 19.361
v -21.110 0.150 19.309
v -20.920 2.520 19.361
v -20.890 0.150 19.309
v -19.560 4.500 19.500
v -20.555 4.500 20.870
v -20.555 2.400 20.870
v -19.560 2.400 19.500
v -22.165 4.500 20.346
v -22.165 2.400 20.346
v -22.165 4.500 18.654
v -22.165 2.400 18.654
v -20.555 4.500 18.130
v -20.555 2.400 18.130
v -20.520 6.000 19.500
v -20.852 6.000 19.957
v -20.555 4.500 20.870
v -19.560 4.500 19.500
v -21.388 6.000 19.782
v -22.165 4.500 20.346
v -21.388 6.000 19.218
v -22.165 4.500 18.654
v -20.852 6.000 19.043
v -20.555 4.500 18.130
v -2.840 2.856 19.500
v -2.920 2.856 19.639
v -2.890 0.150 19.691
v -2.780 0.150 19.500
v -3.080 2.856 19.639
v -3.110 0.150 19.691
v -3.160 2.856 19.500
v -3.220 0.150 19.500
v -3.080 2.856 19.361
v -3.110 0.150 19.309
v -2.920 2.856 19.361
v -2.890 0.150 19.309
v -1.368 5.100 19.500
v -2.496 5.100 21.052
v -2.496 2.720 21.052
v -1.368 2.720 19.500
v -4.320 5.100 20.459
v -4.320 2.720 20.459
v -4.320 5.100 18.541
v -4.320 2.720 18.541
v -2.496 5.100 17.948
v -2.496 2.720 17.948
v -2.456 6.800 19.500
v -2.832 6.800 20.017
v -2.496 5.100 21.052
v -1.368 5.100 19.500
v -3.440 6.800 19.820
v -4.320 5.100 20.459
v -3.440 6.800 19.180
v -4.320 5.100 18.541
v -2.832 6.800 18.983
v -2.496 5.100 17.948
v 15.160 2.520 19.500
v 15.080 2.520 19.639
v 15.110 0.150 19.691
v 15.220 0.150 19.500
v 14.920 2.520 19.639
v 14.890 0.150 19.691
v 14.840 2.520 19.500
v 14.780 0.150 19.500
v 14.920 2.520 19.361
v 14.890 0.150 19.309
v 15.080 2.520 19.361
v 15.110 0.150 19.309
v 16.440 4.500 19.500
v 15.445 4.500 20.870
v 15.445 2.400 20.870
v 16.440 2.400 19.500
v 13.835 4.500 20.346
v 13.835 2.400 20.346
v 13.835 4.500 18.654
v 13.835 2.400 18.654
v 15.445 4.500 18.130
v 15.445 2.400 18.130
v 15.480 6.000 19.500
v 15.148 6.000 19.957
v 15.445 4.500 20.870
v 16.440 4.500 19.500
v 14.612 6.000 19.782
v 13.835 4.500 20.346
v 14.612 6.000 19.218
v 13.835 4.500 18.654
v 15.148 6.000 19.043
v 15.445 4.500 18.130
v 33.160 2.856 19.500
v 33.080 2.856 19.639
v 33.110 0.150 19.691
v 33.220 0.150 19.500
v 32.920 2.856 19.639
v 32.890 0.150 19.691
v 32.840 2.856 19.500
v 32.780 0.150 19.500
v 32.920 2.856 19.361
v 32.890 0.150 19.309
v 33.080 2.856 19.361
v 33.110 0.150 19.309
v 34.632 5.100 19.500
v 33.504 5.100 21.052
v 33.504 2.720 21.052
v 34.632 2.720 19.500
v 31.680 5.100 20.459
v 31.680 2.720 20.459
v 31.680 5.100 18.541
v 31.680 2.720 18.541
v 33.504 5.100 17.948
v 33.504 2.720 17.948
v 33.544 6.800 19.500
v 33.168 6.800 20.017
v 33.504 5.100 21.052
v 34.632 5.100 19.500
v 32.560 6.800 19.820
v 31.680 5.100 20.459
v 32.560 6.800 19.180
v 31.680 5.100 18.541
v 33.168 6.800 18.983
v 33.504 5.100 17.948
v 51.160 2.520 19.500
v 51.080 2.520 19.639
v 51.110 0.150 19.691
v 51.220 0.150 19.500
v 50.920 2.520 19.639
v 50.890 0.150 19.691
v 50.840 2.520 19.500
v 50.780 0.150 19.500
v 50.920 2.520 19.361
v 50.890 0.150 19.309
v 51.080 2.520 19.361
v 51.110 0.150 19.309
v 52.440 4.500 19.500
v 51.445 4.500 20.870
v 51.445 2.400 20.870
v 52.440 2.400 19.500
v 49.835 4.500 20.346
v 49.835 2.400 20.346
v 49.835 4.500 18.654
v 49.835 2.400 18.654
v 51.445 4.500 18.130
v 51.445 2.400 18.130
v 51.480 6.000 19.500
v 51.148 6.000 19.957
v 51.445 4.500 20.870
v 52.440 4.500 19.500
v 50.612 6.000 19.782
v 49.835 4.500 20.346
v 50.612 6.000 19.218
v 49.835 4.500 18.654
v 51.148 6.000 19.043
v 51.445 4.500 18.130
v 69.160 2.856 19.500
v 69.080 2.856 19.639
v 69.110 0.150 19.691
v 69.220 0.150 19.500
v 68.920 2.856 19.639
v 68.890 0.150 19.691
v 68.840 2.856 19.500
v 68.780 0.150 19.500
v 68.920 2.856 19.361
v 68.890 0.150 19.309
v 69.080 2.856 19.361
v 69.110 0.150 19.309
v 70.632 5.100 19.500
v 69.504 5.100 21.052
v 69.504 2.720 21.052
v 70.632 2.720 19.500
v 67.680 5.100 20.459
v 67.680 2.720 20.459
v 67.680 5.100 18.541
v 67.680 2.720 18.541
v 69.504 5.100 17.948
v 69.504 2.720 17.948
v 69.544 6.800 19.500
v 69.168 6.800 20.017
v 69.504 5.100 21.052
v 70.632 5.100 19.500
v 68.560 6.800 19.820
v 67.680 5.100 20.459
v 68.560 6.800 19.180
v 67.680 5.100 18.541
v 69.168 6.800 18.983
v 69.504 5.100 17.948
v 87.160 2.520 19.500
v 87.080 2.520 19.639
v 87.110 0.150 19.691
v 87.220 0.150 19.500
v 86.920 2.520 19.639
v 86.890 0.150 19.691
v 86.840 2.520 19.500
v 86.780 0.150 19.500
v 86.920 2.520 19.361
v 86.890 0.150 19.309
v 87.080 2.520 19.361
v 87.110 0.150 19.309
v 88.440 4.500 19.500
v 87.445 4.500 20.870
v 87.445 2.400 20.870
v 88.440 2.400 19.500
v 85.835 4.500 20.346
v 85.835 2.400 20.346
v 85.835 4.500 18.654
v 85.835 2.400 18.654
v 87.445 4.500 18.130
v 87.445 2.400 18.130
v 87.480 6.000 19.500
v 87.148 6.000 19.957
v 87.445 4.500 20.870
v 88.440 4.500 19.500
v 86.612 6.000 19.782
v 85.835 4.500 20.346
v 86.612 6.000 19.218
v 85.835 4.500 18.654
v 87.148 6.000 19.043
v 87.445 4.500 18.130

f 1 2 3 4
f 2 5 6 3
f 5 7 8 6
f 7 9 10 8
f 9 11 12 10
f 11 1 4 12
f 5 2 1
f 7 5 1
f 9 7 1
f 11 9 1
f 3 6 4
f 6 8 4
f 8 10 4
f 10 12 4
f 13 14 15 16
f 14 17 18 15
f 17 19 20 18
f 19 21 22 20
f 21 13 16 22
f 17 14 13
f 19 17 13
f 21 19 13
f 15 18 16
f 18 20 16
f 20 22 16
f 23 24 25 26
f 24 27 28 25
f 27 29 30 28
f 29 31 32 30
f 31 23 26 32
f 27 24 23
f 29 27 23
f 31 29 23
f 25 28 26
f 28 30 26
f 30 32 26
f 33 34 35 36
f 34 37 38 35
f 37 39 40 38
f 39 41 42 40
f 41 43 44 42
f 43 33 36 44
f 37 34 33
f 39 37 33
f 41 39 33
f 43 41 33
f 35 38 36
f 38 40 36
f 40 42 36
f 42 44 36
f 45 46 47 48
f 46 49 50 47
f 49 51 52 50
f 51 53 54 52
f 53 45 48 54
f 49 46 45
f 51 49 45
f 53 51 45
f 47 50 48
f 50 52 48
f 52 54 48
f 55 56 57 58
f 56 59 60 57
f 59 61 62 60
f 61 63 64 62
f 63 55 58 64
f 59 56 55
f 61 59 55
f 63 61 55
f 57 60 58
f 60 62 58
f 62 64 58
f 65 66 67 68
f 66 69 70 67
f 69 71 72 70
f 71 73 74 72
f 73 75 76 74
f 75 65 68 76
f 69 66 65
f 71 69 65
f 73 71 65
f 75 73 65
f 67 70 68
f 70 72 68
f 72 74 68
f 74 76 68
f 77 78 79 80
f 78 81 82 79
f 81 83 84 82
f 83 85 86 84
f 85 77 80 86
f 81 78 77
f 83 81 77
f 85 83 77
f 79 82 80
f 82 84 80
f 84 86 80
f 87 88 89 90
f 88 91 92 89
f 91 93 94 92
f 93 95 96 94
f 95 87 90 96
f 91 88 87
f 93 91 87
f 95 93 87
f 89 92 90
f 92 94 90
f 94 96 90
f 97 98 99 100
f 98 101 102 99
f 101 103 104 102
f 103 105 106 104
f 105 107 108 106
f 107 97 100 108
f 101 98 97
f 103 101 97
f 105 103 97
f 107 105 97
f 99 102 100
f 102 104 100
f 104 106 100
f 106 108 100
f 109 110 111 112
f 110 113 114 111
f 113 115 116 114
f 115 117 118 116
f 117 109 112 118
f 113 110 109
f 115 113 109
f 117 115 109
f 111 114 112
f 114 116 112
f 116 118 112
f 119 120 121 122
f 120 123 124 121
f 123 125 126 124
f 125 127 128 126
f 127 119 122 128
f 123 120 119
f 125 123 119
f 127 125 119
f 121 124 122
f 124 126 122
f 126 128 122
f 129 130 131 132
f 130 133 134 131
f 133 135 136 134
f 135 137 138 136
f 137 139 140 138
f 139 129 132 140
f 133 130 129
f 135 133 129
f 137 135 129
f 139 137 129
f 131 134 132
f 134 136 132
f 136 138 132
f 138 140 132
f 141 142 143 144
f 142 145 146 143
f 145 147 148 146
f 147 149 150 148
f 149 141 144 150
f 145 142 141
f 147 145 141
f 149 147 141
f 143 146 144
f 146 148 144
f 148 150 144
f 151 152 153 154
f 152 155 156 153
f 155 157 158 156
f 157 159 160 158
f 159 151 154 160
f 155 152 151
f 157 155 151
f 159 157 151
f 153 156 154
f 156 158 154
f 158 160 154
f 161 162 163 164
f 162 165 166 163
f 165 167 168 166
f 167 169 170 168
f 169 171 172 170
f 171 161 164 172
f 165 162 161
f 167 165 161
f 169 167 161
f 171 169 161
f 163 166 164
f 166 168 164
f 168 170 164
f 170 172 164
f 173 174 175 176
f 174 177 178 175
f 177 179 180 178
f 179 181 182 180
f 181 173 176 182
f 177 174 173
f 179 177 173
f 181 179 173
f 175 178 176
f 178 180 176
f 180 182 176
f 183 184 185 186
f 184 187 188 185
f 187 189 190 188
f 189 191 192 190
f 191 183 186 192
f 187 184 183
f 189 187 183
f 191 189 183
f 185 188 186
f 188 190 186
f 190 192 186
f 193 194 195 196
f 194 197 198 195
f 197 199 200 198
f 199 201 202 200
f 201 203 204 202
f 203 193 196 204
f 197 194 193
f 199 197 193
f 201 199 193
f 203 201 193
f 195 198 196
f 198 200 196
f 200 202 196
f 202 204 196
f 205 206 207 208
f 206 209 210 207
f 209 211 212 210
f 211 213 214 212
f 213 205 208 214
f 209 206 205
f 211 209 205
f 213 211 205
f 207 210 208
f 210 212 208
f 212 214 208
f 215 216 217 218
f 216 219 220 217
f 219 221 222 220
f 221 223 224 222
f 223 215 218 224
f 219 216 215
f 221 219 215
f 223 221 215
f 217 220 218
f 220 222 218
f 222 224 218
f 225 226 227 228
f 226 229 230 227
f 229 231 232 230
f 231 233 234 232
f 233 235 236 234
f 235 225 228 236
f 229 226 225
f 231 229 225
f 233 231 225
f 235 233 225
f 227 230 228
f 230 232 228
f 232 234 228
f 234 236 228
f 237 238 239 240
f 238 241 242 239
f 241 243 244 242
f 243 245 246 244
f 245 237 240 246
f 241 238 237
f 243 241 237
f 245 243 237
f 239 242 240
f 242 244 240
f 244 246 240
f 247 248 249 250
f 248 251 252 249
f 251 253 254 252
f 253 255 256 254
f 255 247 250 256
f 251 248 247
f 253 251 247
f 255 253 247
f 249 252 250
f 252 254 250
f 254 256 250
f 257 258 259 260
f 258 261 262 259
f 261 263 264 262
f 263 265 266 264
f 265 267 268 266
f 267 257 260 268
f 261 258 257
f 263 261 257
f 265 263 257
f 267 265 257
f 259 262 260
f 262 264 260
f 264 266 260
f 266 268 260
f 269 270 271 272
f 270 273 274 271
f 273 275 276 274
f 275 277 278 276
f 277 269 272 278
f 273 270 269
f 275 273 269
f 277 275 269
f 271 274 272
f 274 276 272
f 276 278 272
f 279 280 281 282
f 280 283 284 281
f 283 285 286 284
f 285 287 288 286
f 287 279 282 288
f 283 280 279
f 285 283 279
f 287 285 279
f 281 284 282
f 284 286 282
f 286 288 282
f 289 290 291 292
f 290 293 294 291
f 293 295 296 294
f 295 297 298 296
f 297 299 300 298
f 299 289 292 300
f 293 290 289
f 295 293 289
f 297 295 289
f 299 297 289
f 291 294 292
f 294 296 292
f 296 298 292
f 298 300 292
f 301 302 303 304
f 302 305 306 303
f 305 307 308 306
f 307 309 310 308
f 309 301 304 310
f 305 302 301
f 307 305 301
f 309 307 301
f 303 306 304
f 306 308 304
f 308 310 304
f 311 312 313 314
f 312 315 316 313
f 315 317 318 316
f 317 319 320 318
f 319 311 314 320
f 315 312 311
f 317 315 311
f 319 317 311
f 313 316 314
f 316 318 314
f 318 320 314
f 321 322 323 324
f 322 325 326 323
f 325 327 328 326
f 327 329 330 328
f 329 331 332 330
f 331 321 324 332
f 325 322 321
f 327 325 321
f 329 327 321
f 331 329 321
f 323 326 324
f 326 328 324
f 328 330 324
f 330 332 324
f 333 334 335 336
f 334 337 338 335
f 337 339 340 338
f 339 341 342 340
f 341 333 336 342
f 337 334 333
f 339 337 333
f 341 339 333
f 335 338 336
f 338 340 336
f 340 342 336
f 343 344 345 346
f 344 347 348 345
f 347 349 350 348
f 349 351 352 350
f 351 343 346 352
f 347 344 343
f 349 347 343
f 351 349 343
f 345 348 346
f 348 350 346
f 350 352 346
f 353 354 355 356
f 354 357 358 355
f 357 359 360 358
f 359 361 362 360
f 361 363 364 362
f 363 353 356 364
f 357 354 353
f 359 357 353
f 361 359 353
f 363 361 353
f 355 358 356
f 358 360 356
f 360 362 356
f 362 364 356
f 365 366 367 368
f 366 369 370 367
f 369 371 372 370
f 371 373 374 372
f 373 365 368 374
f 369 366 365
f 371 369 365
f 373 371 365
f 367 370 368
f 370 372 368
f 372 374 368
f 375 376 377 378
f 376 379 380 377
f 379 381 382 380
f 381 383 384 382
f 383 375 378 384
f 379 376 375
f 381 379 375
f 383 381 375
f 377 380 378
f 380 382 378
f 382 384 378
f 385 386 387 388
f 386 389 390 387
f 389 391 392 390
f 391 393 394 392
f 393 395 396 394
f 395 385 388 396
f 389 386 385
f 391 389 385
f 393 391 385
f 395 393 385
f 387 390 388
f 390 392 388
f 392 394 388
f 394 396 388
f 397 398 399 400
f 398 401 402 399
f 401 403 404 402
f 403 405 406 404
f 405 397 400 406
f 401 398 397
f 403 401 397
f 405 403 397
f 399 402 400
f 402 404 400
f 404 406 400
f 407 408 409 410
f 408 411 412 409
f 411 413 414 412
f 413 415 416 414
f 415 407 410 416
f 411 408 407
f 413 411 407
f 415 413 407
f 409 412 410
f 412 414 410
f 414 416 410
f 417 418 419 420
f 418 421 422 419
f 421 423 424 422
f 423 425 426 424
f 425 427 428 426
f 427 417 420 428
f 421 418 417
f 423 421 417
f 425 423 417
f 427 425 417
f 419 422 420
f 422 424 420
f 424 426 420
f 426 428 420
f 429 430 431 432
f 430 433 434 431
f 433 435 436 434
f 435 437 438 436
f 437 429 432 438
f 433 430 429
f 435 433 429
f 437 435 429
f 431 434 432
f 434 436 432
f 436 438 432
f 439 440 441 442
f 440 443 444 441
f 443 445 446 444
f 445 447 448 446
f 447 439 442 448
f 443 440 439
f 445 443 439
f 447 445 439
f 441 444 442
f 444 446 442
f 446 448 442
f 449 450 451 452
f 450 453 454 451
f 453 455 456 454
f 455 457 458 456
f 457 459 460 458
f 459 449 452 460
f 453 450 449
f 455 453 449
f 457 455 449
f 459 457 449
f 451 454 452
f 454 456 452
f 456 458 452
f 458 460 452
f 461 462 463 464
f 462 465 466 463
f 465 467 468 466
f 467 469 470 468
f 469 461 464 470
f 465 462 461
f 467 465 461
f 469 467 461
f 463 466 464
f 466 468 464
f 468 470 464
f 471 472 473 474
f 472 475 476 473
f 475 477 478 476
f 477 479 480 478
f 479 471 474 480
f 475 472 471
f 477 475 471
f 479 477 471
f 473 476 474
f 476 478 474
f 478 480 474
f 481 482 483 484
f 482 485 486 483
f 485 487 488 486
f 487 489 490 488
f 489 491 492 490
f 491 481 484 492
f 485 482 481
f 487 485 481
f 489 487 481
f 491 489 481
f 483 486 484
f 486 488 484
f 488 490 484
f 490 492 484
f 493 494 495 496
f 494 497 498 495
f 497 499 500 498
f 499 501 502 500
f 501 493 496 502
f 497 494 493
f 499 497 493
f 501 499 493
f 495 498 496
f 498 500 496
f 500 502 496
f 503 504 505 506
f 504 507 508 505
f 507 509 510 508
f 509 511 512 510
f 511 503 506 512
f 507 504 503
f 509 507 503
f 511 509 503
f 505 508 506
f 508 510 506
f 510 512 506
f 513 514 515 516
f 514 517 518 515
f 517 519 520 518
f 519 521 522 520
f 521 523 524 522
f 523 513 516 524
f 517 514 513
f 519 517 513
f 521 519 513
f 523 521 513
f 515 518 516
f 518 520 516
f 520 522 516
f 522 524 516
f 525 526 527 528
f 526 529 530 527
f 529 531 532 530
f 531 533 534 532
f 533 525 528 534
f 529 526 525
f 531 529 525
f 533 531 525
f 527 530 528
f 530 532 528
f 532 534 528
f 535 536 537 538
f 536 539 540 537
f 539 541 542 540
f 541 543 544 542
f 543 535 538 544
f 539 536 535
f 541 539 535
f 543 541 535
f 537 540 538
f 540 542 538
f 542 544 538
f 545 546 547 548
f 546 549 550 547
f 549 551 552 550
f 551 553 554 552
f 553 555 556 554
f 555 545 548 556
f 549 546 545
f 551 549 545
f 553 551 545
f 555 553 545
f 547 550 548
f 550 552 548
f 552 554 548
f 554 556 548
f 557 558 559 560
f 558 561 562 559
f 561 563 564 562
f 563 565 566 564
f 565 557 560 566
f 561 558 557
f 563 561 557
f 565 563 557
f 559 562 560
f 562 564 560
f 564 566 560
f 567 568 569 570
f 568 571 572 569
f 571 573 574 572
f 573 575 576 574
f 575 567 570 576
f 571 568 567
f 573 571 567
f 575 573 567
f 569 572 570
f 572 574 570
f 574 576 570
f 577 578 579 580
f 578 581 582 579
f 581 583 584 582
f 583 585 586 584
f 585 587 588 586
f 587 577 580 588
f 581 578 577
f 583 581 577
f 585 583 577
f 587 585 577
f 579 582 580
f 582 584 580
f 584 586 580
f 586 588 580
f 589 590 591 592
f 590 593 594 591
f 593 595 596 594
f 595 597 598 596
f 597 589 592 598
f 593 590 589
f 595 593 589
f 597 595 589
f 591 594 592
f 594 596 592
f 596 598 592
f 599 600 601 602
f 600 603 604 601
f 603 605 606 604
f 605 607 608 606
f 607 599 602 608
f 603 600 599
f 605 603 599
f 607 605 599
f 601 604 602
f 604 606 602
f 606 608 602
f 609 610 611 612
f 610 613 614 611
f 613 615 616 614
f 615 617 618 616
f 617 619 620 618
f 619 609 612 620
f 613 610 609
f 615 613 609
f 617 615 609
f 619 617 609
f 611 614 612
f 614 616 612
f 616 618 612
f 618 620 612
f 621 622 623 624
f 622 625 626 623
f 625 627 628 626
f 627 629 630 628
f 629 621 624 630
f 625 622 621
f 627 625 621
f 629 627 621
f 623 626 624
f 626 628 624
f 628 630 624
f 631 632 633 634
f 632 635 636 633
f 635 637 638 636
f 637 639 640 638
f 639 631 634 640
f 635 632 631
f 637 635 631
f 639 637 631
f 633 636 634
f 636 638 634
f 638 640 634
f 641 642 643 644
f 642 645 646 643
f 645 647 648 646
f 647 649 650 648
f 649 651 652 650
f 651 641 644 652
f 645 642 641
f 647 645 641
f 649 647 641
f 651 649 641
f 643 646 644
f 646 648 644
f 648 650 644
f 650 652 644
f 653 654 655 656
f 654 657 658 655
f 657 659 660 658
f 659 661 662 660
f 661 653 656 662
f 657 654 653
f 659 657 653
f 661 659 653
f 655 658 656
f 658 660 656
f 660 662 656
f 663 664 665 666
f 664 667 668 665
f 667 669 670 668
f 669 671 672 670
f 671 663 666 672
f 667 664 663
f 669 667 663
f 671 669 663
f 665 668 666
f 668 670 666
f 670 672 666
f 673 674 675 676
f 674 677 678 675
f 677 679 680 678
f 679 681 682 680
f 681 683 684 682
f 683 673 676 684
f 677 674 673
f 679 677 673
f 681 679 673
f 683 681 673
f 675 678 676
f 678 680 676
f 680 682 676
f 682 684 676
f 685 686 687 688
f 686 689 690 687
f 689 691 692 690
f 691 693 694 692
f 693 685 688 694
f 689 686 685
f 691 689 685
f 693 691 685
f 687 690 688
f 690 692 688
f 692 694 688
f 695 696 697 698
f 696 699 700 697
f 699 701 702 700
f 701 703 704 702
f 703 695 698 704
f 699 696 695
f 701 699 695
f 703 701 695
f 697 700 698
f 700 702 698
f 702 704 698
f 705 706 707 708
f 706 709 710 707
f 709 711 712 710
f 711 713 714 712
f 713 715 716 714
f 715 705 708 716
f 709 706 705
f 711 709 705
f 713 711 705
f 715 713 705
f 707 710 708
f 710 712 708
f 712 714 708
f 714 716 708
f 717 718 719 720
f 718 721 722 719
f 721 723 724 722
f 723 725 726 724
f 725 717 720 726
f 721 718 717
f 723 721 717
f 725 723 717
f 719 722 720
f 722 724 720
f 724 726 720
f 727 728 729 730
f 728 731 732 729
f 731 733 734 732
f 733 735 736 734
f 735 727 730 736
f 731 728 727
f 733 731 727
f 735 733 727
f 729 732 730
f 732 734 730
f 734 736 730
f 737 738 739 740
f 738 741 742 739
f 741 743 744 742
f 743 745 746 744
f 745 747 748 746
f 747 737 740 748
f 741 738 737
f 743 741 737
f 745 743 737
f 747 745 737
f 739 742 740
f 742 744 740
f 744 746 740
f 746 748 740
f 749 750 751 752
f 750 753 754 751
f 753 755 756 754
f 755 757 758 756
f 757 749 752 758
f 753 750 749
f 755 753 749
f 757 755 749
f 751 754 752
f 754 756 752
f 756 758 752
f 759 760 761 762
f 760 763 764 761
f 763 765 766 764
f 765 767 768 766
f 767 759 762 768
f 763 760 759
f 765 763 759
f 767 765 759
f 761 764 762
f 764 766 762
f 766 768 762
f 769 770 771 772
f 770 773 774 771
f 773 775 776 774
f 775 777 778 776
f 777 779 780 778
f 779 769 772 780
f 773 770 769
f 775 773 769
f 777 775 769
f 779 777 769
f 771 774 772
f 774 776 772
f 776 778 772
f 778 780 772
f 781 782 783 784
f 782 785 786 783
f 785 787 788 786
f 787 789 790 788
f 789 781 784 790
f 785 782 781
f 787 785 781
f 789 787 781
f 783 786 784
f 786 788 784
f 788 790 784
f 791 792 793 794
f 792 795 796 793
f 795 797 798 796
f 797 799 800 798
f 799 791 794 800
f 795 792 791
f 797 795 791
f 799 797 791
f 793 796 794
f 796 798 794
f 798 800 794
f 801 802 803 804
f 802 805 806 803
f 805 807 808 806
f 807 809 810 808
f 809 811 812 810
f 811 801 804 812
f 805 802 801
f 807 805 801
f 809 807 801
f 811 809 801
f 803 806 804
f 806 808 804
f 808 810 804
f 810 812 804
f 813 814 815 816
f 814 817 818 815
f 817 819 820 818
f 819 821 822 820
f 821 813 816 822
f 817 814 813
f 819 817 813
f 821 819 813
f 815 818 816
f 818 820 816
f 820 822 816
f 823 824 825 826
f 824 827 828 825
f 827 829 830 828
f 829 831 832 830
f 831 823 826 832
f 827 824 823
f 829 827 823
f 831 829 823
f 825 828 826
f 828 830 826
f 830 832 826
